<?xml version="1.0" encoding="utf-8"?>
<!-- Generator: Adobe Illustrator 15.0.0, SVG Export Plug-In  -->
<!DOCTYPE svg PUBLIC "-//W3C//DTD SVG 1.1//EN" "http://www.w3.org/Graphics/SVG/1.1/DTD/svg11.dtd" [
	<!ENTITY ns_flows "http://ns.adobe.com/Flows/1.0/">
]>
<svg version="1.1"
	 xmlns="http://www.w3.org/2000/svg" xmlns:xlink="http://www.w3.org/1999/xlink" xmlns:a="http://ns.adobe.com/AdobeSVGViewerExtensions/3.0/"
	 x="0px" y="0px" width="595px" height="96px" viewBox="0.5 0 595 96" overflow="visible" enable-background="new 0.5 0 595 96"
	 xml:space="preserve">
<defs>
</defs>
<polygon fill="#A4A4A4" points="467.5,77.3 467.5,95.7 425,85.6 425,67.2 "/>
<linearGradient id="SVGID_1_" gradientUnits="userSpaceOnUse" x1="382.5" y1="81.4609" x2="425.002" y2="81.4609">
	<stop  offset="0" style="stop-color:#B8B8B8;stop-opacity:0.5"/>
	<stop  offset="1" style="stop-color:#EDEDED;stop-opacity:0.2"/>
</linearGradient>
<polygon fill="url(#SVGID_1_)" points="382.5,77.3 382.5,95.7 425,85.6 425,67.2 "/>
<linearGradient id="SVGID_2_" gradientUnits="userSpaceOnUse" x1="297.502" y1="81.4609" x2="340.002" y2="81.4609">
	<stop  offset="0" style="stop-color:#B8B8B8;stop-opacity:0.5"/>
	<stop  offset="1" style="stop-color:#EDEDED;stop-opacity:0.8"/>
</linearGradient>
<polygon fill="url(#SVGID_2_)" points="297.5,77.3 297.5,95.7 340,85.6 340,67.2 "/>
<polygon fill="#626262" points="297.5,77.3 297.5,95.7 255,85.6 255,67.2 "/>
<linearGradient id="SVGID_3_" gradientUnits="userSpaceOnUse" x1="212.5" y1="81.4609" x2="255.002" y2="81.4609">
	<stop  offset="0" style="stop-color:#B8B8B8;stop-opacity:0.5"/>
	<stop  offset="1" style="stop-color:#EDEDED;stop-opacity:0.8"/>
</linearGradient>
<polygon fill="url(#SVGID_3_)" points="212.5,77.3 212.5,95.7 255,85.6 255,67.2 "/>
<linearGradient id="SVGID_4_" gradientUnits="userSpaceOnUse" x1="170" y1="81.4609" x2="212.5" y2="81.4609">
	<stop  offset="0" style="stop-color:#E1E1E1"/>
	<stop  offset="1" style="stop-color:#C6C6C6;stop-opacity:0.6"/>
</linearGradient>
<polygon fill="url(#SVGID_4_)" points="212.5,77.3 212.5,95.7 170,85.6 170,67.2 "/>
<linearGradient id="SVGID_5_" gradientUnits="userSpaceOnUse" x1="85" y1="81.4609" x2="127.5" y2="81.4609">
	<stop  offset="0" style="stop-color:#969696"/>
	<stop  offset="1" style="stop-color:#E8E8E8"/>
</linearGradient>
<polygon fill="url(#SVGID_5_)" points="127.5,77.3 127.5,95.7 85,85.6 85,67.2 "/>
<polygon fill="#7F7F7F" points="382.5,57.2 425,67.4 382.5,77.5 340,67.4 "/>
<linearGradient id="SVGID_6_" gradientUnits="userSpaceOnUse" x1="382.502" y1="53.0977" x2="425" y2="53.0977">
	<stop  offset="0" style="stop-color:#969696"/>
	<stop  offset="1" style="stop-color:#E8E8E8"/>
</linearGradient>
<polygon fill="url(#SVGID_6_)" points="425,49 425,67.4 382.5,57.2 382.5,38.8 "/>
<linearGradient id="SVGID_7_" gradientUnits="userSpaceOnUse" x1="340" y1="53.0977" x2="382.502" y2="53.0977">
	<stop  offset="0" style="stop-color:#B8B8B8;stop-opacity:0.5"/>
	<stop  offset="1" style="stop-color:#EDEDED;stop-opacity:0.8"/>
</linearGradient>
<polygon fill="url(#SVGID_7_)" points="340,49 340,67.4 382.5,57.2 382.5,38.8 "/>
<polygon fill="#A4A4A4" points="340,49 340,67.4 297.5,57.2 297.5,38.8 "/>
<linearGradient id="SVGID_8_" gradientUnits="userSpaceOnUse" x1="255.002" y1="53.0977" x2="297.502" y2="53.0977">
	<stop  offset="0" style="stop-color:#CBCBCB;stop-opacity:0.2"/>
	<stop  offset="1" style="stop-color:#E6E6E6;stop-opacity:0.4"/>
</linearGradient>
<polygon fill="url(#SVGID_8_)" points="255,49 255,67.4 297.5,57.2 297.5,38.8 "/>
<linearGradient id="SVGID_9_" gradientUnits="userSpaceOnUse" x1="170.002" y1="67.3604" x2="255" y2="67.3604">
	<stop  offset="0" style="stop-color:#969696"/>
	<stop  offset="1" style="stop-color:#E8E8E8"/>
</linearGradient>
<polygon fill="url(#SVGID_9_)" points="212.5,57.2 255,67.4 212.5,77.5 170,67.4 "/>
<polygon fill="#7F7F7F" points="255,49 255,67.4 212.5,57.2 212.5,38.8 "/>
<linearGradient id="SVGID_10_" gradientUnits="userSpaceOnUse" x1="85" y1="67.3604" x2="170.002" y2="67.3604">
	<stop  offset="0" style="stop-color:#EBEBEB"/>
	<stop  offset="1" style="stop-color:#CACACA"/>
</linearGradient>
<polygon fill="url(#SVGID_10_)" points="127.5,57.2 170,67.4 127.5,77.5 85,67.4 "/>
<polygon fill="#E9E9E9" points="170,49 170,67.4 127.5,57.2 127.5,38.8 "/>
<linearGradient id="SVGID_11_" gradientUnits="userSpaceOnUse" x1="85" y1="53.0977" x2="127.5" y2="53.0977">
	<stop  offset="0" style="stop-color:#969696;stop-opacity:0.2"/>
	<stop  offset="1" style="stop-color:#E8E8E8;stop-opacity:0"/>
</linearGradient>
<polygon fill="url(#SVGID_11_)" points="85,49 85,67.4 127.5,57.2 127.5,38.8 "/>
<linearGradient id="SVGID_12_" gradientUnits="userSpaceOnUse" x1="42.5" y1="53.0977" x2="85" y2="53.0977">
	<stop  offset="0" style="stop-color:#CBCBCB"/>
	<stop  offset="1" style="stop-color:#E6E6E6;stop-opacity:0.8"/>
</linearGradient>
<polygon fill="url(#SVGID_12_)" points="85,49 85,67.4 42.5,57.2 42.5,38.8 "/>
<linearGradient id="SVGID_13_" gradientUnits="userSpaceOnUse" x1="382.502" y1="38.8335" x2="467.5" y2="38.8335">
	<stop  offset="0" style="stop-color:#E1E1E1"/>
	<stop  offset="1" style="stop-color:#C6C6C6;stop-opacity:0.6"/>
</linearGradient>
<polygon fill="url(#SVGID_13_)" points="425,28.7 467.5,38.8 425,49 382.5,38.8 "/>
<linearGradient id="SVGID_14_" gradientUnits="userSpaceOnUse" x1="297.502" y1="38.8335" x2="382.502" y2="38.8335">
	<stop  offset="0" style="stop-color:#E1E1E1"/>
	<stop  offset="1" style="stop-color:#C6C6C6;stop-opacity:0.6"/>
</linearGradient>
<polygon fill="url(#SVGID_14_)" points="340,28.7 382.5,38.8 340,49 297.5,38.8 "/>
<linearGradient id="SVGID_15_" gradientUnits="userSpaceOnUse" x1="212.502" y1="38.8335" x2="297.5" y2="38.8335">
	<stop  offset="0" style="stop-color:#969696"/>
	<stop  offset="1" style="stop-color:#E8E8E8"/>
</linearGradient>
<polygon fill="url(#SVGID_15_)" points="255,28.7 297.5,38.8 255,49 212.5,38.8 "/>
<polygon fill="#E9E9E9" points="170,28.7 212.5,38.8 170,49 127.5,38.8 "/>
<polygon fill="#E8E8E8" points="85,28.7 127.5,38.8 85,49 42.5,38.8 "/>
<linearGradient id="SVGID_16_" gradientUnits="userSpaceOnUse" x1="425.002" y1="24.4131" x2="467.5" y2="24.4131">
	<stop  offset="0" style="stop-color:#FFFFFF"/>
	<stop  offset="1" style="stop-color:#E1E1E1"/>
</linearGradient>
<polygon fill="url(#SVGID_16_)" points="467.5,20.3 467.5,38.7 425,28.5 425,10.1 "/>
<linearGradient id="SVGID_17_" gradientUnits="userSpaceOnUse" x1="382.5" y1="24.4131" x2="425.002" y2="24.4131">
	<stop  offset="0" style="stop-color:#E1E1E1"/>
	<stop  offset="1" style="stop-color:#C6C6C6;stop-opacity:0.6"/>
</linearGradient>
<polygon fill="url(#SVGID_17_)" points="382.5,20.3 382.5,38.7 425,28.5 425,10.1 "/>
<linearGradient id="SVGID_18_" gradientUnits="userSpaceOnUse" x1="340.002" y1="24.4131" x2="382.5" y2="24.4131">
	<stop  offset="0" style="stop-color:#FFFFFF"/>
	<stop  offset="1" style="stop-color:#E1E1E1"/>
</linearGradient>
<polygon fill="url(#SVGID_18_)" points="382.5,20.3 382.5,38.7 340,28.5 340,10.1 "/>
<polygon fill="#C4C4C4" points="297.5,20.3 297.5,38.7 340,28.5 340,10.1 "/>
<polygon fill="#E9E9E9" points="297.5,20.3 297.5,38.7 255,28.5 255,10.1 "/>
<linearGradient id="SVGID_19_" gradientUnits="userSpaceOnUse" x1="212.5" y1="24.4131" x2="255.002" y2="24.4131">
	<stop  offset="0" style="stop-color:#FFFFFF"/>
	<stop  offset="1" style="stop-color:#E1E1E1"/>
</linearGradient>
<polygon fill="url(#SVGID_19_)" points="212.5,20.3 212.5,38.7 255,28.5 255,10.1 "/>
<polygon fill="#C5C5C5" points="212.5,20.3 212.5,38.7 170,28.5 170,10.1 "/>
<polygon fill="#CFCFCF" points="127.5,20.3 127.5,38.7 170,28.5 170,10.1 "/>
<linearGradient id="SVGID_20_" gradientUnits="userSpaceOnUse" x1="85" y1="24.4131" x2="127.5" y2="24.4131">
	<stop  offset="0" style="stop-color:#EBEBEB"/>
	<stop  offset="1" style="stop-color:#CACACA"/>
</linearGradient>
<polygon fill="url(#SVGID_20_)" points="127.5,20.3 127.5,38.7 85,28.5 85,10.1 "/>
<linearGradient id="SVGID_21_" gradientUnits="userSpaceOnUse" x1="1" y1="24.4131" x2="43.5" y2="24.4131">
	<stop  offset="0" style="stop-color:#EBEBEB"/>
	<stop  offset="1" style="stop-color:#CACACA"/>
</linearGradient>
<polygon fill="url(#SVGID_21_)" points="43.5,20.3 43.5,38.7 1,28.5 1,10.1 "/>
<polygon fill="#E9E9E9" points="42.5,20.3 42.5,38.7 85,28.5 85,10.1 "/>
<linearGradient id="SVGID_22_" gradientUnits="userSpaceOnUse" x1="340.002" y1="10.1489" x2="425" y2="10.1489">
	<stop  offset="0" style="stop-color:#F9F9F9"/>
	<stop  offset="1" style="stop-color:#E1E1E1"/>
</linearGradient>
<polygon fill="url(#SVGID_22_)" points="382.5,0 425,10.1 382.5,20.3 340,10.1 "/>
<linearGradient id="SVGID_23_" gradientUnits="userSpaceOnUse" x1="255.002" y1="10.1489" x2="340.002" y2="10.1489">
	<stop  offset="0" style="stop-color:#FFFFFF"/>
	<stop  offset="1" style="stop-color:#E1E1E1"/>
</linearGradient>
<polygon fill="url(#SVGID_23_)" points="297.5,0 340,10.1 297.5,20.3 255,10.1 "/>
<linearGradient id="SVGID_24_" gradientUnits="userSpaceOnUse" x1="170.002" y1="10.1489" x2="255" y2="10.1489">
	<stop  offset="0" style="stop-color:#FCFCFC"/>
	<stop  offset="1" style="stop-color:#F3F3F3"/>
</linearGradient>
<polygon fill="url(#SVGID_24_)" points="212.5,0 255,10.1 212.5,20.3 170,10.1 "/>
<linearGradient id="SVGID_25_" gradientUnits="userSpaceOnUse" x1="85" y1="10.1489" x2="170.002" y2="10.1489">
	<stop  offset="0" style="stop-color:#FFFFFF"/>
	<stop  offset="1" style="stop-color:#E1E1E1"/>
</linearGradient>
<polygon fill="url(#SVGID_25_)" points="127.5,0 170,10.1 127.5,20.3 85,10.1 "/>
<linearGradient id="SVGID_26_" gradientUnits="userSpaceOnUse" x1="0" y1="10.1489" x2="85" y2="10.1489">
	<stop  offset="0" style="stop-color:#F9F9F9"/>
	<stop  offset="1" style="stop-color:#E1E1E1"/>
</linearGradient>
<polygon fill="url(#SVGID_26_)" points="42.5,0 85,10.1 42.5,20.3 0,10.1 "/>
<polygon fill="#626262" points="467.5,77.3 467.5,95.7 510,85.6 510,67.2 "/>
<linearGradient id="SVGID_27_" gradientUnits="userSpaceOnUse" x1="510.002" y1="53.0977" x2="552.502" y2="53.0977">
	<stop  offset="0" style="stop-color:#B8B8B8;stop-opacity:0.5"/>
	<stop  offset="1" style="stop-color:#EDEDED;stop-opacity:0.8"/>
</linearGradient>
<polygon fill="url(#SVGID_27_)" points="510,49 510,67.4 552.5,57.2 552.5,38.8 "/>
<linearGradient id="SVGID_28_" gradientUnits="userSpaceOnUse" x1="425.002" y1="67.3604" x2="510.002" y2="67.3604">
	<stop  offset="0" style="stop-color:#B8B8B8;stop-opacity:0.5"/>
	<stop  offset="1" style="stop-color:#EDEDED;stop-opacity:0.2"/>
</linearGradient>
<polygon fill="url(#SVGID_28_)" points="467.5,57.2 510,67.4 467.5,77.5 425,67.4 "/>
<polygon fill="#7F7F7F" points="425,49 425,67.4 467.5,57.2 467.5,38.8 "/>
<linearGradient id="SVGID_29_" gradientUnits="userSpaceOnUse" x1="467.502" y1="38.8335" x2="552.502" y2="38.8335">
	<stop  offset="0" style="stop-color:#CBCBCB;stop-opacity:0.8"/>
	<stop  offset="1" style="stop-color:#E6E6E6;stop-opacity:0.6"/>
</linearGradient>
<polygon fill="url(#SVGID_29_)" points="510,28.7 552.5,38.8 510,49 467.5,38.8 "/>
<linearGradient id="SVGID_30_" gradientUnits="userSpaceOnUse" x1="510.002" y1="24.4131" x2="552.502" y2="24.4131">
	<stop  offset="0" style="stop-color:#E1E1E1"/>
	<stop  offset="1" style="stop-color:#C6C6C6;stop-opacity:0.6"/>
</linearGradient>
<polygon fill="url(#SVGID_30_)" points="552.5,20.3 552.5,38.7 510,28.5 510,10.1 "/>
<linearGradient id="SVGID_31_" gradientUnits="userSpaceOnUse" x1="467.502" y1="24.4131" x2="510.002" y2="24.4131">
	<stop  offset="0" style="stop-color:#B8B8B8;stop-opacity:0.5"/>
	<stop  offset="1" style="stop-color:#EDEDED;stop-opacity:0.8"/>
</linearGradient>
<polygon fill="url(#SVGID_31_)" points="467.5,20.3 467.5,38.7 510,28.5 510,10.1 "/>
<linearGradient id="SVGID_32_" gradientUnits="userSpaceOnUse" x1="510.002" y1="10.1489" x2="595.002" y2="10.1489">
	<stop  offset="0" style="stop-color:#F9F9F9"/>
	<stop  offset="1" style="stop-color:#E1E1E1"/>
</linearGradient>
<polygon fill="url(#SVGID_32_)" points="552.5,0 595,10.1 552.5,20.3 510,10.1 "/>
<linearGradient id="SVGID_33_" gradientUnits="userSpaceOnUse" x1="425.002" y1="10.1489" x2="510.002" y2="10.1489">
	<stop  offset="0" style="stop-color:#F8F8F8"/>
	<stop  offset="1" style="stop-color:#F7F7F7"/>
</linearGradient>
<polygon fill="url(#SVGID_33_)" points="467.5,0 510,10.1 467.5,20.3 425,10.1 "/>
</svg>
