<?xml version="1.0" encoding="utf-8"?>
<!-- Generator: Adobe Illustrator 15.0.0, SVG Export Plug-In  -->
<!DOCTYPE svg PUBLIC "-//W3C//DTD SVG 1.1//EN" "http://www.w3.org/Graphics/SVG/1.1/DTD/svg11.dtd" [
	<!ENTITY ns_flows "http://ns.adobe.com/Flows/1.0/">
]>
<svg version="1.1"
	 xmlns="http://www.w3.org/2000/svg" xmlns:xlink="http://www.w3.org/1999/xlink" xmlns:a="http://ns.adobe.com/AdobeSVGViewerExtensions/3.0/"
	 x="0px" y="0px" width="800px" height="158px" viewBox="0 0 800 158" overflow="visible" enable-background="new 0 0 800 158"
	 xml:space="preserve">
<defs>
</defs>
<linearGradient id="SVGID_1_" gradientUnits="userSpaceOnUse" x1="559.5801" y1="-118.9648" x2="549.7769" y2="-182.5771" gradientTransform="matrix(1 0 0 -1 -25.5 -34)">
	<stop  offset="0.3173" style="stop-color:#9BA4B7"/>
	<stop  offset="1" style="stop-color:#FFFFFF"/>
</linearGradient>
<path fill="url(#SVGID_1_)" d="M486.2,96.8c0,0,18.8,20.5,41,20.2s40-10.5,51-23.2S486.2,96.8,486.2,96.8z"/>
<linearGradient id="SVGID_2_" gradientUnits="userSpaceOnUse" x1="380.5205" y1="-146.9229" x2="369.691" y2="-217.1956" gradientTransform="matrix(1 0 0 -1 -25.5 -34)">
	<stop  offset="0.3173" style="stop-color:#9BA4B7"/>
	<stop  offset="1" style="stop-color:#FFFFFF"/>
</linearGradient>
<path fill="url(#SVGID_2_)" d="M381.5,116.2c0,0-7,26.5-17.8,31.2c-10.8,4.699-25.5,3.5-35.5-22.801
	C318.2,98.3,381.5,116.2,381.5,116.2z"/>
<linearGradient id="SVGID_3_" gradientUnits="userSpaceOnUse" x1="141.604" y1="-88.7695" x2="134.1044" y2="-137.4348" gradientTransform="matrix(1 0 0 -1 -25.5 -34)">
	<stop  offset="0.3173" style="stop-color:#9BA4B7"/>
	<stop  offset="1" style="stop-color:#FFFFFF"/>
</linearGradient>
<path fill="url(#SVGID_3_)" d="M63.8,55.5c0,0,17.8,22.2,44.5,23.5c26.7,1.3,45.2-4.8,57.7-14.2C178.5,55.4,63.8,55.5,63.8,55.5z"/>
<linearGradient id="SVGID_4_" gradientUnits="userSpaceOnUse" x1="425.5" y1="-41.5068" x2="425.5" y2="-292.9134" gradientTransform="matrix(1 0 0 -1 -25.5 -34)">
	<stop  offset="0" style="stop-color:#FFFFFF"/>
	<stop  offset="0.3462" style="stop-color:#F2F2F2"/>
	<stop  offset="0.6758" style="stop-color:#CCCCCC"/>
	<stop  offset="1" style="stop-color:#CCCCCC"/>
</linearGradient>
<path fill="url(#SVGID_4_)" d="M0,0.3C15.5,4.5,19.5,22,37.7,36.4c24.7,16.7,44.3,39.7,76.8,40c16.8,0.2,33.7-2.4,49.3-8.8
	c9-3.7,22.4-14,32.3-14c11.3,0,16.1,11,23.8,16.8c8.7,6.6,15.3,7.1,25,7c34-0.4,59.2,11.2,76.6,41.3c7.7,13.3,14.9,29.3,33.1,27.7
	c19.5-1.7,23-20.801,29.9-34.9c7-14.5,10.5-15.1,24.4-16.7c18-2,16.1-12.899,27.1-17.8c29.1-13,44.4,24.7,69.8,32.8
	c59.5,19,96.9-38.2,137.101-70.5c10.899-8.8,20.699-13,34.3-10c12.5,2.8,19.8,12.9,32.5,6.8c9.5-4.5,14.8-14.1,25.8-16.1
	c9.5-1.7,10.8,3.2,19.9,8.5C773.9,39.4,782.6,27,790.2,11c3.966-8.276,8.7-7.7,9.8-11H0V0.3z"/>
<linearGradient id="SVGID_5_" gradientUnits="userSpaceOnUse" x1="366.6611" y1="-131.1533" x2="403.9162" y2="-190.9115" gradientTransform="matrix(1 0 0 -1 -25.5 -34)">
	<stop  offset="0" style="stop-color:#FFFFFF"/>
	<stop  offset="0.3462" style="stop-color:#F2F2F2"/>
	<stop  offset="0.6758" style="stop-color:#CCCCCC"/>
	<stop  offset="1" style="stop-color:#CCCCCC"/>
</linearGradient>
<path fill="url(#SVGID_5_)" d="M381,115.2c0,0-8.8,26-22.5,28.5s-19.2-1.5-18.8-3.8c0.4-2.301,6.8,0.8,18.5-4
	C369.9,131.1,380.2,118,381,115.2z"/>
<linearGradient id="SVGID_6_" gradientUnits="userSpaceOnUse" x1="570.627" y1="-85.416" x2="587.6265" y2="-187.9129" gradientTransform="matrix(1 0 0 -1 -25.5 -34)">
	<stop  offset="0" style="stop-color:#FFFFFF"/>
	<stop  offset="0.3462" style="stop-color:#F2F2F2"/>
	<stop  offset="0.6758" style="stop-color:#CCCCCC"/>
	<stop  offset="1" style="stop-color:#CCCCCC"/>
</linearGradient>
<path fill="url(#SVGID_6_)" d="M486.2,96.8c0,0,21.5,16.8,42,16.5S574,104,614,66c0,0-43.9,36.8-71.5,41.2
	C506.8,113,486.2,96.8,486.2,96.8z"/>
<linearGradient id="SVGID_7_" gradientUnits="userSpaceOnUse" x1="725.5205" y1="-48.1494" x2="748.851" y2="-111.3363" gradientTransform="matrix(1 0 0 -1 -25.5 -34)">
	<stop  offset="0" style="stop-color:#FFFFFF"/>
	<stop  offset="0.3462" style="stop-color:#F2F2F2"/>
	<stop  offset="0.6758" style="stop-color:#CCCCCC"/>
	<stop  offset="1" style="stop-color:#CCCCCC"/>
</linearGradient>
<path fill="url(#SVGID_7_)" d="M689.9,34.5c0,0,7.8,5.2,16.6,3.2c4.6-1,13.3-8.3,15.9-10.7c0,0-6.2,4.9-16.9,8
	C697.5,37.3,689.9,34.5,689.9,34.5z"/>
<linearGradient id="SVGID_8_" gradientUnits="userSpaceOnUse" x1="792.4746" y1="-46.6055" x2="811.2619" y2="-97.4879" gradientTransform="matrix(1 0 0 -1 -25.5 -34)">
	<stop  offset="0" style="stop-color:#FFFFFF"/>
	<stop  offset="0.3462" style="stop-color:#F2F2F2"/>
	<stop  offset="0.6758" style="stop-color:#CCCCCC"/>
	<stop  offset="1" style="stop-color:#CCCCCC"/>
</linearGradient>
<path fill="url(#SVGID_8_)" d="M760.2,28.5c0,0,5.558,5.2,11.829,3.2c3.277-1,8.836-8.3,10.688-10.7c0,0-3.706,4.9-11.401,8
	C765.615,31.3,760.2,28.5,760.2,28.5z"/>
<linearGradient id="SVGID_9_" gradientUnits="userSpaceOnUse" x1="377.2959" y1="-208.438" x2="330.63" y2="-82.4411" gradientTransform="matrix(1 0 0 -1 -25.5 -34)">
	<stop  offset="0" style="stop-color:#FFFFFF"/>
	<stop  offset="0.3462" style="stop-color:#F2F2F2"/>
	<stop  offset="0.6758" style="stop-color:#CCCCCC"/>
	<stop  offset="1" style="stop-color:#CCCCCC"/>
</linearGradient>
<path fill="url(#SVGID_9_)" d="M318.8,108.2c0,0,13.8,30,25,32c0,0,1.5,0.5,3-1.5S330.2,129.2,318.8,108.2z"/>
<linearGradient id="SVGID_10_" gradientUnits="userSpaceOnUse" x1="390.793" y1="-203.4473" x2="344.1192" y2="-77.4289" gradientTransform="matrix(1 0 0 -1 -25.5 -34)">
	<stop  offset="0" style="stop-color:#FFFFFF"/>
	<stop  offset="0.3462" style="stop-color:#F2F2F2"/>
	<stop  offset="0.6758" style="stop-color:#CCCCCC"/>
	<stop  offset="1" style="stop-color:#CCCCCC"/>
</linearGradient>
<path fill="url(#SVGID_10_)" d="M356.5,137.3c0.1-3.7-5.5-5.399-6.5-1.399C349,139.6,356.4,142,356.5,137.3z"/>
<linearGradient id="SVGID_11_" gradientUnits="userSpaceOnUse" x1="572.3115" y1="-167.7993" x2="397.6478" y2="-17.8023" gradientTransform="matrix(1 0 0 -1 -25.5 -34)">
	<stop  offset="0" style="stop-color:#FFFFFF"/>
	<stop  offset="0.3462" style="stop-color:#F2F2F2"/>
	<stop  offset="0.6758" style="stop-color:#CCCCCC"/>
	<stop  offset="1" style="stop-color:#CCCCCC"/>
</linearGradient>
<path fill="url(#SVGID_11_)" d="M478.2,87.2c0,0,18.2,22,48,21.8c0,0,5.5-0.2,2.2-4C525.1,101.2,505.5,109,478.2,87.2z"/>
<linearGradient id="SVGID_12_" gradientUnits="userSpaceOnUse" x1="251.1797" y1="-110.0024" x2="216.9297" y2="-37.2523" gradientTransform="matrix(1 0 0 -1 -25.5 -34)">
	<stop  offset="0" style="stop-color:#FFFFFF"/>
	<stop  offset="0.3462" style="stop-color:#F2F2F2"/>
	<stop  offset="0.6758" style="stop-color:#CCCCCC"/>
	<stop  offset="1" style="stop-color:#CCCCCC"/>
</linearGradient>
<path fill="url(#SVGID_12_)" d="M209.2,57c0,0,9.8,12,15,14.8c5.2,2.8,7.2,2.8,7.2,0.5C231.4,70,217,65.2,209.2,57z"/>
<linearGradient id="SVGID_13_" gradientUnits="userSpaceOnUse" x1="148.7681" y1="-63.9644" x2="153.7683" y2="-159.4705" gradientTransform="matrix(1 0 0 -1 -25.5 -34)">
	<stop  offset="0" style="stop-color:#FFFFFF"/>
	<stop  offset="0.3462" style="stop-color:#F2F2F2"/>
	<stop  offset="0.6758" style="stop-color:#CCCCCC"/>
	<stop  offset="1" style="stop-color:#CCCCCC"/>
</linearGradient>
<path fill="url(#SVGID_13_)" d="M175,61.8c0,0-18.8,13-47.5,15s-44-6.5-52.5-12.5C75,64.2,119,84.2,175,61.8z"/>
<linearGradient id="SVGID_14_" gradientUnits="userSpaceOnUse" x1="129.2354" y1="-107.7798" x2="104.2385" y2="-39.1221" gradientTransform="matrix(1 0 0 -1 -25.5 -34)">
	<stop  offset="0" style="stop-color:#FFFFFF"/>
	<stop  offset="0.3462" style="stop-color:#F2F2F2"/>
	<stop  offset="0.6758" style="stop-color:#CCCCCC"/>
	<stop  offset="1" style="stop-color:#CCCCCC"/>
</linearGradient>
<path fill="url(#SVGID_14_)" d="M88.9,62.8c0,0,12.3,9.4,18,10.9c5.7,1.5,7.7,1,7.2-1.2S98.4,69,88.9,62.8z"/>
</svg>
