<?xml version="1.0" encoding="utf-8"?>
<!-- Generator: Adobe Illustrator 15.0.0, SVG Export Plug-In  -->
<!DOCTYPE svg [
	<!ENTITY ns_flows "http://ns.adobe.com/Flows/1.0/">
]>
<svg version="1.2" baseProfile="tiny"
	 xmlns="http://www.w3.org/2000/svg" xmlns:xlink="http://www.w3.org/1999/xlink" xmlns:a="http://ns.adobe.com/AdobeSVGViewerExtensions/3.0/"
	 x="0px" y="0px" width="741px" height="226px" viewBox="-0.3 0.2 741 226" overflow="visible" xml:space="preserve">
<defs>
</defs>
<linearGradient id="SVGID_1_" gradientUnits="userSpaceOnUse" x1="370.3599" y1="6.8232" x2="370.3599" y2="192.4945">
	<stop  offset="0" style="stop-color:#FFFFFF"/>
	<stop  offset="1" style="stop-color:#4D4D4F"/>
</linearGradient>
<polygon fill="url(#SVGID_1_)" points="710.3,42.2 672.9,26.3 640.6,37.9 608.2,34.9 574.5,21.7 509.8,20.9 465.3,33.1 395.7,0 
	306.7,15.9 268.1,32.3 218,22.7 176.7,37.3 176.6,37.3 119.6,9.7 73.7,27.8 31.3,31 0,42.6 0,42.6 0,42.6 40.7,47.4 116.8,121.1 
	156.5,98.4 208.7,155 227.7,143.3 262.9,184.5 262.9,184.5 262.9,184.5 281.7,169.4 305.7,159.8 349.7,174.8 368,201.4 374.6,192.4 
	396.4,225.9 429.7,194.4 452.8,132.4 469.5,123.5 503.9,130.7 521.1,151.4 538.3,159 560.2,184.9 590.5,143.5 611.4,154.2 
	655.2,125.1 665.6,92.1 701.3,85.9 702.6,85.7 740.7,42.8 740.7,42.8 "/>
<linearGradient id="SVGID_2_" gradientUnits="userSpaceOnUse" x1="370.3599" y1="6.8232" x2="370.3599" y2="192.4945">
	<stop  offset="0" style="stop-color:#FFFFFF"/>
	<stop  offset="1" style="stop-color:#4D4D4F"/>
</linearGradient>
<polygon fill="url(#SVGID_2_)" points="740.7,42.8 710.3,42.2 672.9,26.3 640.6,37.9 608.2,34.9 574.5,21.7 509.8,20.9 465.3,33.1 
	395.7,0 306.7,15.9 268.1,32.3 218,22.7 176.7,37.3 176.6,37.3 119.6,9.7 73.7,27.8 31.3,31 0,42.6 40.7,47.4 116.8,121.1 
	156.5,98.4 208.7,155 227.7,143.3 262.9,184.5 262.9,184.5 262.9,184.5 281.7,169.4 305.7,159.8 349.7,174.8 368,201.4 374.6,192.4 
	396.4,225.9 429.7,194.4 452.8,132.4 469.5,123.5 503.9,130.7 521.1,151.4 538.3,159 560.2,184.9 590.5,143.5 611.4,154.2 
	655.2,125.1 665.6,92.1 702.6,85.7 "/>
<polygon fill="#E9E9EA" points="305.7,159.8 281.7,169.4 262.9,184.5 228.5,142.3 208.7,155 156.5,98.4 116.8,121.1 40.7,47.4 
	0,42.6 31.3,31 73.7,27.8 119.6,9.7 176.7,37.3 218,22.7 268.1,32.3 312.5,92.3 "/>
<polygon fill="#525254" points="590.5,143.5 560.2,184.9 557.6,130.7 "/>
<polygon fill="#CBCCCE" points="574.5,21.7 608.2,34.9 533.5,69.5 513.3,51.1 "/>
<polygon fill="#6B6C6F" points="521.1,151.4 538.3,159 566.1,96 516.8,82.5 "/>
<polygon fill="#8F9194" points="469.5,123.5 503.9,130.7 519,55 478.9,53.4 "/>
<polygon fill="#939598" points="350.8,175.1 305.7,159.8 331.4,148.1 "/>
<polygon fill="#A5A7AA" points="518.2,44.2 540.8,35.1 532.4,52.2 491,61 "/>
<polygon fill="#333334" points="434.3,119.2 428.1,142.5 429.6,141.9 429.7,194.4 452.8,132.4 458,118.1 "/>
<polygon fill="#383839" points="378.7,186.9 368,201.4 370.7,186.4 "/>
<polygon fill="#D1D3D4" points="509.8,20.9 518.2,44.2 489.6,77.2 "/>
<polygon fill="#B1B3B6" points="465.3,33.1 489.6,77.2 469.5,123.5 "/>
<polygon fill="#CFD1D2" points="509.8,20.9 465.3,33.1 489.6,77.2 "/>
<polygon fill="#CDCFD0" points="518.2,44.2 574.5,21.7 509.8,20.9 "/>
<polygon fill="#717375" points="469.5,123.5 431.2,136.2 467.1,72.4 "/>
<polygon fill="#4F4F51" points="404.1,104.8 431.2,136.2 429.7,194.4 "/>
<polygon fill="#6F7173" points="404.1,104.8 467.1,72.4 431.2,136.2 "/>
<path fill="#414042" d="M396.4,225.9l-25.7-39.6l31.5-50.2C402.2,136.2,396.8,222.2,396.4,225.9z"/>
<polygon fill="#808285" points="370.7,186.4 368,201.4 331.4,148.1 "/>
<polygon fill="#4D4D4F" points="404.1,104.8 331.4,148.1 370.7,186.4 399.9,135.6 "/>
<polygon fill="#AFB1B4" points="404.1,104.8 465.3,33.1 467.1,72.4 "/>
<polygon fill="#515254" points="331.4,148.1 336.1,98.4 404.1,104.8 "/>
<polygon fill="#757679" points="337.3,100.3 312.5,92.3 317.7,71.1 "/>
<polygon fill="#ADAFB2" points="404.1,104.8 399,78.1 422,51.6 465.3,33.1 "/>
<polygon fill="#737577" points="399,78.1 317.7,71.1 337.3,100.3 "/>
<polygon fill="#6D6E71" points="404.1,104.8 337.3,100.3 399,78.1 "/>
<polygon fill="#656668" points="331.4,148.1 312.5,92.3 337.3,100.3 "/>
<polygon fill="#4A4B4C" points="370.7,186.4 404.1,104.8 400.4,163.4 "/>
<polygon fill="#464547" points="429.7,194.4 396.4,225.9 403.8,103.2 "/>
<polygon fill="#383839" points="452.8,132.4 469.5,123.5 454,128.6 "/>
<polygon fill="#C9CACC" points="574.5,21.7 532.4,52.2 540.8,35.1 "/>
<polygon fill="#DCDDDE" points="317.7,71.1 306.7,15.9 399,78.1 "/>
<polygon fill="#ABADB0" points="465.3,33.1 422,51.6 353.1,35.7 "/>
<polygon fill="#DADBDC" points="412.1,34.3 306.7,15.9 353.1,35.7 "/>
<polygon fill="#D8D9DA" points="422,51.6 399,78.1 306.7,15.9 "/>
<polygon fill="#D5D7D8" points="306.7,15.9 268.1,32.3 317.7,71.1 "/>
<polygon fill="#B3B5B8" points="312.5,92.3 268.1,32.3 317.7,71.1 "/>
<polygon fill="#828487" points="305.7,159.8 289,60.6 312.5,92.3 "/>
<polygon fill="#8D9092" points="503.9,130.7 521.1,151.4 519,55 "/>
<polygon fill="#8C8E90" points="566.1,96 519,55 519.6,83.2 "/>
<polygon fill="#A9ABAE" points="608.2,34.9 566.1,96 534.9,68.8 "/>
<polygon fill="#5F6062" points="538.3,159 560.2,184.9 566.1,96 "/>
<polygon fill="#5C5D60" points="566.1,96 590.5,143.5 563.7,133 "/>
<polygon fill="#C2C4C6" points="590.5,143.5 616,133.9 629.4,141.5 655.2,125.1 665.6,92.1 702.6,85.7 740.7,42.8 710.3,42.2 
	672.9,26.3 640.6,37.9 608.2,34.9 566.1,96 "/>
<polygon fill="#C0C2C4" points="710.3,42.2 702.6,85.7 672.9,26.3 "/>
<polygon fill="#A7A9AC" points="640.6,37.9 590.5,60.6 608.2,34.9 "/>
<polygon fill="#5A5B5D" points="566.1,96 616,133.9 590.5,143.5 "/>
<polygon fill="#7B7C7F" points="590.5,60.6 566.1,96 616,133.9 "/>
<polygon fill="#414042" points="655.2,125.1 615.5,132.6 611.4,154.2 "/>
<polygon fill="#696A6D" points="665.6,92.1 616,133.9 655.2,125.1 "/>
<polygon fill="#67686B" points="614.2,95.2 665.6,92.1 614.9,135.6 "/>
<polygon fill="#797A7D" points="590.5,60.6 614.2,95.2 616,133.9 "/>
<polygon fill="#999B9E" points="640.6,37.9 590.5,60.6 614.2,95.2 "/>
<polygon fill="#97999C" points="665.6,92.1 640.6,37.9 614.2,95.2 "/>
<polygon fill="#333334" points="590.5,143.5 611.4,154.2 616,133.9 "/>
<polygon fill="#BEC0C2" points="653.1,64.9 672.9,26.3 640.6,37.9 "/>
<polygon fill="#86888A" points="702.6,85.7 665.6,92.1 689.3,59 "/>
<polygon fill="#848689" points="653.1,64.9 665.6,92.1 689.3,59 "/>
<polygon fill="#58595B" points="281.7,169.4 262.9,184.5 268.1,158 "/>
<polygon fill="#6D6E71" points="305.7,159.8 281.7,169.4 268.1,158 304.3,151 "/>
<polygon fill="#58595B" points="156.5,98.4 116.8,121.1 117.2,101.6 "/>
<polygon fill="#434345" points="219.8,134 208.7,155 201,104.8 "/>
<polygon fill="#B8BABC" points="40.7,47.4 31.3,31 0,42.6 "/>
<polygon fill="#BCBEC0" points="73.7,27.8 40.7,47.4 31.3,31 "/>
<polygon fill="#919396" points="116.8,121.1 117.2,101.6 40.7,47.4 "/>
<polygon fill="#BABCBE" points="73.7,27.8 117.2,101.6 40.7,47.4 "/>
<polygon fill="#E6E7E8" points="119.6,9.7 73.7,27.8 88.9,53.6 "/>
<polygon fill="#A1A3A6" points="176.7,37.3 156.5,98.4 201.7,106.7 "/>
<polygon fill="#474749" points="219.8,134 208.7,155 231.6,140.9 "/>
<polygon fill="#454547" points="219.8,134 268.1,158 262.9,184.5 "/>
<polygon fill="#C7C8CA" points="268.1,32.3 176.7,37.3 218,22.7 "/>
<polygon fill="#A7A9AC" points="465.3,33.1 395.7,0 366.9,26.4 412.1,34.3 "/>
<polygon fill="#939598" points="653.1,64.9 614.2,95.2 640.6,37.9 "/>
<polygon fill="#E4E5E6" points="117.2,101.6 119.6,9.7 88.9,53.6 "/>
<polygon fill="#9FA1A4" points="176.7,37.3 219.8,134 201.7,106.7 "/>
<polygon fill="#9D9FA2" points="268.1,158 176.7,37.3 219.8,134 "/>
<polygon fill="#383839" points="298,111.4 268.1,158 305.7,159.8 "/>
<polygon fill="#77787B" points="166.4,69.3 117.2,101.6 156.5,98.4 "/>
<polygon fill="#E2E3E4" points="119.6,9.7 166.4,69.3 117.2,101.6 "/>
<polygon fill="#DEDFE0" points="176.7,37.3 166.4,69.3 119.6,9.7 "/>
<polygon fill="#414042" points="276.9,117.2 229.5,107.2 268.1,158 "/>
<polygon fill="#808285" points="289,60.6 229.5,107.2 276.9,117.2 "/>
<polygon fill="#9B9DA0" points="176.7,37.3 289,60.6 229.5,107.2 "/>
<polygon fill="#7D7E81" points="276.9,117.2 289,60.6 298,111.4 268.1,158 "/>
<polygon fill="#565759" points="156.5,98.4 201.7,106.7 208.7,155 "/>
<polygon fill="#8A8C8E" points="469.5,123.5 519,55 503.9,130.7 "/>
<polygon fill="#888A8C" points="519,55 566.1,96 590.5,143.5 560.2,184.9 538.3,159 521.1,151.4 "/>
<linearGradient id="SVGID_3_" gradientUnits="userSpaceOnUse" x1="0" y1="97.1016" x2="312.459" y2="97.1016">
	<stop  offset="0" style="stop-color:#FFFFFF;stop-opacity:0.2"/>
	<stop  offset="1" style="stop-color:#000000;stop-opacity:0.2"/>
</linearGradient>
<polyline fill="url(#SVGID_3_)" points="305.7,159.8 281.7,169.4 262.9,184.5 228.5,142.3 208.7,155 156.5,98.4 116.8,121.1 
	40.7,47.4 0,42.6 31.3,31 73.7,27.8 119.6,9.7 176.7,37.3 218,22.7 268.1,32.3 312.5,92.3 "/>
<linearGradient id="SVGID_4_" gradientUnits="userSpaceOnUse" x1="489.6396" y1="49.0166" x2="518.1553" y2="49.0166">
	<stop  offset="0" style="stop-color:#FFFFFF;stop-opacity:0.2"/>
	<stop  offset="1" style="stop-color:#000000;stop-opacity:0.2"/>
</linearGradient>
<polygon fill="url(#SVGID_4_)" points="509.8,20.9 518.2,44.2 489.6,77.2 "/>
<linearGradient id="SVGID_5_" gradientUnits="userSpaceOnUse" x1="465.2969" y1="78.3062" x2="489.6396" y2="78.3062">
	<stop  offset="0" style="stop-color:#FFFFFF;stop-opacity:0.2"/>
	<stop  offset="1" style="stop-color:#000000;stop-opacity:0.2"/>
</linearGradient>
<polygon fill="url(#SVGID_5_)" points="465.3,33.1 489.6,77.2 469.5,123.5 "/>
<linearGradient id="SVGID_6_" gradientUnits="userSpaceOnUse" x1="465.2969" y1="49.0166" x2="509.8096" y2="49.0166">
	<stop  offset="0" style="stop-color:#FFFFFF;stop-opacity:0.2"/>
	<stop  offset="1" style="stop-color:#000000;stop-opacity:0.2"/>
</linearGradient>
<polygon fill="url(#SVGID_6_)" points="509.8,20.9 465.3,33.1 489.6,77.2 "/>
<linearGradient id="SVGID_7_" gradientUnits="userSpaceOnUse" x1="509.8096" y1="32.5449" x2="574.4922" y2="32.5449">
	<stop  offset="0" style="stop-color:#FFFFFF;stop-opacity:0.2"/>
	<stop  offset="1" style="stop-color:#000000;stop-opacity:0.2"/>
</linearGradient>
<polygon fill="url(#SVGID_7_)" points="518.2,44.2 574.5,21.7 509.8,20.9 "/>
<linearGradient id="SVGID_8_" gradientUnits="userSpaceOnUse" x1="431.2178" y1="104.2915" x2="469.4707" y2="104.2915">
	<stop  offset="0" style="stop-color:#FFFFFF;stop-opacity:0.2"/>
	<stop  offset="1" style="stop-color:#000000;stop-opacity:0.2"/>
</linearGradient>
<polygon fill="url(#SVGID_8_)" points="469.5,123.5 431.2,136.2 467.1,72.4 "/>
<linearGradient id="SVGID_9_" gradientUnits="userSpaceOnUse" x1="404.0928" y1="104.2915" x2="467.123" y2="104.2915">
	<stop  offset="0" style="stop-color:#FFFFFF;stop-opacity:0.2"/>
	<stop  offset="1" style="stop-color:#000000;stop-opacity:0.2"/>
</linearGradient>
<polygon fill="url(#SVGID_9_)" points="404.1,104.8 467.1,72.4 431.2,136.2 "/>
<linearGradient id="SVGID_10_" gradientUnits="userSpaceOnUse" x1="404.0928" y1="68.9414" x2="467.123" y2="68.9414">
	<stop  offset="0" style="stop-color:#FFFFFF;stop-opacity:0.2"/>
	<stop  offset="1" style="stop-color:#000000;stop-opacity:0.2"/>
</linearGradient>
<polygon fill="url(#SVGID_10_)" points="404.1,104.8 465.3,33.1 467.1,72.4 "/>
<linearGradient id="SVGID_11_" gradientUnits="userSpaceOnUse" x1="312.459" y1="85.7119" x2="337.3223" y2="85.7119">
	<stop  offset="0" style="stop-color:#FFFFFF;stop-opacity:0.2"/>
	<stop  offset="1" style="stop-color:#000000;stop-opacity:0.2"/>
</linearGradient>
<polygon fill="url(#SVGID_11_)" points="337.3,100.3 312.5,92.3 317.7,71.1 "/>
<linearGradient id="SVGID_12_" gradientUnits="userSpaceOnUse" x1="399.0498" y1="68.9414" x2="465.2969" y2="68.9414">
	<stop  offset="0" style="stop-color:#FFFFFF;stop-opacity:0.2"/>
	<stop  offset="1" style="stop-color:#000000;stop-opacity:0.2"/>
</linearGradient>
<polygon fill="url(#SVGID_12_)" points="404.1,104.8 399,78.1 422,51.6 465.3,33.1 "/>
<linearGradient id="SVGID_13_" gradientUnits="userSpaceOnUse" x1="317.6748" y1="85.7119" x2="399.0498" y2="85.7119">
	<stop  offset="0" style="stop-color:#FFFFFF;stop-opacity:0.2"/>
	<stop  offset="1" style="stop-color:#000000;stop-opacity:0.2"/>
</linearGradient>
<polygon fill="url(#SVGID_13_)" points="399,78.1 317.7,71.1 337.3,100.3 "/>
<linearGradient id="SVGID_14_" gradientUnits="userSpaceOnUse" x1="337.3223" y1="91.4561" x2="404.0928" y2="91.4561">
	<stop  offset="0" style="stop-color:#FFFFFF;stop-opacity:0.2"/>
	<stop  offset="1" style="stop-color:#000000;stop-opacity:0.2"/>
</linearGradient>
<polygon fill="url(#SVGID_14_)" points="404.1,104.8 337.3,100.3 399,78.1 "/>
<linearGradient id="SVGID_15_" gradientUnits="userSpaceOnUse" x1="312.459" y1="120.1821" x2="337.3223" y2="120.1821">
	<stop  offset="0" style="stop-color:#FFFFFF;stop-opacity:0.2"/>
	<stop  offset="1" style="stop-color:#000000;stop-opacity:0.2"/>
</linearGradient>
<polygon fill="url(#SVGID_15_)" points="331.4,148.1 312.5,92.3 337.3,100.3 "/>
<linearGradient id="SVGID_16_" gradientUnits="userSpaceOnUse" x1="452.7783" y1="127.9849" x2="469.4707" y2="127.9849">
	<stop  offset="0" style="stop-color:#FFFFFF;stop-opacity:0.2"/>
	<stop  offset="1" style="stop-color:#000000;stop-opacity:0.2"/>
</linearGradient>
<polygon fill="url(#SVGID_16_)" points="452.8,132.4 469.5,123.5 454,128.6 "/>
<linearGradient id="SVGID_17_" gradientUnits="userSpaceOnUse" x1="532.415" y1="36.9277" x2="574.4922" y2="36.9277">
	<stop  offset="0" style="stop-color:#FFFFFF;stop-opacity:0.2"/>
	<stop  offset="1" style="stop-color:#000000;stop-opacity:0.2"/>
</linearGradient>
<polygon fill="url(#SVGID_17_)" points="574.5,21.7 532.4,52.2 540.8,35.1 "/>
<linearGradient id="SVGID_18_" gradientUnits="userSpaceOnUse" x1="306.7207" y1="47.0234" x2="399.0498" y2="47.0234">
	<stop  offset="0" style="stop-color:#FFFFFF;stop-opacity:0.2"/>
	<stop  offset="1" style="stop-color:#000000;stop-opacity:0.2"/>
</linearGradient>
<polygon fill="url(#SVGID_18_)" points="317.7,71.1 306.7,15.9 399,78.1 "/>
<linearGradient id="SVGID_19_" gradientUnits="userSpaceOnUse" x1="353.1465" y1="42.3418" x2="465.2969" y2="42.3418">
	<stop  offset="0" style="stop-color:#FFFFFF;stop-opacity:0.2"/>
	<stop  offset="1" style="stop-color:#000000;stop-opacity:0.2"/>
</linearGradient>
<polygon fill="url(#SVGID_19_)" points="465.3,33.1 422,51.6 353.1,35.7 "/>
<linearGradient id="SVGID_20_" gradientUnits="userSpaceOnUse" x1="306.7207" y1="25.8037" x2="412.123" y2="25.8037">
	<stop  offset="0" style="stop-color:#FFFFFF;stop-opacity:0.2"/>
	<stop  offset="1" style="stop-color:#000000;stop-opacity:0.2"/>
</linearGradient>
<polygon fill="url(#SVGID_20_)" points="412.1,34.3 306.7,15.9 353.1,35.7 "/>
<linearGradient id="SVGID_21_" gradientUnits="userSpaceOnUse" x1="306.7207" y1="47.0234" x2="422.002" y2="47.0234">
	<stop  offset="0" style="stop-color:#FFFFFF;stop-opacity:0.2"/>
	<stop  offset="1" style="stop-color:#000000;stop-opacity:0.2"/>
</linearGradient>
<polygon fill="url(#SVGID_21_)" points="422,51.6 399,78.1 306.7,15.9 "/>
<linearGradient id="SVGID_22_" gradientUnits="userSpaceOnUse" x1="268.1201" y1="43.5371" x2="317.6748" y2="43.5371">
	<stop  offset="0" style="stop-color:#FFFFFF;stop-opacity:0.2"/>
	<stop  offset="1" style="stop-color:#000000;stop-opacity:0.2"/>
</linearGradient>
<polygon fill="url(#SVGID_22_)" points="306.7,15.9 268.1,32.3 317.7,71.1 "/>
<linearGradient id="SVGID_23_" gradientUnits="userSpaceOnUse" x1="268.1201" y1="62.2666" x2="317.6748" y2="62.2666">
	<stop  offset="0" style="stop-color:#FFFFFF;stop-opacity:0.2"/>
	<stop  offset="1" style="stop-color:#000000;stop-opacity:0.2"/>
</linearGradient>
<polygon fill="url(#SVGID_23_)" points="312.5,92.3 268.1,32.3 317.7,71.1 "/>
<linearGradient id="SVGID_24_" gradientUnits="userSpaceOnUse" x1="503.8984" y1="103.2119" x2="521.1123" y2="103.2119">
	<stop  offset="0" style="stop-color:#FFFFFF;stop-opacity:0.2"/>
	<stop  offset="1" style="stop-color:#000000;stop-opacity:0.2"/>
</linearGradient>
<polygon fill="url(#SVGID_24_)" points="503.9,130.7 521.1,151.4 519,55 "/>
<linearGradient id="SVGID_25_" gradientUnits="userSpaceOnUse" x1="519.0254" y1="75.5166" x2="566.1455" y2="75.5166">
	<stop  offset="0" style="stop-color:#FFFFFF;stop-opacity:0.2"/>
	<stop  offset="1" style="stop-color:#000000;stop-opacity:0.2"/>
</linearGradient>
<polygon fill="url(#SVGID_25_)" points="566.1,96 519,55 519.6,83.2 "/>
<linearGradient id="SVGID_26_" gradientUnits="userSpaceOnUse" x1="534.8701" y1="65.4878" x2="608.2246" y2="65.4878">
	<stop  offset="0" style="stop-color:#FFFFFF;stop-opacity:0.2"/>
	<stop  offset="1" style="stop-color:#000000;stop-opacity:0.2"/>
</linearGradient>
<polygon fill="url(#SVGID_26_)" points="608.2,34.9 566.1,96 534.9,68.8 "/>
<linearGradient id="SVGID_27_" gradientUnits="userSpaceOnUse" x1="538.3262" y1="140.4712" x2="566.1455" y2="140.4712">
	<stop  offset="0" style="stop-color:#FFFFFF;stop-opacity:0.2"/>
	<stop  offset="1" style="stop-color:#000000;stop-opacity:0.2"/>
</linearGradient>
<polygon fill="url(#SVGID_27_)" points="538.3,159 560.2,184.9 566.1,96 "/>
<linearGradient id="SVGID_28_" gradientUnits="userSpaceOnUse" x1="563.7129" y1="119.7505" x2="590.4893" y2="119.7505">
	<stop  offset="0" style="stop-color:#FFFFFF;stop-opacity:0.2"/>
	<stop  offset="1" style="stop-color:#000000;stop-opacity:0.2"/>
</linearGradient>
<polygon fill="url(#SVGID_28_)" points="566.1,96 590.5,143.5 563.7,133 "/>
<linearGradient id="SVGID_29_" gradientUnits="userSpaceOnUse" x1="566.1455" y1="84.8809" x2="740.7197" y2="84.8809">
	<stop  offset="0" style="stop-color:#FFFFFF;stop-opacity:0.2"/>
	<stop  offset="1" style="stop-color:#000000;stop-opacity:0.2"/>
</linearGradient>
<polygon fill="url(#SVGID_29_)" points="590.5,143.5 616,133.9 629.4,141.5 655.2,125.1 665.6,92.1 702.6,85.7 740.7,42.8 
	710.3,42.2 672.9,26.3 640.6,37.9 608.2,34.9 566.1,96 "/>
<linearGradient id="SVGID_30_" gradientUnits="userSpaceOnUse" x1="672.9072" y1="55.9897" x2="710.2949" y2="55.9897">
	<stop  offset="0" style="stop-color:#FFFFFF;stop-opacity:0.2"/>
	<stop  offset="1" style="stop-color:#000000;stop-opacity:0.2"/>
</linearGradient>
<polygon fill="url(#SVGID_30_)" points="710.3,42.2 702.6,85.7 672.9,26.3 "/>
<linearGradient id="SVGID_31_" gradientUnits="userSpaceOnUse" x1="590.4893" y1="47.7876" x2="640.5664" y2="47.7876">
	<stop  offset="0" style="stop-color:#FFFFFF;stop-opacity:0.2"/>
	<stop  offset="1" style="stop-color:#000000;stop-opacity:0.2"/>
</linearGradient>
<polygon fill="url(#SVGID_31_)" points="640.6,37.9 590.5,60.6 608.2,34.9 "/>
<linearGradient id="SVGID_32_" gradientUnits="userSpaceOnUse" x1="566.1455" y1="97.2676" x2="616.0488" y2="97.2676">
	<stop  offset="0" style="stop-color:#FFFFFF;stop-opacity:0.2"/>
	<stop  offset="1" style="stop-color:#000000;stop-opacity:0.2"/>
</linearGradient>
<polygon fill="url(#SVGID_32_)" points="590.5,60.6 566.1,96 616,133.9 "/>
<linearGradient id="SVGID_33_" gradientUnits="userSpaceOnUse" x1="611.3545" y1="139.6743" x2="655.1719" y2="139.6743">
	<stop  offset="0" style="stop-color:#FFFFFF;stop-opacity:0.2"/>
	<stop  offset="1" style="stop-color:#000000;stop-opacity:0.2"/>
</linearGradient>
<polygon fill="url(#SVGID_33_)" points="655.2,125.1 616,133.9 611.4,154.2 "/>
<linearGradient id="SVGID_34_" gradientUnits="userSpaceOnUse" x1="616.0488" y1="112.9751" x2="665.6045" y2="112.9751">
	<stop  offset="0" style="stop-color:#FFFFFF;stop-opacity:0.2"/>
	<stop  offset="1" style="stop-color:#000000;stop-opacity:0.2"/>
</linearGradient>
<polygon fill="url(#SVGID_34_)" points="665.6,92.1 616,133.9 655.2,125.1 "/>
<linearGradient id="SVGID_35_" gradientUnits="userSpaceOnUse" x1="614.2236" y1="112.9751" x2="665.6045" y2="112.9751">
	<stop  offset="0" style="stop-color:#FFFFFF;stop-opacity:0.2"/>
	<stop  offset="1" style="stop-color:#000000;stop-opacity:0.2"/>
</linearGradient>
<polygon fill="url(#SVGID_35_)" points="614.2,95.2 665.6,92.1 616,133.9 "/>
<linearGradient id="SVGID_36_" gradientUnits="userSpaceOnUse" x1="590.4893" y1="97.2676" x2="616.0488" y2="97.2676">
	<stop  offset="0" style="stop-color:#FFFFFF;stop-opacity:0.2"/>
	<stop  offset="1" style="stop-color:#000000;stop-opacity:0.2"/>
</linearGradient>
<polygon fill="url(#SVGID_36_)" points="590.5,60.6 614.2,95.2 616,133.9 "/>
<linearGradient id="SVGID_37_" gradientUnits="userSpaceOnUse" x1="590.4893" y1="66.5503" x2="640.5664" y2="66.5503">
	<stop  offset="0" style="stop-color:#FFFFFF;stop-opacity:0.2"/>
	<stop  offset="1" style="stop-color:#000000;stop-opacity:0.2"/>
</linearGradient>
<polygon fill="url(#SVGID_37_)" points="640.6,37.9 590.5,60.6 614.2,95.2 "/>
<linearGradient id="SVGID_38_" gradientUnits="userSpaceOnUse" x1="614.2236" y1="66.5503" x2="665.6045" y2="66.5503">
	<stop  offset="0" style="stop-color:#FFFFFF;stop-opacity:0.2"/>
	<stop  offset="1" style="stop-color:#000000;stop-opacity:0.2"/>
</linearGradient>
<polygon fill="url(#SVGID_38_)" points="665.6,92.1 640.6,37.9 614.2,95.2 "/>
<linearGradient id="SVGID_39_" gradientUnits="userSpaceOnUse" x1="590.4893" y1="144.0571" x2="616.0488" y2="144.0571">
	<stop  offset="0" style="stop-color:#FFFFFF;stop-opacity:0.2"/>
	<stop  offset="1" style="stop-color:#000000;stop-opacity:0.2"/>
</linearGradient>
<polygon fill="url(#SVGID_39_)" points="590.5,143.5 611.4,154.2 616,133.9 "/>
<linearGradient id="SVGID_40_" gradientUnits="userSpaceOnUse" x1="640.5664" y1="45.5791" x2="672.9072" y2="45.5791">
	<stop  offset="0" style="stop-color:#FFFFFF;stop-opacity:0.2"/>
	<stop  offset="1" style="stop-color:#000000;stop-opacity:0.2"/>
</linearGradient>
<polygon fill="url(#SVGID_40_)" points="653.1,64.9 672.9,26.3 640.6,37.9 "/>
<linearGradient id="SVGID_41_" gradientUnits="userSpaceOnUse" x1="665.6045" y1="75.5503" x2="702.6406" y2="75.5503">
	<stop  offset="0" style="stop-color:#FFFFFF;stop-opacity:0.2"/>
	<stop  offset="1" style="stop-color:#000000;stop-opacity:0.2"/>
</linearGradient>
<polygon fill="url(#SVGID_41_)" points="702.6,85.7 665.6,92.1 689.3,59 "/>
<linearGradient id="SVGID_42_" gradientUnits="userSpaceOnUse" x1="653.085" y1="75.5503" x2="689.3389" y2="75.5503">
	<stop  offset="0" style="stop-color:#FFFFFF;stop-opacity:0.2"/>
	<stop  offset="1" style="stop-color:#000000;stop-opacity:0.2"/>
</linearGradient>
<polygon fill="url(#SVGID_42_)" points="653.1,64.9 665.6,92.1 689.3,59 "/>
<linearGradient id="SVGID_43_" gradientUnits="userSpaceOnUse" x1="262.9033" y1="171.2554" x2="281.6816" y2="171.2554">
	<stop  offset="0" style="stop-color:#FFFFFF;stop-opacity:0.2"/>
	<stop  offset="1" style="stop-color:#000000;stop-opacity:0.2"/>
</linearGradient>
<polygon fill="url(#SVGID_43_)" points="281.7,169.4 262.9,184.5 268.1,158 "/>
<linearGradient id="SVGID_44_" gradientUnits="userSpaceOnUse" x1="268.1201" y1="160.1968" x2="305.6777" y2="160.1968">
	<stop  offset="0" style="stop-color:#FFFFFF;stop-opacity:0.2"/>
	<stop  offset="1" style="stop-color:#000000;stop-opacity:0.2"/>
</linearGradient>
<polygon fill="url(#SVGID_44_)" points="305.7,159.8 281.7,169.4 268.1,158 304.3,151 "/>
<linearGradient id="SVGID_45_" gradientUnits="userSpaceOnUse" x1="0" y1="39.187" x2="40.6875" y2="39.187">
	<stop  offset="0" style="stop-color:#FFFFFF;stop-opacity:0.2"/>
	<stop  offset="1" style="stop-color:#000000;stop-opacity:0.2"/>
</linearGradient>
<polygon fill="url(#SVGID_45_)" points="40.7,47.4 31.3,31 0,42.6 "/>
<linearGradient id="SVGID_46_" gradientUnits="userSpaceOnUse" x1="31.2959" y1="37.5933" x2="73.7236" y2="37.5933">
	<stop  offset="0" style="stop-color:#FFFFFF;stop-opacity:0.2"/>
	<stop  offset="1" style="stop-color:#000000;stop-opacity:0.2"/>
</linearGradient>
<polygon fill="url(#SVGID_46_)" points="73.7,27.8 40.7,47.4 31.3,31 "/>
<linearGradient id="SVGID_47_" gradientUnits="userSpaceOnUse" x1="40.6875" y1="64.6914" x2="117.1924" y2="64.6914">
	<stop  offset="0" style="stop-color:#FFFFFF;stop-opacity:0.2"/>
	<stop  offset="1" style="stop-color:#000000;stop-opacity:0.2"/>
</linearGradient>
<polygon fill="url(#SVGID_47_)" points="73.7,27.8 117.2,101.6 40.7,47.4 "/>
<linearGradient id="SVGID_48_" gradientUnits="userSpaceOnUse" x1="73.7236" y1="31.6484" x2="119.627" y2="31.6484">
	<stop  offset="0" style="stop-color:#FFFFFF;stop-opacity:0.2"/>
	<stop  offset="1" style="stop-color:#000000;stop-opacity:0.2"/>
</linearGradient>
<polygon fill="url(#SVGID_48_)" points="119.6,9.7 73.7,27.8 88.9,53.6 "/>
<linearGradient id="SVGID_49_" gradientUnits="userSpaceOnUse" x1="208.6533" y1="144.5229" x2="231.6055" y2="144.5229">
	<stop  offset="0" style="stop-color:#FFFFFF;stop-opacity:0.2"/>
	<stop  offset="1" style="stop-color:#000000;stop-opacity:0.2"/>
</linearGradient>
<polygon fill="url(#SVGID_49_)" points="219.8,134 208.7,155 231.6,140.9 "/>
<linearGradient id="SVGID_50_" gradientUnits="userSpaceOnUse" x1="219.7812" y1="159.2681" x2="268.1201" y2="159.2681">
	<stop  offset="0" style="stop-color:#FFFFFF;stop-opacity:0.2"/>
	<stop  offset="1" style="stop-color:#000000;stop-opacity:0.2"/>
</linearGradient>
<polygon fill="url(#SVGID_50_)" points="219.8,134 268.1,158 262.9,184.5 "/>
<linearGradient id="SVGID_51_" gradientUnits="userSpaceOnUse" x1="176.6582" y1="30.0215" x2="268.1201" y2="30.0215">
	<stop  offset="0" style="stop-color:#FFFFFF;stop-opacity:0.2"/>
	<stop  offset="1" style="stop-color:#000000;stop-opacity:0.2"/>
</linearGradient>
<polygon fill="url(#SVGID_51_)" points="268.1,32.3 176.7,37.3 218,22.7 "/>
<linearGradient id="SVGID_52_" gradientUnits="userSpaceOnUse" x1="416.0693" y1="30.1401" x2="417.4024" y2="4.1398">
	<stop  offset="0" style="stop-color:#FFFFFF;stop-opacity:0.2"/>
	<stop  offset="1" style="stop-color:#000000;stop-opacity:0.2"/>
</linearGradient>
<polygon fill="url(#SVGID_52_)" points="465.3,33.1 395.7,0 366.9,26.4 412.1,34.3 "/>
<linearGradient id="SVGID_53_" gradientUnits="userSpaceOnUse" x1="614.2236" y1="66.5503" x2="653.085" y2="66.5503">
	<stop  offset="0" style="stop-color:#FFFFFF;stop-opacity:0.2"/>
	<stop  offset="1" style="stop-color:#000000;stop-opacity:0.2"/>
</linearGradient>
<polygon fill="url(#SVGID_53_)" points="653.1,64.9 614.2,95.2 640.6,37.9 "/>
<linearGradient id="SVGID_54_" gradientUnits="userSpaceOnUse" x1="88.9385" y1="55.6582" x2="119.627" y2="55.6582">
	<stop  offset="0" style="stop-color:#FFFFFF;stop-opacity:0.2"/>
	<stop  offset="1" style="stop-color:#000000;stop-opacity:0.2"/>
</linearGradient>
<polygon fill="url(#SVGID_54_)" points="117.2,101.6 119.6,9.7 88.9,53.6 "/>
<linearGradient id="SVGID_55_" gradientUnits="userSpaceOnUse" x1="176.6582" y1="85.6787" x2="219.7812" y2="85.6787">
	<stop  offset="0" style="stop-color:#FFFFFF;stop-opacity:0.2"/>
	<stop  offset="1" style="stop-color:#000000;stop-opacity:0.2"/>
</linearGradient>
<polygon fill="url(#SVGID_55_)" points="176.7,37.3 219.8,134 201.7,106.7 "/>
<linearGradient id="SVGID_56_" gradientUnits="userSpaceOnUse" x1="176.6582" y1="97.6665" x2="268.1201" y2="97.6665">
	<stop  offset="0" style="stop-color:#FFFFFF;stop-opacity:0.2"/>
	<stop  offset="1" style="stop-color:#000000;stop-opacity:0.2"/>
</linearGradient>
<polygon fill="url(#SVGID_56_)" points="268.1,158 176.7,37.3 219.8,134 "/>
<linearGradient id="SVGID_57_" gradientUnits="userSpaceOnUse" x1="268.1201" y1="135.6235" x2="305.6777" y2="135.6235">
	<stop  offset="0" style="stop-color:#FFFFFF;stop-opacity:0.2"/>
	<stop  offset="1" style="stop-color:#000000;stop-opacity:0.2"/>
</linearGradient>
<polygon fill="url(#SVGID_57_)" points="298,111.4 268.1,158 305.7,159.8 "/>
<linearGradient id="SVGID_58_" gradientUnits="userSpaceOnUse" x1="117.1924" y1="85.4795" x2="166.4014" y2="85.4795">
	<stop  offset="0" style="stop-color:#FFFFFF;stop-opacity:0.2"/>
	<stop  offset="1" style="stop-color:#000000;stop-opacity:0.2"/>
</linearGradient>
<polygon fill="url(#SVGID_58_)" points="166.4,69.3 117.2,101.6 156.5,98.4 "/>
<linearGradient id="SVGID_59_" gradientUnits="userSpaceOnUse" x1="117.1924" y1="55.6582" x2="166.4014" y2="55.6582">
	<stop  offset="0" style="stop-color:#FFFFFF;stop-opacity:0.2"/>
	<stop  offset="1" style="stop-color:#000000;stop-opacity:0.2"/>
</linearGradient>
<polygon fill="url(#SVGID_59_)" points="119.6,9.7 166.4,69.3 117.2,101.6 "/>
<linearGradient id="SVGID_60_" gradientUnits="userSpaceOnUse" x1="119.627" y1="39.519" x2="176.6582" y2="39.519">
	<stop  offset="0" style="stop-color:#FFFFFF;stop-opacity:0.2"/>
	<stop  offset="1" style="stop-color:#000000;stop-opacity:0.2"/>
</linearGradient>
<polygon fill="url(#SVGID_60_)" points="176.7,37.3 166.4,69.3 119.6,9.7 "/>
<linearGradient id="SVGID_61_" gradientUnits="userSpaceOnUse" x1="229.5186" y1="132.6001" x2="276.8633" y2="132.6001">
	<stop  offset="0" style="stop-color:#FFFFFF;stop-opacity:0.2"/>
	<stop  offset="1" style="stop-color:#000000;stop-opacity:0.2"/>
</linearGradient>
<polygon fill="url(#SVGID_61_)" points="276.9,117.2 229.5,107.2 268.1,158 "/>
<linearGradient id="SVGID_62_" gradientUnits="userSpaceOnUse" x1="229.5186" y1="88.873" x2="288.9854" y2="88.873">
	<stop  offset="0" style="stop-color:#FFFFFF;stop-opacity:0.2"/>
	<stop  offset="1" style="stop-color:#000000;stop-opacity:0.2"/>
</linearGradient>
<polygon fill="url(#SVGID_62_)" points="289,60.6 229.5,107.2 276.9,117.2 "/>
<linearGradient id="SVGID_63_" gradientUnits="userSpaceOnUse" x1="176.6582" y1="72.2617" x2="288.9854" y2="72.2617">
	<stop  offset="0" style="stop-color:#FFFFFF;stop-opacity:0.2"/>
	<stop  offset="1" style="stop-color:#000000;stop-opacity:0.2"/>
</linearGradient>
<polygon fill="url(#SVGID_63_)" points="176.7,37.3 289,60.6 229.5,107.2 "/>
<linearGradient id="SVGID_64_" gradientUnits="userSpaceOnUse" x1="268.1201" y1="109.2896" x2="298.0264" y2="109.2896">
	<stop  offset="0" style="stop-color:#FFFFFF;stop-opacity:0.2"/>
	<stop  offset="1" style="stop-color:#000000;stop-opacity:0.2"/>
</linearGradient>
<polygon fill="url(#SVGID_64_)" points="276.9,117.2 289,60.6 298,111.4 268.1,158 "/>
<linearGradient id="SVGID_65_" gradientUnits="userSpaceOnUse" x1="156.4902" y1="126.7231" x2="208.6533" y2="126.7231">
	<stop  offset="0" style="stop-color:#FFFFFF;stop-opacity:0.2"/>
	<stop  offset="1" style="stop-color:#000000;stop-opacity:0.2"/>
</linearGradient>
<polyline fill="url(#SVGID_65_)" points="208.7,155 156.5,98.4 201.7,106.7 "/>
<polygon fill="#636466" points="305.7,159.8 312.5,92.3 331.4,148.1 "/>
<polygon fill="#F1F2F2" points="306.7,15.9 366.9,26.4 395.7,0 "/>
</svg>
