<?xml version="1.0" encoding="utf-8"?>
<!-- Generator: Adobe Illustrator 15.0.0, SVG Export Plug-In  -->
<!DOCTYPE svg PUBLIC "-//W3C//DTD SVG 1.1//EN" "http://www.w3.org/Graphics/SVG/1.1/DTD/svg11.dtd" [
	<!ENTITY ns_flows "http://ns.adobe.com/Flows/1.0/">
]>
<svg version="1.1"
	 xmlns="http://www.w3.org/2000/svg" xmlns:xlink="http://www.w3.org/1999/xlink" xmlns:a="http://ns.adobe.com/AdobeSVGViewerExtensions/3.0/"
	 x="0px" y="0px" width="37px" height="33px" viewBox="-0.828 -0.007 37 33"
	 overflow="visible" enable-background="new -0.828 -0.007 37 33" xml:space="preserve">
<defs>
</defs>
<path d="M34.075,21.993c-0.205,0-0.398,0.038-0.584,0.093l-1.516-5.7l-7.586-3.823l-0.066-0.072l-0.012,0.034l-0.033-0.018
	l0.029,0.035l-2.812,8.34L17.283,4.129c0.913-0.229,1.59-1.047,1.59-2.029c0-1.159-0.941-2.1-2.1-2.1c-1.16,0-2.101,0.94-2.101,2.1
	c0,0.961,0.65,1.763,1.533,2.012l-4.869,17.252l-7.69-10.047C3.987,10.943,4.2,10.452,4.2,9.907c0-1.16-0.94-2.099-2.1-2.099
	C0.94,7.808,0,8.747,0,9.907s0.94,2.099,2.101,2.099c0.099,0,0.193-0.016,0.289-0.029l1.609,14.915h25.123l0.561-7.888l2.961,3.56
	c-0.408,0.383-0.668,0.924-0.668,1.529c0,1.158,0.939,2.1,2.1,2.1c1.158,0,2.098-0.941,2.098-2.1
	C36.172,22.933,35.233,21.993,34.075,21.993z"/>
<path d="M27.881,29.024H5.12c-2.261,0-3.095,0.888-3.095,1.981c0,1.095,0.834,1.981,3.095,1.981h22.761
	c2.26,0,3.094-0.887,3.094-1.981C30.975,29.912,30.141,29.024,27.881,29.024z"/>
</svg>
