<?xml version="1.0" encoding="utf-8"?>
<!-- Generator: Adobe Illustrator 15.0.0, SVG Export Plug-In  -->
<!DOCTYPE svg PUBLIC "-//W3C//DTD SVG 1.1//EN" "http://www.w3.org/Graphics/SVG/1.1/DTD/svg11.dtd" [
	<!ENTITY ns_flows "http://ns.adobe.com/Flows/1.0/">
]>
<svg version="1.1"
	 xmlns="http://www.w3.org/2000/svg" xmlns:xlink="http://www.w3.org/1999/xlink" xmlns:a="http://ns.adobe.com/AdobeSVGViewerExtensions/3.0/"
	 x="0px" y="0px" width="47px" height="29px" viewBox="-0.152 0.036 47 29"
	 overflow="visible" enable-background="new -0.152 0.036 47 29" xml:space="preserve">
<defs>
</defs>
<path d="M31.176,15.168l-0.594,0.014L9.461,0.19C8.53-0.471,7.708,0.803,7.708,0.803L0,10.287l21.301,14.79
	c1.087,0.811,1.923,0.18,1.923,0.18l4.871-7.08c-0.236,1.076,0.699,3.768,1.648,2.98c1.34-1.111,2.856-0.309,2.856-0.309
	l10.755,8.223c2.359-0.881,2.967-4.104,2.967-4.104L31.176,15.168z M9.614,8.758C8.51,8.781,7.598,7.904,7.575,6.799
	C7.552,5.694,8.427,4.782,9.532,4.76c1.106-0.023,2.02,0.854,2.042,1.958C11.596,7.823,10.721,8.736,9.614,8.758z"/>
</svg>
