<?xml version="1.0" encoding="utf-8"?>
<!-- Generator: Adobe Illustrator 15.0.0, SVG Export Plug-In  -->
<!DOCTYPE svg PUBLIC "-//W3C//DTD SVG 1.1//EN" "http://www.w3.org/Graphics/SVG/1.1/DTD/svg11.dtd" [
	<!ENTITY ns_flows "http://ns.adobe.com/Flows/1.0/">
]>
<svg version="1.1"
	 xmlns="http://www.w3.org/2000/svg" xmlns:xlink="http://www.w3.org/1999/xlink" xmlns:a="http://ns.adobe.com/AdobeSVGViewerExtensions/3.0/"
	 x="0px" y="0px" width="26px" height="32px" viewBox="-0.382 0 26 32" overflow="visible" enable-background="new -0.382 0 26 32"
	 xml:space="preserve">
<defs>
</defs>
<path d="M21.847,12.222c0.213-0.4,0.708-1.433,1.566-3.762C24.61,5.208,20.038,0,12.659,0S0.707,5.208,1.904,8.46
	c0.858,2.33,1.354,3.362,1.566,3.762C1.324,14.478,0,17.513,0,20.862c0,4.632,2.516,8.679,6.262,10.864
	C6.424,31.821,6.654,32,7.49,32c1.06,0,3.083,0,5.25,0c2.089,0,4.009,0,5.042,0c0.765,0,1.061-0.151,1.199-0.231
	c3.785-2.178,6.336-6.244,6.336-10.906C25.317,17.513,23.993,14.478,21.847,12.222z M15.334,23.2l-2.757-1.442L9.819,23.2
	l0.527-3.74l-2.232-2.164l3.084-0.445l1.379-2.78l1.378,2.78l3.084,0.445l-2.231,2.164L15.334,23.2z M19.942,8.264
	C19.594,9.208,19.28,9.714,19.032,10c-1.873-1.09-4.046-1.725-6.373-1.725S8.158,8.91,6.285,10c-0.247-0.286-0.562-0.792-0.91-1.736
	c-0.776-2.107,2.502-5.562,7.284-5.562C17.44,2.701,20.718,6.156,19.942,8.264z"/>
</svg>
