<?xml version="1.0" encoding="utf-8"?>
<!-- Generator: Adobe Illustrator 15.0.0, SVG Export Plug-In  -->
<!DOCTYPE svg PUBLIC "-//W3C//DTD SVG 1.1//EN" "http://www.w3.org/Graphics/SVG/1.1/DTD/svg11.dtd" [
	<!ENTITY ns_flows "http://ns.adobe.com/Flows/1.0/">
]>
<svg version="1.1"
	 xmlns="http://www.w3.org/2000/svg" xmlns:xlink="http://www.w3.org/1999/xlink" xmlns:a="http://ns.adobe.com/AdobeSVGViewerExtensions/3.0/"
	 x="0px" y="0px" width="58px" height="68px" viewBox="-0.015 -0.182 58 68"
	 overflow="visible" enable-background="new -0.015 -0.182 58 68" xml:space="preserve">
<defs>
</defs>
<linearGradient id="SVGID_1_" gradientUnits="userSpaceOnUse" x1="0" y1="29.3706" x2="51.5303" y2="29.3706">
	<stop  offset="0" style="stop-color:#6D55A4"/>
	<stop  offset="6.570647e-04" style="stop-color:#6C55A3"/>
	<stop  offset="0.0193" style="stop-color:#5E4694"/>
	<stop  offset="0.0411" style="stop-color:#533B8B"/>
	<stop  offset="0.0682" style="stop-color:#4B3385"/>
	<stop  offset="0.1063" style="stop-color:#472F82"/>
	<stop  offset="0.2121" style="stop-color:#452E81"/>
	<stop  offset="0.473" style="stop-color:#64489D"/>
	<stop  offset="0.738" style="stop-color:#4E3F99"/>
	<stop  offset="1" style="stop-color:#6D55A4"/>
</linearGradient>
<polygon fill="url(#SVGID_1_)" points="6.44,55.179 0,51.616 0,8.9 28.985,24.921 28.985,3.562 51.53,16.021 51.53,44.497 
	45.091,40.938 45.091,19.579 35.426,14.238 35.426,35.596 6.44,19.579 "/>
<linearGradient id="SVGID_2_" gradientUnits="userSpaceOnUse" x1="4.0054" y1="7.2334" x2="28.6607" y2="21.6157">
	<stop  offset="0.0121" style="stop-color:#6D55A4"/>
	<stop  offset="0.5091" style="stop-color:#987EBA"/>
	<stop  offset="1" style="stop-color:#B59CCA"/>
</linearGradient>
<polygon fill="url(#SVGID_2_)" points="0,8.9 6.44,5.342 28.985,17.8 28.985,24.921 "/>
<linearGradient id="SVGID_3_" gradientUnits="userSpaceOnUse" x1="38.6992" y1="14.8027" x2="38.5783" y2="33.6555">
	<stop  offset="0" style="stop-color:#C4ACD3"/>
	<stop  offset="0.3939" style="stop-color:#B59CCA"/>
	<stop  offset="1" style="stop-color:#987EBA"/>
</linearGradient>
<polygon fill="url(#SVGID_3_)" points="35.426,14.238 41.867,17.8 41.867,32.037 35.426,35.596 "/>
<linearGradient id="SVGID_4_" gradientUnits="userSpaceOnUse" x1="38.9854" y1="-1.8701" x2="49.2587" y2="20.7311">
	<stop  offset="0.0121" style="stop-color:#6D55A4"/>
	<stop  offset="0.5333" style="stop-color:#B59CCA"/>
	<stop  offset="0.7898" style="stop-color:#B49BC9"/>
	<stop  offset="0.8822" style="stop-color:#AE95C6"/>
	<stop  offset="0.9478" style="stop-color:#A58BC1"/>
	<stop  offset="1" style="stop-color:#987EBA"/>
</linearGradient>
<polygon fill="url(#SVGID_4_)" points="28.985,3.562 35.426,0 57.971,12.463 51.53,16.021 "/>
<linearGradient id="SVGID_5_" gradientUnits="userSpaceOnUse" x1="6.4404" y1="40.0498" x2="57.9707" y2="40.0498">
	<stop  offset="0" style="stop-color:#987EBA"/>
	<stop  offset="0.1978" style="stop-color:#A88EC3"/>
	<stop  offset="0.4" style="stop-color:#B59CCA"/>
	<stop  offset="0.8303" style="stop-color:#C4ACD3"/>
	<stop  offset="0.9329" style="stop-color:#C2AAD2"/>
	<stop  offset="0.9698" style="stop-color:#BDA4CE"/>
	<stop  offset="0.9961" style="stop-color:#B49AC9"/>
	<stop  offset="1" style="stop-color:#B298C8"/>
</linearGradient>
<polygon fill="url(#SVGID_5_)" points="51.53,16.021 57.971,12.463 57.971,48.059 22.542,67.637 22.542,46.277 6.44,55.179 
	6.44,19.579 12.88,23.141 12.88,44.497 28.985,35.596 28.985,56.958 51.53,44.497 "/>
<linearGradient id="SVGID_6_" gradientUnits="userSpaceOnUse" x1="28.9854" y1="48.9473" x2="51.5303" y2="48.9473">
	<stop  offset="0.0121" style="stop-color:#6D55A4"/>
	<stop  offset="0.5091" style="stop-color:#987EBA"/>
	<stop  offset="1" style="stop-color:#B59CCA"/>
</linearGradient>
<polygon fill="url(#SVGID_6_)" points="51.53,44.497 45.091,40.938 28.985,49.838 28.985,56.958 "/>
<linearGradient id="SVGID_7_" gradientUnits="userSpaceOnUse" x1="12.2344" y1="56.957" x2="38.8781" y2="56.957">
	<stop  offset="0" style="stop-color:#664C9F"/>
	<stop  offset="0.2" style="stop-color:#452E81"/>
	<stop  offset="0.6788" style="stop-color:#4E3F99"/>
	<stop  offset="1" style="stop-color:#6D55A4"/>
</linearGradient>
<polygon fill="url(#SVGID_7_)" points="22.542,46.277 16.101,49.838 16.101,64.075 22.542,67.637 "/>
<linearGradient id="SVGID_8_" gradientUnits="userSpaceOnUse" x1="12.8799" y1="38.2676" x2="28.9854" y2="38.2676">
	<stop  offset="0.0121" style="stop-color:#6D55A4"/>
	<stop  offset="0.5091" style="stop-color:#987EBA"/>
	<stop  offset="1" style="stop-color:#B59CCA"/>
</linearGradient>
<polygon fill="url(#SVGID_8_)" points="12.88,37.379 22.542,32.037 28.985,35.596 12.88,44.497 "/>
<linearGradient id="SVGID_9_" gradientUnits="userSpaceOnUse" x1="6.5283" y1="19.5186" x2="6.5283" y2="55.4156">
	<stop  offset="0.0121" style="stop-color:#CDB8D9"/>
	<stop  offset="0.503" style="stop-color:#F5E0ED"/>
	<stop  offset="1" style="stop-color:#CDB8D9"/>
</linearGradient>
<polygon fill="url(#SVGID_9_)" points="6.616,55.079 6.44,55.179 6.44,19.579 6.616,19.675 "/>
<linearGradient id="SVGID_10_" gradientUnits="userSpaceOnUse" x1="51.4424" y1="15.894" x2="51.4424" y2="44.4141">
	<stop  offset="0.0121" style="stop-color:#CDB8D9"/>
	<stop  offset="0.503" style="stop-color:#F5E0ED"/>
	<stop  offset="1" style="stop-color:#CDB8D9"/>
</linearGradient>
<polygon fill="url(#SVGID_10_)" points="51.53,44.497 51.354,44.593 51.354,15.924 51.53,16.021 "/>
<linearGradient id="SVGID_11_" gradientUnits="userSpaceOnUse" x1="35.4258" y1="24.917" x2="35.6016" y2="24.917">
	<stop  offset="0.0121" style="stop-color:#CDB8D9"/>
	<stop  offset="0.503" style="stop-color:#F5E0ED"/>
	<stop  offset="1" style="stop-color:#CDB8D9"/>
</linearGradient>
<polygon fill="url(#SVGID_11_)" points="35.602,35.5 35.426,35.596 35.426,14.238 35.602,14.338 "/>
<linearGradient id="SVGID_12_" gradientUnits="userSpaceOnUse" x1="29.2788" y1="3.6597" x2="51.6372" y2="16.3496">
	<stop  offset="0.0121" style="stop-color:#CDB8D9"/>
	<stop  offset="0.503" style="stop-color:#F5E0ED"/>
	<stop  offset="1" style="stop-color:#CDB8D9"/>
</linearGradient>
<polygon fill="url(#SVGID_12_)" points="51.53,16.021 51.527,16.221 28.985,3.762 28.985,3.562 "/>
<linearGradient id="SVGID_13_" gradientUnits="userSpaceOnUse" x1="0.165" y1="8.96" x2="29.0495" y2="24.792">
	<stop  offset="0.0121" style="stop-color:#CDB8D9"/>
	<stop  offset="0.503" style="stop-color:#F5E0ED"/>
	<stop  offset="1" style="stop-color:#CDB8D9"/>
</linearGradient>
<polygon fill="url(#SVGID_13_)" points="28.985,24.736 28.985,24.921 0,8.9 0.18,8.804 "/>
<linearGradient id="SVGID_14_" gradientUnits="userSpaceOnUse" x1="12.9209" y1="44.4932" x2="28.8757" y2="35.4279">
	<stop  offset="0.0121" style="stop-color:#CDB8D9"/>
	<stop  offset="0.503" style="stop-color:#F5E0ED"/>
	<stop  offset="1" style="stop-color:#CDB8D9"/>
</linearGradient>
<polygon fill="url(#SVGID_14_)" points="28.985,35.596 28.801,35.496 12.88,44.287 12.88,44.497 "/>
<linearGradient id="SVGID_15_" gradientUnits="userSpaceOnUse" x1="29.2393" y1="56.6982" x2="51.3562" y2="44.4916">
	<stop  offset="0.0121" style="stop-color:#CDB8D9"/>
	<stop  offset="0.503" style="stop-color:#F5E0ED"/>
	<stop  offset="1" style="stop-color:#CDB8D9"/>
</linearGradient>
<polygon fill="url(#SVGID_15_)" points="51.53,44.497 51.354,44.396 28.985,56.717 28.985,56.958 "/>
<linearGradient id="SVGID_16_" gradientUnits="userSpaceOnUse" x1="22.5156" y1="46.7119" x2="22.3948" y2="67.2573">
	<stop  offset="0.0121" style="stop-color:#CDB8D9"/>
	<stop  offset="0.503" style="stop-color:#F5E0ED"/>
	<stop  offset="1" style="stop-color:#CDB8D9"/>
</linearGradient>
<polygon fill="url(#SVGID_16_)" points="22.542,67.637 22.369,67.537 22.369,46.375 22.542,46.277 "/>
</svg>
