<?xml version="1.0" encoding="utf-8"?>
<!-- Generator: Adobe Illustrator 15.0.0, SVG Export Plug-In  -->
<!DOCTYPE svg PUBLIC "-//W3C//DTD SVG 1.1//EN" "http://www.w3.org/Graphics/SVG/1.1/DTD/svg11.dtd" [
	<!ENTITY ns_flows "http://ns.adobe.com/Flows/1.0/">
]>
<svg version="1.1"
	 xmlns="http://www.w3.org/2000/svg" xmlns:xlink="http://www.w3.org/1999/xlink" xmlns:a="http://ns.adobe.com/AdobeSVGViewerExtensions/3.0/"
	 x="0px" y="0px" width="68px" height="66px" viewBox="-0.457 -0.011 68 66"
	 overflow="visible" enable-background="new -0.457 -0.011 68 66" xml:space="preserve">
<defs>
</defs>
<linearGradient id="SVGID_1_" gradientUnits="userSpaceOnUse" x1="24.7812" y1="39.2217" x2="67.5986" y2="39.2217">
	<stop  offset="0" style="stop-color:#7CB742"/>
	<stop  offset="0.3333" style="stop-color:#96C93D"/>
	<stop  offset="0.5091" style="stop-color:#A1CD40"/>
	<stop  offset="0.6667" style="stop-color:#96C93D"/>
	<stop  offset="0.8667" style="stop-color:#9FCC3B"/>
	<stop  offset="1" style="stop-color:#8BC43F"/>
</linearGradient>
<polygon fill="url(#SVGID_1_)" points="67.599,12.451 67.599,17.431 47.316,28.639 47.316,53.54 24.781,65.992 24.781,41.092 
	29.293,38.603 29.293,58.522 42.813,51.05 42.813,31.129 29.293,38.597 24.781,41.092 24.781,21.169 29.293,23.655 29.293,33.617 
	"/>
<linearGradient id="SVGID_2_" gradientUnits="userSpaceOnUse" x1="29.0107" y1="56.4697" x2="40.6706" y2="49.5553">
	<stop  offset="0.0121" style="stop-color:#549742"/>
	<stop  offset="1" style="stop-color:#76B843"/>
</linearGradient>
<polygon fill="url(#SVGID_2_)" points="42.81,51.05 38.305,48.56 29.293,53.542 29.293,58.522 "/>
<linearGradient id="SVGID_3_" gradientUnits="userSpaceOnUse" x1="40.5566" y1="32.542" x2="40.5566" y2="49.6269">
	<stop  offset="0" style="stop-color:#83BC41"/>
	<stop  offset="1" style="stop-color:#B0D68A"/>
</linearGradient>
<polygon fill="url(#SVGID_3_)" points="38.305,48.56 42.81,51.05 42.81,31.129 38.305,33.617 "/>
<linearGradient id="SVGID_4_" gradientUnits="userSpaceOnUse" x1="43.1768" y1="-2.5615" x2="12.3025" y2="30.4668">
	<stop  offset="0" style="stop-color:#639F42"/>
	<stop  offset="0.1939" style="stop-color:#7CB742"/>
	<stop  offset="0.5697" style="stop-color:#76B843"/>
	<stop  offset="1" style="stop-color:#569542"/>
</linearGradient>
<path fill="url(#SVGID_4_)" d="M29.293,33.617l38.306-21.167l-4.51-2.493L45.063,0L24.781,11.207L4.506,0L0.001,2.488l38.304,21.167
	l-9.012,4.979V33.617z M29.293,13.697l15.771-8.714l13.52,7.468l-15.775,8.718L29.293,13.697z"/>
<linearGradient id="SVGID_5_" gradientUnits="userSpaceOnUse" x1="9.765625e-04" y1="34.2402" x2="38.3047" y2="34.2402">
	<stop  offset="0" style="stop-color:#B0D68A"/>
	<stop  offset="0.0056" style="stop-color:#AFD585"/>
	<stop  offset="0.028" style="stop-color:#ABD374"/>
	<stop  offset="0.0544" style="stop-color:#A8D166"/>
	<stop  offset="0.0872" style="stop-color:#A6D05C"/>
	<stop  offset="0.1331" style="stop-color:#A5CF57"/>
	<stop  offset="0.2606" style="stop-color:#A5CF55"/>
	<stop  offset="0.5758" style="stop-color:#B0D68A"/>
	<stop  offset="1" style="stop-color:#9FCC3B"/>
</linearGradient>
<path fill="url(#SVGID_5_)" d="M24.784,21.167V41.09v24.902l-4.504-2.493v-24.9L0.001,27.39V2.488l38.304,21.168l-4.505,2.49
	L24.784,21.167z M4.506,9.96v14.94l15.774,8.716V18.674L4.506,9.96z"/>
<linearGradient id="SVGID_6_" gradientUnits="userSpaceOnUse" x1="6.5791" y1="23.5264" x2="20.6826" y2="31.3918">
	<stop  offset="0.0121" style="stop-color:#549742"/>
	<stop  offset="1" style="stop-color:#76B843"/>
</linearGradient>
<polygon fill="url(#SVGID_6_)" points="20.28,33.617 20.28,28.637 9.013,22.413 4.506,24.901 "/>
<linearGradient id="SVGID_7_" gradientUnits="userSpaceOnUse" x1="6.6997" y1="23.5723" x2="6.8023" y2="10.9574">
	<stop  offset="0" style="stop-color:#9FCC3B"/>
	<stop  offset="0.4788" style="stop-color:#96C93D"/>
	<stop  offset="1" style="stop-color:#7CB742"/>
</linearGradient>
<polygon fill="url(#SVGID_7_)" points="4.506,24.901 9.013,22.413 8.995,12.463 4.506,9.96 "/>
<linearGradient id="SVGID_8_" gradientUnits="userSpaceOnUse" x1="30.8711" y1="15.373" x2="45.2313" y2="7.3041">
	<stop  offset="0" style="stop-color:#6CA743"/>
	<stop  offset="0.5212" style="stop-color:#96C93D"/>
	<stop  offset="1" style="stop-color:#9FCC3B"/>
</linearGradient>
<polygon fill="url(#SVGID_8_)" points="29.293,13.697 45.063,4.981 45.063,9.96 33.8,16.188 "/>
<linearGradient id="SVGID_9_" gradientUnits="userSpaceOnUse" x1="56.0176" y1="13.8018" x2="44.5289" y2="6.6899">
	<stop  offset="0" style="stop-color:#9FCC3B"/>
	<stop  offset="1" style="stop-color:#B0D68A"/>
</linearGradient>
<polygon fill="url(#SVGID_9_)" points="45.063,9.96 45.063,4.981 58.585,12.451 54.076,14.941 "/>
<linearGradient id="SVGID_10_" gradientUnits="userSpaceOnUse" x1="4.5347" y1="10.1357" x2="4.6372" y2="25.1125">
	<stop  offset="0" style="stop-color:#B0D68A"/>
	<stop  offset="0.4909" style="stop-color:#BBE0C8"/>
	<stop  offset="1" style="stop-color:#B0D68A"/>
</linearGradient>
<polygon fill="url(#SVGID_10_)" points="4.664,24.991 4.506,24.901 4.506,9.96 4.664,10.048 "/>
<linearGradient id="SVGID_11_" gradientUnits="userSpaceOnUse" x1="4.5479" y1="24.9434" x2="20.3454" y2="33.4576">
	<stop  offset="0" style="stop-color:#B0D68A"/>
	<stop  offset="0.4909" style="stop-color:#BBE0C8"/>
	<stop  offset="1" style="stop-color:#B0D68A"/>
</linearGradient>
<polygon fill="url(#SVGID_11_)" points="20.28,33.44 20.28,33.617 4.506,24.901 4.66,24.809 "/>
<linearGradient id="SVGID_12_" gradientUnits="userSpaceOnUse" x1="44.9854" y1="5.019" x2="58.3215" y2="12.4052">
	<stop  offset="0" style="stop-color:#B0D68A"/>
	<stop  offset="0.4909" style="stop-color:#BBE0C8"/>
	<stop  offset="1" style="stop-color:#B0D68A"/>
</linearGradient>
<polygon fill="url(#SVGID_12_)" points="58.583,12.451 58.423,12.54 44.908,5.076 45.063,4.983 "/>
<linearGradient id="SVGID_13_" gradientUnits="userSpaceOnUse" x1="29.3491" y1="13.75" x2="45.144" y2="5.0321">
	<stop  offset="0" style="stop-color:#B0D68A"/>
	<stop  offset="0.4909" style="stop-color:#BBE0C8"/>
	<stop  offset="1" style="stop-color:#B0D68A"/>
</linearGradient>
<polygon fill="url(#SVGID_13_)" points="45.223,5.073 45.063,4.983 29.293,13.697 29.447,13.789 "/>
<linearGradient id="SVGID_14_" gradientUnits="userSpaceOnUse" x1="29.208" y1="58.6387" x2="42.7488" y2="50.8424">
	<stop  offset="0" style="stop-color:#B0D68A"/>
	<stop  offset="0.4909" style="stop-color:#BBE0C8"/>
	<stop  offset="1" style="stop-color:#B0D68A"/>
</linearGradient>
<polygon fill="url(#SVGID_14_)" points="42.813,51.05 42.653,50.96 29.293,58.343 29.293,58.522 "/>
<linearGradient id="SVGID_15_" gradientUnits="userSpaceOnUse" x1="28.8584" y1="33.6709" x2="67.6315" y2="12.438">
	<stop  offset="0" style="stop-color:#B0D68A"/>
	<stop  offset="0.4909" style="stop-color:#BBE0C8"/>
	<stop  offset="1" style="stop-color:#B0D68A"/>
</linearGradient>
<polygon fill="url(#SVGID_15_)" points="67.599,12.451 67.438,12.361 29.293,33.438 29.293,33.617 "/>
<linearGradient id="SVGID_16_" gradientUnits="userSpaceOnUse" x1="-0.123" y1="2.1846" x2="38.2402" y2="24.0331">
	<stop  offset="0" style="stop-color:#B0D68A"/>
	<stop  offset="0.4909" style="stop-color:#BBE0C8"/>
	<stop  offset="1" style="stop-color:#B0D68A"/>
</linearGradient>
<polygon fill="url(#SVGID_16_)" points="38.306,23.657 38.146,23.747 0,2.668 0,2.488 "/>
<linearGradient id="SVGID_17_" gradientUnits="userSpaceOnUse" x1="24.7812" y1="28.6841" x2="24.9414" y2="28.6841">
	<stop  offset="0" style="stop-color:#B0D68A"/>
	<stop  offset="0.4909" style="stop-color:#BBE0C8"/>
	<stop  offset="1" style="stop-color:#B0D68A"/>
</linearGradient>
<polygon fill="url(#SVGID_17_)" points="24.941,36.199 24.781,36.112 24.781,21.169 24.941,21.256 "/>
<linearGradient id="SVGID_18_" gradientUnits="userSpaceOnUse" x1="24.7588" y1="21.0093" x2="24.9639" y2="66.1395">
	<stop  offset="0" style="stop-color:#B0D68A"/>
	<stop  offset="0.4909" style="stop-color:#BBE0C8"/>
	<stop  offset="1" style="stop-color:#B0D68A"/>
</linearGradient>
<polygon fill="url(#SVGID_18_)" points="24.941,21.256 24.941,65.905 24.781,65.992 24.781,21.169 "/>
<linearGradient id="SVGID_19_" gradientUnits="userSpaceOnUse" x1="42.7334" y1="31.0596" x2="42.7334" y2="51.0674">
	<stop  offset="0" style="stop-color:#B0D68A"/>
	<stop  offset="0.4909" style="stop-color:#BBE0C8"/>
	<stop  offset="1" style="stop-color:#B0D68A"/>
</linearGradient>
<polygon fill="url(#SVGID_19_)" points="42.813,31.129 42.81,51.05 42.653,51.137 42.653,31.216 "/>
</svg>
