<?xml version="1.0" encoding="utf-8"?>
<!-- Generator: Adobe Illustrator 15.0.0, SVG Export Plug-In  -->
<!DOCTYPE svg PUBLIC "-//W3C//DTD SVG 1.1//EN" "http://www.w3.org/Graphics/SVG/1.1/DTD/svg11.dtd" [
	<!ENTITY ns_flows "http://ns.adobe.com/Flows/1.0/">
]>
<svg version="1.1"
	 xmlns="http://www.w3.org/2000/svg" xmlns:xlink="http://www.w3.org/1999/xlink" xmlns:a="http://ns.adobe.com/AdobeSVGViewerExtensions/3.0/"
	 x="0px" y="0px" width="200px" height="60px" viewBox="0.31 0 200 60" overflow="visible" enable-background="new 0.31 0 200 60"
	 xml:space="preserve">
<defs>
</defs>
<path fill="#010101" d="M199.196,52.957c-0.606-0.543-4.501-1.779-6.294-2.73c-1.801-0.956-6.061-2.242-6.594-2.326
	c-0.397-0.061-3.619-0.008-5.231,0.023c-0.03-0.11-0.062-0.219-0.092-0.314c-0.163-0.498-1.229-0.914-1.229-0.914s0-3.154,0-3.82
	c0-0.5-0.603-0.765-0.901-0.865v-1.915c0.117-0.087,0.273-0.2,0.41-0.292c0.245-0.166,0.327-0.582,0.327-0.582l0.009-3.551
	c0.111,0.001,0.207-0.353,0.32-0.353c1.135,0,2.283,0.057,3.243-0.083c0.324-0.42-0.123-0.811,0.94-0.769l1.916,0.083
	c1.271-0.436,1.683-1.203,1.271-1.475c-0.688-0.457-1.271-1.08-2.59-1.697c0.053-0.041,0.098-0.086,0.131-0.13
	c0.492-0.665,7.372-3.073,10.648-6.645c3.277-3.571,4.424-10.133,4.505-11.462c0.082-1.329-0.245-2.908-0.573-3.655
	c-0.327-0.748-0.922-2.066-0.953-2.72c-0.027-0.586,0.134-1.1,0.053-1.682c-0.082-0.582-0.902-0.249-0.902,0.167l-1.514,3.378
	c-0.693,1.042-2.65,3.931-3.012,3.931c-0.43,0-2.15-0.125-2.887-0.187c-0.737-0.062-3.062-0.789-3.43-0.913
	c-0.369-0.125-1.598-0.467-3.39-1.018c-1.662-0.511-7.976-4.869-7.914-5.305c0.034-0.236,0.246-0.841,0.35-1.329
	c0.021-0.112,0.043-0.231,0.07-0.375c0.245-1.33,1.197-1.962,1.197-1.962s0.544-0.539,0.462-0.955
	c-0.081-0.416-0.491-0.665-1.393-0.416c-0.901,0.249-3.521,3.323-4.259,4.734c-0.737,1.411-1.966,6.313-2.212,7.725
	c-0.21,1.205-0.597,6.754-0.604,8.615c-0.103,0.729-1.424,0.791-1.393,2.411c0.021,1.047,1.293,1.496,1.475,1.651
	c-0.316,0.212-0.543,0.69-0.543,1.028c0,0.014,0.005,0.026,0.006,0.04c-4.247,1.387-7.43,3.65-8.268,5.793l0.02,0.24l1.997-0.031
	l0.276,0.218l0.338,0.437l0.062,0.592v0.095c-0.164,0.104-0.374,0.202-0.604,0.299l-0.195,0.012c0,0-0.492,0.094-0.676,0.124
	c-0.185,0.031-1.045,0.155-1.045,0.155l0.027,0.282c0.168,0.253,0.399,0.478,0.659,0.688c0.095,0.447,0.1,0.762,0.522,1.189
	c0.461,0.468,0.665,0.645,1.188,0.955c0.461,0.592,1.17,0.74,2.234,1.143c0.803,0.557,3.037,1.225,4.359,1.225
	c0.966,0,2.383-0.1,3.731-0.615c0.578-0.257,0.859-0.6,1.285-0.693c0.43-0.093,0.817-0.357,1.127-0.074v3.192l-0.573,0.517v4.07
	c-0.312,0.135-0.74,0.465-1.071,0.739c-0.138-0.022-0.271-0.056-0.413-0.065l-7.407-0.564c-0.312-0.053-0.538-0.094-0.61-0.109
	c-0.421-0.096-1.884,0.041-2.457,0.291c-0.439,0.191-5.105,3.271-7.248,4.692c-0.109,0.071-0.2,0.134-0.297,0.196
	c-0.396,0.005-0.765,0.012-0.933,0.012c-0.41,0-2.867,0.123-3.481,0.166c-1.494,0.104-1.863,1.08-1.863,1.08
	c-0.308,0.833-0.436,1.047-0.43,1.765c-0.013,0.122-0.041,0.784-0.041,0.909v3.125 M35.027,51.588
	c0.024-0.043,0.04-0.086,0.032-0.123c-0.024-0.111-0.197-0.183-0.465-0.219c0.208-0.171,0.319-0.322,0.284-0.428
	c-0.035-0.11-0.215-0.16-0.483-0.17c0.189-0.193,0.284-0.354,0.24-0.454c-0.048-0.105-0.231-0.136-0.5-0.118
	c0.168-0.212,0.248-0.381,0.19-0.479c-0.056-0.099-0.241-0.109-0.509-0.064c0.148-0.227,0.211-0.404,0.144-0.495
	c-0.066-0.092-0.253-0.085-0.513-0.01c0.123-0.243,0.166-0.427,0.091-0.507c-0.076-0.085-0.259-0.059-0.511,0.041
	c0.098-0.253,0.121-0.438,0.039-0.514c-0.085-0.076-0.266-0.03-0.503,0.096c0.069-0.26,0.074-0.449-0.016-0.514
	c-0.09-0.066-0.267-0.004-0.489,0.147c0.042-0.268,0.028-0.454-0.067-0.511c-0.018-0.011-0.05,0.007-0.073,0.005l0.06-1.527
	c0.058-1.481-1.079-2.728-2.538-2.786l-2.337-0.092c-0.524-1.07-1.476-1.923-2.654-2.361l0.023-0.598
	c0.183-0.037,0.346-0.078,0.471-0.123l0.023-0.602c-0.122-0.056-0.281-0.109-0.46-0.162l0.014-0.372
	c0.183-0.039,0.346-0.079,0.473-0.125l0.022-0.603c-0.123-0.055-0.282-0.109-0.461-0.162l0.016-0.371
	c0.182-0.039,0.345-0.08,0.471-0.125l0.022-0.602c-0.121-0.057-0.28-0.109-0.458-0.163l0.013-0.37
	c0.183-0.039,0.346-0.08,0.472-0.125l0.023-0.603c-0.122-0.056-0.281-0.109-0.46-0.163l0.014-0.369
	c0.182-0.041,0.345-0.081,0.472-0.126l0.023-0.603c-0.123-0.056-0.282-0.109-0.46-0.162l0.015-0.37
	c0.182-0.04,0.344-0.081,0.47-0.126l0.024-0.602c-0.123-0.057-0.281-0.109-0.46-0.163l0.014-0.37c0.182-0.04,0.346-0.08,0.472-0.125
	l0.023-0.604c-0.123-0.055-0.282-0.108-0.461-0.162l0.015-0.371c0.183-0.039,0.345-0.08,0.471-0.125l0.023-0.602
	c-0.123-0.056-0.282-0.109-0.46-0.162l0.015-0.371c0.183-0.039,0.345-0.079,0.472-0.126l0.022-0.602
	c-0.122-0.056-0.281-0.109-0.46-0.163l0.014-0.371c0.183-0.039,0.346-0.079,0.472-0.125l0.023-0.602
	c-0.123-0.056-0.282-0.109-0.46-0.162l0.015-0.372c0.182-0.039,0.344-0.079,0.471-0.125l0.022-0.602
	c-0.12-0.055-0.28-0.109-0.459-0.162l0.012-0.304c2.592-1.248,4.433-3.873,4.553-6.983c0.117-3.042-1.452-5.735-3.85-7.208
	l0.044-1.127l-0.597-0.023l0.089-2.295l-9.437-0.374l-0.088,2.294l-0.839-0.033l-0.049,1.259c-2.374,1.318-4.033,3.816-4.146,6.759
	c-0.108,2.811,1.214,5.342,3.309,6.873l-0.031,0.811c-0.124,0.036-0.234,0.073-0.315,0.114l-0.019,0.463
	c0.079,0.046,0.186,0.093,0.307,0.139l-0.021,0.544c-0.124,0.036-0.233,0.074-0.315,0.115l-0.019,0.462
	c0.08,0.047,0.186,0.094,0.307,0.138l-0.004,0.085c-1.079,0.231-1.919,0.933-2.171,1.843l-0.061-0.003
	c0.004,0.052,0.02,0.1,0.025,0.15c-0.01,0.051-0.029,0.098-0.035,0.148l0.06,0.002c0.18,0.928,0.962,1.693,2.021,2.01l-0.003,0.091
	c-0.124,0.036-0.234,0.074-0.316,0.114l-0.019,0.463c0.079,0.047,0.186,0.094,0.307,0.139l-0.021,0.546
	c-0.123,0.034-0.232,0.073-0.315,0.112l-0.018,0.465c0.079,0.045,0.185,0.092,0.306,0.139l-0.021,0.545
	c-0.123,0.035-0.233,0.074-0.314,0.112l-0.019,0.464c0.079,0.047,0.186,0.094,0.307,0.139l-0.021,0.545
	c-0.125,0.035-0.234,0.074-0.315,0.113l-0.019,0.465c0.079,0.045,0.186,0.093,0.306,0.138l-0.021,0.545
	c-0.124,0.035-0.233,0.074-0.315,0.114l-0.018,0.463c0.079,0.046,0.185,0.094,0.306,0.139l-0.021,0.545
	c-0.124,0.035-0.234,0.074-0.315,0.113l-0.019,0.465c0.078,0.045,0.186,0.092,0.306,0.137l-0.019,0.506
	c-1.486,0.22-2.74,1.091-3.447,2.296l-1.926-0.077c-1.458-0.057-2.688,1.096-2.746,2.576l-0.089,2.312
	c-0.11-0.146-0.213-0.225-0.299-0.205c-0.108,0.023-0.178,0.197-0.217,0.465c-0.168-0.215-0.316-0.33-0.423-0.294
	c-0.107,0.034-0.157,0.215-0.17,0.485c-0.188-0.194-0.347-0.293-0.449-0.246c-0.103,0.045-0.135,0.229-0.12,0.5
	c-0.208-0.173-0.376-0.257-0.473-0.199c-0.096,0.057-0.11,0.243-0.067,0.511c-0.224-0.15-0.399-0.214-0.49-0.146
	c-0.09,0.063-0.085,0.253-0.014,0.513c-0.239-0.127-0.42-0.172-0.503-0.096c-0.083,0.076-0.059,0.262,0.038,0.514
	c-0.251-0.1-0.435-0.126-0.51-0.041c-0.075,0.08-0.032,0.265,0.09,0.507c-0.26-0.075-0.446-0.081-0.512,0.01
	c-0.067,0.091-0.005,0.269,0.143,0.495c-0.266-0.045-0.453-0.033-0.509,0.064c-0.057,0.098,0.023,0.267,0.191,0.477
	c-0.268-0.018-0.453,0.016-0.499,0.12c-0.045,0.102,0.05,0.261,0.24,0.454c-0.269,0.01-0.449,0.061-0.485,0.17
	c-0.034,0.105,0.078,0.257,0.286,0.428c-0.267,0.035-0.44,0.107-0.465,0.218c-0.017,0.079,0.046,0.172,0.163,0.271 M123.31,55.021
	c-0.179-0.165-0.436-0.33-0.761-0.498c-0.079-0.051-0.158-0.104-0.239-0.151c-1.115-1.038-2.658-2.128-3.54-2.823
	c-1.197-0.943-6.052-2.4-9.039-3.428c-2.005-1.833-4.101-4.445-4.708-4.752c-0.42-0.213-0.677-0.225-0.953-0.176
	c0.593-0.891,1.128-2.247,1.301-2.771c0.173-0.525,0.303-3.121,0.303-3.121c0.303-0.66,0.477-1.013,1.04-1.408
	c0,0,1.139-0.951,1.432-1.363c0.548-0.771,0.911-1.979,1.302-3.033c0,0,0.78-2.847,0.78-3.377c0-1.015-0.787-1.836-1.774-1.89
	l0.213-1.726l0.309-1.252l-0.146,0.264l0.357-2.045c0,0,0-3.298,0.261-5.146c0.26-1.846-0.131-3.43-0.261-4.618
	c-0.127-1.159-5.701-5.454-6.325-5.899c0.364,0.404,0.568,0.656,0.472,0.623c-0.113-0.038-0.482-0.295-0.954-0.653
	c-0.224,0.107-0.474,0.285-0.868,0.126c-0.65-0.264-6.114-3.034-6.505-3.298c-0.094-0.064-0.211-0.097-0.334-0.11
	c-0.605-0.549-1.324-1.094-0.967-0.764c0.358,0.33,0.243,0.396,0.535,0.78c-0.227,0.034-0.404,0.094-0.404,0.094l-0.521,0.923
	l-0.627,0.239c-0.449-0.491-0.77-0.862-0.803-0.965c-0.129-0.387-0.191,0.679-0.011,1.093c-0.673-0.043-2.02-0.107-2.646,0.009
	c0.719,0.322,1.192,0.553,1.063,0.563c-0.14,0.012-0.73-0.116-1.464-0.308c-0.078,0.117-0.225,0.259-0.395,0.404
	c-0.285-0.165-0.5-0.277-0.572-0.295c-0.078-0.02,0.106,0.155,0.417,0.422c-0.438,0.351-0.947,0.683-0.947,0.683
	s-3.643,2.11-4.294,2.77c-0.627,0.636-2.82,5.554-3.094,6.377c-0.08-0.095-0.133-0.166-0.172-0.225
	c0.03,0.273-0.031,0.67-0.101,0.896c0.015,0.052,0.03,0.101,0.049,0.141c0.028,0.056,0.08,0.126,0.141,0.204
	c-0.019,1.337,0.055,3.556,0.055,3.556s0.521,2.375,0.781,3.298l0.26,1.583c-0.91,0.791-1.69,1.583-1.562,2.506
	c0.131,0.924,0.261,2.902,0.261,3.826c0,0.923-0.521,2.901,0.13,3.166c0.519,0.211,1.442,1.152,2.062,1.004
	c0.142,0.756,0.194,1.896,0.215,2.244c0.02,0.349,0.162,1.551,0.162,1.551s0.569,3.463,1.464,4.303c0,0,0,2.111-0.131,3.694
	c0,0-4.684,0.66-6.504,1.451c-1.822,0.792-2.472,0.265-3.513,1.716s-3.253,4.09-3.644,4.881c-0.026,0.057-0.04,0.111-0.062,0.17
	c-0.709,1.141-1.479,3.424-2.097,5.512 M196.526,14.49c0.479-0.143,0.634-0.72,0.594-0.354c-0.087,0.813-0.226,2.783-0.573,3.323
	c-0.107,0.169-0.85-0.098-1.68-0.104C194.969,16.623,195.461,15.579,196.526,14.49z M181.949,16.793
	c-0.896-0.209-1.85-0.331-2.849-0.331c-0.024,0-0.048,0.003-0.072,0.004c0.1-0.306,0.201-0.612,0.307-0.921
	c0.864,0.407,1.757,0.806,2.644,1.174C181.968,16.743,181.958,16.768,181.949,16.793z M185.556,18.374
	c-0.49-0.353-1.036-0.668-1.637-0.933c0.587,0.177,1.22,0.302,1.864,0.405C185.708,18.022,185.633,18.197,185.556,18.374z
	 M187.614,20.708c-0.305-0.618-0.747-1.19-1.294-1.705c0.131-0.342,0.261-0.683,0.387-1.024c1.048,0.119,2.119,0.172,3.14,0.191
	C189.019,19.276,188.2,20.258,187.614,20.708z M191.795,14.552c-0.296,0.8-0.622,1.782-1.326,2.767
	c-1.124-0.111-2.284-0.247-3.376-0.396c0.383-1.071,0.706-2.035,0.916-2.724C189.708,14.55,190.625,14.571,191.795,14.552z
	 M184.103,13.077c0.334,0.127,0.667,0.248,0.996,0.354c0.743,0.236,1.441,0.429,2.103,0.588c-0.179,0.704-0.538,1.69-0.981,2.779
	c-1.066-0.16-2.035-0.33-2.778-0.501c-0.105-0.024-0.222-0.062-0.331-0.091C183.536,14.958,183.896,13.822,184.103,13.077z
	 M183.318,12.753c-0.128,0.726-0.533,1.904-1.037,3.202c-0.861-0.29-1.786-0.677-2.705-1.112c0.432-1.239,0.869-2.418,1.203-3.3
	C181.602,11.973,182.459,12.387,183.318,12.753z M179.831,11.04c-0.352,0.871-0.753,2.08-1.141,3.37
	c-0.89-0.45-1.745-0.92-2.483-1.354c0.535-1.304,1.047-2.493,1.383-3.257C178.257,10.169,179.021,10.6,179.831,11.04z
	 M174.821,8.437c0.215-0.249,0.923,0.379,1.853,0.865c-0.383,0.725-0.859,1.906-1.339,3.228c-0.908-0.567-1.508-1.005-1.559-1.134
	C173.612,10.979,174.225,9.127,174.821,8.437z M173.652,17.657c-0.955,0.244-1.585,0.016-1.637-0.115
	c-0.164-0.416,0.615-3.903,1.188-4.484c0.182-0.184,0.842,0.021,1.791,0.431C174.479,14.966,173.993,16.491,173.652,17.657z
	 M174.603,17.313c0.333-1.021,0.791-2.237,1.269-3.428c0.768,0.359,1.658,0.796,2.604,1.25c-0.135,0.462-0.265,0.922-0.389,1.375
	C176.83,16.612,175.651,16.891,174.603,17.313z"/>
</svg>
