<?xml version="1.0" encoding="utf-8"?>
<!-- Generator: Adobe Illustrator 15.0.0, SVG Export Plug-In  -->
<!DOCTYPE svg [
	<!ENTITY ns_flows "http://ns.adobe.com/Flows/1.0/">
]>
<svg version="1.2" baseProfile="tiny"
	 xmlns="http://www.w3.org/2000/svg" xmlns:xlink="http://www.w3.org/1999/xlink" xmlns:a="http://ns.adobe.com/AdobeSVGViewerExtensions/3.0/"
	 x="0px" y="0px" width="925px" height="416px" viewBox="0 0 925 416" overflow="visible" xml:space="preserve">
<defs>
</defs>
<path fill="#FFFFFF" d="M739.7,374.1L739.7,374.1l-12-20.6l-29-12.9L554,325.4l0,0l0,0L511.6,351l-33.6-4.6l0,0l-32.2-22l0,0l0,0
	v-0.1l-32.8-6.1l0,0l0,0L371.5,337l0,0l0,0l0,0l0,0l0,0l0,0l-48.2,11.7l0,0l0,0l-29.6-8.3l0,0l0,0l0,0l0,0l0,0l-0.4-30.3L243,291.5
	l0,0l0,0l-39.6-5.9v0.2l0,0l0,0l-0.1-0.2l0,0l0,0l0,0l0,0l0,0l-59.4-7.7l0,0l-33.9,4.6l-31.3-7.9l0,0l-42.1,10.6l-22-11.9l0,0
	L1.2,247.6l0,0l0,0l0,0l0,0L8,223.1l0,0l-8-24.9l0,0l0,0l0,0l25-13.4l-9.6-44.4l0,0l0,0l-15-31.1l0,0l-0.1-0.1L7.8,69l0.5,1.2V0
	h908.8v281.7l6.3,22.2l-25,13.4l9.6,44.4 M739.7,374.1l45.8,24.7l0,0l0,0l0,0l36,15.6l0.3,0.4l0,0l12.9-19.6l4.1-6.2l0,0l0,0
	l42.6,16.1l0,0l0.5-0.1l41.1-12.1l0,0l0,0l0,0v-0.2l0,0l0,0h-0.2l-15-31.1"/>
<polygon fill-rule="evenodd" fill="#D1D1D1" points="708.8,11 708.8,10 792.8,10 792.8,11 708.8,11 "/>
<polygon fill-rule="evenodd" fill="#F1F1F1" points="692.8,81 701.8,72 692.8,81 "/>
<polygon fill-rule="evenodd" fill="#9D9D9D" points="840.8,78 844.8,85 851.8,97 858.8,115 840.8,78 "/>
<polygon fill-rule="evenodd" fill="#3B3B3B" points="684.8,92 647.8,140 661.8,127 660.8,123 661.8,125 684.8,92 "/>
<polygon fill-rule="evenodd" points="861.8,143 862.8,140 866.8,143 866.8,144 863.8,160 862.8,162 859.8,165 863.8,152 859.8,150 
	861.8,144 861.8,143 "/>
<polygon fill-rule="evenodd" fill="#F1F1F1" points="857.8,149 857.8,154 855.8,157 855.8,146 857.8,149 "/>
<polygon fill-rule="evenodd" fill="#F1F1F1" points="855.8,171 858.8,183 855.8,171 "/>
<polygon fill-rule="evenodd" fill="#F1F1F1" points="863.8,181 863.8,183 861.8,186 860.8,176 863.8,181 "/>
<polygon fill-rule="evenodd" fill="#3B3B3B" points="683.8,181 681.8,182 680.8,185 679.8,183 674.8,184 673.8,191 670.8,192 
	664.8,192 668.8,182 668.8,190 673.8,181 683.8,181 "/>
<polygon fill-rule="evenodd" fill="#F1F1F1" points="854.8,184 858.8,184 862.8,204 854.8,200 854.8,184 "/>
<polygon fill-rule="evenodd" points="643.8,197 642.8,200 643.8,194 643.8,197 "/>
<polygon fill-rule="evenodd" fill="#F1F1F1" points="849.8,217 840.8,206 843.8,201 849.8,217 "/>
<polygon fill-rule="evenodd" points="842.8,216 838.8,208 840.8,209 842.8,216 "/>
<polygon fill-rule="evenodd" points="834.8,210 837.8,218 834.8,210 "/>
<polygon fill-rule="evenodd" fill="#D1D1D1" points="864.8,227 869.8,229 870.8,232 864.8,227 "/>
<polygon fill-rule="evenodd" fill="#F1F1F1" points="697.8,257 697.8,243 699.8,246 697.8,256 697.8,257 "/>
<polygon fill-rule="evenodd" fill="#F1F1F1" points="678.8,254 682.8,248 682.8,254 685.8,249 690.8,249 676.8,262 678.8,255 
	678.8,254 "/>
<polygon fill-rule="evenodd" fill="#F1F1F1" points="840.8,291 841.8,291 840.8,309 840.8,297 840.8,291 "/>
<polygon fill-rule="evenodd" fill="#F1F1F1" points="637.8,150 661.8,94 678.8,55 688.8,37 704.8,10 708.8,10 708.8,11 696.8,24 
	698.8,23 692.8,33 688.8,42 680.8,56 680.8,57 676.8,62 642.8,134 642.8,135 637.8,150 "/>
<path fill-rule="evenodd" fill="#F1F1F1" d="M636.8,157l-1,9l-1,6l-10,20l7-8l2,40l7-16l7,8l2-21l2,3v1l1,4l3-3v1l4,28l9-20l12-4
	l2,4v2l-1,9l-3-3l-1,22l-7,19l-3,7l-1,3l-7,4v-3l-4-9l-7,13l-1,2l-3-9l13-12l-2-16l-2-4l3-5l-3,3l-3-31v22l-7-4l-1,5l-4-4l-5,15
	l-7-22l-5-19l10-15L636.8,157L636.8,157z M668.8,254l-5,4l7-43l-12,36l1,3l3-1l-5,5l4-1v10h4L668.8,254L668.8,254z M628.8,193l1-3
	l2,30L628.8,193L628.8,193z"/>
<path fill-rule="evenodd" fill="#F1F1F1" d="M866.8,172l-2,41l24,51h-10l-2,5l-8-3l2,4l-18,3l-6-3l-4,6h-1v-7l5-2l-1-17l-2,5l-7-14
	l9,7l-4-11v-1l-4-8l12,4v-12l3,1l-5-19l7,10l2-7l2,4h3l5-36V172L866.8,172z M870.8,232l-1-3l-5-2L870.8,232L870.8,232z M878.8,255
	l-4-11l-5-2L878.8,255L878.8,255z"/>
<polygon fill-rule="evenodd" fill="#F1F1F1" points="844.8,85 851.8,97 844.8,85 "/>
<polygon fill-rule="evenodd" fill="#3B3B3B" points="816.8,43 840.8,78 858.8,115 859.8,118 858.8,119 854.8,115 854.8,120 
	851.8,118 854.8,130 860.8,138 863.8,138 865.8,130 867.8,134 866.8,143 862.8,140 861.8,143 856.8,132 857.8,134 854.8,135 
	853.8,136 850.8,125 850.8,118 848.8,120 850.8,115 821.8,57 825.8,60 818.8,54 812.8,49 820.8,51 816.8,43 "/>
<polygon fill-rule="evenodd" fill="#3B3B3B" points="850.8,153 852.8,153 852.8,145 850.8,147 853.8,143 852.8,160 851.8,160 
	850.8,153 "/>
<polygon fill-rule="evenodd" fill="#3B3B3B" points="843.8,157 837.8,157 841.8,151 844.8,161 843.8,157 "/>
<polygon fill-rule="evenodd" fill="#3B3B3B" points="837.8,160 836.8,160 831.8,179 834.8,158 836.8,159 837.8,160 "/>
<polygon fill-rule="evenodd" fill="#9D9D9D" points="827.8,195 831.8,179 836.8,160 837.8,160 837.8,157 843.8,157 840.8,156 
	838.8,163 835.8,163 835.8,167 835.8,168 836.8,179 827.8,195 "/>
<polygon fill-rule="evenodd" fill="#3B3B3B" points="837.8,253 837.8,250 840.8,267 840.8,274 834.8,259 832.8,264 828.8,261 
	828.8,267 825.8,265 826.8,259 834.8,257 836.8,266 837.8,254 837.8,253 "/>
<polygon fill-rule="evenodd" fill="#3B3B3B" points="796.8,258 803.8,255 803.8,260 803.8,257 796.8,258 "/>
<polygon fill-rule="evenodd" fill="#3B3B3B" points="751.8,268 733.8,252 751.8,268 "/>
<polygon fill-rule="evenodd" fill="#3B3B3B" points="732.8,252 710.8,233 707.8,238 696.8,226 691.8,210 695.8,212 695.8,213 
	704.8,226 706.8,223 732.8,252 "/>
<polygon fill-rule="evenodd" fill="#3B3B3B" points="689.8,196 699.8,207 691.8,203 689.8,196 "/>
<polygon fill-rule="evenodd" fill="#3B3B3B" points="692.8,142 697.7,186.9 730.8,227 693.8,189 689.8,181 688.8,180 692.8,182 
	692.8,173 684.8,169 690.8,171 689.8,165 684.8,167 691.8,169 692.8,142 "/>
<polygon fill-rule="evenodd" fill="#3B3B3B" points="731.8,227 779.8,233 731.8,227 "/>
<polygon fill-rule="evenodd" fill="#3B3B3B" points="779.8,68 771.8,54 783.8,68 781.8,68 779.8,68 "/>
<polygon fill-rule="evenodd" fill="#3B3B3B" points="767.8,59 765.8,52 771.8,52 770.8,49 767.8,59 "/>
<polygon fill-rule="evenodd" fill="#3B3B3B" points="767.8,60 769.8,61 762.8,68 765.8,65 759.8,62 767.8,60 "/>
<polygon fill-rule="evenodd" fill="#3B3B3B" points="710.8,96 725.8,80 710.8,96 "/>
<polygon fill-rule="evenodd" fill="#3B3B3B" points="701.8,111 700.8,116 700.8,119 699.8,130 694.8,136 694.8,137 693.8,137 
	696.8,116 697.8,120 701.8,111 "/>
<polygon fill-rule="evenodd" fill="#3B3B3B" points="656.8,201 654.8,194 660.8,199 664.8,193 665.8,192 667.8,202 667.8,204 
	666.8,206 665.8,202 662.8,201 659.8,207 657.8,205 656.8,201 "/>
<polygon fill-rule="evenodd" fill="#3B3B3B" points="654.8,193 652.8,194 649.8,189 643.8,194 642.8,200 643.8,197 637.8,203 
	637.8,195 646.8,186 638.8,191 635.8,188 644.8,145 684.8,100 653.8,145 645.8,149 649.8,148 640.8,173 636.8,176 651.8,158 
	670.8,137 642.8,179 637.8,179 641.8,182 641.8,187 653.8,179 654.8,193 "/>
<polygon fill-rule="evenodd" fill="#3B3B3B" points="684.8,99 700.8,80 684.8,99 "/>
<polygon fill-rule="evenodd" fill="#3B3B3B" points="701.8,80 706.8,76 701.8,80 "/>
<polygon fill-rule="evenodd" fill="#3B3B3B" points="715.8,51 721.8,51 719.8,53 716.8,54 712.8,55 715.8,51 "/>
<polygon fill-rule="evenodd" fill="#9D9D9D" points="709.8,54 722.8,46 715.8,51 712.8,55 716.8,54 710.8,57 709.8,54 "/>
<polygon fill-rule="evenodd" fill="#3B3B3B" points="708.8,54 703.8,60 694.8,68 703.8,56 692.8,71 688.8,74 674.8,94 708.8,54 "/>
<polygon fill-rule="evenodd" fill="#3B3B3B" points="675.8,76 666.8,93 664.8,108 671.8,101 662.8,114 666.8,99 663.8,98 664.8,95 
	672.8,78 675.8,76 "/>
<polygon fill-rule="evenodd" fill="#3B3B3B" points="675.8,75 686.8,60 683.8,65 704.8,43 699.8,51 690.8,60 708.8,45 705.8,49 
	697.8,55 705.8,50 679.8,77 684.8,67 675.8,75 "/>
<path fill-rule="evenodd" d="M814.8,116l-23-43l-8-5l-12-14v-2h-6l2,7v1l-8,2l6,3l-3,3h-8l-20,5l-9,7l-15,16l-9,15l-4,9l-1-4l-3,21
	l-1,5l-1,27l-7-2v2l8,4v9l-4-2l-5,1h-10l-5,9v-8l-4,10v1l-4,6l-6-5v-1l-1-14l-12,8v-5l-4-3h5l28-42l-19,21l-15,18l4-3l9-25l-4,1l8-4
	l31-45v-1l16-19h1l5-4l1-1l7-5l3-2l25-12l-21-1l5-3l15-4l-20,3h-6l7-5l-13,8h-1l-34,40l-3,7l-7,7l2-15l9-17v-1l9-8l-5,10l26-27v-1
	l3-4l-18,15l9-9l5-8l-21,22l3-5l5-7l18-17l-13,10h-1l-6,6l8-11h-6l1-8l6-10l-2,1l12-13h84l21,32h3l4,8l-8-2l6,5l3,3l29,58l-2,5l2,5
	l3,11v7l-3,4v6l1,7v2l-7,1v-2l-3-10l-4,6v3l-1-1l-2-1l-3,21l-4,16l-2,9l2,13l-3,11l-3-2l-5,26v17l3,7l6-11l3,2v-6l4,3l2-5l6,15v17v6
	l-1,12v4h-18l-18-13l-1,9l-4,4h-24l23-16l2-14l2-11l1-7l1-5v-5l-7,3l-11,8l-27,4l-7-2l-18-16h-1l-26-29l-4-10l-1-2l-2-4l-10-11l1-1
	l4,2l-1-8l37,38h1l45.2,5l4.6-1.5l38.2-49.5v-7l1-43L814.8,116L814.8,116z"/>
<polygon fill-rule="evenodd" fill="#3B3B3B" points="696.8,46 709.8,36 691.8,53 701.8,43 696.8,46 "/>
<polygon fill-rule="evenodd" fill="#3B3B3B" points="692.8,33 691.8,41 697.8,41 689.8,52 695.8,46 689.8,53 687.8,54 679.8,59 
	680.8,57 680.8,56 688.8,42 692.8,33 "/>
<polygon fill-rule="evenodd" fill="#9D9D9D" points="696.8,46 701.8,43 691.8,53 686.8,60 675.8,75 675.8,76 672.8,78 689.8,53 
	695.8,46 696.8,46 "/>
<polygon fill-rule="evenodd" fill="#9D9D9D" points="680.8,57 679.8,59 687.8,54 672.8,75 676.8,62 680.8,57 "/>
<polygon fill-rule="evenodd" fill="#9D9D9D" points="680.8,56 688.8,42 680.8,56 "/>
<polygon fill-rule="evenodd" fill="#9D9D9D" points="705.8,50 697.8,55 705.8,49 705.8,50 "/>
<polygon fill-rule="evenodd" fill="#9D9D9D" points="767.8,59 770.8,49 771.8,52 771.8,54 779.8,68 770.8,56 769.8,61 767.8,60 
	767.8,59 "/>
<polygon fill-rule="evenodd" fill="#9D9D9D" points="818.8,54 825.8,60 821.8,57 818.8,54 "/>
<path fill-rule="evenodd" fill="#D1D1D1" d="M716.8,54l3-1l2,2l21,1l-25,12l8-8h-6l1-3l-3,1l1-2v-1l-18,15l17-14l-4,7l-6,6l-9,9
	l16-8l-7,5l-17,14l1-4l-11,11l16-24l-2,1l9-13l5-6h1l1,3L716.8,54L716.8,54z M701.8,72l-9,9L701.8,72L701.8,72z"/>
<polygon fill-rule="evenodd" fill="#F1F1F1" points="717.8,56 700.8,70 718.8,55 718.8,56 717.8,56 "/>
<polygon fill-rule="evenodd" fill="#F1F1F1" points="713.8,66 725.8,60 717.8,68 714.8,70 698.8,78 707.8,69 713.8,66 "/>
<path fill-rule="evenodd" fill="#9D9D9D" d="M703.8,60l-9,13l2-1l-16,24l11-11l-1,4l17-14l-1,1l-5,4h-1l-16,19v1l-40,45l-9,43l3,3
	l8-5l-9,9v8l6-6v-3l6-5l3,5l2-1v1l2,7h-1v-1l-1-5l-3,4v-1l-1-5l-6,3l1,10l-8,3l-3-37l1-6l10-23l-3-8v-1l22-39l-1,3l3,1l-4,15l9-13
	l3-7l14-20l4-3l11-15l-9,12L703.8,60L703.8,60z M661.8,125l-1-2l1,4l-14,13l37-48L661.8,125L661.8,125z"/>
<polygon fill-rule="evenodd" fill="#9D9D9D" points="713.8,63 717.8,56 718.8,56 717.8,58 720.8,57 719.8,60 725.8,60 713.8,66 
	713.8,63 "/>
<polygon fill-rule="evenodd" fill="#D1D1D1" points="651.8,198 649.8,195 647.8,216 640.8,208 633.8,224 631.8,184 624.8,192 
	634.8,172 637.8,209 645.8,206 644.8,196 650.8,193 651.8,198 "/>
<polygon fill-rule="evenodd" fill="#D1D1D1" points="636.8,157 637.8,150 642.8,135 645.8,143 635.8,166 636.8,157 "/>
<polygon fill-rule="evenodd" fill="#D1D1D1" points="642.8,134 676.8,62 672.8,75 687.8,54 689.8,53 672.8,78 664.8,95 642.8,134 
	"/>
<polygon fill-rule="evenodd" fill="#3B3B3B" points="707.8,69 713.8,63 713.8,66 707.8,69 "/>
<polygon fill-rule="evenodd" fill="#9D9D9D" points="725.8,80 734.8,73 736.8,73 700.8,116 701.8,111 710.8,96 725.8,80 "/>
<polygon fill-rule="evenodd" fill="#F1F1F1" points="745.8,82 745.8,86 741.8,88 745.8,82 "/>
<polygon fill-rule="evenodd" fill="#9D9D9D" points="848.8,120 850.8,118 850.8,125 848.8,120 "/>
<polygon fill-rule="evenodd" fill="#9D9D9D" points="854.8,135 857.8,134 856.8,132 861.8,143 861.8,144 859.8,143 858.8,157 
	857.8,154 857.8,149 855.8,135 854.8,135 "/>
<polygon fill-rule="evenodd" fill="#9D9D9D" points="867.8,134 866.8,144 866.8,143 867.8,134 "/>
<polygon fill-rule="evenodd" fill="#3B3B3B" points="858.8,157 859.8,143 861.8,144 859.8,150 863.8,152 859.8,165 862.8,162 
	860.8,166 865.8,180 863.8,176 861.8,171 858.8,158 858.8,157 "/>
<polygon fill-rule="evenodd" fill="#9D9D9D" points="850.8,147 852.8,145 852.8,153 850.8,153 850.8,147 "/>
<polygon fill-rule="evenodd" fill="#9D9D9D" points="858.8,158 861.8,171 859.8,173 858.8,158 "/>
<path fill-rule="evenodd" fill="#D1D1D1" d="M857.8,149l-2-3v11l2-3l1,3v1l1,15l2-2l2,5v5l-3-5l1,10l2-3l1,11l2-21l-5,36h-3l-2-4
	l-2,7l-7-10l5,19l-3-1v12l-12-4l4,8l-4-3v-1l-3-3v-7l11,2l-13-34l-2,12l-1-3l-2,6l-2-1l2-9l9-16l-1-11l-1,25l5,12l4-6l-1-7l1,5h3
	l-1-8l-1-24l2,14l6,17v-36l1-17v-7l1-1h1L857.8,149L857.8,149z M843.8,201l-3,5l9,11L843.8,201L843.8,201z M858.8,183l-3-12
	L858.8,183L858.8,183z M854.8,200l8,4l-4-20h-4V200L854.8,200z"/>
<path fill-rule="evenodd" fill="#F1F1F1" d="M844.8,165l1,24l1,8h-3l-1-5l1,7l-4,6l-5-12l1-25v-1l1-3l3,1l1-7l4,3v2V165L844.8,165z
	 M840.8,163l-1,9l-2-3l1,6l5,4L840.8,163L840.8,163z"/>
<polygon fill-rule="evenodd" fill="#9D9D9D" points="851.8,160 852.8,160 852.8,196 846.8,179 850.8,186 849.8,174 851.8,162 
	851.8,160 "/>
<polygon fill-rule="evenodd" fill="#9D9D9D" points="863.8,160 866.8,172 866.8,173 864.8,194 863.8,183 863.8,181 863.8,176 
	865.8,180 860.8,166 862.8,162 863.8,160 "/>
<polygon fill-rule="evenodd" fill="#9D9D9D" points="684.8,167 689.8,165 690.8,171 684.8,169 684.8,167 "/>
<path fill-rule="evenodd" fill="#9D9D9D" d="M825.8,204l2,1l2-6l1,3l2-12l13,34l-11-2v7l3,3l-2-2l-2,1l4,2l4,3v1v3l-7-4l7,31h-1
	l-3-17v3l-7-34l-3,10v-12L825.8,204L825.8,204z M830.8,216l-2-10v-1L830.8,216L830.8,216z"/>
<polygon fill-rule="evenodd" fill="#D1D1D1" points="683.8,181 688.8,180 689.8,181 688.8,181.5 690.8,191 685.8,183 682.8,187 
	682.8,188 682.8,189 681.8,182 683.8,181 "/>
<path fill-rule="evenodd" fill="#9D9D9D" d="M681.8,182l1,7l1,9l-2-1l6,7.2l3,7.8l-3-10l4,1l8,4l2,4l-7-5l1,6l-4-2l5,16l11,12l3-5
	l22,19h1l18,16l7,2l-46-31l-2-4l-4,23l-4,11h-3l-2-11v-1v-1l1-1l2,3v7l4-8l2-13l-2,4l-2-16l-5-4l-3,22l1-7l-6,1l3-1l-6,4l-1-11
	l-5,10l-3-23l5,2l2,7l-2-21v-2l-4-12v5h-11l-2-10l-1,1v-1h6l3-1l1-7l5-1l1,2L681.8,182L681.8,182z"/>
<polygon fill-rule="evenodd" fill="#9D9D9D" points="689.8,196 682.8,187 685.8,183 692.8,192 690.8,195 689.8,196 "/>
<polygon fill-rule="evenodd" fill="#D1D1D1" points="706.8,258 710.8,235 712.8,239 758.8,270 785.8,266 783.8,268 803.8,257 
	803.8,260 802.8,265 790.8,265 780.8,272 713.8,240 706.8,258 "/>
<polygon fill-rule="evenodd" fill="#D1D1D1" points="667.8,202 678.8,202 678.8,197 682.8,209 680.8,205 668.8,209 659.8,229 
	655.8,201 656.8,201 657.8,205 661.8,212 663.8,205 665.8,208 667.8,204 667.8,202 "/>
<polygon fill-rule="evenodd" fill="#D1D1D1" points="651.8,199 654.8,195 655.8,200 652.8,203 651.8,199 "/>
<polygon fill-rule="evenodd" fill="#D1D1D1" points="682.8,211 684.8,232 682.8,225 677.8,223 680.8,246 685.8,236 686.8,247 
	692.8,243 689.8,244 695.8,243 694.8,250 697.8,228 702.8,232 704.8,248 706.8,244 704.8,257 705.8,249 700.8,258 698.8,255 
	697.8,256 699.8,246 697.8,243 697.8,257 697.8,258 696.8,260 690.8,257 691.8,253 691.8,252 692.8,251 681.8,259 679.8,262 
	673.8,266 678.8,255 676.8,262 690.8,249 685.8,249 682.8,254 682.8,248 678.8,254 681.8,249 670.8,258 677.8,239 678.8,217 
	681.8,220 682.8,211 "/>
<polygon fill-rule="evenodd" fill="#9D9D9D" points="683.8,198 682.8,189 682.8,188 689.8,201.5 683.8,198 "/>
<path fill-rule="evenodd" fill="#3B3B3B" d="M842.8,216h1v6l-8-2l-5-15l3-4l2,6l5,1v1l-2-1L842.8,216L842.8,216z"/>
<polygon fill-rule="evenodd" fill="#D1D1D1" points="828.8,205 828.8,206 830.8,216 828.8,205 "/>
<polygon fill-rule="evenodd" fill="#9D9D9D" points="657.8,205 659.8,207 662.8,201 665.8,202 666.8,206 667.8,204 665.8,208 
	663.8,205 661.8,212 657.8,205 "/>
<polygon fill-rule="evenodd" fill="#D1D1D1" points="841.8,237 845.8,248 836.8,241 843.8,255 845.8,250 846.8,267 841.8,269 
	841.8,276 841.8,291 840.8,291 840.8,274 840.8,267 841.8,267 834.8,236 841.8,240 841.8,237 "/>
<polygon fill-rule="evenodd" fill="#D1D1D1" points="695.8,212 694.8,206 701.8,211 702.8,213 703.8,216 695.8,213 695.8,212 "/>
<polygon fill-rule="evenodd" fill="#9D9D9D" points="695.8,213 703.8,216 702.8,213 706.8,223 704.8,226 695.8,213 "/>
<polygon fill-rule="evenodd" fill="#9D9D9D" points="691.8,253 690.8,257 696.8,260 695.8,263 694.8,259 692.8,260 691.8,257 
	690.8,258 689.8,259 691.8,253 "/>
<polygon fill-rule="evenodd" fill="#9D9D9D" points="837.8,254 836.8,266 834.8,257 826.8,259 825.8,265 819.8,276 816.8,269 
	820.8,273 824.8,264 824.8,260 822.8,242 818.8,248 817.8,248 819.8,234 823.8,242 824.8,230 827.8,230 829.8,242 825.8,241 
	828.8,256 829.8,249 830.8,254 831.8,252 836.8,259 837.8,255 837.8,254 "/>
<polygon fill-rule="evenodd" fill="#D1D1D1" points="824.8,260 822.8,250 817.8,269 820.8,270 824.8,264 820.8,273 816.8,269 
	816.8,252 817.8,248 818.8,248 822.8,242 824.8,260 "/>
<polygon fill-rule="evenodd" fill="#3B3B3B" points="837.8,233 833.8,231 835.8,230 837.8,232 837.8,233 "/>
<polygon fill-rule="evenodd" fill="#D1D1D1" points="869.8,242 874.8,244 878.8,255 869.8,242 "/>
<polygon fill-rule="evenodd" fill="#9D9D9D" points="678.8,255 673.8,266 679.8,262 677.8,267 677.8,263 671.8,268 667.8,265 
	670.8,258 681.8,249 678.8,254 678.8,255 "/>
<polygon fill-rule="evenodd" fill="#F1F1F1" points="700.8,258 705.8,249 704.8,257 700.8,265 700.8,258 "/>
<polygon fill-rule="evenodd" fill="#9D9D9D" points="681.8,259 692.8,251 691.8,252 687.8,257 681.8,259 "/>
<polygon fill-rule="evenodd" fill="#3B3B3B" points="687.8,257 691.8,252 691.8,253 689.8,259 688.8,261 686.8,261 687.8,257 "/>
<polygon fill-rule="evenodd" fill="#D1D1D1" points="659.8,272 666.8,268 665.8,270 659.8,272 "/>
<polygon fill-rule="evenodd" fill="#D1D1D1" points="659.8,269 649.8,270 648.8,273 655.8,260 659.8,269 "/>
<polygon fill-rule="evenodd" fill="#3B3B3B" points="690.8,258 691.8,257 692.8,260 694.8,259 695.8,263 693.8,266 693.8,260 
	690.8,258 "/>
<polygon fill-rule="evenodd" fill="#9D9D9D" points="796.8,258 803.8,257 783.8,268 785.8,266 796.8,258 "/>
<polygon fill-rule="evenodd" fill="#3B3B3B" points="658.8,274 659.8,276 665.8,270 666.8,268 667.8,265 671.8,268 661.8,278 
	658.8,274 "/>
<polygon fill-rule="evenodd" fill="#9D9D9D" points="649.8,270 659.8,269 659.8,272 665.8,270 659.8,276 658.8,274 655.8,268 
	649.8,270 "/>
<polygon fill-rule="evenodd" fill="#9D9D9D" points="721.8,51 741.8,48 726.8,52 721.8,55 719.8,53 721.8,51 "/>
<polygon fill-rule="evenodd" fill="#D1D1D1" points="843.8,157 844.8,161 840.8,158 839.8,165 836.8,164 835.8,167 835.8,163 
	838.8,163 840.8,156 843.8,157 "/>
<polygon fill-rule="evenodd" fill="#3B3B3B" points="683.8,198 687.8,202.5 686.8,206 681.8,197 683.8,198 "/>
<path fill-rule="evenodd" fill="#F1F1F1" d="M824.8,260v4l-4,6l-3-1l5-19L824.8,260L824.8,260z M819.8,265l2-4h-1l-1-1V265
	L819.8,265z"/>
<polygon fill-rule="evenodd" fill="#F1F1F1" points="802.8,265 801.8,272 781.8,273 747.8,271 732.8,256 713.8,244 704.8,276 
	702.8,269 706.8,258 713.8,240 780.8,272 790.8,265 802.8,265 "/>
<polygon fill-rule="evenodd" points="704.8,276 709.8,300 722.8,313 691.8,313 690.8,303 648.8,313 642.8,313 647.8,275 648.8,273 
	649.8,270 655.8,268 658.8,274 661.8,278 671.8,268 677.8,263 677.8,267 679.8,262 681.8,259 687.8,257 686.8,261 688.8,261 
	689.8,259 690.8,258 693.8,260 693.8,266 695.8,263 696.8,260 697.8,258 699.8,269 702.8,269 704.8,276 "/>
<polygon fill-rule="evenodd" fill="#F1F1F1" points="797.8,297 799.8,283 797.8,297 "/>
<polygon fill-rule="evenodd" fill="#3B3B3B" points="840.8,297 840.8,309 839.8,309 840.8,297 "/>
<polygon fill-rule="evenodd" fill="#D1D1D1" points="827.8,229 830.8,219 837.8,253 837.8,254 837.8,255 836.8,259 831.8,252 
	830.8,254 829.8,249 828.8,256 825.8,241 829.8,242 827.8,230 827.8,229 "/>
<polygon fill-rule="evenodd" points="865.8,130 863.8,138 860.8,138 854.8,130 851.8,118 854.8,120 854.8,115 858.8,119 859.8,118 
	865.8,130 "/>
<polygon fill-rule="evenodd" fill="#3B3B3B" points="851.8,162 849.8,174 850.8,186 846.8,179 844.8,165 844.8,163 851.8,162 "/>
<polygon fill-rule="evenodd" fill="#3B3B3B" points="827.8,217 827.8,229 827.8,230 824.8,230 823.8,242 819.8,234 817.8,248 
	816.8,252 821.8,226 824.8,228 827.8,217 "/>
<polygon fill-rule="evenodd" fill="#3B3B3B" points="731.1,227.6 738,232.6 745.9,235.7 754.3,236.8 762.8,237 771.1,235.1 
	779.3,231.5 772.4,236 765.3,238.4 757.7,238.6 750.3,238.3 743,236.7 736.6,232.6 731.2,227.5 736.6,233 "/>
<polygon fill-rule="evenodd" fill="#3B3B3B" points="785.5,228.1 790.3,221.1 795.4,215.5 800.6,210 804.1,205.8 810.1,195 
	816.8,189.5 818.5,186.8 820.5,178.9 822.4,170.9 823.2,162.6 822.3,154.3 821.8,146.1 821.5,136.8 814.3,145 802.3,149.7 
	807.2,142.5 814.6,134.9 821.7,129.1 822.1,137.5 822.5,145.4 822.9,153.3 820.6,161.1 818.8,169.1 818.6,176.9 816.4,184.6 
	814.1,188.2 811.2,198.7 807.8,205.8 804.2,213 798.6,218.7 792.8,224 786.5,228.7 "/>
<polygon fill-rule="evenodd" fill="#3B3B3B" points="792.2,72 797.6,78.7 803.5,85.1 809,91.7 813.7,98.9 815.5,107.3 815,116.2 
	808.9,111.6 809.1,103.9 808.6,96.3 805.8,89.5 801.8,83.3 796.9,77.7 791.7,72.4 797,78.2 "/>
<polygon fill-rule="evenodd" fill="#3B3B3B" points="710.8,96.2 715.4,90.4 720.5,85 726,80.1 721.2,85.6 716,90.9 710.9,96.3 "/>
<polygon fill-rule="evenodd" fill="#9D9D9D" points="781.7,68.4 789.2,69.8 795.7,74 800.9,79.8 805.7,85.9 809,93 811.4,100.4 
	810.6,108.2 806.4,114.2 812.2,109.9 812,102.6 808.4,95.9 804.2,89.4 798.6,84 793.5,78.2 787.6,73.2 781.8,68.6 788.6,68 "/>
<polyline fill-rule="evenodd" fill="#D1D1D1" points="775.8,147.5 782.1,152.6 790.4,152.1 783.4,149.5 776.3,149.7 770.1,148.6 
	770.4,155.2 771.2,162.3 773.1,169.5 774.8,158.9 777.6,166.2 778.3,172.9 777.4,177.2 771,176.7 763.2,179.1 755.4,180.2 
	747.1,179.9 745.2,172.4 751.5,177.1 759.8,177.9 767.1,177.8 768.4,170.6 768.2,163.5 765.6,156 764.3,148.4 765.3,140.7 
	768,133.7 771.6,127.2 777.3,121.6 784.9,118.5 792.1,114.8 799.6,111.6 804.2,105.3 800.9,99.6 795.8,94.5 791.8,87.9 790,80.4 
	785.3,74.5 779.2,69.3 773.5,64.5 768.9,69.5 761.6,72.1 754.8,67.7 763,66.9 770,63.3 771.1,54.7 778.1,60.6 782.9,67.3 
	789.8,71.9 794.7,78.5 800.7,83.9 805.3,90.5 808.8,97.6 812,105.1 811.7,113 804.7,113.7 797.3,112.9 790.3,115.5 783.6,118.1 
	776.7,120.8 770.3,126.8 769.9,135.5 769.3,143.7 "/>
<polygon fill-rule="evenodd" fill="#FCFCFC" points="746.2,178.5 745.7,173.4 745.2,173 "/>
<polygon fill-rule="evenodd" fill="#FCFCFC" points="766.2,150.2 765.7,144.5 764.8,138.8 763.4,142.5 "/>
<path fill-rule="evenodd" fill="#F5F5F5" d="M812.3,145.4l-5.2,4.6l-7.3,2.8l-7.9,1.7l-7.6-3l-7.7-2.3l-8-2.6l1.5,8.8l0.6,8.4
	l2.2,9.6l1.6-8.6l1.4-5.9l1,7.5l0.3,8.1l-2.7,7.5l-7.1,3l-7.4-1.9l-7.4-1.7l-2.8,1.6c-0.3-0.3-0.6-0.6-0.9-0.9c0,1-0.8,1.2-1,2
	c0,0,0,0,0,0l-2.4,1.4l7.2,2.2l0.1,0c2.4,1.2,4.9,1.8,7.6,2.3l9.3,2.8c-14.3,8.2-22.3-4.1-38.8,0.3c-0.2-1.2-0.7-2.3-1.3-3.3
	l-1.7,6.5l-0.5-0.8l-3.6-6.5l-2-5.8l-0.1-7.1l-2.8-7.3l-5.3-5.4l-5.1-5.3l-4.2-6.8l8.2,2.1l7.8,1.1l8.1-0.3l7.6,1.6l8.5-2.4l1.2,9.3
	l-0.4,8.1l0.2,2l-1.7,0.1c0.3,2.8,0.8,5.1,1.2,6.4c0-0.7,0-1.3,0-2c0-1.3,0-2.7,0-4c0.2,0,0.4,0,0.6,0l0,0.4l6.4,5.6l6.6-0.8
	c7.5,0.9,9.4-2,9.5-6l1.6-5.3l-2.5-8.1l-1-8.2l-0.2-0.5l0.1,1.9l-0.4,7.6l-0.9,7.5l1,4.6l-2.2,0.1c0.1,0.7,0.1,1.4,0.2,2.1
	c-3.2,1.6-6.2,0.4-9-1c0.1-0.3,0.1-0.5,0.2-0.8l-2.2,0.1l1.2-7l1.1-8.1l0-8.2l1.4-8.1l-0.1-8.2l-0.6-9.2l4.6,7.1l3.9,6.4l0.3,1.8
	l1.6-4.3l4.7-6.8l4.1-7.3l6.7-5.3l8.4-1.9l7.7-3.6l9.2,0.3l-3-8.4l-2.9-7.9l-6.7-5.1l-5.3-6.2l-5.9-5.6l-4.6-6.8l-4.8-5.8l-7.1,4.9
	l-8.9,2.1l-8.7,2.9l-2.3,0.4l-1.7,2.4l-7.8,6.9l8.1-2.3l5.7-4.3l5.7-2.9l1.9,3.1l7.1-3.1l5.6-3.6l3.8,5l5.6,4l5.3,4.2l-3.3,0.9
	l1.5,9.3l-8.8,2l7.1,2.3l-0.3,7.4l-3.8,6.9l-6.6,4.3l-7,3.2l-8,0.6l-7-4.6l-8-1.1l-6.6-4.7l-1.5-8.1l2.5-7.2l-7.7-0.6l-9.4-0.4
	l11.9-4.2l-6.3-0.8l0.7-1.4l5.2-5.5l6-5.4l3.5-2.8l-1.3-1.5l-6.1,5.7l-7,4.6l-3.6,7.8l-7.1,4.8l-4.8,6.8l-2,8.3l-4.2,7.8l5.8-6.2
	l7.8-0.7l7.8-0.7l6.7,3.9l6.8,3.4l5,5.7l3.4,6.7l2.4,6.7l-5.5-0.2l1.6,8.6l-4.9,7.6l-8.5-3l-8.4-1.5l-7-5.1l-7.6-3.6l-7.5-3.3
	l-1.7,8l1.4,8.4l-0.4,8.3l-0.4,8.5l2.3,8.1l3.5,7.6l2.9,7.8l5.2,6.5l3.9,7l5,6.2l5.1,6.1l5.4,5.8l6.4,4.8l6.9,4.1l8.2-0.6l7.5-3.2
	l8.5-1l8.4-3.9c0,0-2.8-0.2-2.8-0.3c-9.2-4.3-27.2-4.6-35-7c2.3-3.4,2.7-12.3,2-13c0.8-0.2,2,0,2-1c-3.2,0.6-4.7-0.7-7-1
	c-1.8-0.4-4.1,1.1-5.9,1.2l-1.8-2.7c1.8-5.4,8.7-4.5,13.6-2.5c0.3,0,0.7,0,1,0c4.7-5.1,9.4,0.3,16,0c5-0.2,10.8-2.5,15.9-3.9l14,4.1
	l4.1-4.7l2.8-7.4l5.8-5.6l3.6-7l1.9-7.7l3.6-7.1l0-8L812.3,145.4z M721.7,104.8l-5.8,3.7l-1.6-7.3l0.2-1.8l12-1.1L721.7,104.8z
	 M753.1,223c3,0,6.1-0.1,6,3C756,226,752.5,226.6,753.1,223z M796.1,165.9l-3.4,7.8l-2.3,8.5l-8.3,2.9l-2.1,2.6
	c-1.2-0.1-2.5-0.3-4-0.7c0.9-3.8,1.9-7.4,2.8-10.8l1.5-3.2l1.9-8l1.1-7.9l7.9-1l8.6,1.4L796.1,165.9z"/>
<polygon fill-rule="evenodd" fill="#FCFCFC" points="746.9,74.6 750.1,70.1 743.1,71.9 740.2,74.2 741.4,75.6 "/>
<polygon fill-rule="evenodd" fill="#D1D1D1" points="737,72.1 733.5,79.1 728.6,85 724,91.2 718.8,96.9 713.7,102.7 709.5,109.2 
	706.1,115.9 715.2,111.8 709.2,117.1 702.8,121.7 702.1,114 703.7,106.2 708.6,100 713.5,93.8 719.2,88.4 725.1,83.1 731,77.8 
	736.7,72.4 "/>
<polygon fill-rule="evenodd" fill="#9D9D9D" points="725.6,79.6 731.2,76.1 737.2,72.9 730.6,77.9 724.7,83.4 718.7,88.9 
	713.8,95.3 709,101.8 704.5,108.5 701.3,115.8 704.8,107.9 709.5,100.5 714.3,93 719.8,86.3 725.6,79.7 "/>
<polygon fill-rule="evenodd" fill="#F1F1F1" points="746,81.9 742,88 746,81.9 "/>
<path fill-rule="evenodd" fill="#D1D1D1" d="M760.9,221l9.3,0.9l8.7-0.9l8.3-0.4l-4,5.9L776,229l-7.6,1.7l-7.7-0.7l-6.4,3.3l-7,0.8
	l-7.5-3l-6.6-4.8l-5.6-6l-5.3-6.2l-6.1-5.4l-4.7-6.9l-5-6.8l-2.9-7.9l-2.1-8.1l-2.9-7.9l-1.5-8.2l-2.3-8l0.2-8.3l1-8l7-2.1l7.7,3
	l3.7,7.8l0.1-0.5l5.5,3.4l-7.3-2.7l-6.1-4.9l-4.9-5.4l-1.9,7.2l1.1,7.9l-1.1,7.9l1,7.8l3,7.4l1.2,7.8l3.5,7.1l2.7,7.4l4.4,6.5
	l4.8,6.2l4.6,6.4l6.6,4.3l6,4.8l6.8,4.2l8-0.2l7.7-0.1l7.7-1.3l7.5-3.5l-8.3-2.3l-7.9-1.4l-7.6-2.4"/>
<polygon fill="#FFFFFF" points="687.6,179.6 693.5,182.1 695.8,198.4 689,193.8 692.7,205.9 689.8,203.7 691.7,215.2 682.8,195.6 
	687.7,199.7 681.8,184.7 691.3,192.5 "/>
<path fill-rule="evenodd" d="M777.1,199c4.6,1,8.7-1.8,11,0c0,1.4-0.5,2.2-1,3c-1.2,0.2-2.8-0.2-3,1c-4.2,0.8-7.7,2.3-13,2
	c-8,1.8-17.8,0.8-25-1c-3.2,0.6-4.7-0.7-7-1c-0.2-1.5-2.4-0.9-4-1c0.1-2.2,2.5-2.1,5-2c8.9,1.2,18.5,5.3,27,2
	C770.7,201.4,774.7,201,777.1,199z"/>
<path fill-rule="evenodd" fill="#F1F1F1" d="M786.1,203c2.3-0.3,3.8,0.2,5,1c0.2,2.5-0.5,4.2-2,5C785.5,209.6,786,206,786.1,203z"/>
<path fill-rule="evenodd" fill="#F1F1F1" d="M769.1,207c-0.3,7.6-15.7,6.7-17,0C758.2,209,763.4,208.7,769.1,207z"/>
<path fill-rule="evenodd" d="M771.1,219c-3.1-0.7-3.6,1-6,1c-1.1-2.3-6.3-0.4-9-1c-0.2-0.8-0.8-1.2-2-1c-0.2-1.1-1.1-1.6-2-2
	c8.2-1.7,17,0.4,25-3C777.3,217.2,772.6,216.5,771.1,219z"/>
<path fill-rule="evenodd" fill="#9D9D9D" d="M766.1,179c1.6-3.9,10-9.7,11-3C771.1,174.7,769.6,177.9,766.1,179z"/>
<path fill-rule="evenodd" fill="#3B3B3B" d="M771.1,219c1.5-2.5,6.2-1.8,6-6c-8,3.4-16.8,1.3-25,3c0.9,0.4,1.8,0.9,2,2
	c-1.1-0.7-5.2-3.3-3-4c11-0.1,21.8,2.4,26-6c3.6,4.3,0.6,4.8,3,9C777.4,218,774.8,219.1,771.1,219z"/>
<path fill-rule="evenodd" fill="#9D9D9D" d="M746.1,199c2.9-2.2,7.3,2.8,10,3c11.1,0.9,26.8-11.3,34-1c-1.3,0.1-1.4,1.3-3,1
	c0.5-0.8,1-1.6,1-3c-2.3-1.8-6.4,1-11,0c-4.3,0-7.4,1.3-10,3c-8.5,3.3-18.1-0.8-27-2c1.5-0.5,5.2,1.2,5-1
	C745.4,199,745.7,199,746.1,199z"/>
<path fill-rule="evenodd" fill="#9D9D9D" d="M745.1,177c3.6-2.5,8.7-2.4,10,2c-3.2-1.7-6-2.7-9,0c-0.3,0-0.7,0-1,0
	C745.1,178.3,745.1,177.7,745.1,177z"/>
<path fill-rule="evenodd" d="M777.1,179c-5,9.5-20.4,11.4-28,3c-2.2,0.2-3.2-0.8-3-3c3-2.7,5.8-1.7,9,0c0,1,0.8,1.2,1,2
	c3.9-0.1,8.8,0.8,10-2c3.5-1.1,5-4.3,11-3C777.1,177,777.1,178,777.1,179z"/>
<path fill-rule="evenodd" fill="#3B3B3B" d="M777.1,199c-2.4,2-6.3,2.4-10,3C769.7,200.3,772.8,199,777.1,199z"/>
<path fill-rule="evenodd" fill="#D1D1D1" d="M740.1,200c-2.5-0.1-4.9-0.2-5,2c1.6,0.1,3.8-0.5,4,1c-2.7-0.6-6.2,3-8,0
	c0.9-7.1,8.6-6.2,14-4C745.2,201.2,741.5,199.5,740.1,200z"/>
<path fill-rule="evenodd" fill="#D1D1D1" d="M811.3,145.2l-6.2,2.8l-6.6,3.9l-6.9,2.1l7.2-1.4l7.3-1.4l5.9-4l1.3,8l-1,8.4l-2.7,8
	l-3,7.9l-4.4,7.3l-6.1,5.8l-7.3,3.5c0,0-2.3-2-2.9-2.2c-5.6-1.1-16,4.6-24,5c-6.6,0.3-11.3-5.1-16,0c2.9-2.2,7.3,2.8,10,3
	c11.1,0.9,26.8-11.3,34-1c-1.3,0.1-1.4,1.3-3,1c-1.2,0.2-2.8-0.2-3,1c-0.3,2.1-2.7,2-4,3c3.8,7.2,8.5,8.1,13.2,6l2.6-1.7l5.6-5.9
	l4.2-6.7l3.6-7.2l3.1-7.5l1.7-7.9l2-7.8l2.6-6.9l0.6-9l0.5-8.6L811.3,145.2z M789.1,209c-3.6,0.6-3-3-3-6c2.3-0.3,3.8,0.2,5,1
	C791.2,206.5,790.5,208.2,789.1,209z"/>
<path fill-rule="evenodd" fill="#D1D1D1" d="M757.1,178c-3.6-3.7-6.9-4.8-12-5c0,1.3,0,2.7,0,4c3.6-2.5,8.7-2.4,10,2
	c0,1,0.8,1.2,1,2c3.9-0.1,8.8,0.8,10-2c1.6-3.9,10-9.7,11-3c0,1,0,2,0,3c0.9-1.9,0.9-4.6,0.6-7.5l-9.5,0.3
	C768.3,176.3,766.2,179.6,757.1,178z"/>
<path fill-rule="evenodd" fill="#9D9D9D" d="M820.8,137.1l-6,5.6l-5.6,6.6l10.2-6.7l-0.2,8.1l-0.9,7.7l-1.5,7.8l-3.3,7.2l-0.9,7.8
	l-2.3,6.9l-3.5,6l-3.9,8.2l-7,8.1l-2.6,1.7c-4.7,2.1-9.4,1.1-13.2-6c1.3-1,3.7-0.9,4-3c-4.2,0.8-7.7,2.3-13,2c-0.3,1.2,2.9,3.4,3,1
	c1.2,9-17.3,7.2-27,6c1.2,4.1,4.4,6.3,9,7c-0.2-0.8-0.8-1.2-2-1c-1.1-0.7-5.2-3.3-3-4c11-0.1,21.8,2.4,26-6c3.6,4.3,0.6,4.8,3,9
	c-2.7,1-5.3,2.1-9,2c-3.1-0.7-3.6,1-6,1c-1,0-2,0-3,0c2.7,0.8,8.1,1.9,8.1,1.9l8.6-0.3l7.6-0.3l-4.9,4.6l-6.9,2.6l-7.7,2l-6.5-0.5
	l-8.5,3l-5.7-1l-7.7-3.4l-6.5-5.3l-6.5-5.3l-6.5-5.5l-4.2-7.4l-5.3-6.6l-2.8-8.1l-3.1-7.3l-2.2-7.8l-2-7.8l-1.4-7.9l-0.6-8l-0.8-8
	l-2.4-7.1l-2.3,7.9l0.4,8.3l0,8.3l1.9,8.1l1.6,8.1l0.9,8.4l4.3,7.2l3.9,7.4l5.1,6.6l6.1,5.6l5.6,6.2l6.2,5.6l5.7,5.9l6.5,5l8,1.5
	l8.2,0.1l8.3,0.5l8.1-1.8l12.3-6.6l5.5-6.8l4.7-5l5.6-6l3.7-5.3l4.6-6.1l3.6-6.7l2.9-6.9l4.1-6.8l0.1-8.8l1.4-8l1.4-8.1l0.3-8.2
	L820.8,137.1z"/>
<path fill-rule="evenodd" fill="#D1D1D1" d="M762.1,220c1,0,2,0,3,0c-1.1-2.3-6.3-0.4-9-1c-4.6-0.7-7.8-2.9-9-7c9.7,1.2,28.2,3,27-6
	c-0.1,2.4-3.3,0.2-3-1c-8,1.8-17.8,0.8-25-1c0,1-1.2,0.8-2,1c0.7,0.7,0.3,9.6-2,13c7.8,2.4,25.8,2.7,35,7c-0.1,0.1-0.1,0.2-0.2,0.3
	l5.2-1.1l3.6-3.9C778.6,221.3,768,221.8,762.1,220z M769.1,207c-0.3,7.6-15.7,6.7-17,0C758.2,209,763.4,208.7,769.1,207z"/>
<path fill-rule="evenodd" d="M715.1,112c6.6,0.4,10.5,0.1,16,3c1.4,1.6,3.4,2.6,6,3c2.7,2.6,6.4,4.3,9,7c0.8,1.2,1.3,2.7,1,5
	c-1,0-1.2,0.8-2,1c-5.9-1.4-9.1-5.6-15-7c-5.9-3.3-18.4-8.2-22,0c-3.1-0.7-1.9,2.7-5,2c-0.3-2.9,2.3-3.1,2-6
	C706.8,115.8,712.4,115.3,715.1,112z"/>
<path fill-rule="evenodd" fill="#3B3B3B" d="M773.1,126c-4,1.7-2.4,4.4-2,9c-1.8-0.2-0.6-3.4-2-4C768.6,127.6,769.4,125.3,773.1,126
	z"/>
<path fill-rule="evenodd" fill="#F1F1F1" d="M732.1,127c0.2,0.8,0.8,1.2,2,1c-2.5,3-6.5-0.8-10,0c0.4-2.2,4.9-0.4,7-1
	C731.4,127,731.7,127,732.1,127z"/>
<path fill-rule="evenodd" fill="#3B3B3B" d="M780.1,149c-1.4-0.2-1.7-1.6-3-2c1.7-2.3,7.6-0.4,11-1c2.7,0,5.3,0,8,0
	C790.4,148.9,784.4,145.8,780.1,149z"/>
<path fill-rule="evenodd" fill="#3B3B3B" d="M800.1,145c3-2.9-2.4-1.8-5-2c1-3.9,3.4-0.2,7-1c0,0.7,0,1.3,0,2c-0.9-0.2-0.9,0.4-1,1
	C800.7,145,800.4,145,800.1,145z"/>
<path fill-rule="evenodd" fill="#9D9D9D" d="M788.1,144c-0.3-2.4-3.5-1.9-3-5c1.6,3.1,4.4,4.9,10,4c2.6,0.2,8-0.9,5,2
	c-1.8-0.1-2.1,1.2-4,1c-2.7,0-5.3,0-8,0c0-0.3,0-0.7,0-1C789.2,144.8,788.6,144,788.1,144z"/>
<path fill-rule="evenodd" fill="#9D9D9D" d="M779.1,138c1.6-4.1,4.5-6.9,10-7C785.8,133.4,781.9,135.1,779.1,138z"/>
<path fill-rule="evenodd" fill="#3B3B3B" d="M801.1,124c2.1-2.4,8.5-0.6,8,3c-3.2-0.2-4.2,1.8-8,1c2,0.9,0.3,5.1-1,2
	c2.3-1.7-4.9-2.4-8-2c2.1-3.5,9.9-1.4,15-2c-0.1-2.2-2.5-2.1-5-2C801.7,124,801.4,124,801.1,124z"/>
<path fill-rule="evenodd" fill="#9D9D9D" d="M777.1,122c-0.3,2.3-3.1,2.2-4,4c-3.7-0.7-4.4,1.6-4,5c-2.2,0.2-0.5-3.5-1-5
	C771.7,125.3,773.2,122.5,777.1,122z"/>
<path fill-rule="evenodd" fill="#3B3B3B" d="M815.1,116c-2.1-0.6-6.6,1.2-7-1"/>
<path fill-rule="evenodd" fill="#9D9D9D" d="M808.1,115c-0.8-0.2-2,0-2-1c2.3,0.3,3.8-0.2,5-1"/>
<path fill-rule="evenodd" fill="#D1D1D1" d="M811.1,113c-1.2,0.8-2.7,1.3-5,1c-10.7-1.8-19.7,5.3-29,8c-3.8,0.5-5.4,3.3-9,4
	c0.5,1.5-1.2,5.2,1,5c1.4,0.6,0.2,3.8,2,4c0,0.3,0,0.7,0,1c-2.9,0.1-1.8,4.2-2,7c2.2-5.1,8.9-5.7,12-10c-0.9-1.2-5.6,2.3-8,3
	c3.8-4.2,10.5-5.5,16-8c1,0,2,0,3,0c3.1-0.4,10.3,0.3,8,2c-4.5-0.5-7.5,0.5-11,1c-5.5,0.1-8.4,2.9-10,7c0,1-0.8,1.2-1,2
	c3.3,0,3.4-3.3,7-3c0,0.7,0,1.3,0,2c-0.5,3.1,2.7,2.6,3,5c-4-5.9-7.7-2.5-13,0c-0.7-3.1,1-3.6,1-6c-1.9,1.1-4.8,1.2-4,5
	c5.1,4.1,9.6-1.7,16,2c0,0.3,0,0.7,0,1c-3.4,0.6-9.3-1.3-11,1c1.3,0.4,1.6,1.8,3,2c3.6,1.1,6.7,2.6,10,4c-10-0.5-14.4-3.6-20-4
	c0,0-6-8-3-23c12.5-6.3,24.8-15.5,40-16"/>
<path fill-rule="evenodd" fill="#D1D1D1" d="M737.1,118c6.4,0.9,9.5,5.2,14,8c-1.5,6.7,0,8.9,1,15c-2.4-0.9-2.6-4-7-3
	c1,2.7,2.1,6.2-3,5c-1.1,3.7,3.4,2,4,4c-2.5,2.8-5.8,4.9-11,5c0.7-1.3,2.1-1.9,4-2c0.8-0.2,1-1,2-1c0.8-0.5,1.6-1,3-1
	c-0.7-2-2.7-2.7-5-3c2.1-2.1,0.4-5.4-2-6c-2.3,3-4.6,6.1-10,6c-0.5,2.8,5.5-0.8,5,2c-6.3-0.2-7.2,0.1-11-2c-0.5-0.8-1-1.6-1-3
	c4.1-2.2,4.6,2.1,7,0c1.7,0,3.3,0,5,0c1.2-2.1,3.8-2.9,4-6c2.7-0.6,4.7,4.5,6,2c0.8,0.2,1,1,2,1c-0.6-5.1-4.5-6.8-9-8
	c-4.5-0.5-8.2-1.8-13-2c-0.3,0-0.7,0-1,0c0.5-2.9,7.6-4.4,10-2c-2.1,0.6-6.6-1.2-7,1c3.5-0.8,7.5,3,10,0c-1.2,0.2-1.8-0.2-2-1
	c6.9,2.1,12.4,5.6,17,10c-0.7-1.3,2.2-8.6,0-11c-1.6,0.3-1.7-0.9-3-1C743.5,122.3,739.8,120.6,737.1,118z"/>
<path fill-rule="evenodd" fill="#D1D1D1" d="M706.1,116c2.5-1.8,5.2-3.5,9-4c-2.7,3.3-8.2,3.8-10,8c-0.9,0.4-1.8,0.9-2,2
	c-1.4-0.2-0.3-3-2-3c0-1,0-2,0-3"/>
<path fill-rule="evenodd" fill="#9D9D9D" d="M701.1,116c-0.8-2.8,1.4-2.6,1-5"/>
<path fill-rule="evenodd" fill="#9D9D9D" d="M701.1,119c1.7,0,0.6,2.8,2,3c0.2-1.1,1.1-1.6,2-2c0.3,2.9-2.3,3.1-2,6
	c3.1,0.7,1.9-2.7,5-2c4.6-1.9-1.5,1.2-1,4c4.3,2.6,9.2-2.8,12-5c2.3,1.1,8.1,3.8,11,1c5.9,1.4,9.1,5.6,15,7c0.7,3,2.1-1,4,0
	c0-1.7,0-3.3,0-5c2.2,2.4-0.7,9.7,0,11c-4.6-4.4-10.1-7.9-17-10c-0.3,0-0.7,0-1,0c-2.4-2.4-9.5-0.9-10,2c0.3,0,0.7,0,1,0
	c-0.3,1.4-2.5,0.8-4,1c0.4-2.3,4.4-2.7,2-5c-3.6,2.1-6.9,4.4-8,9c-1.8,1.9-2.9-1.2-5,1c0,1.7,0.7,2.6,2,3c0.3,0,0.7,0,1,0
	c0.9,3.7,4.6,4.7,5,9c-4.3-6.5-10.6-13.6-17-15c-2.1,0.3-0.9,3.7-3,4c1-2.9,2-11.1,5-6C700.4,126.3,699.2,121.1,701.1,119z"/>
<path fill-rule="evenodd" fill="#9D9D9D" d="M715.1,112c3.6-3.2,13.8-1.2,16,3C725.6,112.1,721.7,112.4,715.1,112z"/>
<path fill-rule="evenodd" fill="#3B3B3B" d="M746.1,125c1.3,0.1,1.4,1.3,3,1c0,1.7,0,3.3,0,5c-1.9-1-3.3,3-4,0c0.8-0.2,1-1,2-1
	C747.4,127.7,746.9,126.2,746.1,125z"/>
<path fill-rule="evenodd" fill="#3B3B3B" d="M709.1,138c-1.3-0.4-2-1.3-2-3c2.1-2.2,3.2,0.9,5-1c1.1-4.6,4.4-6.9,8-9
	c2.4,2.3-1.6,2.7-2,5C713.3,132.3,708.6,135.6,709.1,138z"/>
<path fill-rule="evenodd" fill="#9D9D9D" d="M789.1,128c2.4-3,6.8-3.9,12-4c0.3,0,0.7,0,1,0c2.5-0.1,4.9-0.2,5,2
	c-5.1,0.6-12.9-1.5-15,2C791.1,128,790.1,128,789.1,128z"/>
<path fill-rule="evenodd" fill="#9D9D9D" d="M735.1,131c4.5,1.2,8.4,2.9,9,8c-1,0-1.2-0.8-2-1C740.7,134.6,736.9,133.8,735.1,131z"
	/>
<path fill-rule="evenodd" fill="#3B3B3B" d="M739.1,150c-0.2-0.9,0.4-0.9,1-1c-4.2-2.4-22.6,2.5-22-6c0.1-2.1,4.9-6.7,7-3
	c-2-2.6-9.1,3.5-4,5c3.8,2.1,4.7,1.8,11,2c2.6-2.3,6.8-0.2,10,0c-0.2,0.8-1,1-1,2C740.1,149,739.9,149.8,739.1,150z"/>
<path fill-rule="evenodd" fill="#3B3B3B" d="M710.1,138c3.6,2.4,5.2,6.8,8,10c-1.3-0.1-1.4-1.3-3-1C714.7,142.7,711,141.7,710.1,138
	z"/>
<path fill-rule="evenodd" fill="#F1F1F1" d="M788.1,145c-6.4-3.7-10.9,2.1-16-2c-0.8-3.8,2.1-3.9,4-5c0,2.4-1.7,2.9-1,6
	c5.3-2.5,9-5.9,13,0C788.6,144,789.2,144.8,788.1,145z"/>
<path fill-rule="evenodd" fill="#9D9D9D" d="M773.1,136c2.4-0.7,7.1-4.2,8-3c-3.1,4.3-9.8,4.9-12,10c0.2-2.8-0.9-6.9,2-7
	c0.2,0.8,0,2,1,2C772.1,137,772.9,136.8,773.1,136z"/>
<path fill-rule="evenodd" fill="#9D9D9D" d="M721.1,145c-5.1-1.5,2-7.6,4-5c0.4,0.9,0.9,1.8,2,2c-2.4,2.1-2.9-2.2-7,0
	C720,143.4,720.5,144.2,721.1,145z"/>
<path fill-rule="evenodd" fill="#F1F1F1" d="M741.1,149c0-1,0.8-1.2,1-2c-3.2-0.2-7.4-2.3-10,0c0.5-2.8-5.5,0.8-5-2
	c5.4,0.1,7.7-3,10-6c2.4,0.6,4.1,3.9,2,6c2.3,0.3,4.3,1,5,3C742.7,148,741.9,148.5,741.1,149z"/>
<path fill-rule="evenodd" fill="#D1D1D1" d="M708.1,124c3.6-8.2,16.1-3.3,22,0c-2.9,2.8-8.7,0.1-11-1c-2.8,2.2-7.7,7.6-12,5
	C706.5,125.2,712.7,122.1,708.1,124z"/>
<path fill-rule="evenodd" d="M722.1,129c4.8,0.2,8.5,1.5,13,2c1.8,2.8,5.7,3.6,7,7c-1.3,2.5-3.3-2.6-6-2c-0.2,3.1-2.8,3.9-4,6
	c-1.7,0-3.3,0-5,0c-1.1-0.2-1.6-1.1-2-2c-2.1-3.7-6.9,0.9-7,3c-0.6,8.5,17.8,3.6,22,6c-0.6,0.1-1.2,0.1-1,1c-1.9,0.1-3.3,0.7-4,2
	c-5.8,0.1-11.7,0.3-15-2c0-1.3-1.8-0.9-2-2c-2.8-3.2-4.4-7.6-8-10c-0.3,0-0.7,0-1,0c-0.5-2.4,4.3-5.7,9-8
	C719.6,129.8,721.7,130.4,722.1,129z"/>
<path d="M815.2,115.6l-5.4,0.6c-0.4,0-0.6,0-0.8-0.1l-0.8-1c0,0-2,0-2-1c-10.7-1.8-19.7,5.3-29,8c-0.3,2.3-3.1,2.2-4,4
	c-4,1.7-2.4,4.4-2,9c0,0.3,0,0.7,0,1c0.2,0.8,0,2,1,2c0-1,0.8-1.2,1-2c3.8-4.2,10.5-5.5,16-8c2.4-3,6.8-3.9,12-4
	c2.1-2.4,8.5-0.6,8,3c-3.2-0.2-4.2,1.8-8,1c2,0.9,0.3,5.1-1,2c-4.5-0.5-7.5,0.5-11,1c-3.3,2.4-7.2,4.1-10,7c0,1-0.8,1.2-1,2
	c3.3,0,3.4-3.3,7-3c0,0.7,0,1.3,0,2c1.6,3.1,4.4,4.9,10,4c1-3.9,3.4-0.2,7-1c0,0.7,0,1.3,0,2c-0.9-0.2-0.9,0.4-1,1c-0.3,0-0.7,0-1,0
	c-1.8-0.1-2.1,1.2-4,1c-5.7,2.9-11.6-0.2-16,3c3.6,1.1,6.7,2.6,10,4c0.3,0,0.7,0,1,0c5.6,0,9.3-2.1,13-4c5-6.6,10.3-13.1,17-18
	L815.2,115.6z"/>
<circle fill-rule="evenodd" fill="#FFFFFF" cx="730.3" cy="135.9" r="0.8"/>
<circle fill-rule="evenodd" fill="#B2B2B2" cx="791.3" cy="135.9" r="0.8"/>
<path d="M795.3,13c-9.8-14.7-32.9-10-32.9-10C729.2-7.4,706,13,706,13l-3.7,4.2h94.8L795.3,13z"/>
<polygon fill="#FCFDFF" points="622.6,202.7 547.5,241.4 618.5,241.5 "/>
<polygon fill="#F4F5F5" points="654.8,208 635.8,229 646.7,255.1 "/>
<polygon fill="#EEEDED" points="623.8,199 618.5,241.5 635.8,229 "/>
<polygon fill="#E1E1E1" points="635.8,229 646.7,255.1 637.2,269.5 "/>
<polygon fill="#B4B4B5" points="676.8,282.8 646.7,255.1 637.2,269.5 "/>
<polygon fill="#FCFDFF" points="637.2,269.5 618.5,241.5 635.8,229 "/>
<polygon fill="#E1E1E1" points="646.7,255.1 668.8,273 652.8,198 "/>
<polygon points="706.8,281 711.8,305 724.8,318 693.8,318 692.8,308 650.8,318 644.8,318 649.8,280 650.8,278 651.8,275 657.8,273 
	660.8,279 663.8,283 673.8,273 679.8,268 679.8,272 681.8,267 683.8,264 689.8,262 688.8,266 690.8,266 691.8,264 692.8,263 
	695.8,265 695.8,271 697.8,268 698.8,265 699.8,263 701.8,274 704.8,274 "/>
<polygon fill="#F1F1F1" points="859.5,155 859.5,160 857.5,163 857.5,152 "/>
<path fill="#F1F1F1" d="M857.5,177l3,12L857.5,177z"/>
<polygon fill="#F1F1F1" points="865.5,187 865.5,189 863.5,192 862.5,182 "/>
<polygon fill="#F1F1F1" points="856.5,190 860.5,190 864.5,210 856.5,206 "/>
<polygon fill="#F1F1F1" points="851.5,223 842.5,212 845.5,207 "/>
<polygon points="844.5,222 840.5,214 842.5,215 "/>
<path d="M836.5,216l3,8L836.5,216z"/>
<polygon fill="#D0D0D1" points="866.5,233 871.5,235 872.5,238 "/>
<polygon fill="#F1F1F1" points="842.5,297 843.5,297 842.5,315 842.5,303 "/>
<path fill="#F1F1F1" d="M868.5,178l-2,41l24,51h-10l-2,5l-8-3l2,4l-18,3l-6-3l-4,6h-1v-7l5-2l-1-17l-2,5l-7-14l9,7l-4-11v-1l-4-8
	l12,4v-12l3,1l-5-19l7,10l2-7l2,4h3l5-36V178L868.5,178z M872.5,238l-1-3l-5-2L872.5,238L872.5,238z M880.5,261l-4-11l-5-2
	L880.5,261L880.5,261z"/>
<polygon fill="#FCFDFF" points="876.1,271.2 847.5,246.8 847.5,279.9 "/>
<path fill="#F1F1F1" d="M846.5,91l7,12L846.5,91z"/>
<polygon fill="#3B3B3B" points="852.5,159 854.5,159 854.5,151 852.5,153 855.5,149 854.5,166 853.5,166 "/>
<polygon fill="#3B3B3B" points="845.5,163 839.5,163 843.5,157 846.5,167 "/>
<polygon fill="#3B3B3B" points="839.5,166 838.5,166 833.5,185 836.5,164 838.5,165 "/>
<polygon fill="#9B9B9B" points="829.5,201 833.5,185 838.5,166 839.5,166 839.5,163 845.5,163 842.5,162 840.5,169 837.5,169 
	837.5,173 837.5,174 838.5,185 "/>
<polygon fill="#3B3B3B" points="839.5,259 839.5,256 842.5,273 842.5,280 836.5,265 834.5,270 830.5,267 830.5,273 827.5,271 
	828.5,265 836.5,263 838.5,272 839.5,260 "/>
<polygon fill="#3B3B3B" points="798.5,264 805.5,261 805.5,266 805.5,263 "/>
<path fill="#3B3B3B" d="M753.5,274l-18-16L753.5,274z"/>
<polygon fill="#9B9B9B" points="820.5,60 827.5,66 823.5,63 "/>
<polygon fill="#9B9B9B" points="850.5,126 852.5,124 852.5,131 "/>
<polygon fill="#9B9B9B" points="852.5,153 854.5,151 854.5,159 852.5,159 "/>
<polygon fill="#9B9B9B" points="860.5,164 863.5,177 861.5,179 "/>
<path fill="#D0D0D1" d="M859.5,155l-2-3v11l2-3l1,3v1l1,15l2-2l2,5v5l-3-5l1,10l2-3l1,11l2-21l-5,36h-3l-2-4l-2,7l-7-10l5,19l-3-1
	v12l-12-4l4,8l-4-3v-1l-3-3v-7l11,2l-13-34l-2,12l-1-3l-2,6l-2-1l2-9l9-16l-1-11l-1,25l5,12l4-6l-1-7l1,5h3l-1-8l-1-24l2,14l6,17
	v-36l1-17v-7l1-1h1L859.5,155L859.5,155z M845.5,207l-3,5l9,11L845.5,207L845.5,207z M860.5,189l-3-12L860.5,189L860.5,189z
	 M856.5,206l8,4l-4-20h-4V206L856.5,206z"/>
<path fill="#F1F1F1" d="M846.5,171l1,24l1,8h-3l-1-5l1,7l-4,6l-5-12l1-25v-1l1-3l3,1l1-7l4,3v2V171L846.5,171z M842.5,169l-1,9l-2-3
	l1,6l5,4L842.5,169L842.5,169z"/>
<polygon fill="#9B9B9B" points="853.5,166 854.5,166 854.5,202 848.5,185 852.5,192 851.5,180 853.5,168 "/>
<path fill="#9B9B9B" d="M827.5,210l2,1l2-6l1,3l2-12l13,34l-11-2v7l3,3l-2-2l-2,1l4,2l4,3v1v3l-7-4l7,31h-1l-3-17v3l-7-34l-3,10v-12
	L827.5,210L827.5,210z M832.5,222l-2-10v-1L832.5,222L832.5,222z"/>
<polygon fill="#D0D0D1" points="708.5,264 712.5,241 714.5,245 760.5,276 787.5,272 785.5,274 805.5,263 805.5,266 804.5,271 
	792.5,271 782.5,278 715.5,246 "/>
<path fill="#3B3B3B" d="M844.5,222h1v6l-8-2l-5-15l3-4l2,6l5,1v1l-2-1L844.5,222L844.5,222z"/>
<polygon fill="#D0D0D1" points="830.5,211 830.5,212 832.5,222 "/>
<polygon fill="#D0D0D1" points="843.5,243 847.5,254 838.5,247 845.5,261 847.5,256 848.5,273 843.5,275 843.5,282 843.5,297 
	842.5,297 842.5,280 842.5,273 843.5,273 836.5,242 843.5,246 "/>
<polygon fill="#9B9B9B" points="839.5,260 838.5,272 836.5,263 828.5,265 827.5,271 821.5,282 818.5,275 822.5,279 826.5,270 
	826.5,266 824.5,248 820.5,254 819.5,254 821.5,240 825.5,248 826.5,236 829.5,236 831.5,248 827.5,247 830.5,262 831.5,255 
	832.5,260 833.5,258 838.5,265 839.5,261 "/>
<polygon fill="#D0D0D1" points="826.5,266 824.5,256 819.5,275 822.5,276 826.5,270 822.5,279 818.5,275 818.5,258 819.5,254 
	820.5,254 824.5,248 "/>
<polygon fill="#3B3B3B" points="839.5,239 835.5,237 837.5,236 839.5,238 "/>
<polygon fill="#D0D0D1" points="871.5,248 876.5,250 880.5,261 "/>
<polygon fill="#9B9B9B" points="798.5,264 805.5,263 785.5,274 787.5,272 "/>
<polygon fill="#D0D0D1" points="845.5,163 846.5,167 842.5,164 841.5,171 838.5,170 837.5,173 837.5,169 840.5,169 842.5,162 "/>
<path fill="#F1F1F1" d="M826.5,266v4l-4,6l-3-1l5-19L826.5,266L826.5,266z M821.5,271l2-4h-1l-1-1V271L821.5,271z"/>
<polygon fill="#F1F1F1" points="804.5,271 803.5,278 783.5,279 749.5,277 734.5,262 715.5,250 706.5,282 704.5,275 708.5,264 
	715.5,246 782.5,278 792.5,271 "/>
<path fill="#F1F1F1" d="M799.5,303l2-14L799.5,303z"/>
<polygon fill="#3B3B3B" points="842.5,303 842.5,315 841.5,315 "/>
<polygon fill="#D0D0D1" points="829.5,235 832.5,225 839.5,259 839.5,260 839.5,261 838.5,265 833.5,258 832.5,260 831.5,255 
	830.5,262 827.5,247 831.5,248 829.5,236 "/>
<polygon fill="#3B3B3B" points="853.5,168 851.5,180 852.5,192 848.5,185 846.5,171 846.5,169 "/>
<polygon fill="#3B3B3B" points="829.5,223 829.5,235 829.5,236 826.5,236 825.5,248 821.5,240 819.5,254 818.5,258 823.5,232 
	826.5,234 "/>
<path fill="#F1F1F1" d="M747.7,87.9l-4,6.1L747.7,87.9z"/>
<polygon fill="#F4F5F5" points="845,296.9 846.1,297 846.8,306.1 844.2,315.8 845.5,303 "/>
<path fill="#F4F5F5" d="M802.1,303.3l2.1-14.1L802.1,303.3z"/>
<polygon fill="#1A1A1A" points="846.1,302.2 844,314.9 845.1,315.1 "/>
<polygon fill="#898989" points="819.3,331.8 799.1,296.3 799.1,296.3 799.1,296.3 842.8,327.6 "/>
<polygon fill="#D0D0D1" points="842.8,327.6 849.9,303.3 885.5,282.8 "/>
<polygon fill="#F0EFEF" points="842.8,327.6 885.5,282.8 885.5,282.8 867.5,325 "/>
<polygon fill="#C1C1C1" points="694.5,314.1 645.6,316.6 698.7,341.6 "/>
<polygon fill="#221F1F" points="725.1,313.4 693.2,305.2 735.2,328 "/>
<polygon fill="#A1A0A0" points="143.8,278.8 180.1,262.1 203.4,286.5 "/>
<polygon fill="#F2F2F2" points="180.2,262 180.1,262.1 180.1,262.1 180.1,262.1 180.1,262.1 "/>
<polygon fill="#CCCBCB" points="180.2,262 180.1,262.1 180.1,262.1 180.1,262.1 180.1,262.1 180.1,262.1 "/>
<polygon fill="#CCCBCB" points="180.1,262.1 143.8,278.8 143.8,278.8 146.4,245.9 "/>
<polygon fill="#E4E4E4" points="180.1,262.1 180.1,262.1 146.4,245.9 146.4,245.9 "/>
<polygon fill="#E9E9E9" points="168.9,225.3 180.1,262.1 146.4,245.9 "/>
<polygon fill="#E9E9E9" points="168.9,225.3 168.9,225.3 123.5,233.8 112.4,204.7 112.4,204.7 112.4,204.7 112.4,204.7 "/>
<polygon fill="#CCCBCB" points="168.9,225.3 146.4,245.9 146.3,245.9 109.8,253.7 "/>
<polygon fill="#C1C1C1" points="168.9,225.3 109.8,253.7 109.8,253.7 109.8,253.7 109.8,253.7 121.4,236.8 123.5,233.8 "/>
<polygon fill="#F2F2F2" points="146.3,245.9 146.4,245.9 109.8,253.7 109.8,253.7 109.8,253.7 "/>
<polygon fill="#BBBBBB" points="146.4,245.9 143.8,278.8 109.8,253.7 "/>
<polygon fill="#919191" points="143.8,278.8 109.8,283.4 109.8,253.7 109.8,253.7 109.8,253.7 "/>
<polygon fill="#F6F7F7" points="112.4,204.7 123.5,233.8 75.9,224.1 75.9,224.1 "/>
<polygon fill="#CCCBCB" points="123.5,233.8 121.4,236.8 109.8,253.7 109.8,253.7 75.9,224.1 "/>
<polygon fill="#F2F2F2" points="121.4,236.8 109.8,253.7 109.8,253.7 "/>
<polygon fill="#E4E4E4" points="112.4,204.7 112.4,204.7 112.4,204.7 73.5,200.7 73.5,200.7 73.5,200.7 "/>
<polygon fill="#EBEBEB" points="112.4,204.7 75.9,224.1 73.5,200.7 "/>
<polygon fill="#F7F8F9" points="112.4,204.7 73.5,200.7 80.6,176.4 "/>
<polygon fill="#A1A0A0" points="109.8,253.7 109.8,283.4 78.5,275.5 78.5,275.5 "/>
<polygon fill="#E4E4E4" points="109.8,253.7 109.8,253.7 109.8,253.7 64.1,248.8 64.1,248.8 64.1,248.8 64.1,248.7 64.1,248.7 "/>
<polygon fill="#E4E4E4" points="109.8,253.7 64.1,248.7 75.9,224.1 "/>
<polygon fill="#BBBBBB" points="109.8,253.7 78.5,275.5 64.1,248.8 "/>
<polygon fill="#ECECEC" points="80.6,176.4 80.6,176.4 80.6,176.4 55.9,179 37.7,153.9 37.7,153.9 37.7,153.9 "/>
<polygon fill="#C0C0C0" points="80.6,176.4 73.5,200.7 37.9,221.1 "/>
<polygon fill="#EFEEEE" points="80.6,176.4 37.9,221.1 37.8,221.2 55.9,179 "/>
<polygon fill="#919191" points="78.5,275.5 78.5,275.5 78.5,275.5 36.4,286.2 41.9,253.7 41.9,253.7 42,253.7 42,253.7 42,253.7 "/>
<polygon fill="#C1C1C1" points="64.1,248.8 78.5,275.5 42,253.7 "/>
<polygon fill="#A1A0A0" points="73.5,200.7 75.9,224.1 75.9,224.1 37.9,221.2 "/>
<polygon fill="#CCCBCB" points="75.9,224.1 64.1,248.7 64.1,248.7 42,253.7 "/>
<polygon fill="#919191" points="75.9,224.1 75.9,224.1 47.3,232.8 37.8,221.2 37.9,221.2 37.9,221.2 "/>
<polygon fill="#C1C1C1" points="75.9,224.1 42,253.7 42,253.7 47.3,232.8 "/>
<polygon fill="#F2F2F2" points="64.1,248.7 64.1,248.8 64.1,248.8 64.1,248.8 42,253.7 42,253.7 42,253.7 "/>
<polygon fill="#CCCBCB" points="37.7,153.9 55.9,179 25,185.7 25,185.7 "/>
<polygon fill="#E9E9E9" points="55.9,179 37.8,221.2 37.8,221.2 37.8,221.2 37.8,221.2 25,185.7 "/>
<polygon fill="#99999A" points="37.8,221.2 47.3,232.8 8,224.1 8,224.1 37.8,221.2 "/>
<polygon fill="#CCCBCB" points="47.3,232.8 42,253.7 41.9,253.7 41.9,253.7 8,224.1 "/>
<polygon fill="#E4E4E4" points="41.9,253.7 41.9,253.7 41.9,253.7 41.9,253.7 1.2,248.6 1.2,248.6 1.2,248.6 "/>
<polygon fill="#99999A" points="41.9,253.7 36.4,286.2 14.4,274.3 14.4,274.3 "/>
<polygon fill="#C1C1C1" points="41.9,253.7 14.4,274.3 1.2,248.6 "/>
<polygon fill="#E4E4E4" points="41.9,253.7 1.2,248.6 8,224.1 8,224.1 "/>
<polygon fill="#F2F2F2" points="37.9,221.1 37.8,221.2 37.8,221.2 "/>
<polygon fill="#E4E4E4" points="25,185.7 37.8,221.2 0,199.1 "/>
<polygon fill="#E4E4E4" points="37.8,221.2 37.8,221.2 0,199.1 0,199.1 0,199.1 0,199.1 "/>
<polygon fill="#C1C1C1" points="37.8,221.2 8,224.1 8,224.1 0,199.1 "/>
<polygon fill="#99999A" points="37.7,153.9 25,185.7 15.4,141.3 37.6,153.9 "/>
<polygon fill="#C1C1C1" points="0.5,110.2 37.6,153.9 15.4,141.3 15.4,141.3 15.4,141.3 0.4,110.2 "/>
<polygon fill="#E4E4E4" points="37.6,153.9 15.4,141.3 15.4,141.3 "/>
<polygon fill="#F2F2F2" points="0.4,110.1 0.5,110.2 37.6,153.9 37.7,153.9 22.3,103.6 "/>
<polygon fill="#E8E8E8" points="727.2,316.4 725.1,313.4 754.5,278.7 754.5,278.7 754.5,278.7 735.2,328 "/>
<polyline fill="#EBEBEB" points="735.2,328 793.3,340.4 746.8,350.4 "/>
<polygon fill="#B2B2B2" points="727.6,354.5 727.6,354.5 793.3,340.4 793.3,340.4 793.3,340.4 739.7,375.1 "/>
<polygon fill="#DDDDDC" points="735.2,328 735.2,328 779.6,309.6 793.3,340.4 793.3,340.4 "/>
<polygon fill="#F4F5F5" points="735.2,328 754.5,278.7 779.6,309.6 779.6,309.6 "/>
<polygon fill="#E2E2E2" points="739.7,375.1 739.7,375.1 793.3,340.4 779.6,368.9 "/>
<polygon fill="#99999A" points="739.7,375.1 779.6,369 785.5,399.8 "/>
<polygon fill="#FCFDFF" points="779.6,309.6 754.5,278.7 799.1,296.3 "/>
<polygon fill="#B4B4B5" points="785.5,399.8 779.6,369 813.5,369 "/>
<polygon fill="#F4F5F5" points="779.6,368.9 793.3,340.4 813.5,368.9 "/>
<polygon fill="#221F1F" points="793.3,340.4 779.6,309.6 799.1,296.3 "/>
<polygon fill="#C1C1C1" points="785.5,399.8 785.5,399.8 813.5,369 813.6,369 813.6,369 821.5,415.5 "/>
<polygon fill="#E2E2E2" points="793.3,340.4 793.3,340.4 793.3,340.4 819.3,331.8 813.6,368.9 813.6,368.9 813.5,368.9 "/>
<polygon fill="#DDDDDC" points="793.3,340.4 799.1,296.3 799.1,296.3 799.1,296.3 799.1,296.3 819.3,331.8 "/>
<polygon fill="#FCFDFF" points="813.6,368.9 819.3,331.8 842.8,327.6 842.8,327.6 "/>
<polygon fill="#898989" points="821.5,415.5 813.6,369 813.6,369 838.8,390.1 834.7,396.3 821.8,415.8 821.8,415.8 "/>
<polygon fill="#B1B1B1" points="813.6,368.9 842.8,327.6 839.7,361.3 839.7,361.3 "/>
<polygon fill="#99999A" points="813.6,369 839.7,361.3 839.7,361.3 838.8,390.1 838.8,390.1 "/>
<polygon fill="#B2B2B2" points="838.8,390.1 839.7,361.3 885.7,350.1 "/>
<polygon fill="#C5C4C4" points="838.8,390.1 885.7,350.1 885.7,350.1 885.7,350.1 881.4,406.1 "/>
<polygon fill="#DEDEDD" points="839.7,361.3 842.8,327.6 885.7,350.1 "/>
<polygon fill="#E8E8E8" points="842.8,327.6 842.8,327.6 842.8,327.6 867.5,325 885.7,350.1 885.7,350.1 885.7,350.1 "/>
<polygon fill="#D1D2D2" points="849.9,303.3 847.5,279.9 847.5,279.9 885.5,282.8 "/>
<polygon fill="#DFDFDE" points="847.5,279.9 847.5,279.9 876.1,271.2 885.5,282.8 885.5,282.8 885.5,282.8 "/>
<polygon fill="#E3E3E3" points="885.7,350.1 867.5,325 898.3,318.3 898.4,318.3 "/>
<polygon fill="#E4E4E4" points="867.5,325 885.5,282.8 885.5,282.8 885.6,282.8 885.6,282.8 898.3,318.3 "/>
<polygon fill="#F4F5F5" points="885.5,282.8 876.1,271.2 916.3,279.9 916.3,279.9 885.6,282.8 885.6,282.8 885.6,282.8 "/>
<polygon fill="#EBEBEB" points="881.4,406.1 885.7,350.1 885.7,350.1 922.9,393.8 923,393.9 881.9,406 "/>
<polygon fill="#DFDFDE" points="898.3,318.3 885.6,282.8 923.4,304.9 898.4,318.3 "/>
<polygon fill="#F2F2F2" points="885.6,282.8 916.3,279.9 916.4,279.9 923.4,304.9 "/>
<polygon fill="#EBEBEB" points="885.7,350.1 898.4,318.3 908,362.7 "/>
<polygon fill="#898989" points="922.9,393.8 885.7,350.1 908,362.7 908,362.7 908,362.7 "/>
<polygon fill="#DFDFDE" points="923,393.9 922.9,393.8 922.9,393.8 "/>
<polygon fill="#DFDFDE" points="923,393.9 922.9,393.8 923.1,393.7 923.1,393.8 "/>
<path fill="#DFDFDE" d="M923,393.9l0.1-0.1L923,393.9z"/>
<polygon fill="#B2B2B2" points="881.9,406 923,393.9 922.9,393.8 885.7,350.1 885.7,350.1 881.4,406.1 "/>
<polygon fill="#DFDFDE" points="577.7,267.2 567.9,257.2 577.8,267.2 "/>
<polygon fill="#DFDFDE" points="590.2,312.9 568.9,310.5 568.9,310.5 568.9,310.5 568.9,310.5 590.2,312.9 590.2,312.9 590.2,312.9 
	"/>
<polygon fill="#DFDFDE" points="568.9,310.5 577.8,267.2 577.8,267.2 577.8,267.2 577.8,267.2 577.8,267.2 "/>
<polygon fill="#EBEBEB" points="568.9,310.5 568.9,310.5 577.8,267.2 637.2,269.5 "/>
<polygon fill="#B2B2B2" points="568.9,310.5 568.9,310.5 637.2,269.5 637.2,269.5 637.2,269.5 590.2,312.9 "/>
<polygon fill="#DFDFDE" points="577.8,267.2 577.8,267.2 618.5,241.5 618.5,241.5 "/>
<polygon fill="#F4F5F5" points="577.8,267.2 577.8,267.2 618.5,241.5 637.2,269.5 637.2,269.5 "/>
<polygon fill="#D1D2D2" points="590.2,312.9 590.2,312.9 637.2,269.5 628.5,300 "/>
<polygon fill="#DFDFDE" points="590.2,312.9 590.2,312.9 628.5,300 628.5,300 "/>
<polygon fill="#919191" points="590.2,312.9 628.5,300 645.6,316.6 "/>
<polygon fill="#E9E9E9" points="409.9,208.6 409.9,208.6 394.4,253.9 358.9,245.9 358.9,245.9 358.9,245.8 358.9,245.8 "/>
<polygon fill="#FCFDFF" points="365.1,211.8 409.9,208.6 358.9,245.8 "/>
<polygon fill="#F7F8F9" points="409.9,208.6 418.8,241.2 418.8,241.2 407.4,278.2 "/>
<polygon fill="#F6F7F7" points="409.9,208.6 407.4,278.2 407.4,278.3 407.4,278.3 407.4,278.3 396.3,257.6 394.4,253.9 "/>
<polygon fill="#EBEBEB" points="418.8,241.2 418.8,241.2 407.5,278.3 407.4,278.3 407.4,278.2 "/>
<polygon fill="#EBEBEB" points="418.8,241.2 451,263.8 407.5,278.3 "/>
<polygon fill="#EBEBEB" points="365.1,211.8 365.1,211.8 365.1,211.8 358.9,245.8 358.9,245.8 358.9,245.8 358.9,245.8 358.9,245.8 
	"/>
<polygon fill="#F4F5F5" points="326.5,205 365.1,211.8 358.9,245.8 "/>
<polygon fill="#E3E3E3" points="451,263.8 437.6,296.5 407.4,278.3 407.5,278.3 407.5,278.3 "/>
<polygon fill="#E9E9E9" points="326.5,205 326.5,205 326.5,205 321.4,233.2 286.7,205.3 286.7,205.3 286.7,205.3 "/>
<polygon fill="#F6F7F7" points="326.5,205 358.9,245.8 358.9,245.8 358.9,245.8 358.9,245.9 321.4,233.2 "/>
<polygon fill="#DFDFDE" points="358.9,245.9 394.4,253.9 359.3,290 359.2,290 "/>
<polygon fill="#EFEEEE" points="394.4,253.9 396.3,257.6 407.4,278.3 407.4,278.3 359.3,290 "/>
<polygon fill="#EBEBEB" points="396.3,257.6 407.4,278.3 407.4,278.3 "/>
<polygon fill="#F2F2F2" points="321.4,233.2 358.9,245.9 358.9,245.9 358.9,245.9 313.3,256.6 "/>
<polygon fill="#E3E3E3" points="358.9,245.9 358.9,245.9 358.9,245.9 334.2,277.7 334.2,277.7 334.2,277.7 "/>
<polygon fill="#C7C7C7" points="358.9,245.9 359.2,290 334.2,277.7 "/>
<polygon fill="#DFDFDE" points="358.9,245.9 334.2,277.7 313.3,256.6 "/>
<polygon fill="#C1C1C1" points="407.4,278.3 437.6,296.5 413,319.3 413,319.3 "/>
<path fill="#E3E3E3" d="M286.7,205.3l34.7,27.9L286.7,205.3z"/>
<polygon fill="#E3E3E3" points="407.4,278.3 407.4,278.3 407.4,278.3 378.1,315.6 378.1,315.6 378.1,315.6 378.1,315.6 378.1,315.6 
	"/>
<polygon fill="#C9C9C9" points="286.7,205.3 321.4,233.2 313.3,256.6 313.3,256.6 "/>
<polygon fill="#E3E3E3" points="286.7,205.3 286.7,205.3 280.7,233.1 280.6,233.1 280.6,233.1 280.6,233.1 "/>
<polygon fill="#D7D7D7" points="286.7,205.3 313.3,256.6 280.6,233.1 280.7,233.1 "/>
<polygon fill="#E3E3E3" points="407.4,278.3 378.1,315.6 359.3,290 "/>
<polygon fill="#99999A" points="407.4,278.3 413,319.3 378.1,315.6 "/>
<polygon fill="#EBEBEB" points="280.6,233.1 280.6,233.1 267.6,280.6 267.6,280.6 267.6,280.6 267.6,280.5 "/>
<polygon fill="#C9C9C9" points="280.6,233.1 313.3,256.6 267.6,280.6 "/>
<polygon fill="#CCCBCB" points="313.3,256.6 313.3,256.6 313.3,256.6 302.8,279.9 267.6,280.6 267.6,280.6 267.6,280.6 "/>
<polygon fill="#F2F2F2" points="313.3,256.6 334.2,277.7 336.1,321.8 "/>
<polygon fill="#EBEBEB" points="313.3,256.6 336.1,321.8 336.1,321.8 302.8,279.9 "/>
<polygon fill="#99999A" points="378.1,315.6 413,319.3 371.4,338.2 "/>
<polygon fill="#EBEBEB" points="334.2,277.7 359.2,290 359.2,290 336.1,321.8 "/>
<polygon fill="#C9C9C9" points="359.3,290 378.1,315.6 378.1,315.6 371.4,338.1 "/>
<polygon fill="#E3E3E3" points="359.2,290 359.3,290 353,320.6 336.1,321.8 336.1,321.8 336.1,321.8 "/>
<polygon fill="#EBEBEB" points="359.3,290 371.4,338.1 371.4,338.2 353,320.6 "/>
<polygon fill="#EBEBEB" points="378.1,315.6 378.1,315.6 378.1,315.6 378.1,315.6 371.4,338.2 371.4,338.2 371.4,338.1 "/>
<polygon fill="#C9C9C9" points="267.6,280.6 302.8,279.9 293.2,311.3 293.2,311.3 "/>
<polygon fill="#C1C1C1" points="302.8,279.9 336.1,321.8 336.1,321.8 336.1,321.8 336.1,321.8 293.2,311.3 "/>
<polygon fill="#919191" points="336.1,321.8 353,320.6 323.2,349.9 323.2,349.9 336.1,321.8 "/>
<polygon fill="#99999A" points="353,320.6 371.4,338.2 371.4,338.2 371.4,338.2 323.2,349.9 "/>
<polygon fill="#C9C9C9" points="212.8,242.3 267.6,280.6 267.6,280.6 203.4,286.5 203.2,286.6 212.7,242.8 "/>
<polygon fill="#C7C7C7" points="293.2,311.3 336.1,321.8 293.6,341.6 "/>
<polygon fill="#E3E3E3" points="336.1,321.8 336.1,321.8 293.6,341.6 293.6,341.6 293.6,341.6 293.6,341.6 "/>
<polygon fill="#99999A" points="336.1,321.8 323.2,349.9 323.2,349.9 293.6,341.6 "/>
<polygon fill="#E6E6E5" points="267.6,280.6 293.2,311.3 243,292.5 "/>
<polygon fill="#CCCBCB" points="203.4,286.5 267.6,280.6 243,292.5 243,292.5 243,292.5 203.4,286.6 "/>
<polygon fill="#E3E3E3" points="267.6,280.6 243,292.5 243,292.5 "/>
<polygon fill="#E4E4E4" points="203.2,286.6 203.4,286.5 203.4,286.6 "/>
<polygon fill="#E4E4E4" points="203.2,286.6 203.4,286.6 203.4,286.7 203.3,286.7 "/>
<path fill="#E4E4E4" d="M203.2,286.6l0.1,0.1L203.2,286.6z"/>
<polygon fill="#F2F2F2" points="203.3,286.7 203.4,286.7 203.4,286.8 "/>
<polygon fill="#F4F5F5" points="170.1,280.2 170.5,281.5 169.7,280.9 "/>
<polygon fill="#E9E9E9" points="212.7,242.8 203.2,286.6 203.4,286.5 267.6,280.6 267.6,280.6 212.8,242.3 "/>
<polygon fill="#E1E1E1" points="547.6,241.4 579.6,267.6 517.4,274.1 517.4,274.1 547.5,241.4 "/>
<polygon fill="#D1D2D2" points="577.8,267.2 569.5,310 517.4,274.1 "/>
<polygon fill="#DFDFDE" points="547.5,241.4 547.6,241.4 547.5,241.4 499.4,250.9 499.4,250.9 499.4,250.8 "/>
<polygon fill="#EEEDED" points="547.5,241.4 517.4,274.1 499.4,250.9 "/>
<polygon fill="#FCFDFF" points="547.5,241.4 499.4,250.8 491.8,223.3 "/>
<polygon fill="#C1C1C1" points="569.5,310 519.7,303.8 517.4,274.1 "/>
<polygon fill="#919191" points="569.5,310 554,326.4 519.7,303.8 "/>
<polygon fill="#E3E3E3" points="491.8,223.3 499.4,250.8 470.9,284.4 "/>
<polygon fill="#EBEBEB" points="491.8,223.3 470.9,284.4 470.9,284.4 464.5,234.5 "/>
<polygon fill="#A1A0A0" points="554,326.4 554,326.4 554,326.4 511.6,352.1 496.9,316.6 497,316.6 497,316.6 497,316.6 497,316.6 
	"/>
<polygon fill="#C1C1C1" points="519.7,303.8 554,326.4 497,316.6 "/>
<polygon fill="#D1D2D2" points="499.4,250.9 517.4,274.1 517.4,274.1 470.9,284.4 "/>
<polygon fill="#CCCBCB" points="517.4,274.1 519.7,303.8 519.6,303.8 497,316.6 "/>
<polygon fill="#C1C1C1" points="517.4,274.1 517.4,274.1 489.6,293.1 470.9,284.4 470.9,284.4 470.9,284.4 "/>
<polygon fill="#DFDFDE" points="517.4,274.1 497,316.6 496.9,316.6 489.6,293.1 "/>
<polygon fill="#DFDFDE" points="519.7,303.8 519.7,303.8 519.7,303.8 519.7,303.8 497,316.6 497,316.6 497,316.6 519.6,303.8 "/>
<polygon fill="#B1B1B1" points="470.9,284.4 489.6,293.1 436.8,295.8 436.8,295.8 470.8,284.4 "/>
<polygon fill="#D1D2D2" points="489.6,293.1 496.9,316.6 496.9,316.6 496.9,316.6 436.8,295.8 "/>
<polygon fill="#DFDFDE" points="496.9,316.6 496.9,316.6 496.9,316.6 496.9,316.6 445.8,325.5 445.8,325.5 445.8,325.5 "/>
<polygon fill="#919191" points="496.9,316.6 511.6,352.1 478,347.5 478,347.5 "/>
<polygon fill="#99999A" points="496.9,316.6 478,347.5 445.8,325.5 "/>
<polygon fill="#C1C1C1" points="496.9,316.6 445.8,325.5 436.8,295.8 436.8,295.8 "/>
<polygon fill="#E4E4E4" points="192.8,242.5 168.9,225.3 180.1,262.1 "/>
<polygon fill="#F7F8F9" points="212.8,242.3 263.6,251.7 267.6,280.6 "/>
<polygon fill="#F4F5F5" points="286.7,205.3 263.6,251.7 280.6,233.1 "/>
<polygon fill="#E4E4E4" points="263.6,251.7 280.6,233.1 267.6,280.6 "/>
<polygon fill="#E9E9E9" points="0.4,110.1 7.8,70 22.3,103.6 "/>
<polygon fill="#F7F8F9" points="22.3,103.6 80.6,176.4 37.6,153.9 "/>
<polygon fill="#C1C1C1" points="212.8,242.3 180.1,262.1 203.2,286.6 "/>
<polygon fill="#CCCBCB" points="192.8,242.5 212.8,242.3 180.1,262.1 "/>
<polygon fill="#D1D2D2" points="470.9,284.4 451,263.8 436.8,295.8 "/>
<polygon fill="#B1B1B1" points="413,319.3 445.8,325.4 436.8,295.8 "/>
<polygon fill="#EFEEEE" points="464.5,234.5 451,263.8 470.9,284.4 "/>
<polygon fill="#F1F1F1" points="547.5,241.4 618.5,241.5 579.6,267.6 "/>
<polygon fill="#F4F5F5" points="464.5,234.5 418.8,241.2 451,263.8 "/>
<polygon fill="#FCFDFF" points="409.9,208.6 464.5,234.5 418.8,241.2 "/>
<polygon fill="#FCFDFF" points="212.8,242.3 286.2,205.3 263.6,249.8 "/>
<polygon fill="#EBEBEB" points="650.7,274.1 637.2,269.5 628.5,300 "/>
<polygon fill="#DFDFDE" points="650.3,274.1 645.6,316.6 628.5,300 "/>
<polygon fill="#C1C1C1" points="554,326.4 645.6,316.6 569.5,310 "/>
<polygon fill="#C1C1C1" points="698.7,341.6 727.6,354.5 735.2,328 "/>
<polygon fill="#E2E2E2" points="694.5,314.1 735.2,328 698.7,341.6 "/>
<polygon fill="#99999A" points="554,326.4 698.7,341.6 645.6,316.6 "/>
<polygon fill="#010101" points="799.1,296.3 849.9,303.3 842.8,327.6 "/>
<polygon fill="#221F1F" points="849.9,303.3 847.5,279.9 832,262.2 "/>
<polygon fill="#010101" points="645.6,316.6 693.2,305.2 650.3,274.1 "/>
<polygon fill="#EFEEEE" points="725.1,313.4 710.7,300.9 693.2,305.2 "/>
<polygon fill="#1A1A1A" points="832,262.2 799.1,296.3 849.9,303.3 "/>
<polygon fill="#1A1A1A" points="816.8,233.1 799.1,296.3 817.8,277 "/>
<polygon fill="#919191" points="710.7,300.9 714.2,293.1 693.2,305.2 "/>
<polygon fill="#20201F" points="714.2,293.1 703.7,269.5 661.2,282.1 "/>
<polygon fill="#1A1A1A" points="693.2,305.2 661.2,282.1 714.2,293.1 "/>
<polygon fill="#FCFDFF" points="754.5,278.7 710.7,300.9 725.1,313.4 "/>
<polygon fill="#F4F5F5" points="714.2,293.1 754.5,278.7 710.7,300.9 "/>
<polygon fill="#FCFDFF" points="703.7,269.5 754.5,278.7 714.2,293.1 "/>
<polygon fill="#221F1F" points="799.1,296.3 811.8,250.9 789.4,279.8 "/>
<polygon fill="#F4F5F5" points="754.5,278.7 789.4,279.8 799.1,296.3 "/>
<polygon fill="#919191" points="693.2,305.2 645.6,316.6 694.5,314.1 "/>
<polygon fill="#221F1F" points="727.6,354.5 735.2,328 746.8,350.4 "/>
<polygon fill="#B4B4B5" points="693.2,305.2 694.5,314.1 735.2,328 "/>
<polygon fill="#3B3B3B" points="685.8,186 683.8,187 682.8,190 681.8,188 676.8,189 675.8,196 672.8,197 666.8,197 670.8,187 
	670.8,195 675.8,186 "/>
<polygon points="645.8,202 644.8,205 645.8,199 "/>
<polygon fill="#F1F1F1" points="699.8,262 699.8,248 701.8,251 699.8,261 "/>
<polygon fill="#F1F1F1" points="680.8,259 684.8,253 684.8,259 687.8,254 692.8,254 678.8,267 680.8,260 "/>
<path fill="#FCFDFF" d="M638.8,162l-1,9l-1,6l-10,20l7-8l2,40l7-16l7,8l2-21l2,3v1l1,4l3-3v1l4,28l9-20l12-4l2,4v2l-1,9l-3-3l-1,22
	l-7,19l-3,7l-1,3l-7,4v-3l-4-9l-7,13l-1,2l-3-9l13-12l-2-16l-2-4l3-5l-3,3l-3-31v22l-7-4l-1,5l-4-4l-5,15l-7-22l-5-19l10-15
	L638.8,162L638.8,162z M670.8,259l-5,4l7-43l-12,36l1,3l3-1l-5,5l4-1v10h4L670.8,259L670.8,259z M630.8,198l1-3l2,30L630.8,198
	L630.8,198z"/>
<path fill="#3B3B3B" d="M753.8,273l-18-16L753.8,273z"/>
<polygon fill="#3B3B3B" points="734.8,257 712.8,238 709.8,243 698.8,231 693.8,215 697.8,217 697.8,218 706.8,231 708.8,228 "/>
<polygon fill="#3B3B3B" points="691.8,201 701.8,212 693.8,208 "/>
<polygon fill="#3B3B3B" points="658.8,206 656.8,199 662.8,204 666.8,198 667.8,197 669.8,207 669.8,209 668.8,211 667.8,207 
	664.8,206 661.8,212 659.8,210 "/>
<polyline fill="#3B3B3B" points="644.8,184 639.8,184 643.8,187 643.8,192 655.8,184 656.8,198 656.8,198 654.8,199 651.8,194 
	645.8,199 644.8,205 645.8,202 639.8,208 639.8,200 648.8,191 640.8,196 637.8,193 646.8,150 "/>
<polyline points="666.8,198 662.8,204 656.8,199 656.8,198 655.8,184 643.8,192 643.8,187 639.8,184 644.8,184 645.8,163 663.3,145 
	649,167.5 647.8,181.5 659.8,176 "/>
<path fill="#9D9D9D" d="M646.8,150l-9,43l3,3l8-5l-9,9v8l6-6v-3l6-5l3,5l2-1v1l2,7h-1v-1l-1-5l-3,4v-1l-1-5l-6,3l1,10l-8,3l-3-37
	l1-6l10-23"/>
<polygon fill="#D1D1D1" points="653.8,203 651.8,200 649.8,221 642.8,213 635.8,229 633.8,189 626.8,197 636.8,177 639.8,214 
	647.8,211 646.8,201 652.8,198 "/>
<polyline fill="#D1D1D1" points="647.8,148 637.8,171 638.8,162 638.8,162 639.8,155 "/>
<polygon fill="#F4F5F5" points="747.8,87 747.8,91 743.8,93 "/>
<polygon fill="#D1D1D1" points="685.8,186 690.8,185 691.8,186 690.8,186.5 692.8,196 687.8,188 684.8,192 684.8,193 684.8,194 
	683.8,187 "/>
<path fill="#9D9D9D" d="M714.8,244l-2-4l-4,23l-4,11h-3l-2-11v-1v-1l1-1l2,3v7l4-8l2-13l-2,4l-2-16l-5-4l-3,22l1-7l-6,1l3-1l-6,4
	l-1-11l-5,10l-3-23l5,2l2,7l-2-21v-2l-4-12v5h-11l-2-10l-1,1v-1h6l3-1l1-7l5-1l1,2l1-3l0,0l1,7l1,9l-2-1l6,7.2l3,7.8l-3-10l4,1l8,4
	l2,4l-7-5l1,6l-4-2l5,16l11,12l3-5l22,19h1l18,16"/>
<polygon fill="#9D9D9D" points="691.8,201 684.8,192 687.8,188 694.8,197 692.8,200 "/>
<polyline fill="#D1D1D1" points="715.8,245 708.8,263 708.8,263 712.8,240 714.8,244 "/>
<polygon fill="#D1D1D1" points="669.8,207 680.8,207 680.8,202 684.8,214 682.8,210 670.8,214 661.8,234 657.8,206 658.8,206 
	659.8,210 663.8,217 665.8,210 667.8,213 669.8,209 "/>
<polygon fill="#D1D1D1" points="653.8,204 656.8,200 657.8,205 654.8,208 "/>
<polygon fill="#D1D1D1" points="684.8,216 686.8,237 684.8,230 679.8,228 682.8,251 687.8,241 688.8,252 694.8,248 691.8,249 
	697.8,248 696.8,255 699.8,233 704.8,237 706.8,253 708.8,249 706.8,262 707.8,254 702.8,263 700.8,260 699.8,261 701.8,251 
	699.8,248 699.8,262 699.8,263 698.8,265 692.8,262 693.8,258 693.8,257 694.8,256 683.8,264 681.8,267 675.8,271 680.8,260 
	678.8,267 692.8,254 687.8,254 684.8,259 684.8,253 680.8,259 683.8,254 672.8,263 679.8,244 680.8,222 683.8,225 "/>
<polygon fill="#9D9D9D" points="685.8,203 684.8,194 684.8,193 691.8,206.5 "/>
<polygon fill="#9D9D9D" points="659.8,210 661.8,212 664.8,206 667.8,207 668.8,211 669.8,209 667.8,213 665.8,210 663.8,217 "/>
<polygon fill="#D1D1D1" points="697.8,217 696.8,211 703.8,216 704.8,218 705.8,221 697.8,218 "/>
<polygon fill="#9D9D9D" points="697.8,218 705.8,221 704.8,218 708.8,228 706.8,231 "/>
<polygon fill="#9D9D9D" points="693.8,258 692.8,262 698.8,265 697.8,268 696.8,264 694.8,265 693.8,262 692.8,263 691.8,264 "/>
<polygon fill="#9D9D9D" points="680.8,260 675.8,271 681.8,267 679.8,272 679.8,268 673.8,273 669.8,270 672.8,263 683.8,254 
	680.8,259 "/>
<polygon fill="#F1F1F1" points="702.8,263 707.8,254 706.8,262 702.8,270 "/>
<polygon fill="#9D9D9D" points="683.8,264 694.8,256 693.8,257 689.8,262 "/>
<polygon fill="#3B3B3B" points="689.8,262 693.8,257 693.8,258 691.8,264 690.8,266 688.8,266 "/>
<polygon fill="#D1D1D1" points="661.8,277 668.8,273 667.8,275 "/>
<polygon fill="#D1D1D1" points="661.8,274 651.8,275 650.8,278 657.8,265 "/>
<polygon fill="#3B3B3B" points="692.8,263 693.8,262 694.8,265 696.8,264 697.8,268 695.8,271 695.8,265 "/>
<polygon fill="#3B3B3B" points="660.8,279 661.8,281 667.8,275 668.8,273 669.8,270 673.8,273 663.8,283 "/>
<polygon fill="#9D9D9D" points="651.8,275 661.8,274 661.8,277 667.8,275 661.8,281 660.8,279 657.8,273 "/>
<polygon fill="#3B3B3B" points="685.8,203 689.8,207.5 688.8,211 683.8,202 "/>
<polyline fill="#F1F1F1" points="749.8,276 734.8,261 715.8,249 706.8,281 704.8,274 708.8,263 715.8,245 "/>
<polyline fill="#3B3B3B" points="752.3,243.3 745,241.7 738.6,237.6 733.2,232.5 738.6,238 733.1,232.6 740,237.6 747.9,240.7 
	756.3,241.8 "/>
<polygon points="690.6,185.6 696.5,188.1 698.8,204.4 692,199.8 695.7,211.9 692.8,209.7 694.7,221.2 685.8,201.6 690.7,205.7 
	684.8,190.7 694.3,198.5 "/>
<polygon fill="#FFFFFF" points="688.6,183.6 694.5,186.1 696.8,202.4 690,197.8 693.7,209.9 690.8,207.7 692.7,219.2 683.8,199.6 
	688.7,203.7 682.8,188.7 692.3,196.5 "/>
<polygon fill="#20201F" points="686.3,78.7 706.3,64.9 679.3,98.3 "/>
<polygon points="753.8,273 735.8,257 734.8,257 708.8,228 704.8,218 703.8,216 701.8,212 691.8,201 692.8,200 696.8,202 695.8,194 
	704.8,210 717,222 736.7,236 "/>
<polygon fill="#FFFFFF" points="852.2,300.3 867.1,320.3 869,300.3 "/>
<polygon fill="#010101" points="858,255.2 847.5,246.8 849.8,237.3 "/>
<polygon fill="#B2B2B2" points="895.2,289.5 912.1,291.9 902.1,275.7 "/>
</svg>
