<?xml version="1.0" encoding="utf-8"?>
<!-- Generator: Adobe Illustrator 15.0.0, SVG Export Plug-In  -->
<!DOCTYPE svg PUBLIC "-//W3C//DTD SVG 1.1//EN" "http://www.w3.org/Graphics/SVG/1.1/DTD/svg11.dtd" [
	<!ENTITY ns_flows "http://ns.adobe.com/Flows/1.0/">
]>
<svg version="1.1"
	 xmlns="http://www.w3.org/2000/svg" xmlns:xlink="http://www.w3.org/1999/xlink" xmlns:a="http://ns.adobe.com/AdobeSVGViewerExtensions/3.0/"
	 x="0px" y="0px" width="150px" height="105px" viewBox="-5.495 -3.304 150 105"
	 overflow="visible" enable-background="new -5.495 -3.304 150 105" xml:space="preserve">
<defs>
</defs>
<path d="M137.128,10.121h-3.971h-6.486l0.717,1.442h5.77v37.216h-16.195c-0.299-0.009-1.194-0.121-1.943-0.532
	c-0.658-0.362-1.33-0.97-1.33-2.711v-9.252l12.26-4.904v3.683l-1.242-1.247l-1.432,0.61l4.113,4.12v-9.299l-17.104,6.843h-0.021
	l-3.065,1.228v8.218c0,7.143,5.822,9.738,9.736,9.738h22.715V10.121H137.128z"/>
<path d="M10.974,67.751H9.31l-2.935,7.33h1.895l1.834-5.107c0.018-0.055,0.029-0.086,0.031-0.086h0.009
	c0.006,0,1.867,5.193,1.867,5.193h1.893L10.974,67.751z"/>
<path d="M20.785,73.438v1.643h-5.224v-7.33h1.756v5.688H20.785z"/>
<path d="M28.255,73.438v1.643H22.86v-7.33h5.331v1.646H24.62v1.201h2.796v1.543H24.62v1.297H28.255z"/>
<path d="M68.358,73.364v1.646h-5.224v-7.33h1.757v5.685H68.358z"/>
<path d="M76.715,67.68v4.073c0,2.2-1.301,3.4-3.236,3.4c-1.951,0-3.236-1.2-3.236-3.4V67.68h1.761v4.029
	c0,1.258,0.51,1.804,1.475,1.804c0.962,0,1.478-0.546,1.478-1.804V67.68H76.715z"/>
<path d="M84.495,73.364v1.646h-5.391v-7.33h5.332v1.646h-3.573v1.202h2.797v1.538h-2.797v1.299H84.495z"/>
<path d="M122.696,67.68v4.073c0,2.2-1.363,3.4-3.297,3.4c-1.401,0-2.592-0.795-3.031-1.871l1.728-0.463
	c0.253,0.439,0.707,0.693,1.304,0.693c0.958,0,1.537-0.651,1.537-1.697V67.68H122.696z"/>
<path d="M130.484,73.364v1.646h-5.4v-7.33h5.329v1.646h-3.568v1.202h2.796v1.538h-2.796v1.299H130.484z"/>
<path d="M139.65,67.68v7.33h-1.648l-1.501-2.043c-0.674-0.92-1.656-2.313-1.664-2.313h-0.014c-0.007,0,0.014,1.129,0.014,2.731
	v1.625h-1.764v-7.33h1.656l1.561,2.092c0.471,0.63,1.594,2.215,1.602,2.215h0.009c0.015,0-0.009-1.304-0.009-2.633V67.68H139.65z"/>
<polygon points="47.066,4.925 42.485,0 37.907,4.925 38.726,5.689 41.69,2.5 41.69,59.719 43.28,59.719 43.28,2.5 46.244,5.689 "/>
<polygon points="43.28,91.404 43.28,90.317 47.75,92.896 47.75,91.622 43.28,89.04 43.28,83.729 41.69,83.729 41.69,89.04 
	37.222,91.622 37.222,92.896 41.69,90.317 41.69,91.404 41.932,91.404 41.932,91.451 37.222,94.17 37.222,95.443 41.932,92.729 
	41.932,93.998 37.222,96.719 37.222,97.993 41.932,95.272 43.04,95.272 47.75,97.993 47.75,96.719 43.04,93.998 43.04,92.729 
	47.75,95.443 47.75,94.17 43.04,91.451 43.04,91.404 "/>
<polygon points="105.023,1.273 105.023,0 100.313,2.722 99.206,2.722 94.496,0 94.496,1.273 98.963,3.856 98.963,5.129 
	94.496,2.548 94.496,3.823 98.963,6.403 98.963,7.68 94.496,5.099 94.496,6.372 98.963,8.953 98.963,59.719 100.552,59.719 
	100.552,8.953 105.023,6.372 105.023,5.099 100.552,7.68 100.552,6.403 105.023,3.823 105.023,2.548 100.552,5.129 100.552,3.856 
	"/>
<path d="M103.517,92.307l-2.965,3.186V83.729h-1.589v11.766l-2.965-3.188l-0.818,0.761l4.58,4.926l4.581-4.926L103.517,92.307z
	 M99.728,96.312h0.063L99.76,96.35L99.728,96.312z"/>
<circle cx="42.486" cy="71.418" r="2.429"/>
<circle cx="99.759" cy="71.418" r="2.429"/>
<path d="M9.353,38.107l7.212-1.966l12.831-3.499l0.446-0.133h0.018l2.592-0.708V19.856c0-7.145-5.822-9.736-9.735-9.736H0v44.989
	h0.348l2.93-0.799l0.688-0.188l2.524-0.688V16.612h16.199c0.299,0.007,1.197,0.122,1.943,0.533c0.658,0.358,1.331,0.966,1.331,2.711
	v12.227L10.796,36.22v-3.787l1.463,1.465l1.57-0.47l-4.477-4.477"/>
<path d="M83.538,26.78v-0.044l2.524-1.264v-5.615c0-7.145-5.824-9.736-9.737-9.736H53.609v45.433h22.715
	c7.145,0,9.737-5.82,9.737-9.736v-5.614l-2.524-1.261v-0.061l-10.42-5.211l-1.616,0.808l8.26,4.13h-0.19v7.181
	c-0.011,0.299-0.122,1.196-0.532,1.941c-0.364,0.662-0.97,1.334-2.714,1.334H60.1V16.612h16.197
	c0.302,0.007,1.199,0.122,1.944,0.533c0.658,0.358,1.33,0.966,1.33,2.711v7.21h0.195l-6.542,3.271l0,0l-0.043,0.021l-3.346,1.673
	l0,0l-1.61,0.806l0,0l-4.158,2.078v-4.156l2.498,1.249l1.613-0.807l-5.557-2.775v8.825l7.214-3.606l0.008,0.002l1.616-0.804
	l-0.009-0.004l11.688-5.847L83.538,26.78z"/>
<path d="M59.663,71.062v-0.009c0.444-0.162,0.911-0.747,0.911-1.436c0-1.07-0.911-1.938-2.219-1.938h-3.184v1.477h1.762h1.056
	c0.472,0,0.817,0.295,0.817,0.691c0,0.399-0.345,0.688-0.817,0.688h-1.056h-1.762v1.346h1.762h1.226
	c0.555,0,0.951,0.309,0.951,0.823c0,0.482-0.366,0.826-0.951,0.826h-1.226h-1.762v1.479h3.165c1.809,0,2.617-0.994,2.617-2.221
	C60.953,72.047,60.354,71.248,59.663,71.062z"/>
<path d="M3.17,67.751H0.374v1.646h1.758h1.006c0.681,0,1.089,0.324,1.089,0.868c0,0.547-0.408,0.87-1.089,0.87H2.132H0.374v3.945
	h1.758v-2.303H3.17c1.801,0,2.889-0.945,2.889-2.513C6.059,68.694,4.972,67.751,3.17,67.751z"/>
</svg>
