<?xml version="1.0" encoding="utf-8"?>
<!-- Generator: Adobe Illustrator 15.0.0, SVG Export Plug-In  -->
<!DOCTYPE svg PUBLIC "-//W3C//DTD SVG 1.1//EN" "http://www.w3.org/Graphics/SVG/1.1/DTD/svg11.dtd" [
	<!ENTITY ns_flows "http://ns.adobe.com/Flows/1.0/">
]>
<svg version="1.1"
	 xmlns="http://www.w3.org/2000/svg" xmlns:xlink="http://www.w3.org/1999/xlink" xmlns:a="http://ns.adobe.com/AdobeSVGViewerExtensions/3.0/"
	 x="0px" y="0px" width="320px" height="320px" viewBox="1.421 0.012 320 320"
	 overflow="visible" enable-background="new 1.421 0.012 320 320" xml:space="preserve">
<defs>
</defs>
<rect x="214.669" y="237.986" transform="matrix(0.3821 0.9241 -0.9241 0.3821 402.4664 -18.6775)" fill="#939598" width="1.063" height="107.298"/>
<rect x="182.704" y="206.147" transform="matrix(0.9234 0.3839 -0.3839 0.9234 113.739 -50.4398)" fill="#939598" width="1.063" height="107.165"/>
<rect x="84.457" y="259.2" transform="matrix(0.3833 0.9236 -0.9236 0.3833 325.0349 32.6894)" fill="#939598" width="107.165" height="1.063"/>
<rect x="137.509" y="97.218" transform="matrix(0.9233 0.384 -0.384 0.9233 68.4962 -41.4483)" fill="#939598" width="1.063" height="107.165"/>
<rect x="291.829" y="161.022" transform="matrix(0.9235 0.3837 -0.3837 0.9235 104.7226 -95.7533)" fill="#939598" width="1.064" height="107.166"/>
<rect x="193.576" y="214.075" transform="matrix(0.3833 0.9236 -0.9236 0.3833 350.6544 -95.9285)" fill="#939598" width="107.165" height="1.064"/>
<rect x="161.553" y="245.98" transform="matrix(0.9241 0.3821 -0.3821 0.9241 110.5264 -63.5252)" fill="#939598" width="107.298" height="1.063"/>
<rect x="84.459" y="168.953" transform="matrix(0.3832 0.9236 -0.9236 0.3832 241.6815 -22.9715)" fill="#939598" width="107.165" height="1.063"/>
<rect x="238.78" y="105.143" transform="matrix(0.3833 0.9236 -0.9236 0.3833 277.9179 -204.8649)" fill="#939598" width="107.166" height="1.063"/>
<rect x="206.753" y="137.051" transform="matrix(0.9241 0.3821 -0.3821 0.9241 72.3332 -89.0629)" fill="#939598" width="107.298" height="1.063"/>
<rect x="259.872" y="129.052" transform="matrix(0.3821 0.9241 -0.9241 0.3821 329.7296 -127.7562)" fill="#939598" width="1.063" height="107.298"/>
<rect x="97.634" y="182.168" transform="matrix(0.9241 0.3821 -0.3821 0.9241 81.2922 -43.9432)" fill="#939598" width="107.298" height="1.063"/>
<rect x="161.55" y="28.116" transform="matrix(0.9241 0.3821 -0.3821 0.9241 27.277 -80.0567)" fill="#939598" width="107.298" height="1.063"/>
<rect x="214.67" y="20.123" transform="matrix(0.3821 0.9241 -0.9241 0.3821 201.1379 -153.288)" fill="#939598" width="1.063" height="107.297"/>
<rect x="246.629" y="52.09" transform="matrix(0.9238 0.3829 -0.3829 0.9238 59.3024 -86.5886)" fill="#939598" width="1.063" height="107.165"/>
<rect x="169.468" y="129.05" transform="matrix(0.3821 0.9241 -0.9241 0.3821 273.8699 -44.2148)" fill="#939598" width="1.063" height="107.297"/>
<rect x="105.545" y="-25.002" transform="matrix(0.3821 0.9241 -0.9241 0.3821 92.0134 -80.3265)" fill="#939598" width="1.063" height="107.298"/>
<rect x="137.51" y="6.97" transform="matrix(0.9236 0.3832 -0.3832 0.9236 33.7462 -48.2802)" fill="#939598" width="1.063" height="107.165"/>
<rect x="129.655" y="60.019" transform="matrix(0.3832 0.9236 -0.9236 0.3832 168.9392 -131.9022)" fill="#939598" width="107.165" height="1.063"/>
<rect x="182.705" y="115.899" transform="matrix(0.9234 0.3839 -0.3839 0.9234 79.0961 -57.3539)" fill="#939598" width="1.063" height="107.165"/>
<rect x="28.384" y="52.094" transform="matrix(0.9236 0.3832 -0.3832 0.9236 42.7078 -3.0131)" fill="#939598" width="1.063" height="107.165"/>
<rect x="20.535" y="105.143" transform="matrix(0.3833 0.9236 -0.9236 0.3833 143.318 -3.2841)" fill="#939598" width="107.166" height="1.063"/>
<rect x="52.427" y="73.238" transform="matrix(0.9241 0.3821 -0.3821 0.9241 36.2382 -34.935)" fill="#939598" width="107.298" height="1.063"/>
<rect x="129.652" y="150.266" transform="matrix(0.3832 0.9236 -0.9236 0.3832 252.2951 -76.239)" fill="#939598" width="107.166" height="1.063"/>
<rect x="-24.669" y="214.076" transform="matrix(0.3833 0.9236 -0.9236 0.3833 216.0535 105.6523)" fill="#939598" width="107.165" height="1.063"/>
<rect x="7.227" y="182.167" transform="matrix(0.9241 0.3821 -0.3821 0.9241 74.4313 -9.3973)" fill="#939598" width="107.298" height="1.063"/>
<rect x="60.342" y="83.932" transform="matrix(0.3821 0.9241 -0.9241 0.3821 164.7503 28.7526)" fill="#939598" width="1.063" height="107.297"/>
<rect x="116.346" y="137.05" transform="matrix(0.9241 0.3821 -0.3821 0.9241 65.4729 -54.5175)" fill="#939598" width="107.298" height="1.063"/>
<rect x="52.43" y="291.103" transform="matrix(0.9241 0.3821 -0.3821 0.9241 119.486 -18.4034)" fill="#939598" width="107.296" height="1.063"/>
<rect x="105.544" y="192.861" transform="matrix(0.3821 0.9241 -0.9241 0.3821 293.3418 54.2842)" fill="#939598" width="1.063" height="107.297"/>
<rect x="73.585" y="161.026" transform="matrix(0.9233 0.384 -0.384 0.9233 88.0988 -12.0068)" fill="#939598" width="1.063" height="107.165"/>
<rect x="150.746" y="83.934" transform="matrix(0.3821 0.9241 -0.9241 0.3821 220.6101 -54.7885)" fill="#939598" width="1.063" height="107.297"/>
<path fill="#939598" d="M160.634,224.678c-0.41,0-0.744-0.336-0.744-0.748c0.003-0.413,0.336-0.747,0.744-0.747
	c0.41,0,0.743,0.335,0.743,0.747S161.043,224.678,160.634,224.678z M160.634,223.689c-0.135,0-0.245,0.108-0.245,0.24
	c0.001,0.265,0.487,0.268,0.488,0.004C160.877,223.798,160.768,223.689,160.634,223.689z"/>
<path fill="#939598" d="M160.624,314.905c-0.41,0-0.744-0.336-0.744-0.748s0.333-0.747,0.744-0.747c0.41,0,0.743,0.335,0.743,0.747
	h-0.499c0-0.264-0.487-0.265-0.488,0l0,0l0,0c0,0.001,0,0.001,0,0.001c0,0.266,0.487,0.266,0.488,0h0.499
	C161.367,314.57,161.034,314.905,160.624,314.905z"/>
<path fill="#939598" d="M160.624,97.079c-0.41,0-0.744-0.335-0.744-0.747c0-0.412,0.333-0.747,0.744-0.747
	c0.41,0,0.743,0.335,0.743,0.747C161.367,96.744,161.034,97.079,160.624,97.079z M160.624,96.091c-0.135,0-0.245,0.108-0.245,0.24
	c0,0.265,0.488,0.266,0.488,0C160.868,96.199,160.758,96.091,160.624,96.091z"/>
<path fill="#939598" d="M160.624,6.858c-0.41,0-0.744-0.335-0.744-0.747c0-0.412,0.333-0.747,0.744-0.747
	c0.41,0,0.743,0.335,0.743,0.747C161.367,6.523,161.034,6.858,160.624,6.858z M160.624,5.871c-0.135,0-0.245,0.108-0.245,0.241
	c0,0.264,0.488,0.265,0.488,0C160.868,5.979,160.758,5.871,160.624,5.871z"/>
<path fill="#939598" d="M51.507,269.805c-0.41,0-0.743-0.335-0.743-0.747s0.333-0.747,0.743-0.747s0.743,0.335,0.743,0.747
	S51.917,269.805,51.507,269.805z M51.507,268.816c-0.135,0-0.245,0.108-0.245,0.241c0,0.266,0.489,0.266,0.489,0
	C51.751,268.925,51.642,268.816,51.507,268.816z"/>
<path fill="#939598" d="M51.48,51.956c-0.41,0-0.743-0.335-0.743-0.747c0-0.412,0.333-0.747,0.743-0.747s0.743,0.335,0.743,0.747
	h-0.499c0-0.264-0.489-0.266-0.489,0l0,0l0,0c0,0,0,0,0,0c0,0.264,0.489,0.265,0.489,0h0.499
	C52.223,51.621,51.89,51.956,51.48,51.956z"/>
<path fill="#939598" d="M115.412,115.751c-0.41,0-0.743-0.335-0.743-0.747c0-0.412,0.333-0.747,0.743-0.747s0.743,0.335,0.743,0.747
	h-0.498c0-0.265-0.489-0.265-0.489,0l0,0c0,0,0,0,0,0l0,0c0,0.266,0.489,0.266,0.489,0h0.498
	C116.154,115.416,115.821,115.751,115.412,115.751z"/>
<path fill="#939598" d="M205.823,206.01c-0.409,0-0.742-0.336-0.742-0.748s0.333-0.747,0.742-0.747c0.41,0,0.744,0.335,0.744,0.747
	S206.233,206.01,205.823,206.01z M205.823,205.021c-0.135,0-0.244,0.108-0.244,0.24c-0.001,0.266,0.49,0.264,0.49,0
	C206.069,205.13,205.959,205.021,205.823,205.021z"/>
<path fill="#939598" d="M269.755,269.805c-0.409,0-0.742-0.335-0.742-0.747s0.333-0.747,0.742-0.747c0.41,0,0.744,0.335,0.744,0.747
	S270.165,269.805,269.755,269.805z M269.755,268.816c-0.135,0-0.244,0.108-0.244,0.241c-0.001,0.267,0.489,0.265,0.49,0
	C270.001,268.925,269.891,268.816,269.755,268.816z"/>
<path fill="#939598" d="M205.83,115.771c-0.409,0-0.743-0.335-0.743-0.747c0-0.412,0.334-0.747,0.743-0.747s0.743,0.335,0.743,0.747
	h-0.498c0-0.265-0.488-0.265-0.49,0l0,0c0,0,0,0,0,0l0,0c0.002,0.266,0.488,0.266,0.49,0h0.498
	C206.573,115.437,206.239,115.771,205.83,115.771z"/>
<path fill="#939598" d="M269.761,51.95c-0.409,0-0.742-0.335-0.742-0.747s0.333-0.747,0.742-0.747c0.41,0,0.744,0.335,0.744,0.747
	S270.171,51.95,269.761,51.95z M269.761,50.962c-0.135,0-0.244,0.108-0.244,0.24c-0.001,0.265,0.489,0.263,0.49,0
	C270.007,51.07,269.896,50.962,269.761,50.962z"/>
<path fill="#939598" d="M6.318,160.901c-0.41,0-0.743-0.335-0.743-0.747c0-0.412,0.333-0.748,0.743-0.748s0.743,0.335,0.743,0.748
	C7.061,160.566,6.728,160.901,6.318,160.901z M6.318,159.914c-0.135,0-0.245,0.108-0.245,0.241c0,0.265,0.489,0.265,0.489,0
	C6.562,160.021,6.453,159.914,6.318,159.914z"/>
<path fill="#939598" d="M96.693,160.901c-0.41,0-0.743-0.335-0.743-0.747c0-0.412,0.333-0.748,0.743-0.748s0.743,0.335,0.743,0.748
	C97.436,160.566,97.103,160.901,96.693,160.901z M96.693,159.914c-0.135,0-0.245,0.108-0.245,0.241c0,0.265,0.489,0.265,0.489,0
	C96.937,160.021,96.828,159.914,96.693,159.914z"/>
<path fill="#939598" d="M224.555,160.901c-0.409,0-0.743-0.335-0.743-0.747c0-0.412,0.334-0.748,0.743-0.748
	s0.743,0.335,0.743,0.748C225.298,160.566,224.964,160.901,224.555,160.901z M224.555,159.914c-0.135,0-0.245,0.108-0.245,0.241
	c0,0.265,0.49,0.265,0.49,0C224.8,160.021,224.689,159.914,224.555,159.914z"/>
<path fill="#939598" d="M314.929,160.901c-0.409,0-0.742-0.335-0.742-0.747c0-0.412,0.333-0.748,0.742-0.748
	c0.41,0,0.744,0.335,0.744,0.748C315.673,160.566,315.339,160.901,314.929,160.901z M314.929,159.914
	c-0.135,0-0.244,0.108-0.244,0.241c-0.001,0.265,0.489,0.264,0.49,0C315.175,160.021,315.064,159.914,314.929,159.914z"/>
<path fill="#939598" d="M115.438,206.01c-0.41,0-0.743-0.336-0.743-0.748s0.333-0.747,0.743-0.747s0.743,0.335,0.743,0.747
	S115.848,206.01,115.438,206.01z M115.438,205.021c-0.135,0-0.244,0.108-0.244,0.24c0,0.266,0.489,0.266,0.489,0
	C115.683,205.13,115.573,205.021,115.438,205.021z"/>
<path fill="#939598" d="M160.638,320.227L160.638,320.227c-3.483,0-6.318-2.728-6.319-6.08c0-1.63,0.66-3.161,1.859-4.311
	c1.192-1.144,2.775-1.773,4.458-1.773c3.483,0,6.318,2.728,6.319,6.08C166.955,317.496,164.121,320.226,160.638,320.227z
	 M160.636,309.297c-1.363,0-2.643,0.508-3.604,1.43c-0.954,0.914-1.479,2.128-1.479,3.418c0.001,2.673,2.282,4.848,5.085,4.848
	c2.803-0.001,5.083-2.176,5.083-4.848C165.72,311.472,163.438,309.297,160.636,309.297z"/>
<path fill="#939598" d="M160.618,12.164L160.618,12.164c-3.484,0-6.319-2.728-6.32-6.081c0-3.354,2.834-6.083,6.318-6.083
	c1.683,0,3.267,0.629,4.459,1.771c1.199,1.149,1.859,2.679,1.859,4.309c0.001,1.63-0.659,3.161-1.858,4.311
	C163.884,11.534,162.301,12.164,160.618,12.164z M160.617,1.234c-2.804,0-5.085,2.174-5.085,4.847
	c0.001,2.673,2.282,4.848,5.085,4.848c1.363,0,2.644-0.508,3.604-1.429c0.954-0.915,1.479-2.128,1.479-3.418
	C165.7,3.409,163.42,1.234,160.617,1.234z"/>
<path fill="#939598" d="M160.583,102.417L160.583,102.417c-3.485,0-6.319-2.728-6.319-6.08c0-1.63,0.66-3.161,1.859-4.311
	c1.192-1.143,2.775-1.773,4.458-1.773s3.267,0.629,4.459,1.771c1.199,1.149,1.859,2.68,1.859,4.309
	c0.001,1.63-0.659,3.161-1.858,4.311C163.849,101.788,162.266,102.417,160.583,102.417z M160.582,91.488
	c-1.363,0-2.644,0.508-3.605,1.429c-0.954,0.915-1.479,2.129-1.479,3.418c0,2.673,2.281,4.847,5.084,4.847
	c1.363,0,2.644-0.507,3.604-1.429c0.954-0.915,1.479-2.128,1.479-3.418C165.665,93.663,163.385,91.488,160.582,91.488z"/>
<path fill="#939598" d="M160.583,229.964h-0.002c-3.483,0-6.317-2.728-6.317-6.08c0-1.63,0.66-3.16,1.859-4.311
	c1.192-1.143,2.776-1.772,4.458-1.772c1.683,0,3.267,0.629,4.459,1.771c1.199,1.149,1.859,2.68,1.859,4.309
	c0.001,1.63-0.659,3.161-1.858,4.311C163.849,229.335,162.266,229.964,160.583,229.964z M160.583,219.035
	c-1.364,0-2.644,0.508-3.606,1.43c-0.954,0.914-1.479,2.128-1.479,3.418c0,2.673,2.28,4.847,5.083,4.847
	c1.364,0,2.644-0.508,3.605-1.429c0.954-0.914,1.479-2.128,1.479-3.418C165.665,221.21,163.385,219.035,160.583,219.035z"/>
<path fill="#939598" d="M6.319,166.242L6.319,166.242c-3.484,0-6.319-2.728-6.319-6.08c0-3.355,2.834-6.084,6.317-6.084
	c3.484,0,6.319,2.728,6.319,6.08C12.637,163.512,9.803,166.241,6.319,166.242z M6.317,155.312c-2.803,0-5.083,2.175-5.083,4.848
	c0,2.673,2.282,4.848,5.085,4.848c2.803-0.001,5.083-2.176,5.083-4.848C11.402,157.487,9.121,155.312,6.317,155.312z"/>
<path fill="#939598" d="M96.716,166.242L96.716,166.242c-3.484,0-6.318-2.728-6.319-6.08c0-1.63,0.66-3.161,1.859-4.311
	c1.192-1.144,2.775-1.773,4.458-1.773c3.484,0,6.318,2.728,6.319,6.08C103.034,163.512,100.2,166.241,96.716,166.242z
	 M96.714,155.312c-1.363,0-2.643,0.508-3.604,1.429c-0.954,0.915-1.479,2.129-1.479,3.418c0,2.673,2.281,4.848,5.084,4.848
	c2.803-0.001,5.083-2.176,5.083-4.848C101.798,157.487,99.518,155.312,96.714,155.312z"/>
<path fill="#939598" d="M224.583,166.219L224.583,166.219c-3.484,0-6.318-2.728-6.318-6.081c0-3.354,2.834-6.083,6.317-6.083
	s6.318,2.728,6.319,6.08C230.901,163.488,228.067,166.218,224.583,166.219z M224.582,155.289c-2.803,0-5.083,2.175-5.083,4.848
	s2.28,4.848,5.084,4.848c2.803-0.001,5.084-2.176,5.084-4.848C229.666,157.464,227.385,155.289,224.582,155.289z"/>
<path fill="#939598" d="M314.934,166.219L314.934,166.219c-3.484,0-6.319-2.728-6.319-6.081c0-3.354,2.834-6.083,6.317-6.083
	c3.484,0,6.319,2.728,6.319,6.08C321.251,163.488,318.417,166.218,314.934,166.219z M314.932,155.289
	c-2.803,0-5.083,2.175-5.083,4.848s2.281,4.848,5.085,4.848c2.803-0.001,5.083-2.176,5.083-4.848
	C320.017,157.464,317.735,155.289,314.932,155.289z"/>
<path fill="#939598" d="M51.488,275.133h-0.002c-3.483,0-6.317-2.728-6.317-6.08c0-3.354,2.834-6.082,6.317-6.083
	c3.484,0,6.319,2.728,6.319,6.08c0,1.63-0.66,3.161-1.859,4.311C54.754,274.504,53.171,275.133,51.488,275.133z M51.488,264.204
	c-2.804,0.001-5.085,2.176-5.085,4.848c0,2.673,2.281,4.847,5.083,4.847c1.364,0,2.644-0.508,3.605-1.429
	c0.954-0.914,1.479-2.128,1.479-3.418C56.571,266.379,54.291,264.204,51.488,264.204z"/>
<path fill="#939598" d="M269.747,275.133h-0.002c-3.482,0-6.316-2.728-6.316-6.08c0-3.354,2.834-6.082,6.317-6.083
	c3.483,0,6.318,2.728,6.319,6.08C276.065,272.404,273.231,275.133,269.747,275.133z M269.748,264.204
	c-2.804,0.001-5.085,2.176-5.085,4.848c0,2.673,2.28,4.847,5.082,4.847c2.805,0,5.086-2.174,5.086-4.847
	C274.83,266.379,272.55,264.204,269.748,264.204z"/>
<path fill="#939598" d="M269.8,57.3L269.8,57.3c-3.484,0-6.318-2.728-6.318-6.08c0-3.354,2.834-6.083,6.317-6.083
	c3.483,0,6.318,2.728,6.319,6.08C276.118,54.571,273.284,57.3,269.8,57.3z M269.8,46.371c-2.804,0-5.084,2.175-5.084,4.848
	c0,2.673,2.28,4.847,5.083,4.847c2.804,0,5.085-2.175,5.085-4.847C274.883,48.546,272.603,46.371,269.8,46.371z"/>
<path fill="#939598" d="M51.488,57.3L51.488,57.3c-3.484,0-6.319-2.728-6.319-6.08c0-3.354,2.834-6.083,6.317-6.083
	c3.484,0,6.319,2.728,6.319,6.08c0,1.63-0.66,3.161-1.859,4.311C54.754,56.67,53.171,57.3,51.488,57.3z M51.487,46.371
	c-2.803,0-5.084,2.175-5.084,4.848c0,2.673,2.281,4.847,5.084,4.847c1.363,0,2.644-0.508,3.604-1.429
	c0.954-0.915,1.479-2.128,1.479-3.418C56.571,48.546,54.29,46.371,51.487,46.371z"/>
<path fill="#939598" d="M115.438,121.09L115.438,121.09c-3.484,0-6.318-2.728-6.319-6.081c0-1.63,0.66-3.161,1.859-4.311
	c1.192-1.143,2.775-1.772,4.458-1.772c3.484,0,6.318,2.728,6.319,6.08c0,1.63-0.66,3.161-1.859,4.311
	C118.704,120.46,117.121,121.09,115.438,121.09z M115.437,110.161c-1.363,0-2.644,0.507-3.605,1.429
	c-0.954,0.914-1.479,2.128-1.479,3.418c0,2.673,2.281,4.848,5.083,4.848c1.363,0,2.644-0.508,3.604-1.429
	c0.954-0.915,1.479-2.129,1.479-3.418C120.52,112.335,118.24,110.161,115.437,110.161z"/>
<path fill="#939598" d="M115.438,211.344c-3.484,0-6.318-2.728-6.319-6.08c0-3.354,2.833-6.083,6.317-6.084
	c3.484,0,6.318,2.728,6.319,6.08c0,1.63-0.66,3.161-1.859,4.312C118.704,210.714,117.12,211.344,115.438,211.344z M115.436,200.414
	c-2.803,0.001-5.083,2.176-5.083,4.848c0,2.673,2.281,4.848,5.084,4.848c1.363,0,2.643-0.508,3.604-1.429
	c0.954-0.915,1.479-2.129,1.479-3.419C120.52,202.589,118.239,200.414,115.436,200.414z"/>
<path fill="#939598" d="M205.851,211.344c-3.483,0-6.318-2.728-6.319-6.08c0-3.354,2.834-6.083,6.317-6.084
	c3.483,0,6.318,2.728,6.319,6.08c0.001,1.63-0.66,3.161-1.859,4.312C209.117,210.714,207.533,211.344,205.851,211.344z
	 M205.849,200.414c-2.803,0.001-5.083,2.176-5.083,4.848c0.001,2.673,2.282,4.848,5.085,4.848c1.362,0,2.643-0.508,3.604-1.429
	c0.955-0.915,1.479-2.129,1.479-3.419C210.933,202.589,208.651,200.414,205.849,200.414z"/>
<path fill="#939598" d="M205.851,121.09L205.851,121.09c-3.483,0-6.318-2.728-6.319-6.081c0-3.354,2.834-6.083,6.317-6.083
	s6.318,2.728,6.319,6.08c0.001,1.63-0.66,3.161-1.859,4.311C209.117,120.46,207.533,121.09,205.851,121.09z M205.85,110.161
	c-2.804,0-5.084,2.174-5.084,4.847c0.001,2.673,2.281,4.848,5.084,4.848c1.363,0,2.644-0.508,3.604-1.429
	c0.955-0.915,1.479-2.129,1.479-3.418C210.933,112.335,208.652,110.161,205.85,110.161z"/>
</svg>
