<?xml version="1.0" encoding="utf-8"?>
<!-- Generator: Adobe Illustrator 15.0.0, SVG Export Plug-In  -->
<!DOCTYPE svg PUBLIC "-//W3C//DTD SVG 1.1//EN" "http://www.w3.org/Graphics/SVG/1.1/DTD/svg11.dtd" [
	<!ENTITY ns_flows "http://ns.adobe.com/Flows/1.0/">
]>
<svg version="1.1"
	 xmlns="http://www.w3.org/2000/svg" xmlns:xlink="http://www.w3.org/1999/xlink" xmlns:a="http://ns.adobe.com/AdobeSVGViewerExtensions/3.0/"
	 x="0px" y="0px" width="100px" height="30px" viewBox="-25.496 -0.094 100 30"
	 overflow="visible" enable-background="new -25.496 -0.094 100 30" xml:space="preserve">
<defs>
</defs>
<polygon fill="#FFFFFF" points="7.595,3.798 4.061,0 0.528,3.798 1.161,4.39 3.449,1.928 3.449,9.088 4.676,9.088 4.676,1.928 
	6.961,4.39 "/>
<polygon fill="#FFFFFF" points="4.676,24.649 4.676,23.81 8.124,25.799 8.124,24.817 4.676,22.828 4.676,20.477 3.448,20.477 
	3.448,22.828 0,24.817 0,25.799 3.448,23.81 3.448,24.649 3.633,24.649 3.633,24.685 0,26.782 0,27.767 3.633,25.67 3.633,26.65 
	0,28.749 0,29.735 3.633,27.636 4.488,27.636 8.124,29.735 8.124,28.749 4.488,26.65 4.488,25.67 8.124,27.767 8.124,26.782 
	4.488,24.685 4.488,24.649 "/>
<polygon fill="#FFFFFF" points="48.705,3.798 45.17,0 41.637,3.798 42.27,4.39 44.558,1.928 44.558,9.088 45.786,9.088 
	45.786,1.928 48.071,4.39 "/>
<polygon fill="#FFFFFF" points="45.786,24.649 45.786,23.81 49.233,25.799 49.233,24.817 45.786,22.828 45.786,20.477 
	44.557,20.477 44.557,22.828 41.11,24.817 41.11,25.799 44.557,23.81 44.557,24.649 44.743,24.649 44.743,24.685 41.11,26.782 
	41.11,27.767 44.743,25.67 44.743,26.65 41.11,28.749 41.11,29.735 44.743,27.636 45.598,27.636 49.233,29.735 49.233,28.749 
	45.598,26.65 45.598,25.67 49.233,27.767 49.233,26.782 45.598,24.685 45.598,24.649 "/>
</svg>
