<?xml version="1.0" encoding="utf-8"?>
<!-- Generator: Adobe Illustrator 15.0.0, SVG Export Plug-In  -->
<!DOCTYPE svg PUBLIC "-//W3C//DTD SVG 1.1//EN" "http://www.w3.org/Graphics/SVG/1.1/DTD/svg11.dtd" [
	<!ENTITY ns_flows "http://ns.adobe.com/Flows/1.0/">
]>
<svg version="1.1"
	 xmlns="http://www.w3.org/2000/svg" xmlns:xlink="http://www.w3.org/1999/xlink" xmlns:a="http://ns.adobe.com/AdobeSVGViewerExtensions/3.0/"
	 x="0px" y="0px" width="100px" height="30px" viewBox="0 -0.038 100 30"
	 overflow="visible" enable-background="new 0 -0.038 100 30" xml:space="preserve">
<defs>
</defs>
<circle fill="#FFFFFF" cx="29.558" cy="14.961" r="1.987"/>
<circle fill="#FFFFFF" cx="70.667" cy="14.961" r="1.987"/>
<path fill="#FFFFFF" d="M98.336,0.094h-2.613H91.45l0.475,0.949h3.8v24.511H85.056c-0.196-0.006-0.789-0.08-1.278-0.35
	c-0.434-0.238-0.876-0.639-0.876-1.787v-6.094l8.073-3.229v2.425l-0.821-0.821l-0.939,0.405l2.71,2.711V12.69l-11.262,4.506h-0.017
	l-2.021,0.809v5.412c0,4.703,3.837,6.412,6.414,6.412H100V0.094H98.336z"/>
<path fill="#FFFFFF" d="M6.161,18.579l4.75-1.295l8.451-2.305l0.293-0.087h0.013l1.708-0.466V6.559c0-4.704-3.835-6.412-6.413-6.412
	H0v29.629h0.23l1.929-0.527l0.454-0.121l1.662-0.453V4.421h10.668c0.198,0.007,0.789,0.081,1.281,0.351
	C16.657,5.009,17.1,5.409,17.1,6.558v8.053l-9.989,2.726v-2.495l0.964,0.965l1.035-0.31l-2.948-2.949"/>
<path fill="#FFFFFF" d="M59.471,10.972v-0.03l1.662-0.832V6.412C61.132,1.708,57.297,0,54.719,0H39.76v29.923h14.959
	c4.706,0,6.412-3.834,6.412-6.412v-3.697l-1.661-0.832v-0.039l-6.866-3.433l-1.061,0.53l5.439,2.721h-0.126v4.73
	c-0.008,0.197-0.081,0.789-0.35,1.279c-0.239,0.436-0.639,0.875-1.789,0.875H44.035V4.274h10.668c0.197,0.006,0.789,0.08,1.278,0.35
	c0.434,0.239,0.876,0.638,0.876,1.787v4.749h0.13l-4.309,2.155l0,0l-0.027,0.013l-2.204,1.103l-0.001-0.001l-1.061,0.531l0,0
	l-2.738,1.37v-2.739l1.645,0.823l1.062-0.531l-3.658-1.828v5.812l4.752-2.375l0.005,0.001l1.061-0.529l-0.003-0.003l7.699-3.847
	L59.471,10.972z"/>
</svg>
