<?xml version="1.0" encoding="utf-8"?>
<!-- Generator: Adobe Illustrator 15.0.0, SVG Export Plug-In  -->
<!DOCTYPE svg PUBLIC "-//W3C//DTD SVG 1.1//EN" "http://www.w3.org/Graphics/SVG/1.1/DTD/svg11.dtd" [
	<!ENTITY ns_flows "http://ns.adobe.com/Flows/1.0/">
]>
<svg version="1.1"
	 xmlns="http://www.w3.org/2000/svg" xmlns:xlink="http://www.w3.org/1999/xlink" xmlns:a="http://ns.adobe.com/AdobeSVGViewerExtensions/3.0/"
	 x="0px" y="0px" width="127px" height="38px" viewBox="-0.19 -0.063 127 38"
	 overflow="visible" enable-background="new -0.19 -0.063 127 38" xml:space="preserve">
<defs>
</defs>
<circle fill="#FFFFFF" cx="37.389" cy="18.925" r="2.514"/>
<circle fill="#FFFFFF" cx="89.39" cy="18.925" r="2.514"/>
<path fill="#FFFFFF" d="M124.39,0.119h-3.305h-5.406l0.6,1.201h4.807v31.005h-13.494c-0.248-0.008-0.998-0.102-1.617-0.443
	c-0.549-0.302-1.109-0.807-1.109-2.26v-7.708l10.213-4.086v3.069l-1.039-1.039l-1.188,0.511l3.428,3.43v-7.746l-14.246,5.701h-0.021
	l-2.555,1.021v6.847c0,5.949,4.852,8.11,8.113,8.11h18.924V0.119H124.39z"/>
<path fill="#FFFFFF" d="M7.793,23.502l6.008-1.638l10.689-2.916l0.371-0.11h0.016l2.16-0.589V8.297c0-5.951-4.851-8.111-8.111-8.111
	H0v37.479h0.291L2.731,37l0.574-0.155l2.102-0.574V5.593h13.495c0.25,0.008,0.998,0.102,1.62,0.443
	c0.548,0.301,1.108,0.806,1.108,2.26v10.187L8.995,21.929v-3.154l1.219,1.22l1.309-0.392l-3.729-3.73"/>
<path fill="#FFFFFF" d="M75.228,13.879v-0.038l2.102-1.052V8.111C77.329,2.16,72.479,0,69.218,0H50.294v37.851h18.923
	c5.953,0,8.111-4.85,8.111-8.11v-4.678l-2.102-1.052v-0.05l-8.684-4.342l-1.342,0.672l6.881,3.441h-0.16v5.984
	c-0.01,0.248-0.102,0.997-0.443,1.618c-0.301,0.55-0.807,1.108-2.262,1.108H55.702V5.407h13.495c0.25,0.008,0.998,0.102,1.617,0.443
	c0.549,0.302,1.109,0.807,1.109,2.261v6.006h0.164l-5.451,2.726l0,0l-0.035,0.017l-2.787,1.395l-0.002-0.001l-1.342,0.672l0,0
	l-3.464,1.732v-3.464l2.081,1.041l1.343-0.672l-4.627-2.312v7.352l6.011-3.005l0.006,0.002l1.342-0.67l-0.004-0.004l9.738-4.867
	L75.228,13.879z"/>
</svg>
