<?xml version="1.0" encoding="utf-8"?>
<!-- Generator: Adobe Illustrator 15.0.0, SVG Export Plug-In  -->
<!DOCTYPE svg PUBLIC "-//W3C//DTD SVG 1.1//EN" "http://www.w3.org/Graphics/SVG/1.1/DTD/svg11.dtd" [
	<!ENTITY ns_flows "http://ns.adobe.com/Flows/1.0/">
]>
<svg version="1.1"
	 xmlns="http://www.w3.org/2000/svg" xmlns:xlink="http://www.w3.org/1999/xlink" xmlns:a="http://ns.adobe.com/AdobeSVGViewerExtensions/3.0/"
	 x="0px" y="0px" width="845px" height="300px" viewBox="0.683 0.905 845 300"
	 overflow="visible" enable-background="new 0.683 0.905 845 300" xml:space="preserve">
<defs>
</defs>
<linearGradient id="SVGID_1_" gradientUnits="userSpaceOnUse" x1="0.3755" y1="0.5" x2="845.1064" y2="0.5">
	<stop  offset="0" style="stop-color:#000000"/>
	<stop  offset="0.4969" style="stop-color:#808285"/>
	<stop  offset="1" style="stop-color:#000000"/>
</linearGradient>
<rect x="0.375" fill="url(#SVGID_1_)" width="844.731" height="1"/>
<linearGradient id="SVGID_2_" gradientUnits="userSpaceOnUse" x1="0.3618" y1="5.4902" x2="845.1133" y2="5.4902">
	<stop  offset="0" style="stop-color:#000000"/>
	<stop  offset="0.4969" style="stop-color:#808285"/>
	<stop  offset="1" style="stop-color:#000000"/>
</linearGradient>
<polygon fill="url(#SVGID_2_)" points="699.226,8.493 519.721,4.273 373.915,6.779 322.521,6.646 260.845,7.586 147.998,3.486 
	57.056,6.074 0.362,5.57 0.371,4.57 57.046,5.074 148.001,2.487 260.855,6.586 322.515,5.646 373.908,5.779 519.724,3.273 
	699.22,7.494 818.694,3.193 845.113,3.545 845.1,4.545 818.705,4.192 "/>
<linearGradient id="SVGID_3_" gradientUnits="userSpaceOnUse" x1="0.3491" y1="10.4795" x2="845.1201" y2="10.4795">
	<stop  offset="0" style="stop-color:#000000"/>
	<stop  offset="0.4969" style="stop-color:#808285"/>
	<stop  offset="1" style="stop-color:#000000"/>
</linearGradient>
<polygon fill="url(#SVGID_3_)" points="700.377,15.985 520.449,7.546 373.821,12.559 321.931,12.29 259.854,14.171 148.294,5.972 
	57.548,11.147 0.349,10.14 0.367,9.14 57.529,10.148 148.303,4.974 259.876,13.173 321.918,11.291 373.806,11.559 520.455,6.547 
	700.364,14.987 818.482,6.386 845.12,7.09 845.093,8.09 818.505,7.384 "/>
<linearGradient id="SVGID_4_" gradientUnits="userSpaceOnUse" x1="0.3359" y1="15.4692" x2="845.126" y2="15.4692">
	<stop  offset="0" style="stop-color:#000000"/>
	<stop  offset="0.4969" style="stop-color:#808285"/>
	<stop  offset="1" style="stop-color:#000000"/>
</linearGradient>
<polygon fill="url(#SVGID_4_)" points="701.527,23.477 521.179,10.82 373.728,18.338 321.339,17.936 258.863,20.757 148.591,8.457 
	58.041,16.22 0.336,14.709 0.362,13.709 58.011,15.222 148.604,7.462 258.896,19.761 321.321,16.936 373.706,17.339 521.188,9.821 
	701.508,22.481 818.271,9.58 845.126,10.635 845.087,11.634 818.306,10.576 "/>
<linearGradient id="SVGID_5_" gradientUnits="userSpaceOnUse" x1="0.3228" y1="20.459" x2="845.1328" y2="20.459">
	<stop  offset="0" style="stop-color:#000000"/>
	<stop  offset="0.4969" style="stop-color:#808285"/>
	<stop  offset="1" style="stop-color:#000000"/>
</linearGradient>
<polygon fill="url(#SVGID_5_)" points="702.619,30.976 702.559,30.971 521.908,14.092 373.634,24.117 320.749,23.581 
	257.821,27.347 148.954,10.951 58.534,21.292 0.323,19.279 0.357,18.28 58.495,20.296 148.971,9.942 149.037,9.952 257.866,26.342 
	320.724,22.582 373.605,23.118 521.922,13.095 702.592,29.969 818.057,12.774 845.133,14.181 845.08,15.18 818.104,13.768 "/>
<linearGradient id="SVGID_6_" gradientUnits="userSpaceOnUse" x1="0.3105" y1="25.4492" x2="845.1387" y2="25.4492">
	<stop  offset="0" style="stop-color:#000000"/>
	<stop  offset="0.4969" style="stop-color:#808285"/>
	<stop  offset="1" style="stop-color:#000000"/>
</linearGradient>
<polygon fill="url(#SVGID_6_)" points="703.756,38.472 703.681,38.463 522.639,17.364 373.541,29.896 320.159,29.226 
	256.816,33.934 256.751,33.921 149.267,13.44 59.027,26.365 0.311,23.849 0.354,22.85 58.978,25.37 149.291,12.426 256.874,32.927 
	320.128,28.227 373.505,28.897 522.654,16.369 703.721,37.461 817.905,15.958 817.968,15.962 845.139,17.726 845.074,18.724 
	817.966,16.964 "/>
<linearGradient id="SVGID_7_" gradientUnits="userSpaceOnUse" x1="0.2979" y1="30.4385" x2="845.1455" y2="30.4385">
	<stop  offset="0" style="stop-color:#000000"/>
	<stop  offset="0.4969" style="stop-color:#808285"/>
	<stop  offset="1" style="stop-color:#000000"/>
</linearGradient>
<polygon fill="url(#SVGID_7_)" points="704.893,45.968 523.428,20.644 373.446,35.675 319.567,34.871 255.812,40.521 
	255.735,40.504 149.58,15.929 59.465,31.446 59.41,31.443 0.298,28.418 0.349,27.419 59.405,30.441 149.609,14.91 149.707,14.932 
	255.883,39.512 319.531,33.873 373.404,34.677 523.447,19.637 704.85,44.952 817.705,19.149 845.146,21.272 845.067,22.269 
	817.779,20.158 "/>
<linearGradient id="SVGID_8_" gradientUnits="userSpaceOnUse" x1="0.2847" y1="35.4277" x2="845.1514" y2="35.4277">
	<stop  offset="0" style="stop-color:#000000"/>
	<stop  offset="0.4969" style="stop-color:#808285"/>
	<stop  offset="1" style="stop-color:#000000"/>
</linearGradient>
<polygon fill="url(#SVGID_8_)" points="706.03,53.463 705.924,53.446 524.166,23.919 373.353,41.453 318.977,40.516 254.807,47.108 
	254.717,47.084 149.893,18.419 59.948,36.521 59.884,36.517 0.285,32.988 0.344,31.99 59.878,35.515 149.928,17.392 254.891,46.095 
	318.934,39.519 373.304,40.457 524.189,22.909 524.258,22.92 705.978,52.442 817.504,22.339 845.151,24.817 845.062,25.813 
	817.592,23.351 "/>
<linearGradient id="SVGID_9_" gradientUnits="userSpaceOnUse" x1="0.2729" y1="40.417" x2="845.1572" y2="40.417">
	<stop  offset="0" style="stop-color:#000000"/>
	<stop  offset="0.4969" style="stop-color:#808285"/>
	<stop  offset="1" style="stop-color:#000000"/>
</linearGradient>
<polygon fill="url(#SVGID_9_)" points="707.168,60.96 707.046,60.938 524.906,27.193 373.259,47.232 318.386,46.161 253.803,53.697 
	253.701,53.665 150.205,20.91 60.433,41.595 60.359,41.59 0.273,37.558 0.34,36.56 60.353,40.587 150.246,19.874 150.376,19.916 
	253.9,52.679 318.337,45.165 373.203,46.237 524.933,26.181 525.011,26.196 707.106,59.932 817.304,25.53 845.157,28.363 
	845.056,29.358 817.406,26.546 "/>
<linearGradient id="SVGID_10_" gradientUnits="userSpaceOnUse" x1="0.2603" y1="45.4067" x2="845.1631" y2="45.4067">
	<stop  offset="0" style="stop-color:#000000"/>
	<stop  offset="0.4969" style="stop-color:#808285"/>
	<stop  offset="1" style="stop-color:#000000"/>
</linearGradient>
<polygon fill="url(#SVGID_10_)" points="708.304,68.458 708.167,68.429 525.646,30.469 373.165,53.011 317.796,51.807 
	252.798,60.286 252.684,60.244 150.518,23.402 60.917,46.67 60.834,46.664 0.26,42.127 0.334,41.13 60.826,45.661 150.566,22.356 
	150.711,22.409 252.909,59.262 317.742,50.811 373.103,52.016 525.675,29.453 708.233,67.421 817.101,28.721 817.216,28.733 
	845.163,31.909 845.05,32.902 817.218,29.74 "/>
<linearGradient id="SVGID_11_" gradientUnits="userSpaceOnUse" x1="0.2476" y1="50.3965" x2="845.1689" y2="50.3965">
	<stop  offset="0" style="stop-color:#000000"/>
	<stop  offset="0.4969" style="stop-color:#808285"/>
	<stop  offset="1" style="stop-color:#000000"/>
</linearGradient>
<polygon fill="url(#SVGID_11_)" points="709.441,75.955 526.385,33.744 373.07,58.789 317.204,57.452 251.793,66.874 
	251.667,66.823 150.83,25.894 61.4,51.745 61.309,51.737 0.248,46.697 0.33,45.7 61.3,50.733 150.885,24.837 151.045,24.902 
	251.918,65.846 317.145,56.457 373.001,57.796 526.418,32.725 526.514,32.747 709.361,74.91 816.9,31.91 845.169,35.455 
	845.044,36.447 817.031,32.934 "/>
<linearGradient id="SVGID_12_" gradientUnits="userSpaceOnUse" x1="0.2349" y1="55.3853" x2="845.1738" y2="55.3853">
	<stop  offset="0" style="stop-color:#000000"/>
	<stop  offset="0.4969" style="stop-color:#808285"/>
	<stop  offset="1" style="stop-color:#000000"/>
</linearGradient>
<polygon fill="url(#SVGID_12_)" points="710.578,83.453 527.124,37.019 372.925,64.576 372.875,64.575 316.613,63.097 
	250.788,73.463 250.651,73.402 151.142,28.387 61.884,56.82 61.783,56.811 0.235,51.267 0.325,50.271 61.772,55.806 151.205,27.317 
	250.927,72.429 316.549,62.103 372.85,63.574 527.161,35.997 527.266,36.023 710.488,82.398 816.698,35.1 816.84,35.119 845.174,39 
	845.039,39.991 816.845,36.129 "/>
<linearGradient id="SVGID_13_" gradientUnits="userSpaceOnUse" x1="0.2227" y1="60.375" x2="845.1797" y2="60.375">
	<stop  offset="0" style="stop-color:#000000"/>
	<stop  offset="0.4969" style="stop-color:#808285"/>
	<stop  offset="1" style="stop-color:#000000"/>
</linearGradient>
<polygon fill="url(#SVGID_13_)" points="711.717,90.952 711.534,90.901 527.863,40.295 372.827,70.356 372.771,70.354 
	316.023,68.742 249.782,80.053 151.454,30.88 62.368,61.896 62.259,61.885 0.223,55.836 0.319,54.841 62.247,60.879 151.523,29.797 
	151.712,29.892 249.937,79.012 315.953,67.75 372.745,69.353 527.902,39.269 528.016,39.3 711.617,89.887 816.497,38.289 
	845.18,42.546 845.033,43.535 816.659,39.324 "/>
<linearGradient id="SVGID_14_" gradientUnits="userSpaceOnUse" x1="0.2104" y1="65.3633" x2="845.1855" y2="65.3633">
	<stop  offset="0" style="stop-color:#000000"/>
	<stop  offset="0.4969" style="stop-color:#808285"/>
	<stop  offset="1" style="stop-color:#000000"/>
</linearGradient>
<polygon fill="url(#SVGID_14_)" points="712.855,98.451 528.604,43.57 372.728,76.135 372.669,76.134 315.486,74.389 
	248.777,86.642 248.621,86.557 151.766,33.375 62.853,66.971 62.734,66.958 0.21,60.405 0.315,59.411 62.721,65.951 151.843,32.276 
	152.045,32.387 248.946,85.594 315.41,73.386 315.463,73.388 372.64,75.132 528.646,42.54 528.768,42.576 712.744,97.375 
	816.296,41.479 845.186,46.092 845.027,47.079 816.473,42.52 "/>
<linearGradient id="SVGID_15_" gradientUnits="userSpaceOnUse" x1="0.1987" y1="70.3525" x2="845.1904" y2="70.3525">
	<stop  offset="0" style="stop-color:#000000"/>
	<stop  offset="0.4969" style="stop-color:#808285"/>
	<stop  offset="1" style="stop-color:#000000"/>
</linearGradient>
<polygon fill="url(#SVGID_15_)" points="713.992,105.951 713.779,105.882 529.341,46.846 372.629,81.916 372.566,81.914 
	314.898,80.034 247.771,93.232 247.606,93.133 152.078,35.869 63.336,72.046 0.199,64.975 0.31,63.981 63.194,71.023 
	152.163,34.755 152.377,34.883 247.956,92.176 314.817,79.031 314.874,79.033 372.535,80.912 529.388,45.811 529.517,45.852 
	713.871,104.862 816.093,44.667 816.272,44.699 845.19,49.638 845.022,50.624 816.284,45.715 "/>
<linearGradient id="SVGID_16_" gradientUnits="userSpaceOnUse" x1="0.1865" y1="75.3408" x2="845.1963" y2="75.3408">
	<stop  offset="0" style="stop-color:#000000"/>
	<stop  offset="0.4969" style="stop-color:#808285"/>
	<stop  offset="1" style="stop-color:#000000"/>
</linearGradient>
<polygon fill="url(#SVGID_16_)" points="715.132,113.45 714.903,113.372 530.082,50.122 372.531,87.695 372.463,87.693 
	314.311,85.679 246.766,99.822 152.389,38.364 63.819,77.122 0.187,69.545 0.305,68.552 63.667,76.096 152.483,37.231 
	152.709,37.379 246.965,98.758 314.225,84.675 314.285,84.677 372.43,86.691 530.131,49.082 530.269,49.128 714.999,112.347 
	815.892,47.855 816.085,47.891 845.196,53.184 845.017,54.167 816.099,48.91 "/>
<linearGradient id="SVGID_17_" gradientUnits="userSpaceOnUse" x1="0.1743" y1="80.3301" x2="845.2012" y2="80.3301">
	<stop  offset="0" style="stop-color:#000000"/>
	<stop  offset="0.4969" style="stop-color:#808285"/>
	<stop  offset="1" style="stop-color:#000000"/>
</linearGradient>
<polygon fill="url(#SVGID_17_)" points="716.27,120.95 716.027,120.862 530.821,53.398 372.431,93.475 372.36,93.472 
	313.725,91.325 245.76,106.412 245.579,106.285 152.701,40.861 64.303,82.197 0.174,74.114 0.299,73.122 64.141,81.168 
	152.803,39.709 153.04,39.876 245.975,105.34 313.633,90.321 313.697,90.323 372.325,92.47 530.874,52.353 531.019,52.406 
	716.127,119.834 815.69,51.044 845.201,56.729 845.012,57.711 815.913,52.106 "/>
<linearGradient id="SVGID_18_" gradientUnits="userSpaceOnUse" x1="0.1621" y1="85.3184" x2="845.2061" y2="85.3184">
	<stop  offset="0" style="stop-color:#000000"/>
	<stop  offset="0.4969" style="stop-color:#808285"/>
	<stop  offset="1" style="stop-color:#000000"/>
</linearGradient>
<polygon fill="url(#SVGID_18_)" points="717.408,128.452 717.151,128.352 531.561,56.674 372.333,99.255 313.138,96.97 
	244.755,113.003 244.567,112.861 153.013,43.357 64.788,87.272 64.636,87.252 0.162,78.684 0.294,77.692 64.616,86.241 
	153.123,42.186 244.984,111.922 313.041,95.965 313.109,95.968 372.22,98.25 531.617,55.624 531.769,55.683 717.254,127.32 
	815.489,54.232 815.708,54.277 845.206,60.275 845.007,61.255 815.728,55.302 "/>
<linearGradient id="SVGID_19_" gradientUnits="userSpaceOnUse" x1="0.1504" y1="90.3076" x2="845.2109" y2="90.3076">
	<stop  offset="0" style="stop-color:#000000"/>
	<stop  offset="0.4969" style="stop-color:#808285"/>
	<stop  offset="1" style="stop-color:#000000"/>
</linearGradient>
<polygon fill="url(#SVGID_19_)" points="718.547,135.953 532.3,59.95 372.233,105.035 372.154,105.032 312.55,102.616 
	243.75,119.594 153.324,45.855 65.271,92.348 0.15,83.253 0.289,82.263 65.089,91.312 153.443,44.662 243.995,118.503 
	312.449,101.611 312.52,101.614 372.115,104.029 532.36,58.895 532.519,58.959 718.381,134.806 815.287,57.421 845.211,63.822 
	845.002,64.799 815.541,58.498 "/>
<linearGradient id="SVGID_20_" gradientUnits="userSpaceOnUse" x1="0.1387" y1="95.2959" x2="845.2158" y2="95.2959">
	<stop  offset="0" style="stop-color:#000000"/>
	<stop  offset="0.4969" style="stop-color:#808285"/>
	<stop  offset="1" style="stop-color:#000000"/>
</linearGradient>
<polygon fill="url(#SVGID_20_)" points="719.684,143.455 533.039,63.226 372.135,110.814 372.052,110.811 311.963,108.261 
	242.743,126.185 242.544,126.011 153.636,48.354 65.754,97.424 65.586,97.399 0.139,87.823 0.283,86.833 65.563,96.385 
	153.763,47.137 243.004,125.084 311.857,107.255 311.931,107.258 372.011,109.809 533.102,62.165 533.268,62.236 719.508,142.291 
	815.084,60.609 845.216,67.367 844.997,68.343 815.354,61.694 "/>
<linearGradient id="SVGID_21_" gradientUnits="userSpaceOnUse" x1="0.127" y1="100.2832" x2="845.2207" y2="100.2832">
	<stop  offset="0" style="stop-color:#000000"/>
	<stop  offset="0.4969" style="stop-color:#808285"/>
	<stop  offset="1" style="stop-color:#000000"/>
</linearGradient>
<polygon fill="url(#SVGID_21_)" points="720.822,150.956 720.522,150.82 533.779,66.502 372.036,116.595 311.376,113.906 
	241.738,132.775 241.535,132.586 153.947,50.852 66.237,102.5 0.127,92.392 0.278,91.404 66.037,101.458 154.083,49.611 
	154.356,49.865 242.014,131.665 311.265,112.9 371.906,115.588 533.846,65.435 534.019,65.513 720.635,149.774 814.882,63.797 
	845.221,70.914 844.992,71.887 815.167,64.891 "/>
<linearGradient id="SVGID_22_" gradientUnits="userSpaceOnUse" x1="0.1152" y1="105.2715" x2="845.2256" y2="105.2715">
	<stop  offset="0" style="stop-color:#000000"/>
	<stop  offset="0.4969" style="stop-color:#808285"/>
	<stop  offset="1" style="stop-color:#000000"/>
</linearGradient>
<polygon fill="url(#SVGID_22_)" points="721.961,158.459 721.647,158.311 534.518,69.778 371.937,122.375 371.846,122.37 
	310.79,119.552 240.732,139.368 154.258,53.351 66.722,107.576 0.115,96.961 0.272,95.974 66.512,106.53 154.403,52.084 
	241.023,138.247 310.673,118.545 310.754,118.549 371.802,121.367 534.586,68.705 534.766,68.79 721.762,157.258 814.682,66.985 
	845.226,74.459 844.987,75.431 814.981,68.087 "/>
<linearGradient id="SVGID_23_" gradientUnits="userSpaceOnUse" x1="0.1035" y1="110.2603" x2="845.2295" y2="110.2603">
	<stop  offset="0" style="stop-color:#000000"/>
	<stop  offset="0.4969" style="stop-color:#808285"/>
	<stop  offset="1" style="stop-color:#000000"/>
</linearGradient>
<polygon fill="url(#SVGID_23_)" points="723.099,165.963 722.771,165.801 535.258,73.056 371.838,128.154 371.744,128.15 
	310.202,125.196 239.727,145.959 239.517,145.736 154.569,55.851 67.205,112.651 0.104,101.531 0.267,100.544 66.985,111.602 
	154.724,54.558 155.01,54.861 240.033,144.826 310.081,124.189 310.166,124.193 371.697,127.146 535.33,71.976 722.888,164.742 
	814.48,70.172 845.229,78.006 844.983,78.975 814.795,71.285 "/>
<linearGradient id="SVGID_24_" gradientUnits="userSpaceOnUse" x1="0.0913" y1="115.2476" x2="845.2344" y2="115.2476">
	<stop  offset="0" style="stop-color:#000000"/>
	<stop  offset="0.4969" style="stop-color:#808285"/>
	<stop  offset="1" style="stop-color:#000000"/>
</linearGradient>
<polygon fill="url(#SVGID_24_)" points="724.237,173.465 535.997,76.333 371.738,133.934 309.614,130.842 238.721,152.551 
	238.508,152.311 154.88,58.352 67.688,117.727 0.091,106.1 0.261,105.114 67.459,116.673 155.043,57.03 239.042,151.407 
	309.489,129.834 371.592,132.925 536.073,75.247 536.265,75.345 724.015,172.225 814.279,73.359 845.234,81.552 844.979,82.519 
	814.609,74.481 "/>
<linearGradient id="SVGID_25_" gradientUnits="userSpaceOnUse" x1="0.0801" y1="120.2358" x2="845.2383" y2="120.2358">
	<stop  offset="0" style="stop-color:#000000"/>
	<stop  offset="0.4969" style="stop-color:#808285"/>
	<stop  offset="1" style="stop-color:#000000"/>
</linearGradient>
<polygon fill="url(#SVGID_25_)" points="725.377,180.97 725.023,180.779 536.736,79.609 371.64,139.714 371.538,139.709 
	309.026,136.488 237.716,159.143 237.5,158.886 155.192,60.852 68.171,122.803 67.964,122.766 0.08,110.67 0.256,109.686 
	67.933,121.745 155.364,59.502 238.051,157.986 308.897,135.48 308.988,135.484 371.488,138.705 536.814,78.517 725.143,179.708 
	814.075,76.547 845.238,85.098 844.974,86.062 814.421,77.679 "/>
<linearGradient id="SVGID_26_" gradientUnits="userSpaceOnUse" x1="0.0679" y1="125.2236" x2="845.2432" y2="125.2236">
	<stop  offset="0" style="stop-color:#000000"/>
	<stop  offset="0.4969" style="stop-color:#808285"/>
	<stop  offset="1" style="stop-color:#000000"/>
</linearGradient>
<polygon fill="url(#SVGID_26_)" points="726.514,188.474 726.147,188.269 537.476,82.886 371.54,145.494 371.435,145.489 
	308.439,142.134 236.71,165.734 155.503,63.354 68.655,127.879 0.068,115.24 0.249,114.256 68.408,126.817 155.685,61.974 
	155.985,62.354 237.06,164.566 308.306,141.125 308.399,141.13 371.383,144.484 537.558,81.787 537.761,81.9 726.27,187.19 
	813.875,79.734 845.243,88.645 844.97,89.606 814.234,80.876 "/>
<linearGradient id="SVGID_27_" gradientUnits="userSpaceOnUse" x1="0.0566" y1="130.2109" x2="845.2471" y2="130.2109">
	<stop  offset="0" style="stop-color:#000000"/>
	<stop  offset="0.4969" style="stop-color:#808285"/>
	<stop  offset="1" style="stop-color:#000000"/>
</linearGradient>
<polygon fill="url(#SVGID_27_)" points="727.652,195.978 538.216,86.163 371.441,151.274 371.333,151.268 307.852,147.778 
	235.706,172.326 155.814,65.856 69.138,132.955 0.057,119.808 0.244,118.826 68.882,131.889 156.005,64.444 236.07,171.146 
	307.713,146.769 371.279,150.264 538.301,85.056 727.396,194.673 813.674,82.921 845.247,92.191 844.966,93.15 814.048,84.074 "/>
<linearGradient id="SVGID_28_" gradientUnits="userSpaceOnUse" x1="0.0454" y1="135.1982" x2="845.252" y2="135.1982">
	<stop  offset="0" style="stop-color:#000000"/>
	<stop  offset="0.4969" style="stop-color:#808285"/>
	<stop  offset="1" style="stop-color:#000000"/>
</linearGradient>
<polygon fill="url(#SVGID_28_)" points="728.791,203.481 538.955,89.439 371.342,157.054 371.23,157.047 307.265,153.424 
	234.7,178.92 234.482,178.613 156.125,68.36 69.621,138.032 0.045,124.377 0.238,123.396 69.356,136.961 156.325,66.915 
	235.079,177.727 307.122,152.414 307.222,152.42 371.175,156.042 539.043,88.326 539.257,88.454 728.523,202.153 813.473,86.108 
	845.252,95.738 844.962,96.695 813.861,87.271 "/>
<linearGradient id="SVGID_29_" gradientUnits="userSpaceOnUse" x1="0.0337" y1="140.186" x2="845.2559" y2="140.186">
	<stop  offset="0" style="stop-color:#000000"/>
	<stop  offset="0.4969" style="stop-color:#808285"/>
	<stop  offset="1" style="stop-color:#000000"/>
</linearGradient>
<polygon fill="url(#SVGID_29_)" points="729.929,210.987 729.525,210.736 539.694,92.717 371.242,162.834 371.127,162.827 
	306.677,159.069 233.694,185.513 233.477,185.188 156.437,70.863 70.104,143.107 69.868,143.06 0.034,128.947 0.232,127.967 
	69.831,142.032 156.646,69.385 234.088,184.307 306.53,158.06 306.633,158.065 371.07,161.822 539.785,91.596 540.003,91.732 
	729.649,209.636 813.272,89.294 813.623,89.403 845.256,99.283 844.957,100.238 813.675,90.467 "/>
<linearGradient id="SVGID_30_" gradientUnits="userSpaceOnUse" x1="0.0225" y1="145.1729" x2="845.2598" y2="145.1729">
	<stop  offset="0" style="stop-color:#000000"/>
	<stop  offset="0.4969" style="stop-color:#808285"/>
	<stop  offset="1" style="stop-color:#000000"/>
</linearGradient>
<polygon fill="url(#SVGID_30_)" points="731.067,218.493 730.651,218.227 540.435,95.994 371.143,168.613 371.024,168.606 
	306.09,164.716 232.69,192.104 232.472,191.764 156.747,73.368 70.587,148.184 0.022,133.516 0.226,132.537 70.306,147.104 
	156.966,71.853 233.097,190.885 305.938,163.704 306.044,163.711 370.966,167.602 540.528,94.866 540.752,95.01 730.776,217.118 
	813.072,92.481 845.26,102.83 844.953,103.782 813.488,93.666 "/>
<linearGradient id="SVGID_31_" gradientUnits="userSpaceOnUse" x1="0.0112" y1="150.1602" x2="845.2637" y2="150.1602">
	<stop  offset="0" style="stop-color:#000000"/>
	<stop  offset="0.4969" style="stop-color:#808285"/>
	<stop  offset="1" style="stop-color:#000000"/>
</linearGradient>
<polygon fill="url(#SVGID_31_)" points="732.205,225.999 541.175,99.271 371.043,174.395 370.922,174.387 305.502,170.361 
	231.685,198.696 231.468,198.34 157.059,75.873 71.071,153.26 70.821,153.207 0.011,138.085 0.22,137.108 70.781,152.176 
	157.287,74.322 157.6,74.837 232.106,197.464 305.347,169.35 305.455,169.356 370.862,173.381 541.271,98.136 541.499,98.287 
	731.904,224.599 812.87,95.669 845.264,106.376 844.949,107.326 813.3,96.864 "/>
<linearGradient id="SVGID_32_" gradientUnits="userSpaceOnUse" x1="0.3755" y1="300.5" x2="845.1064" y2="300.5">
	<stop  offset="0" style="stop-color:#000000"/>
	<stop  offset="0.4969" style="stop-color:#808285"/>
	<stop  offset="1" style="stop-color:#000000"/>
</linearGradient>
<rect x="0.375" y="300" fill="url(#SVGID_32_)" width="844.731" height="1"/>
<linearGradient id="SVGID_33_" gradientUnits="userSpaceOnUse" x1="0.3618" y1="295.8135" x2="845.1133" y2="295.8135">
	<stop  offset="0" style="stop-color:#000000"/>
	<stop  offset="0.4969" style="stop-color:#808285"/>
	<stop  offset="1" style="stop-color:#000000"/>
</linearGradient>
<polygon fill="url(#SVGID_33_)" points="699.226,298.816 519.721,294.595 373.915,297.103 322.521,296.968 260.845,297.909 
	147.998,293.81 57.056,296.396 0.362,295.893 0.371,294.893 57.046,295.396 148.001,292.81 260.855,296.909 322.515,295.968 
	373.908,296.103 519.724,293.595 699.22,297.816 818.694,293.516 845.113,293.867 845.1,294.867 818.705,294.516 "/>
<linearGradient id="SVGID_34_" gradientUnits="userSpaceOnUse" x1="0.3491" y1="291.125" x2="845.1201" y2="291.125">
	<stop  offset="0" style="stop-color:#000000"/>
	<stop  offset="0.4969" style="stop-color:#808285"/>
	<stop  offset="1" style="stop-color:#000000"/>
</linearGradient>
<polygon fill="url(#SVGID_34_)" points="700.377,296.631 520.449,288.191 373.821,293.204 321.931,292.936 259.854,294.817 
	148.294,286.617 57.548,291.793 0.349,290.786 0.367,289.786 57.529,290.794 148.303,285.619 259.876,293.818 321.918,291.936 
	373.806,292.204 520.455,287.192 700.364,295.633 818.482,287.031 845.12,287.735 845.093,288.735 818.505,288.03 "/>
<linearGradient id="SVGID_35_" gradientUnits="userSpaceOnUse" x1="0.3359" y1="286.4365" x2="845.126" y2="286.4365">
	<stop  offset="0" style="stop-color:#000000"/>
	<stop  offset="0.4969" style="stop-color:#808285"/>
	<stop  offset="1" style="stop-color:#000000"/>
</linearGradient>
<polygon fill="url(#SVGID_35_)" points="701.527,294.444 521.179,281.787 373.728,289.307 321.339,288.903 258.863,291.725 
	148.591,279.424 58.041,287.187 0.336,285.678 0.362,284.678 58.011,286.188 148.604,278.429 258.896,290.729 321.321,287.904 
	373.706,288.308 521.188,280.789 701.508,293.448 818.271,280.547 845.126,281.603 845.087,282.603 818.306,281.544 "/>
<linearGradient id="SVGID_36_" gradientUnits="userSpaceOnUse" x1="0.3228" y1="281.749" x2="845.1328" y2="281.749">
	<stop  offset="0" style="stop-color:#000000"/>
	<stop  offset="0.4969" style="stop-color:#808285"/>
	<stop  offset="1" style="stop-color:#000000"/>
</linearGradient>
<polygon fill="url(#SVGID_36_)" points="702.619,292.266 702.559,292.261 521.908,275.382 373.634,285.408 320.749,284.871 
	257.821,288.637 148.954,272.241 58.534,282.583 0.323,280.57 0.357,279.57 58.495,281.586 148.971,271.233 149.037,271.243 
	257.866,287.633 320.724,283.872 373.605,284.409 521.922,274.385 702.592,291.259 818.057,274.064 845.133,275.471 845.08,276.469 
	818.104,275.058 "/>
<linearGradient id="SVGID_37_" gradientUnits="userSpaceOnUse" x1="0.3105" y1="277.0615" x2="845.1387" y2="277.0615">
	<stop  offset="0" style="stop-color:#000000"/>
	<stop  offset="0.4969" style="stop-color:#808285"/>
	<stop  offset="1" style="stop-color:#000000"/>
</linearGradient>
<polygon fill="url(#SVGID_37_)" points="703.756,290.085 703.681,290.076 522.639,268.978 373.541,281.509 320.159,280.839 
	256.816,285.548 256.751,285.535 149.267,265.053 59.027,277.978 0.311,275.462 0.354,274.462 58.978,276.982 149.291,264.039 
	256.874,284.54 320.128,279.84 373.505,280.511 522.654,267.982 703.721,289.073 817.905,267.571 817.968,267.575 845.139,269.339 
	845.074,270.337 817.966,268.577 "/>
<linearGradient id="SVGID_38_" gradientUnits="userSpaceOnUse" x1="0.2979" y1="272.374" x2="845.1445" y2="272.374">
	<stop  offset="0" style="stop-color:#000000"/>
	<stop  offset="0.4969" style="stop-color:#808285"/>
	<stop  offset="1" style="stop-color:#000000"/>
</linearGradient>
<polygon fill="url(#SVGID_38_)" points="704.893,287.903 523.428,262.58 373.446,277.609 319.567,276.808 255.812,282.456 
	255.735,282.438 149.58,257.864 59.465,273.381 59.41,273.378 0.298,270.354 0.349,269.355 59.405,272.377 149.609,256.845 
	149.707,256.867 255.883,281.446 319.531,275.81 373.404,276.612 523.447,261.572 523.507,261.581 704.85,286.888 817.705,261.084 
	817.78,261.091 845.145,263.207 845.067,264.203 817.779,262.093 "/>
<linearGradient id="SVGID_39_" gradientUnits="userSpaceOnUse" x1="0.2847" y1="267.6865" x2="845.1514" y2="267.6865">
	<stop  offset="0" style="stop-color:#000000"/>
	<stop  offset="0.4969" style="stop-color:#808285"/>
	<stop  offset="1" style="stop-color:#000000"/>
</linearGradient>
<polygon fill="url(#SVGID_39_)" points="706.03,285.723 705.924,285.705 524.166,256.178 373.353,273.713 318.977,272.774 
	254.807,279.366 254.717,279.342 149.893,250.678 59.948,268.777 59.884,268.773 0.285,265.246 0.344,264.248 59.878,267.771 
	149.928,249.65 254.891,278.353 318.935,271.777 373.304,272.716 524.189,255.168 524.258,255.18 705.978,284.701 817.504,254.598 
	845.151,257.075 845.062,258.071 817.592,255.609 "/>
<linearGradient id="SVGID_40_" gradientUnits="userSpaceOnUse" x1="0.2729" y1="262.999" x2="845.1572" y2="262.999">
	<stop  offset="0" style="stop-color:#000000"/>
	<stop  offset="0.4969" style="stop-color:#808285"/>
	<stop  offset="1" style="stop-color:#000000"/>
</linearGradient>
<polygon fill="url(#SVGID_40_)" points="707.168,283.543 707.046,283.52 524.906,249.774 373.259,269.813 318.386,268.742 
	253.803,276.278 253.701,276.246 150.205,243.491 60.433,264.177 60.359,264.172 0.273,260.14 0.34,259.142 60.353,263.169 
	150.246,242.456 150.376,242.497 253.9,275.261 318.337,267.745 373.203,268.817 524.933,248.763 525.011,248.777 707.106,282.514 
	817.303,248.111 817.405,248.122 845.157,250.943 845.056,251.938 817.406,249.127 "/>
<linearGradient id="SVGID_41_" gradientUnits="userSpaceOnUse" x1="0.2603" y1="258.3096" x2="845.1631" y2="258.3096">
	<stop  offset="0" style="stop-color:#000000"/>
	<stop  offset="0.4969" style="stop-color:#808285"/>
	<stop  offset="1" style="stop-color:#000000"/>
</linearGradient>
<polygon fill="url(#SVGID_41_)" points="708.304,281.36 708.167,281.332 525.646,243.372 373.165,265.914 317.796,264.71 
	252.798,273.188 150.518,236.305 60.917,259.573 60.834,259.567 0.26,255.031 0.334,254.033 60.826,258.563 150.566,235.26 
	150.711,235.312 252.909,272.165 317.742,263.714 373.103,264.92 525.675,242.356 525.762,242.375 708.233,280.324 817.101,241.624 
	817.216,241.637 845.163,244.812 845.05,245.806 817.218,242.644 "/>
<linearGradient id="SVGID_42_" gradientUnits="userSpaceOnUse" x1="0.2476" y1="253.6221" x2="845.1689" y2="253.6221">
	<stop  offset="0" style="stop-color:#000000"/>
	<stop  offset="0.4969" style="stop-color:#808285"/>
	<stop  offset="1" style="stop-color:#000000"/>
</linearGradient>
<polygon fill="url(#SVGID_42_)" points="709.441,279.181 526.385,236.97 373.07,262.015 317.204,260.677 251.793,270.1 
	251.667,270.048 150.83,229.119 61.4,254.971 61.309,254.963 0.248,249.923 0.33,248.927 61.299,253.959 150.885,228.062 
	151.045,228.128 251.918,269.07 317.145,259.682 373.001,261.021 526.418,235.951 526.514,235.973 709.361,278.136 816.9,235.135 
	817.028,235.151 845.169,238.681 845.044,239.673 817.031,236.159 "/>
<linearGradient id="SVGID_43_" gradientUnits="userSpaceOnUse" x1="0.2349" y1="248.9336" x2="845.1738" y2="248.9336">
	<stop  offset="0" style="stop-color:#000000"/>
	<stop  offset="0.4969" style="stop-color:#808285"/>
	<stop  offset="1" style="stop-color:#000000"/>
</linearGradient>
<polygon fill="url(#SVGID_43_)" points="710.578,277.001 710.41,276.958 527.125,230.567 372.925,258.125 372.875,258.124 
	316.613,256.646 250.788,267.013 250.651,266.95 151.142,221.936 61.884,250.368 61.783,250.359 0.235,244.815 0.325,243.819 
	61.773,249.354 151.205,220.866 250.927,265.978 316.549,255.651 372.85,257.123 527.161,229.546 527.266,229.572 710.488,275.946 
	816.698,228.648 845.174,232.549 845.039,233.539 816.845,229.678 "/>
<linearGradient id="SVGID_44_" gradientUnits="userSpaceOnUse" x1="0.2227" y1="244.2451" x2="845.1797" y2="244.2451">
	<stop  offset="0" style="stop-color:#000000"/>
	<stop  offset="0.4969" style="stop-color:#808285"/>
	<stop  offset="1" style="stop-color:#000000"/>
</linearGradient>
<polygon fill="url(#SVGID_44_)" points="711.717,274.822 711.534,274.772 527.863,224.166 372.827,254.227 372.771,254.226 
	316.023,252.613 249.782,263.924 151.453,214.751 62.368,245.768 62.259,245.757 0.223,239.708 0.319,238.712 62.247,244.75 
	151.523,213.667 151.712,213.762 249.937,262.883 315.953,251.62 372.745,253.225 527.902,223.14 528.016,223.171 711.616,273.758 
	816.497,222.159 816.651,222.183 845.18,226.417 845.033,227.405 816.659,223.194 "/>
<linearGradient id="SVGID_45_" gradientUnits="userSpaceOnUse" x1="0.2104" y1="239.5576" x2="845.1855" y2="239.5576">
	<stop  offset="0" style="stop-color:#000000"/>
	<stop  offset="0.4969" style="stop-color:#808285"/>
	<stop  offset="1" style="stop-color:#000000"/>
</linearGradient>
<polygon fill="url(#SVGID_45_)" points="712.855,272.645 712.657,272.586 528.604,217.765 372.728,250.331 372.669,250.329 
	315.486,248.582 248.777,260.836 248.621,260.75 151.766,207.569 62.853,241.165 62.734,241.152 0.21,234.6 0.315,233.605 
	62.721,240.146 151.843,206.472 152.045,206.582 248.946,259.787 315.41,247.58 315.463,247.581 372.64,249.327 528.646,216.733 
	528.768,216.77 712.744,271.568 816.296,215.672 816.464,215.698 845.186,220.284 845.027,221.272 816.473,216.713 "/>
<linearGradient id="SVGID_46_" gradientUnits="userSpaceOnUse" x1="0.1987" y1="234.8691" x2="845.1904" y2="234.8691">
	<stop  offset="0" style="stop-color:#000000"/>
	<stop  offset="0.4969" style="stop-color:#808285"/>
	<stop  offset="1" style="stop-color:#000000"/>
</linearGradient>
<polygon fill="url(#SVGID_46_)" points="713.992,270.468 713.779,270.399 529.341,211.362 372.629,246.433 372.566,246.431 
	314.898,244.551 247.771,257.748 152.077,200.386 63.336,236.562 63.209,236.549 0.199,229.492 0.31,228.498 63.194,235.541 
	152.163,199.271 247.956,256.693 314.817,243.547 314.874,243.549 372.535,245.429 529.388,210.327 529.517,210.368 
	713.871,269.378 816.093,209.183 816.272,209.213 845.19,214.152 845.022,215.139 816.284,210.229 "/>
<linearGradient id="SVGID_47_" gradientUnits="userSpaceOnUse" x1="0.1865" y1="230.1797" x2="845.1963" y2="230.1797">
	<stop  offset="0" style="stop-color:#000000"/>
	<stop  offset="0.4969" style="stop-color:#808285"/>
	<stop  offset="1" style="stop-color:#000000"/>
</linearGradient>
<polygon fill="url(#SVGID_47_)" points="715.132,268.288 714.903,268.21 530.082,204.96 372.531,242.534 372.463,242.532 
	314.311,240.519 246.766,254.661 246.593,254.549 152.389,193.204 63.819,231.96 63.684,231.943 0.187,224.384 0.305,223.392 
	63.667,230.935 152.483,192.071 152.709,192.219 246.965,253.599 314.225,239.515 314.285,239.517 372.43,241.53 530.131,203.921 
	530.269,203.968 714.999,267.187 815.892,202.694 845.196,208.021 845.017,209.006 816.099,203.749 "/>
<linearGradient id="SVGID_48_" gradientUnits="userSpaceOnUse" x1="0.1743" y1="225.4912" x2="845.2012" y2="225.4912">
	<stop  offset="0" style="stop-color:#000000"/>
	<stop  offset="0.4969" style="stop-color:#808285"/>
	<stop  offset="1" style="stop-color:#000000"/>
</linearGradient>
<polygon fill="url(#SVGID_48_)" points="716.27,266.112 716.027,266.023 530.821,198.56 372.431,238.636 372.36,238.634 
	313.725,236.485 245.76,251.574 245.579,251.447 152.701,186.022 64.303,227.359 64.16,227.341 0.174,219.274 0.299,218.282 
	64.141,226.331 152.803,184.87 153.04,185.037 245.975,250.502 313.633,235.481 313.697,235.483 372.325,237.632 530.874,197.515 
	531.019,197.567 716.127,264.995 815.69,196.207 815.896,196.246 845.201,201.891 845.012,202.873 815.913,197.268 "/>
<linearGradient id="SVGID_49_" gradientUnits="userSpaceOnUse" x1="0.1621" y1="220.8018" x2="845.2061" y2="220.8018">
	<stop  offset="0" style="stop-color:#000000"/>
	<stop  offset="0.4969" style="stop-color:#808285"/>
	<stop  offset="1" style="stop-color:#000000"/>
</linearGradient>
<polygon fill="url(#SVGID_49_)" points="717.408,263.935 717.151,263.836 531.561,192.157 372.333,234.74 313.138,232.454 
	244.755,248.486 244.567,248.345 153.013,178.841 64.788,222.757 64.636,222.737 0.162,214.169 0.294,213.177 64.616,221.726 
	153.123,177.669 244.984,247.406 313.041,231.45 313.109,231.452 372.22,233.734 531.617,191.106 531.769,191.165 717.254,262.804 
	815.489,189.717 815.708,189.761 845.206,195.76 845.007,196.74 815.728,190.785 "/>
<linearGradient id="SVGID_50_" gradientUnits="userSpaceOnUse" x1="0.1504" y1="216.1143" x2="845.2109" y2="216.1143">
	<stop  offset="0" style="stop-color:#000000"/>
	<stop  offset="0.4969" style="stop-color:#808285"/>
	<stop  offset="1" style="stop-color:#000000"/>
</linearGradient>
<polygon fill="url(#SVGID_50_)" points="718.547,261.76 718.275,261.648 532.3,185.756 372.233,230.841 372.154,230.838 
	312.55,228.422 243.75,245.399 243.556,245.242 153.324,171.662 65.271,218.155 0.15,209.061 0.289,208.07 65.089,217.12 
	153.443,170.469 243.995,244.31 312.449,227.416 372.115,229.835 532.36,184.7 532.519,184.766 718.381,260.611 815.287,183.229 
	815.519,183.277 845.211,189.628 845.002,190.606 815.541,184.305 "/>
<linearGradient id="SVGID_51_" gradientUnits="userSpaceOnUse" x1="0.1387" y1="211.4248" x2="845.2158" y2="211.4248">
	<stop  offset="0" style="stop-color:#000000"/>
	<stop  offset="0.4969" style="stop-color:#808285"/>
	<stop  offset="1" style="stop-color:#000000"/>
</linearGradient>
<polygon fill="url(#SVGID_51_)" points="719.684,259.583 719.398,259.46 533.039,179.355 372.135,226.944 372.052,226.941 
	311.963,224.391 242.743,242.313 242.544,242.141 153.636,164.482 65.754,213.554 65.586,213.529 0.139,203.953 0.283,202.963 
	65.563,212.515 153.763,163.266 154.028,163.497 243.004,241.214 311.857,223.385 311.931,223.388 372.011,225.938 533.102,178.295 
	533.268,178.366 719.508,258.419 815.084,176.737 845.216,183.497 844.997,184.474 815.354,177.823 "/>
<linearGradient id="SVGID_52_" gradientUnits="userSpaceOnUse" x1="0.127" y1="206.7354" x2="845.2207" y2="206.7354">
	<stop  offset="0" style="stop-color:#000000"/>
	<stop  offset="0.4969" style="stop-color:#808285"/>
	<stop  offset="1" style="stop-color:#000000"/>
</linearGradient>
<polygon fill="url(#SVGID_52_)" points="720.822,257.408 720.522,257.273 533.779,172.954 372.036,223.046 311.376,220.357 
	241.738,239.229 241.535,239.038 153.946,157.303 66.237,208.952 66.062,208.925 0.127,198.843 0.278,197.854 66.037,207.909 
	154.083,156.062 154.356,156.317 242.014,238.117 311.265,219.352 311.343,219.355 371.906,222.04 533.846,171.888 534.019,171.965 
	720.635,256.227 814.882,170.249 845.221,177.366 844.992,178.339 815.167,171.343 "/>
<linearGradient id="SVGID_53_" gradientUnits="userSpaceOnUse" x1="0.1152" y1="202.0459" x2="845.2256" y2="202.0459">
	<stop  offset="0" style="stop-color:#000000"/>
	<stop  offset="0.4969" style="stop-color:#808285"/>
	<stop  offset="1" style="stop-color:#000000"/>
</linearGradient>
<polygon fill="url(#SVGID_53_)" points="721.961,255.233 721.647,255.085 534.517,166.554 371.937,219.149 371.846,219.145 
	310.79,216.326 240.732,236.142 154.258,150.125 66.722,204.35 0.115,193.737 0.272,192.749 66.512,203.303 154.403,148.858 
	241.023,235.021 310.673,215.32 310.754,215.323 371.802,218.142 534.586,165.479 721.762,254.032 814.682,163.758 814.95,163.824 
	845.226,171.234 844.987,172.205 814.98,164.861 "/>
<linearGradient id="SVGID_54_" gradientUnits="userSpaceOnUse" x1="0.1035" y1="197.3564" x2="845.2295" y2="197.3564">
	<stop  offset="0" style="stop-color:#000000"/>
	<stop  offset="0.4969" style="stop-color:#808285"/>
	<stop  offset="1" style="stop-color:#000000"/>
</linearGradient>
<polygon fill="url(#SVGID_54_)" points="723.099,253.06 722.771,252.897 535.258,160.152 371.838,215.251 371.744,215.246 
	310.202,212.294 239.727,233.056 154.569,142.947 67.205,199.749 67.014,199.717 0.104,188.627 0.267,187.641 66.985,198.698 
	154.724,141.654 155.01,141.958 240.033,231.923 310.081,211.286 310.166,211.291 371.697,214.243 535.33,159.072 722.888,251.839 
	814.48,157.27 845.229,165.103 844.983,166.071 814.795,158.381 "/>
<linearGradient id="SVGID_55_" gradientUnits="userSpaceOnUse" x1="0.0913" y1="192.668" x2="845.2344" y2="192.668">
	<stop  offset="0" style="stop-color:#000000"/>
	<stop  offset="0.4969" style="stop-color:#808285"/>
	<stop  offset="1" style="stop-color:#000000"/>
</linearGradient>
<polygon fill="url(#SVGID_55_)" points="724.237,250.886 535.997,153.753 371.738,211.354 309.615,208.263 238.721,229.972 
	238.508,229.731 154.88,135.772 67.688,195.147 0.091,183.52 0.261,182.533 67.459,194.093 155.043,134.451 239.042,228.827 
	309.489,207.255 309.577,207.26 371.592,210.346 536.073,152.667 536.265,152.766 724.015,249.646 814.279,150.779 845.234,158.972 
	844.979,159.938 814.609,151.901 "/>
<linearGradient id="SVGID_56_" gradientUnits="userSpaceOnUse" x1="0.0801" y1="187.9775" x2="845.2383" y2="187.9775">
	<stop  offset="0" style="stop-color:#000000"/>
	<stop  offset="0.4969" style="stop-color:#808285"/>
	<stop  offset="1" style="stop-color:#000000"/>
</linearGradient>
<polygon fill="url(#SVGID_56_)" points="725.377,248.712 725.023,248.521 536.736,147.352 371.64,207.456 371.538,207.45 
	309.027,204.229 237.716,226.884 237.5,226.627 155.192,128.594 68.171,190.546 67.964,190.509 0.08,178.411 0.256,177.427 
	67.934,189.487 155.364,127.244 238.051,225.728 308.897,203.222 308.988,203.227 371.488,206.446 536.814,146.259 725.143,247.45 
	814.075,144.289 845.238,152.84 844.974,153.805 814.421,145.42 "/>
<linearGradient id="SVGID_57_" gradientUnits="userSpaceOnUse" x1="0.0679" y1="183.2871" x2="845.2432" y2="183.2871">
	<stop  offset="0" style="stop-color:#000000"/>
	<stop  offset="0.4969" style="stop-color:#808285"/>
	<stop  offset="1" style="stop-color:#000000"/>
</linearGradient>
<polygon fill="url(#SVGID_57_)" points="726.514,246.536 726.147,246.332 537.476,140.951 371.54,203.559 371.435,203.553 
	308.439,200.197 236.71,223.799 155.503,121.419 68.655,185.943 68.44,185.904 0.068,173.304 0.249,172.32 68.408,184.881 
	155.685,120.039 155.985,120.418 237.06,222.631 308.306,199.189 308.399,199.194 371.383,202.549 537.558,139.852 537.761,139.965 
	726.27,245.255 813.875,137.799 845.243,146.709 844.97,147.671 814.234,138.941 "/>
<linearGradient id="SVGID_58_" gradientUnits="userSpaceOnUse" x1="0.0566" y1="178.5977" x2="845.2471" y2="178.5977">
	<stop  offset="0" style="stop-color:#000000"/>
	<stop  offset="0.4969" style="stop-color:#808285"/>
	<stop  offset="1" style="stop-color:#000000"/>
</linearGradient>
<polygon fill="url(#SVGID_58_)" points="727.652,244.364 538.216,134.55 371.441,199.662 371.333,199.656 307.852,196.166 
	235.706,220.714 155.814,114.243 69.138,181.343 0.057,168.195 0.244,167.213 68.882,180.276 156.005,112.831 236.07,219.534 
	307.713,195.156 307.81,195.162 371.279,198.652 538.301,133.443 727.396,243.06 813.674,131.309 845.247,140.578 844.966,141.538 
	814.049,132.461 "/>
<linearGradient id="SVGID_59_" gradientUnits="userSpaceOnUse" x1="0.0454" y1="173.9082" x2="845.252" y2="173.9082">
	<stop  offset="0" style="stop-color:#000000"/>
	<stop  offset="0.4969" style="stop-color:#808285"/>
	<stop  offset="1" style="stop-color:#000000"/>
</linearGradient>
<polygon fill="url(#SVGID_59_)" points="728.791,242.192 538.955,128.149 371.342,195.765 371.23,195.758 307.265,192.135 
	234.7,217.629 234.482,217.322 156.125,107.069 69.621,176.741 0.045,163.087 0.238,162.106 69.356,175.671 156.325,105.624 
	235.079,216.436 307.122,191.125 307.222,191.131 371.175,194.753 539.043,127.036 539.257,127.164 728.523,240.864 
	813.473,124.817 845.252,134.447 844.962,135.404 813.861,125.98 "/>
<linearGradient id="SVGID_60_" gradientUnits="userSpaceOnUse" x1="0.0337" y1="169.2178" x2="845.2559" y2="169.2178">
	<stop  offset="0" style="stop-color:#000000"/>
	<stop  offset="0.4969" style="stop-color:#808285"/>
	<stop  offset="1" style="stop-color:#000000"/>
</linearGradient>
<polygon fill="url(#SVGID_60_)" points="729.929,240.021 729.525,239.77 539.694,121.75 371.242,191.866 371.127,191.859 
	306.677,188.102 233.694,214.543 156.437,99.895 70.104,172.141 69.868,172.093 0.034,157.979 0.232,156.999 69.831,171.064 
	156.646,98.416 234.088,213.338 306.53,187.092 306.633,187.098 371.07,190.854 539.785,120.628 540.003,120.764 729.649,238.669 
	813.272,118.327 845.256,128.315 844.957,129.27 813.675,119.5 "/>
<linearGradient id="SVGID_61_" gradientUnits="userSpaceOnUse" x1="0.0225" y1="164.5273" x2="845.2598" y2="164.5273">
	<stop  offset="0" style="stop-color:#000000"/>
	<stop  offset="0.4969" style="stop-color:#808285"/>
	<stop  offset="1" style="stop-color:#000000"/>
</linearGradient>
<polygon fill="url(#SVGID_61_)" points="731.067,237.847 730.651,237.58 540.435,115.349 371.143,187.969 371.024,187.962 
	306.09,184.07 232.69,211.459 232.472,211.119 156.747,92.722 70.587,167.539 70.345,167.488 0.022,152.871 0.226,151.892 
	70.306,166.459 156.966,91.208 157.278,91.696 233.097,210.24 305.938,183.059 306.044,183.065 370.966,186.957 540.528,114.221 
	540.752,114.364 730.776,236.472 813.072,111.837 845.26,122.185 844.953,123.137 813.488,113.021 "/>
<linearGradient id="SVGID_62_" gradientUnits="userSpaceOnUse" x1="0.0112" y1="159.8379" x2="845.2637" y2="159.8379">
	<stop  offset="0" style="stop-color:#000000"/>
	<stop  offset="0.4969" style="stop-color:#808285"/>
	<stop  offset="1" style="stop-color:#000000"/>
</linearGradient>
<polygon fill="url(#SVGID_62_)" points="732.205,235.676 541.174,108.949 371.043,184.071 370.922,184.063 305.502,180.038 
	231.685,208.375 231.468,208.019 157.059,85.55 71.071,162.938 70.821,162.885 0.011,147.764 0.22,146.786 70.781,161.854 
	157.287,84 157.6,84.515 232.106,207.143 305.347,179.026 305.455,179.033 370.862,183.058 541.271,107.813 541.499,107.964 
	731.904,234.275 812.87,105.346 845.264,116.054 844.949,117.003 813.3,106.541 "/>
<linearGradient id="SVGID_63_" gradientUnits="userSpaceOnUse" x1="0" y1="155.1475" x2="845.2676" y2="155.1475">
	<stop  offset="0" style="stop-color:#000000"/>
	<stop  offset="0.4969" style="stop-color:#808285"/>
	<stop  offset="1" style="stop-color:#000000"/>
</linearGradient>
<polygon fill="url(#SVGID_63_)" points="733.343,233.505 732.904,233.205 541.912,102.549 370.943,180.174 304.915,176.005 
	230.681,205.29 230.465,204.917 157.37,78.377 71.553,158.337 71.297,158.28 0,142.655 0.214,141.678 71.255,157.247 157.607,76.79 
	231.115,204.044 304.755,174.993 304.866,175 370.757,179.16 542.012,101.406 542.244,101.565 733.03,232.079 812.67,98.854 
	845.268,109.922 844.945,110.87 813.113,100.062 "/>
<linearGradient id="SVGID_64_" gradientUnits="userSpaceOnUse" x1="422.7407" y1="-7.7842" x2="422.7407" y2="314.7036">
	<stop  offset="0" style="stop-color:#000000;stop-opacity:0"/>
	<stop  offset="1" style="stop-color:#000000"/>
</linearGradient>
<rect x="0.375" fill="url(#SVGID_64_)" width="844.731" height="1"/>
<linearGradient id="SVGID_65_" gradientUnits="userSpaceOnUse" x1="422.7373" y1="-7.7842" x2="422.7373" y2="314.7036">
	<stop  offset="0" style="stop-color:#000000;stop-opacity:0"/>
	<stop  offset="1" style="stop-color:#000000"/>
</linearGradient>
<polygon fill="url(#SVGID_65_)" points="699.226,8.493 519.721,4.273 373.915,6.779 322.521,6.646 260.845,7.586 147.998,3.486 
	57.056,6.074 0.362,5.57 0.371,4.57 57.046,5.074 148.001,2.487 260.855,6.586 322.515,5.646 373.908,5.779 519.724,3.273 
	699.22,7.494 818.694,3.193 845.113,3.545 845.1,4.545 818.705,4.192 "/>
<linearGradient id="SVGID_66_" gradientUnits="userSpaceOnUse" x1="422.7344" y1="-7.7842" x2="422.7344" y2="314.7036">
	<stop  offset="0" style="stop-color:#000000;stop-opacity:0"/>
	<stop  offset="1" style="stop-color:#000000"/>
</linearGradient>
<polygon fill="url(#SVGID_66_)" points="700.377,15.985 520.449,7.546 373.821,12.559 321.931,12.29 259.854,14.171 148.294,5.972 
	57.548,11.147 0.349,10.14 0.367,9.14 57.529,10.148 148.303,4.974 259.876,13.173 321.918,11.291 373.806,11.559 520.455,6.547 
	700.364,14.987 818.482,6.386 845.12,7.09 845.093,8.09 818.505,7.384 "/>
<linearGradient id="SVGID_67_" gradientUnits="userSpaceOnUse" x1="422.731" y1="-7.7842" x2="422.731" y2="314.7036">
	<stop  offset="0" style="stop-color:#000000;stop-opacity:0"/>
	<stop  offset="1" style="stop-color:#000000"/>
</linearGradient>
<polygon fill="url(#SVGID_67_)" points="701.527,23.477 521.179,10.82 373.728,18.338 321.339,17.936 258.863,20.757 148.591,8.457 
	58.041,16.22 0.336,14.709 0.362,13.709 58.011,15.222 148.604,7.462 258.896,19.761 321.321,16.936 373.706,17.339 521.188,9.821 
	701.508,22.481 818.271,9.58 845.126,10.635 845.087,11.634 818.306,10.576 "/>
<linearGradient id="SVGID_68_" gradientUnits="userSpaceOnUse" x1="422.7275" y1="-7.7842" x2="422.7275" y2="314.7036">
	<stop  offset="0" style="stop-color:#000000;stop-opacity:0"/>
	<stop  offset="1" style="stop-color:#000000"/>
</linearGradient>
<polygon fill="url(#SVGID_68_)" points="702.619,30.976 702.559,30.971 521.908,14.092 373.634,24.117 320.749,23.581 
	257.821,27.347 148.954,10.951 58.534,21.292 0.323,19.279 0.357,18.28 58.495,20.296 148.971,9.942 149.037,9.952 257.866,26.342 
	320.724,22.582 373.605,23.118 521.922,13.095 702.592,29.969 818.057,12.774 845.133,14.181 845.08,15.18 818.104,13.768 "/>
<linearGradient id="SVGID_69_" gradientUnits="userSpaceOnUse" x1="422.7241" y1="-7.7842" x2="422.7241" y2="314.7036">
	<stop  offset="0" style="stop-color:#000000;stop-opacity:0"/>
	<stop  offset="1" style="stop-color:#000000"/>
</linearGradient>
<polygon fill="url(#SVGID_69_)" points="703.756,38.472 703.681,38.463 522.639,17.364 373.541,29.896 320.159,29.226 
	256.816,33.934 256.751,33.921 149.267,13.44 59.027,26.365 0.311,23.849 0.354,22.85 58.978,25.37 149.291,12.426 256.874,32.927 
	320.128,28.227 373.505,28.897 522.654,16.369 703.721,37.461 817.905,15.958 817.968,15.962 845.139,17.726 845.074,18.724 
	817.966,16.964 "/>
<linearGradient id="SVGID_70_" gradientUnits="userSpaceOnUse" x1="422.7212" y1="-7.7842" x2="422.7212" y2="314.7036">
	<stop  offset="0" style="stop-color:#000000;stop-opacity:0"/>
	<stop  offset="1" style="stop-color:#000000"/>
</linearGradient>
<polygon fill="url(#SVGID_70_)" points="704.893,45.968 523.428,20.644 373.446,35.675 319.567,34.871 255.812,40.521 
	255.735,40.504 149.58,15.929 59.465,31.446 59.41,31.443 0.298,28.418 0.349,27.419 59.405,30.441 149.609,14.91 149.707,14.932 
	255.883,39.512 319.531,33.873 373.404,34.677 523.447,19.637 704.85,44.952 817.705,19.149 845.146,21.272 845.067,22.269 
	817.779,20.158 "/>
<linearGradient id="SVGID_71_" gradientUnits="userSpaceOnUse" x1="422.7178" y1="-7.7842" x2="422.7178" y2="314.7036">
	<stop  offset="0" style="stop-color:#000000;stop-opacity:0"/>
	<stop  offset="1" style="stop-color:#000000"/>
</linearGradient>
<polygon fill="url(#SVGID_71_)" points="706.03,53.463 705.924,53.446 524.166,23.919 373.353,41.453 318.977,40.516 
	254.807,47.108 254.717,47.084 149.893,18.419 59.948,36.521 59.884,36.517 0.285,32.988 0.344,31.99 59.878,35.515 149.928,17.392 
	254.891,46.095 318.934,39.519 373.304,40.457 524.189,22.909 524.258,22.92 705.978,52.442 817.504,22.339 845.151,24.817 
	845.062,25.813 817.592,23.351 "/>
<linearGradient id="SVGID_72_" gradientUnits="userSpaceOnUse" x1="422.7148" y1="-7.7842" x2="422.7148" y2="314.7036">
	<stop  offset="0" style="stop-color:#000000;stop-opacity:0"/>
	<stop  offset="1" style="stop-color:#000000"/>
</linearGradient>
<polygon fill="url(#SVGID_72_)" points="707.168,60.96 707.046,60.938 524.906,27.193 373.259,47.232 318.386,46.161 
	253.803,53.697 253.701,53.665 150.205,20.91 60.433,41.595 60.359,41.59 0.273,37.558 0.34,36.56 60.353,40.587 150.246,19.874 
	150.376,19.916 253.9,52.679 318.337,45.165 373.203,46.237 524.933,26.181 525.011,26.196 707.106,59.932 817.304,25.53 
	845.157,28.363 845.056,29.358 817.406,26.546 "/>
<linearGradient id="SVGID_73_" gradientUnits="userSpaceOnUse" x1="422.7114" y1="-7.7842" x2="422.7114" y2="314.7036">
	<stop  offset="0" style="stop-color:#000000;stop-opacity:0"/>
	<stop  offset="1" style="stop-color:#000000"/>
</linearGradient>
<polygon fill="url(#SVGID_73_)" points="708.304,68.458 708.167,68.429 525.646,30.469 373.165,53.011 317.796,51.807 
	252.798,60.286 252.684,60.244 150.518,23.402 60.917,46.67 60.834,46.664 0.26,42.127 0.334,41.13 60.826,45.661 150.566,22.356 
	150.711,22.409 252.909,59.262 317.742,50.811 373.103,52.016 525.675,29.453 708.233,67.421 817.101,28.721 817.216,28.733 
	845.163,31.909 845.05,32.902 817.218,29.74 "/>
<linearGradient id="SVGID_74_" gradientUnits="userSpaceOnUse" x1="422.708" y1="-7.7842" x2="422.708" y2="314.7036">
	<stop  offset="0" style="stop-color:#000000;stop-opacity:0"/>
	<stop  offset="1" style="stop-color:#000000"/>
</linearGradient>
<polygon fill="url(#SVGID_74_)" points="709.441,75.955 526.385,33.744 373.07,58.789 317.204,57.452 251.793,66.874 
	251.667,66.823 150.83,25.894 61.4,51.745 61.309,51.737 0.248,46.697 0.33,45.7 61.3,50.733 150.885,24.837 151.045,24.902 
	251.918,65.846 317.145,56.457 373.001,57.796 526.418,32.725 526.514,32.747 709.361,74.91 816.9,31.91 845.169,35.455 
	845.044,36.447 817.031,32.934 "/>
<linearGradient id="SVGID_75_" gradientUnits="userSpaceOnUse" x1="422.7041" y1="-7.7842" x2="422.7041" y2="314.7036">
	<stop  offset="0" style="stop-color:#000000;stop-opacity:0"/>
	<stop  offset="1" style="stop-color:#000000"/>
</linearGradient>
<polygon fill="url(#SVGID_75_)" points="710.578,83.453 527.124,37.019 372.925,64.576 372.875,64.575 316.613,63.097 
	250.788,73.463 250.651,73.402 151.142,28.387 61.884,56.82 61.783,56.811 0.235,51.267 0.325,50.271 61.772,55.806 151.205,27.317 
	250.927,72.429 316.549,62.103 372.85,63.574 527.161,35.997 527.266,36.023 710.488,82.398 816.698,35.1 816.84,35.119 845.174,39 
	845.039,39.991 816.845,36.129 "/>
<linearGradient id="SVGID_76_" gradientUnits="userSpaceOnUse" x1="422.7007" y1="-7.7842" x2="422.7007" y2="314.7036">
	<stop  offset="0" style="stop-color:#000000;stop-opacity:0"/>
	<stop  offset="1" style="stop-color:#000000"/>
</linearGradient>
<polygon fill="url(#SVGID_76_)" points="711.717,90.952 711.534,90.901 527.863,40.295 372.827,70.356 372.771,70.354 
	316.023,68.742 249.782,80.053 151.454,30.88 62.368,61.896 62.259,61.885 0.223,55.836 0.319,54.841 62.247,60.879 151.523,29.797 
	151.712,29.892 249.937,79.012 315.953,67.75 372.745,69.353 527.902,39.269 528.016,39.3 711.617,89.887 816.497,38.289 
	845.18,42.546 845.033,43.535 816.659,39.324 "/>
<linearGradient id="SVGID_77_" gradientUnits="userSpaceOnUse" x1="422.6978" y1="-7.7842" x2="422.6978" y2="314.7036">
	<stop  offset="0" style="stop-color:#000000;stop-opacity:0"/>
	<stop  offset="1" style="stop-color:#000000"/>
</linearGradient>
<polygon fill="url(#SVGID_77_)" points="712.855,98.451 528.604,43.57 372.728,76.135 372.669,76.134 315.486,74.389 
	248.777,86.642 248.621,86.557 151.766,33.375 62.853,66.971 62.734,66.958 0.21,60.405 0.315,59.411 62.721,65.951 151.843,32.276 
	152.045,32.387 248.946,85.594 315.41,73.386 315.463,73.388 372.64,75.132 528.646,42.54 528.768,42.576 712.744,97.375 
	816.296,41.479 845.186,46.092 845.027,47.079 816.473,42.52 "/>
<linearGradient id="SVGID_78_" gradientUnits="userSpaceOnUse" x1="422.6943" y1="-7.7842" x2="422.6943" y2="314.7036">
	<stop  offset="0" style="stop-color:#000000;stop-opacity:0"/>
	<stop  offset="1" style="stop-color:#000000"/>
</linearGradient>
<polygon fill="url(#SVGID_78_)" points="713.992,105.951 713.779,105.882 529.341,46.846 372.629,81.916 372.566,81.914 
	314.898,80.034 247.771,93.232 247.606,93.133 152.078,35.869 63.336,72.046 0.199,64.975 0.31,63.981 63.194,71.023 
	152.163,34.755 152.377,34.883 247.956,92.176 314.817,79.031 314.874,79.033 372.535,80.912 529.388,45.811 529.517,45.852 
	713.871,104.862 816.093,44.667 816.272,44.699 845.19,49.638 845.022,50.624 816.284,45.715 "/>
<linearGradient id="SVGID_79_" gradientUnits="userSpaceOnUse" x1="422.6909" y1="-7.7842" x2="422.6909" y2="314.7036">
	<stop  offset="0" style="stop-color:#000000;stop-opacity:0"/>
	<stop  offset="1" style="stop-color:#000000"/>
</linearGradient>
<polygon fill="url(#SVGID_79_)" points="715.132,113.45 714.903,113.372 530.082,50.122 372.531,87.695 372.463,87.693 
	314.311,85.679 246.766,99.822 152.389,38.364 63.819,77.122 0.187,69.545 0.305,68.552 63.667,76.096 152.483,37.231 
	152.709,37.379 246.965,98.758 314.225,84.675 314.285,84.677 372.43,86.691 530.131,49.082 530.269,49.128 714.999,112.347 
	815.892,47.855 816.085,47.891 845.196,53.184 845.017,54.167 816.099,48.91 "/>
<linearGradient id="SVGID_80_" gradientUnits="userSpaceOnUse" x1="422.6875" y1="-7.7842" x2="422.6875" y2="314.7036">
	<stop  offset="0" style="stop-color:#000000;stop-opacity:0"/>
	<stop  offset="1" style="stop-color:#000000"/>
</linearGradient>
<polygon fill="url(#SVGID_80_)" points="716.27,120.95 716.027,120.862 530.821,53.398 372.431,93.475 372.36,93.472 
	313.725,91.325 245.76,106.412 245.579,106.285 152.701,40.861 64.303,82.197 0.174,74.114 0.299,73.122 64.141,81.168 
	152.803,39.709 153.04,39.876 245.975,105.34 313.633,90.321 313.697,90.323 372.325,92.47 530.874,52.353 531.019,52.406 
	716.127,119.834 815.69,51.044 845.201,56.729 845.012,57.711 815.913,52.106 "/>
<linearGradient id="SVGID_81_" gradientUnits="userSpaceOnUse" x1="422.6841" y1="-7.7842" x2="422.6841" y2="314.7036">
	<stop  offset="0" style="stop-color:#000000;stop-opacity:0"/>
	<stop  offset="1" style="stop-color:#000000"/>
</linearGradient>
<polygon fill="url(#SVGID_81_)" points="717.408,128.452 717.151,128.352 531.561,56.674 372.333,99.255 313.138,96.97 
	244.755,113.003 244.567,112.861 153.013,43.357 64.788,87.272 64.636,87.252 0.162,78.684 0.294,77.692 64.616,86.241 
	153.123,42.186 244.984,111.922 313.041,95.965 313.109,95.968 372.22,98.25 531.617,55.624 531.769,55.683 717.254,127.32 
	815.489,54.232 815.708,54.277 845.206,60.275 845.007,61.255 815.728,55.302 "/>
<linearGradient id="SVGID_82_" gradientUnits="userSpaceOnUse" x1="422.6802" y1="-7.7842" x2="422.6802" y2="314.7036">
	<stop  offset="0" style="stop-color:#000000;stop-opacity:0"/>
	<stop  offset="1" style="stop-color:#000000"/>
</linearGradient>
<polygon fill="url(#SVGID_82_)" points="718.547,135.953 532.3,59.95 372.233,105.035 372.154,105.032 312.55,102.616 
	243.75,119.594 153.324,45.855 65.271,92.348 0.15,83.253 0.289,82.263 65.089,91.312 153.443,44.662 243.995,118.503 
	312.449,101.611 312.52,101.614 372.115,104.029 532.36,58.895 532.519,58.959 718.381,134.806 815.287,57.421 845.211,63.822 
	845.002,64.799 815.541,58.498 "/>
<linearGradient id="SVGID_83_" gradientUnits="userSpaceOnUse" x1="422.6772" y1="-7.7842" x2="422.6772" y2="314.7036">
	<stop  offset="0" style="stop-color:#000000;stop-opacity:0"/>
	<stop  offset="1" style="stop-color:#000000"/>
</linearGradient>
<polygon fill="url(#SVGID_83_)" points="719.684,143.455 533.039,63.226 372.135,110.814 372.052,110.811 311.963,108.261 
	242.743,126.185 242.544,126.011 153.636,48.354 65.754,97.424 65.586,97.399 0.139,87.823 0.283,86.833 65.563,96.385 
	153.763,47.137 243.004,125.084 311.857,107.255 311.931,107.258 372.011,109.809 533.102,62.165 533.268,62.236 719.508,142.291 
	815.084,60.609 845.216,67.367 844.997,68.343 815.354,61.694 "/>
<linearGradient id="SVGID_84_" gradientUnits="userSpaceOnUse" x1="422.6733" y1="-7.7842" x2="422.6733" y2="314.7036">
	<stop  offset="0" style="stop-color:#000000;stop-opacity:0"/>
	<stop  offset="1" style="stop-color:#000000"/>
</linearGradient>
<polygon fill="url(#SVGID_84_)" points="720.822,150.956 720.522,150.82 533.779,66.502 372.036,116.595 311.376,113.906 
	241.738,132.775 241.535,132.586 153.947,50.852 66.237,102.5 0.127,92.392 0.278,91.404 66.037,101.458 154.083,49.611 
	154.356,49.865 242.014,131.665 311.265,112.9 371.906,115.588 533.846,65.435 534.019,65.513 720.635,149.774 814.882,63.797 
	845.221,70.914 844.992,71.887 815.167,64.891 "/>
<linearGradient id="SVGID_85_" gradientUnits="userSpaceOnUse" x1="422.6704" y1="-7.7842" x2="422.6704" y2="314.7036">
	<stop  offset="0" style="stop-color:#000000;stop-opacity:0"/>
	<stop  offset="1" style="stop-color:#000000"/>
</linearGradient>
<polygon fill="url(#SVGID_85_)" points="721.961,158.459 721.647,158.311 534.518,69.778 371.937,122.375 371.846,122.37 
	310.79,119.552 240.732,139.368 154.258,53.351 66.722,107.576 0.115,96.961 0.272,95.974 66.512,106.53 154.403,52.084 
	241.023,138.247 310.673,118.545 310.754,118.549 371.802,121.367 534.586,68.705 534.766,68.79 721.762,157.258 814.682,66.985 
	845.226,74.459 844.987,75.431 814.981,68.087 "/>
<linearGradient id="SVGID_86_" gradientUnits="userSpaceOnUse" x1="422.6665" y1="-7.7842" x2="422.6665" y2="314.7036">
	<stop  offset="0" style="stop-color:#000000;stop-opacity:0"/>
	<stop  offset="1" style="stop-color:#000000"/>
</linearGradient>
<polygon fill="url(#SVGID_86_)" points="723.099,165.963 722.771,165.801 535.258,73.056 371.838,128.154 371.744,128.15 
	310.202,125.196 239.727,145.959 239.517,145.736 154.569,55.851 67.205,112.651 0.104,101.531 0.267,100.544 66.985,111.602 
	154.724,54.558 155.01,54.861 240.033,144.826 310.081,124.189 310.166,124.193 371.697,127.146 535.33,71.976 722.888,164.742 
	814.48,70.172 845.229,78.006 844.983,78.975 814.795,71.285 "/>
<linearGradient id="SVGID_87_" gradientUnits="userSpaceOnUse" x1="422.6626" y1="-7.7842" x2="422.6626" y2="314.7036">
	<stop  offset="0" style="stop-color:#000000;stop-opacity:0"/>
	<stop  offset="1" style="stop-color:#000000"/>
</linearGradient>
<polygon fill="url(#SVGID_87_)" points="724.237,173.465 535.997,76.333 371.738,133.934 309.614,130.842 238.721,152.551 
	238.508,152.311 154.88,58.352 67.688,117.727 0.091,106.1 0.261,105.114 67.459,116.673 155.043,57.03 239.042,151.407 
	309.489,129.834 371.592,132.925 536.073,75.247 536.265,75.345 724.015,172.225 814.279,73.359 845.234,81.552 844.979,82.519 
	814.609,74.481 "/>
<linearGradient id="SVGID_88_" gradientUnits="userSpaceOnUse" x1="422.6587" y1="-7.7842" x2="422.6587" y2="314.7036">
	<stop  offset="0" style="stop-color:#000000;stop-opacity:0"/>
	<stop  offset="1" style="stop-color:#000000"/>
</linearGradient>
<polygon fill="url(#SVGID_88_)" points="725.377,180.97 725.023,180.779 536.736,79.609 371.64,139.714 371.538,139.709 
	309.026,136.488 237.716,159.143 237.5,158.886 155.192,60.852 68.171,122.803 67.964,122.766 0.08,110.67 0.256,109.686 
	67.933,121.745 155.364,59.502 238.051,157.986 308.897,135.48 308.988,135.484 371.488,138.705 536.814,78.517 725.143,179.708 
	814.075,76.547 845.238,85.098 844.974,86.062 814.421,77.679 "/>
<linearGradient id="SVGID_89_" gradientUnits="userSpaceOnUse" x1="422.6553" y1="-7.7842" x2="422.6553" y2="314.7036">
	<stop  offset="0" style="stop-color:#000000;stop-opacity:0"/>
	<stop  offset="1" style="stop-color:#000000"/>
</linearGradient>
<polygon fill="url(#SVGID_89_)" points="726.514,188.474 726.147,188.269 537.476,82.886 371.54,145.494 371.435,145.489 
	308.439,142.134 236.71,165.734 155.503,63.354 68.655,127.879 0.068,115.24 0.249,114.256 68.408,126.817 155.685,61.974 
	155.985,62.354 237.06,164.566 308.306,141.125 308.399,141.13 371.383,144.484 537.558,81.787 537.761,81.9 726.27,187.19 
	813.875,79.734 845.243,88.645 844.97,89.606 814.234,80.876 "/>
<linearGradient id="SVGID_90_" gradientUnits="userSpaceOnUse" x1="422.6519" y1="-7.7842" x2="422.6519" y2="314.7036">
	<stop  offset="0" style="stop-color:#000000;stop-opacity:0"/>
	<stop  offset="1" style="stop-color:#000000"/>
</linearGradient>
<polygon fill="url(#SVGID_90_)" points="727.652,195.978 538.216,86.163 371.441,151.274 371.333,151.268 307.852,147.778 
	235.706,172.326 155.814,65.856 69.138,132.955 0.057,119.808 0.244,118.826 68.882,131.889 156.005,64.444 236.07,171.146 
	307.713,146.769 371.279,150.264 538.301,85.056 727.396,194.673 813.674,82.921 845.247,92.191 844.966,93.15 814.048,84.074 "/>
<linearGradient id="SVGID_91_" gradientUnits="userSpaceOnUse" x1="422.6484" y1="-7.7842" x2="422.6484" y2="314.7036">
	<stop  offset="0" style="stop-color:#000000;stop-opacity:0"/>
	<stop  offset="1" style="stop-color:#000000"/>
</linearGradient>
<polygon fill="url(#SVGID_91_)" points="728.791,203.481 538.955,89.439 371.342,157.054 371.23,157.047 307.265,153.424 
	234.7,178.92 234.482,178.613 156.125,68.36 69.621,138.032 0.045,124.377 0.238,123.396 69.356,136.961 156.325,66.915 
	235.079,177.727 307.122,152.414 307.222,152.42 371.175,156.042 539.043,88.326 539.257,88.454 728.523,202.153 813.473,86.108 
	845.252,95.738 844.962,96.695 813.861,87.271 "/>
<linearGradient id="SVGID_92_" gradientUnits="userSpaceOnUse" x1="422.6445" y1="-7.7842" x2="422.6445" y2="314.7036">
	<stop  offset="0" style="stop-color:#000000;stop-opacity:0"/>
	<stop  offset="1" style="stop-color:#000000"/>
</linearGradient>
<polygon fill="url(#SVGID_92_)" points="729.929,210.987 729.525,210.736 539.694,92.717 371.242,162.834 371.127,162.827 
	306.677,159.069 233.694,185.513 233.477,185.188 156.437,70.863 70.104,143.107 69.868,143.06 0.034,128.947 0.232,127.967 
	69.831,142.032 156.646,69.385 234.088,184.307 306.53,158.06 306.633,158.065 371.07,161.822 539.785,91.596 540.003,91.732 
	729.649,209.636 813.272,89.294 813.623,89.403 845.256,99.283 844.957,100.238 813.675,90.467 "/>
<linearGradient id="SVGID_93_" gradientUnits="userSpaceOnUse" x1="422.6411" y1="-7.7842" x2="422.6411" y2="314.7036">
	<stop  offset="0" style="stop-color:#000000;stop-opacity:0"/>
	<stop  offset="1" style="stop-color:#000000"/>
</linearGradient>
<polygon fill="url(#SVGID_93_)" points="731.067,218.493 730.651,218.227 540.435,95.994 371.143,168.613 371.024,168.606 
	306.09,164.716 232.69,192.104 232.472,191.764 156.747,73.368 70.587,148.184 0.022,133.516 0.226,132.537 70.306,147.104 
	156.966,71.853 233.097,190.885 305.938,163.704 306.044,163.711 370.966,167.602 540.528,94.866 540.752,95.01 730.776,217.118 
	813.072,92.481 845.26,102.83 844.953,103.782 813.488,93.666 "/>
<linearGradient id="SVGID_94_" gradientUnits="userSpaceOnUse" x1="422.6372" y1="-7.7842" x2="422.6372" y2="314.7036">
	<stop  offset="0" style="stop-color:#000000;stop-opacity:0"/>
	<stop  offset="1" style="stop-color:#000000"/>
</linearGradient>
<polygon fill="url(#SVGID_94_)" points="732.205,225.999 541.175,99.271 371.043,174.395 370.922,174.387 305.502,170.361 
	231.685,198.696 231.468,198.34 157.059,75.873 71.071,153.26 70.821,153.207 0.011,138.085 0.22,137.108 70.781,152.176 
	157.287,74.322 157.6,74.837 232.106,197.464 305.347,169.35 305.455,169.356 370.862,173.381 541.271,98.136 541.499,98.287 
	731.904,224.599 812.87,95.669 845.264,106.376 844.949,107.326 813.3,96.864 "/>
<linearGradient id="SVGID_95_" gradientUnits="userSpaceOnUse" x1="422.7407" y1="-7.7842" x2="422.7407" y2="314.7036">
	<stop  offset="0" style="stop-color:#000000;stop-opacity:0"/>
	<stop  offset="1" style="stop-color:#000000"/>
</linearGradient>
<rect x="0.375" y="300" fill="url(#SVGID_95_)" width="844.731" height="1"/>
<linearGradient id="SVGID_96_" gradientUnits="userSpaceOnUse" x1="422.7373" y1="-7.7842" x2="422.7373" y2="314.7036">
	<stop  offset="0" style="stop-color:#000000;stop-opacity:0"/>
	<stop  offset="1" style="stop-color:#000000"/>
</linearGradient>
<polygon fill="url(#SVGID_96_)" points="699.226,298.816 519.721,294.595 373.915,297.103 322.521,296.968 260.845,297.909 
	147.998,293.81 57.056,296.396 0.362,295.893 0.371,294.893 57.046,295.396 148.001,292.81 260.855,296.909 322.515,295.968 
	373.908,296.103 519.724,293.595 699.22,297.816 818.694,293.516 845.113,293.867 845.1,294.867 818.705,294.516 "/>
<linearGradient id="SVGID_97_" gradientUnits="userSpaceOnUse" x1="422.7344" y1="-7.7842" x2="422.7344" y2="314.7036">
	<stop  offset="0" style="stop-color:#000000;stop-opacity:0"/>
	<stop  offset="1" style="stop-color:#000000"/>
</linearGradient>
<polygon fill="url(#SVGID_97_)" points="700.377,296.631 520.449,288.191 373.821,293.204 321.931,292.936 259.854,294.817 
	148.294,286.617 57.548,291.793 0.349,290.786 0.367,289.786 57.529,290.794 148.303,285.619 259.876,293.818 321.918,291.936 
	373.806,292.204 520.455,287.192 700.364,295.633 818.482,287.031 845.12,287.735 845.093,288.735 818.505,288.03 "/>
<linearGradient id="SVGID_98_" gradientUnits="userSpaceOnUse" x1="422.731" y1="-7.7842" x2="422.731" y2="314.7036">
	<stop  offset="0" style="stop-color:#000000;stop-opacity:0"/>
	<stop  offset="1" style="stop-color:#000000"/>
</linearGradient>
<polygon fill="url(#SVGID_98_)" points="701.527,294.444 521.179,281.787 373.728,289.307 321.339,288.903 258.863,291.725 
	148.591,279.424 58.041,287.187 0.336,285.678 0.362,284.678 58.011,286.188 148.604,278.429 258.896,290.729 321.321,287.904 
	373.706,288.308 521.188,280.789 701.508,293.448 818.271,280.547 845.126,281.603 845.087,282.603 818.306,281.544 "/>
<linearGradient id="SVGID_99_" gradientUnits="userSpaceOnUse" x1="422.7275" y1="-7.7842" x2="422.7275" y2="314.7036">
	<stop  offset="0" style="stop-color:#000000;stop-opacity:0"/>
	<stop  offset="1" style="stop-color:#000000"/>
</linearGradient>
<polygon fill="url(#SVGID_99_)" points="702.619,292.266 702.559,292.261 521.908,275.382 373.634,285.408 320.749,284.871 
	257.821,288.637 148.954,272.241 58.534,282.583 0.323,280.57 0.357,279.57 58.495,281.586 148.971,271.233 149.037,271.243 
	257.866,287.633 320.724,283.872 373.605,284.409 521.922,274.385 702.592,291.259 818.057,274.064 845.133,275.471 845.08,276.469 
	818.104,275.058 "/>
<linearGradient id="SVGID_100_" gradientUnits="userSpaceOnUse" x1="422.7241" y1="-7.7842" x2="422.7241" y2="314.7036">
	<stop  offset="0" style="stop-color:#000000;stop-opacity:0"/>
	<stop  offset="1" style="stop-color:#000000"/>
</linearGradient>
<polygon fill="url(#SVGID_100_)" points="703.756,290.085 703.681,290.076 522.639,268.978 373.541,281.509 320.159,280.839 
	256.816,285.548 256.751,285.535 149.267,265.053 59.027,277.978 0.311,275.462 0.354,274.462 58.978,276.982 149.291,264.039 
	256.874,284.54 320.128,279.84 373.505,280.511 522.654,267.982 703.721,289.073 817.905,267.571 817.968,267.575 845.139,269.339 
	845.074,270.337 817.966,268.577 "/>
<linearGradient id="SVGID_101_" gradientUnits="userSpaceOnUse" x1="422.7212" y1="-7.7842" x2="422.7212" y2="314.7036">
	<stop  offset="0" style="stop-color:#000000;stop-opacity:0"/>
	<stop  offset="1" style="stop-color:#000000"/>
</linearGradient>
<polygon fill="url(#SVGID_101_)" points="704.893,287.903 523.428,262.58 373.446,277.609 319.567,276.808 255.812,282.456 
	255.735,282.438 149.58,257.864 59.465,273.381 59.41,273.378 0.298,270.354 0.349,269.355 59.405,272.377 149.609,256.845 
	149.707,256.867 255.883,281.446 319.531,275.81 373.404,276.612 523.447,261.572 523.507,261.581 704.85,286.888 817.705,261.084 
	817.78,261.091 845.145,263.207 845.067,264.203 817.779,262.093 "/>
<linearGradient id="SVGID_102_" gradientUnits="userSpaceOnUse" x1="422.7178" y1="-7.7842" x2="422.7178" y2="314.7036">
	<stop  offset="0" style="stop-color:#000000;stop-opacity:0"/>
	<stop  offset="1" style="stop-color:#000000"/>
</linearGradient>
<polygon fill="url(#SVGID_102_)" points="706.03,285.723 705.924,285.705 524.166,256.178 373.353,273.713 318.977,272.774 
	254.807,279.366 254.717,279.342 149.893,250.678 59.948,268.777 59.884,268.773 0.285,265.246 0.344,264.248 59.878,267.771 
	149.928,249.65 254.891,278.353 318.935,271.777 373.304,272.716 524.189,255.168 524.258,255.18 705.978,284.701 817.504,254.598 
	845.151,257.075 845.062,258.071 817.592,255.609 "/>
<linearGradient id="SVGID_103_" gradientUnits="userSpaceOnUse" x1="422.7148" y1="-7.7842" x2="422.7148" y2="314.7036">
	<stop  offset="0" style="stop-color:#000000;stop-opacity:0"/>
	<stop  offset="1" style="stop-color:#000000"/>
</linearGradient>
<polygon fill="url(#SVGID_103_)" points="707.168,283.543 707.046,283.52 524.906,249.774 373.259,269.813 318.386,268.742 
	253.803,276.278 253.701,276.246 150.205,243.491 60.433,264.177 60.359,264.172 0.273,260.14 0.34,259.142 60.353,263.169 
	150.246,242.456 150.376,242.497 253.9,275.261 318.337,267.745 373.203,268.817 524.933,248.763 525.011,248.777 707.106,282.514 
	817.303,248.111 817.405,248.122 845.157,250.943 845.056,251.938 817.406,249.127 "/>
<linearGradient id="SVGID_104_" gradientUnits="userSpaceOnUse" x1="422.7114" y1="-7.7842" x2="422.7114" y2="314.7036">
	<stop  offset="0" style="stop-color:#000000;stop-opacity:0"/>
	<stop  offset="1" style="stop-color:#000000"/>
</linearGradient>
<polygon fill="url(#SVGID_104_)" points="708.304,281.36 708.167,281.332 525.646,243.372 373.165,265.914 317.796,264.71 
	252.798,273.188 150.518,236.305 60.917,259.573 60.834,259.567 0.26,255.031 0.334,254.033 60.826,258.563 150.566,235.26 
	150.711,235.312 252.909,272.165 317.742,263.714 373.103,264.92 525.675,242.356 525.762,242.375 708.233,280.324 817.101,241.624 
	817.216,241.637 845.163,244.812 845.05,245.806 817.218,242.644 "/>
<linearGradient id="SVGID_105_" gradientUnits="userSpaceOnUse" x1="422.708" y1="-7.7842" x2="422.708" y2="314.7036">
	<stop  offset="0" style="stop-color:#000000;stop-opacity:0"/>
	<stop  offset="1" style="stop-color:#000000"/>
</linearGradient>
<polygon fill="url(#SVGID_105_)" points="709.441,279.181 526.385,236.97 373.07,262.015 317.204,260.677 251.793,270.1 
	251.667,270.048 150.83,229.119 61.4,254.971 61.309,254.963 0.248,249.923 0.33,248.927 61.299,253.959 150.885,228.062 
	151.045,228.128 251.918,269.07 317.145,259.682 373.001,261.021 526.418,235.951 526.514,235.973 709.361,278.136 816.9,235.135 
	817.028,235.151 845.169,238.681 845.044,239.673 817.031,236.159 "/>
<linearGradient id="SVGID_106_" gradientUnits="userSpaceOnUse" x1="422.7041" y1="-7.7842" x2="422.7041" y2="314.7036">
	<stop  offset="0" style="stop-color:#000000;stop-opacity:0"/>
	<stop  offset="1" style="stop-color:#000000"/>
</linearGradient>
<polygon fill="url(#SVGID_106_)" points="710.578,277.001 710.41,276.958 527.125,230.567 372.925,258.125 372.875,258.124 
	316.613,256.646 250.788,267.013 250.651,266.95 151.142,221.936 61.884,250.368 61.783,250.359 0.235,244.815 0.325,243.819 
	61.773,249.354 151.205,220.866 250.927,265.978 316.549,255.651 372.85,257.123 527.161,229.546 527.266,229.572 710.488,275.946 
	816.698,228.648 845.174,232.549 845.039,233.539 816.845,229.678 "/>
<linearGradient id="SVGID_107_" gradientUnits="userSpaceOnUse" x1="422.7007" y1="-7.7842" x2="422.7007" y2="314.7036">
	<stop  offset="0" style="stop-color:#000000;stop-opacity:0"/>
	<stop  offset="1" style="stop-color:#000000"/>
</linearGradient>
<polygon fill="url(#SVGID_107_)" points="711.717,274.822 711.534,274.772 527.863,224.166 372.827,254.227 372.771,254.226 
	316.023,252.613 249.782,263.924 151.453,214.751 62.368,245.768 62.259,245.757 0.223,239.708 0.319,238.712 62.247,244.75 
	151.523,213.667 151.712,213.762 249.937,262.883 315.953,251.62 372.745,253.225 527.902,223.14 528.016,223.171 711.616,273.758 
	816.497,222.159 816.651,222.183 845.18,226.417 845.033,227.405 816.659,223.194 "/>
<linearGradient id="SVGID_108_" gradientUnits="userSpaceOnUse" x1="422.6978" y1="-7.7842" x2="422.6978" y2="314.7036">
	<stop  offset="0" style="stop-color:#000000;stop-opacity:0"/>
	<stop  offset="1" style="stop-color:#000000"/>
</linearGradient>
<polygon fill="url(#SVGID_108_)" points="712.855,272.645 712.657,272.586 528.604,217.765 372.728,250.331 372.669,250.329 
	315.486,248.582 248.777,260.836 248.621,260.75 151.766,207.569 62.853,241.165 62.734,241.152 0.21,234.6 0.315,233.605 
	62.721,240.146 151.843,206.472 152.045,206.582 248.946,259.787 315.41,247.58 315.463,247.581 372.64,249.327 528.646,216.733 
	528.768,216.77 712.744,271.568 816.296,215.672 816.464,215.698 845.186,220.284 845.027,221.272 816.473,216.713 "/>
<linearGradient id="SVGID_109_" gradientUnits="userSpaceOnUse" x1="422.6943" y1="-7.7842" x2="422.6943" y2="314.7036">
	<stop  offset="0" style="stop-color:#000000;stop-opacity:0"/>
	<stop  offset="1" style="stop-color:#000000"/>
</linearGradient>
<polygon fill="url(#SVGID_109_)" points="713.992,270.468 713.779,270.399 529.341,211.362 372.629,246.433 372.566,246.431 
	314.898,244.551 247.771,257.748 152.077,200.386 63.336,236.562 63.209,236.549 0.199,229.492 0.31,228.498 63.194,235.541 
	152.163,199.271 247.956,256.693 314.817,243.547 314.874,243.549 372.535,245.429 529.388,210.327 529.517,210.368 
	713.871,269.378 816.093,209.183 816.272,209.213 845.19,214.152 845.022,215.139 816.284,210.229 "/>
<linearGradient id="SVGID_110_" gradientUnits="userSpaceOnUse" x1="422.6909" y1="-7.7842" x2="422.6909" y2="314.7036">
	<stop  offset="0" style="stop-color:#000000;stop-opacity:0"/>
	<stop  offset="1" style="stop-color:#000000"/>
</linearGradient>
<polygon fill="url(#SVGID_110_)" points="715.132,268.288 714.903,268.21 530.082,204.96 372.531,242.534 372.463,242.532 
	314.311,240.519 246.766,254.661 246.593,254.549 152.389,193.204 63.819,231.96 63.684,231.943 0.187,224.384 0.305,223.392 
	63.667,230.935 152.483,192.071 152.709,192.219 246.965,253.599 314.225,239.515 314.285,239.517 372.43,241.53 530.131,203.921 
	530.269,203.968 714.999,267.187 815.892,202.694 845.196,208.021 845.017,209.006 816.099,203.749 "/>
<linearGradient id="SVGID_111_" gradientUnits="userSpaceOnUse" x1="422.6875" y1="-7.7842" x2="422.6875" y2="314.7036">
	<stop  offset="0" style="stop-color:#000000;stop-opacity:0"/>
	<stop  offset="1" style="stop-color:#000000"/>
</linearGradient>
<polygon fill="url(#SVGID_111_)" points="716.27,266.112 716.027,266.023 530.821,198.56 372.431,238.636 372.36,238.634 
	313.725,236.485 245.76,251.574 245.579,251.447 152.701,186.022 64.303,227.359 64.16,227.341 0.174,219.274 0.299,218.282 
	64.141,226.331 152.803,184.87 153.04,185.037 245.975,250.502 313.633,235.481 313.697,235.483 372.325,237.632 530.874,197.515 
	531.019,197.567 716.127,264.995 815.69,196.207 815.896,196.246 845.201,201.891 845.012,202.873 815.913,197.268 "/>
<linearGradient id="SVGID_112_" gradientUnits="userSpaceOnUse" x1="422.6841" y1="-7.7842" x2="422.6841" y2="314.7036">
	<stop  offset="0" style="stop-color:#000000;stop-opacity:0"/>
	<stop  offset="1" style="stop-color:#000000"/>
</linearGradient>
<polygon fill="url(#SVGID_112_)" points="717.408,263.935 717.151,263.836 531.561,192.157 372.333,234.74 313.138,232.454 
	244.755,248.486 244.567,248.345 153.013,178.841 64.788,222.757 64.636,222.737 0.162,214.169 0.294,213.177 64.616,221.726 
	153.123,177.669 244.984,247.406 313.041,231.45 313.109,231.452 372.22,233.734 531.617,191.106 531.769,191.165 717.254,262.804 
	815.489,189.717 815.708,189.761 845.206,195.76 845.007,196.74 815.728,190.785 "/>
<linearGradient id="SVGID_113_" gradientUnits="userSpaceOnUse" x1="422.6802" y1="-7.7842" x2="422.6802" y2="314.7036">
	<stop  offset="0" style="stop-color:#000000;stop-opacity:0"/>
	<stop  offset="1" style="stop-color:#000000"/>
</linearGradient>
<polygon fill="url(#SVGID_113_)" points="718.547,261.76 718.275,261.648 532.3,185.756 372.233,230.841 372.154,230.838 
	312.55,228.422 243.75,245.399 243.556,245.242 153.324,171.662 65.271,218.155 0.15,209.061 0.289,208.07 65.089,217.12 
	153.443,170.469 243.995,244.31 312.449,227.416 372.115,229.835 532.36,184.7 532.519,184.766 718.381,260.611 815.287,183.229 
	815.519,183.277 845.211,189.628 845.002,190.606 815.541,184.305 "/>
<linearGradient id="SVGID_114_" gradientUnits="userSpaceOnUse" x1="422.6772" y1="-7.7842" x2="422.6772" y2="314.7036">
	<stop  offset="0" style="stop-color:#000000;stop-opacity:0"/>
	<stop  offset="1" style="stop-color:#000000"/>
</linearGradient>
<polygon fill="url(#SVGID_114_)" points="719.684,259.583 719.398,259.46 533.039,179.355 372.135,226.944 372.052,226.941 
	311.963,224.391 242.743,242.313 242.544,242.141 153.636,164.482 65.754,213.554 65.586,213.529 0.139,203.953 0.283,202.963 
	65.563,212.515 153.763,163.266 154.028,163.497 243.004,241.214 311.857,223.385 311.931,223.388 372.011,225.938 533.102,178.295 
	533.268,178.366 719.508,258.419 815.084,176.737 845.216,183.497 844.997,184.474 815.354,177.823 "/>
<linearGradient id="SVGID_115_" gradientUnits="userSpaceOnUse" x1="422.6733" y1="-7.7842" x2="422.6733" y2="314.7036">
	<stop  offset="0" style="stop-color:#000000;stop-opacity:0"/>
	<stop  offset="1" style="stop-color:#000000"/>
</linearGradient>
<polygon fill="url(#SVGID_115_)" points="720.822,257.408 720.522,257.273 533.779,172.954 372.036,223.046 311.376,220.357 
	241.738,239.229 241.535,239.038 153.946,157.303 66.237,208.952 66.062,208.925 0.127,198.843 0.278,197.854 66.037,207.909 
	154.083,156.062 154.356,156.317 242.014,238.117 311.265,219.352 311.343,219.355 371.906,222.04 533.846,171.888 534.019,171.965 
	720.635,256.227 814.882,170.249 845.221,177.366 844.992,178.339 815.167,171.343 "/>
<linearGradient id="SVGID_116_" gradientUnits="userSpaceOnUse" x1="422.6704" y1="-7.7842" x2="422.6704" y2="314.7036">
	<stop  offset="0" style="stop-color:#000000;stop-opacity:0"/>
	<stop  offset="1" style="stop-color:#000000"/>
</linearGradient>
<polygon fill="url(#SVGID_116_)" points="721.961,255.233 721.647,255.085 534.517,166.554 371.937,219.149 371.846,219.145 
	310.79,216.326 240.732,236.142 154.258,150.125 66.722,204.35 0.115,193.737 0.272,192.749 66.512,203.303 154.403,148.858 
	241.023,235.021 310.673,215.32 310.754,215.323 371.802,218.142 534.586,165.479 721.762,254.032 814.682,163.758 814.95,163.824 
	845.226,171.234 844.987,172.205 814.98,164.861 "/>
<linearGradient id="SVGID_117_" gradientUnits="userSpaceOnUse" x1="422.6665" y1="-7.7842" x2="422.6665" y2="314.7036">
	<stop  offset="0" style="stop-color:#000000;stop-opacity:0"/>
	<stop  offset="1" style="stop-color:#000000"/>
</linearGradient>
<polygon fill="url(#SVGID_117_)" points="723.099,253.06 722.771,252.897 535.258,160.152 371.838,215.251 371.744,215.246 
	310.202,212.294 239.727,233.056 154.569,142.947 67.205,199.749 67.014,199.717 0.104,188.627 0.267,187.641 66.985,198.698 
	154.724,141.654 155.01,141.958 240.033,231.923 310.081,211.286 310.166,211.291 371.697,214.243 535.33,159.072 722.888,251.839 
	814.48,157.27 845.229,165.103 844.983,166.071 814.795,158.381 "/>
<linearGradient id="SVGID_118_" gradientUnits="userSpaceOnUse" x1="422.6626" y1="-7.7842" x2="422.6626" y2="314.7036">
	<stop  offset="0" style="stop-color:#000000;stop-opacity:0"/>
	<stop  offset="1" style="stop-color:#000000"/>
</linearGradient>
<polygon fill="url(#SVGID_118_)" points="724.237,250.886 535.997,153.753 371.738,211.354 309.615,208.263 238.721,229.972 
	238.508,229.731 154.88,135.772 67.688,195.147 0.091,183.52 0.261,182.533 67.459,194.093 155.043,134.451 239.042,228.827 
	309.489,207.255 309.577,207.26 371.592,210.346 536.073,152.667 536.265,152.766 724.015,249.646 814.279,150.779 845.234,158.972 
	844.979,159.938 814.609,151.901 "/>
<linearGradient id="SVGID_119_" gradientUnits="userSpaceOnUse" x1="422.6587" y1="-7.7842" x2="422.6587" y2="314.7036">
	<stop  offset="0" style="stop-color:#000000;stop-opacity:0"/>
	<stop  offset="1" style="stop-color:#000000"/>
</linearGradient>
<polygon fill="url(#SVGID_119_)" points="725.377,248.712 725.023,248.521 536.736,147.352 371.64,207.456 371.538,207.45 
	309.027,204.229 237.716,226.884 237.5,226.627 155.192,128.594 68.171,190.546 67.964,190.509 0.08,178.411 0.256,177.427 
	67.934,189.487 155.364,127.244 238.051,225.728 308.897,203.222 308.988,203.227 371.488,206.446 536.814,146.259 725.143,247.45 
	814.075,144.289 845.238,152.84 844.974,153.805 814.421,145.42 "/>
<linearGradient id="SVGID_120_" gradientUnits="userSpaceOnUse" x1="422.6553" y1="-7.7842" x2="422.6553" y2="314.7036">
	<stop  offset="0" style="stop-color:#000000;stop-opacity:0"/>
	<stop  offset="1" style="stop-color:#000000"/>
</linearGradient>
<polygon fill="url(#SVGID_120_)" points="726.514,246.536 726.147,246.332 537.476,140.951 371.54,203.559 371.435,203.553 
	308.439,200.197 236.71,223.799 155.503,121.419 68.655,185.943 68.44,185.904 0.068,173.304 0.249,172.32 68.408,184.881 
	155.685,120.039 155.985,120.418 237.06,222.631 308.306,199.189 308.399,199.194 371.383,202.549 537.558,139.852 537.761,139.965 
	726.27,245.255 813.875,137.799 845.243,146.709 844.97,147.671 814.234,138.941 "/>
<linearGradient id="SVGID_121_" gradientUnits="userSpaceOnUse" x1="422.6519" y1="-7.7842" x2="422.6519" y2="314.7036">
	<stop  offset="0" style="stop-color:#000000;stop-opacity:0"/>
	<stop  offset="1" style="stop-color:#000000"/>
</linearGradient>
<polygon fill="url(#SVGID_121_)" points="727.652,244.364 538.216,134.55 371.441,199.662 371.333,199.656 307.852,196.166 
	235.706,220.714 155.814,114.243 69.138,181.343 0.057,168.195 0.244,167.213 68.882,180.276 156.005,112.831 236.07,219.534 
	307.713,195.156 307.81,195.162 371.279,198.652 538.301,133.443 727.396,243.06 813.674,131.309 845.247,140.578 844.966,141.538 
	814.049,132.461 "/>
<linearGradient id="SVGID_122_" gradientUnits="userSpaceOnUse" x1="422.6484" y1="-7.7842" x2="422.6484" y2="314.7036">
	<stop  offset="0" style="stop-color:#000000;stop-opacity:0"/>
	<stop  offset="1" style="stop-color:#000000"/>
</linearGradient>
<polygon fill="url(#SVGID_122_)" points="728.791,242.192 538.955,128.149 371.342,195.765 371.23,195.758 307.265,192.135 
	234.7,217.629 234.482,217.322 156.125,107.069 69.621,176.741 0.045,163.087 0.238,162.106 69.356,175.671 156.325,105.624 
	235.079,216.436 307.122,191.125 307.222,191.131 371.175,194.753 539.043,127.036 539.257,127.164 728.523,240.864 
	813.473,124.817 845.252,134.447 844.962,135.404 813.861,125.98 "/>
<linearGradient id="SVGID_123_" gradientUnits="userSpaceOnUse" x1="422.6445" y1="-7.7842" x2="422.6445" y2="314.7036">
	<stop  offset="0" style="stop-color:#000000;stop-opacity:0"/>
	<stop  offset="1" style="stop-color:#000000"/>
</linearGradient>
<polygon fill="url(#SVGID_123_)" points="729.929,240.021 729.525,239.77 539.694,121.75 371.242,191.866 371.127,191.859 
	306.677,188.102 233.694,214.543 156.437,99.895 70.104,172.141 69.868,172.093 0.034,157.979 0.232,156.999 69.831,171.064 
	156.646,98.416 234.088,213.338 306.53,187.092 306.633,187.098 371.07,190.854 539.785,120.628 540.003,120.764 729.649,238.669 
	813.272,118.327 845.256,128.315 844.957,129.27 813.675,119.5 "/>
<linearGradient id="SVGID_124_" gradientUnits="userSpaceOnUse" x1="422.6411" y1="-7.7842" x2="422.6411" y2="314.7036">
	<stop  offset="0" style="stop-color:#000000;stop-opacity:0"/>
	<stop  offset="1" style="stop-color:#000000"/>
</linearGradient>
<polygon fill="url(#SVGID_124_)" points="731.067,237.847 730.651,237.58 540.435,115.349 371.143,187.969 371.024,187.962 
	306.09,184.07 232.69,211.459 232.472,211.119 156.747,92.722 70.587,167.539 70.345,167.488 0.022,152.871 0.226,151.892 
	70.306,166.459 156.966,91.208 157.278,91.696 233.097,210.24 305.938,183.059 306.044,183.065 370.966,186.957 540.528,114.221 
	540.752,114.364 730.776,236.472 813.072,111.837 845.26,122.185 844.953,123.137 813.488,113.021 "/>
<linearGradient id="SVGID_125_" gradientUnits="userSpaceOnUse" x1="422.6372" y1="-7.7842" x2="422.6372" y2="314.7036">
	<stop  offset="0" style="stop-color:#000000;stop-opacity:0"/>
	<stop  offset="1" style="stop-color:#000000"/>
</linearGradient>
<polygon fill="url(#SVGID_125_)" points="732.205,235.676 541.174,108.949 371.043,184.071 370.922,184.063 305.502,180.038 
	231.685,208.375 231.468,208.019 157.059,85.55 71.071,162.938 70.821,162.885 0.011,147.764 0.22,146.786 70.781,161.854 
	157.287,84 157.6,84.515 232.106,207.143 305.347,179.026 305.455,179.033 370.862,183.058 541.271,107.813 541.499,107.964 
	731.904,234.275 812.87,105.346 845.264,116.054 844.949,117.003 813.3,106.541 "/>
<linearGradient id="SVGID_126_" gradientUnits="userSpaceOnUse" x1="422.6333" y1="-7.7842" x2="422.6333" y2="314.7036">
	<stop  offset="0" style="stop-color:#000000;stop-opacity:0"/>
	<stop  offset="1" style="stop-color:#000000"/>
</linearGradient>
<polygon fill="url(#SVGID_126_)" points="733.343,233.505 732.904,233.205 541.912,102.549 370.943,180.174 304.915,176.005 
	230.681,205.29 230.465,204.917 157.37,78.377 71.553,158.337 71.297,158.28 0,142.655 0.214,141.678 71.255,157.247 157.607,76.79 
	231.115,204.044 304.755,174.993 304.866,175 370.757,179.16 542.012,101.406 542.244,101.565 733.03,232.079 812.67,98.854 
	845.268,109.922 844.945,110.87 813.113,100.062 "/>
</svg>
