<?xml version="1.0" encoding="utf-8"?>
<!-- Generator: Adobe Illustrator 15.0.0, SVG Export Plug-In  -->
<!DOCTYPE svg PUBLIC "-//W3C//DTD SVG 1.1//EN" "http://www.w3.org/Graphics/SVG/1.1/DTD/svg11.dtd" [
	<!ENTITY ns_flows "http://ns.adobe.com/Flows/1.0/">
]>
<svg version="1.1"
	 xmlns="http://www.w3.org/2000/svg" xmlns:xlink="http://www.w3.org/1999/xlink" xmlns:a="http://ns.adobe.com/AdobeSVGViewerExtensions/3.0/"
	 x="0px" y="0px" width="679px" height="471px" viewBox="-0.3 -0.4 679 471"
	 overflow="visible" enable-background="new -0.3 -0.4 679 471" xml:space="preserve">
<defs>
</defs>
<linearGradient id="SVGID_1_" gradientUnits="userSpaceOnUse" x1="229" y1="-35.0444" x2="580.333" y2="-35.0444" gradientTransform="matrix(1 0 0 -1 -197 300.6221)">
	<stop  offset="0" style="stop-color:#FFFFFF;stop-opacity:0"/>
	<stop  offset="1" style="stop-color:#FFFFFF"/>
</linearGradient>
<polygon fill="url(#SVGID_1_)" points="32,358.7 122.7,285.7 383.3,385.7 "/>
<linearGradient id="SVGID_2_" gradientUnits="userSpaceOnUse" x1="443.667" y1="154.2891" x2="659.667" y2="154.2891" gradientTransform="matrix(1 0 0 -1 -197 300.6221)">
	<stop  offset="0" style="stop-color:#FFFFFF;stop-opacity:0"/>
	<stop  offset="1" style="stop-color:#FFFFFF"/>
</linearGradient>
<polygon fill="url(#SVGID_2_)" points="246.7,208.7 462.7,90 416,84 "/>
<linearGradient id="SVGID_3_" gradientUnits="userSpaceOnUse" x1="770.3398" y1="44.2188" x2="769.0059" y2="-13.1142" gradientTransform="matrix(1 0 0 -1 -197 300.6221)">
	<stop  offset="0" style="stop-color:#FFFFFF;stop-opacity:0"/>
	<stop  offset="1" style="stop-color:#FFFFFF"/>
</linearGradient>
<polygon fill="url(#SVGID_3_)" points="534,306 610.7,293.3 599.3,254.7 "/>
<linearGradient id="SVGID_4_" gradientUnits="userSpaceOnUse" x1="351" y1="-121.4746" x2="580.333" y2="-121.4746" gradientTransform="matrix(1 0 0 -1 -197 300.6221)">
	<stop  offset="0" style="stop-color:#FFFFFF;stop-opacity:0"/>
	<stop  offset="1" style="stop-color:#FFFFFF"/>
</linearGradient>
<polygon fill="url(#SVGID_4_)" points="225.4,373.5 154,470.7 383.3,385.7 "/>
<linearGradient id="SVGID_5_" gradientUnits="userSpaceOnUse" x1="229" y1="-21.5444" x2="319.667" y2="-21.5444" gradientTransform="matrix(1 0 0 -1 -197 300.6221)">
	<stop  offset="0" style="stop-color:#FFFFFF;stop-opacity:0"/>
	<stop  offset="1" style="stop-color:#FFFFFF"/>
</linearGradient>
<polygon fill="url(#SVGID_5_)" points="32,358.7 47.3,306 122.7,285.7 "/>
<linearGradient id="SVGID_6_" gradientUnits="userSpaceOnUse" x1="533.8604" y1="229.4897" x2="625" y2="229.4897" gradientTransform="matrix(1 0 0 -1 -197 300.6221)">
	<stop  offset="0" style="stop-color:#FFFFFF;stop-opacity:0"/>
	<stop  offset="1" style="stop-color:#FFFFFF"/>
</linearGradient>
<polygon fill="url(#SVGID_6_)" points="416,84 428,0 336.9,142.3 "/>
<linearGradient id="SVGID_7_" gradientUnits="userSpaceOnUse" x1="637.4775" y1="237.9546" x2="628.1436" y2="166.6223" gradientTransform="matrix(1 0 0 -1 -197 300.6221)">
	<stop  offset="0" style="stop-color:#FFFFFF;stop-opacity:0"/>
	<stop  offset="1" style="stop-color:#FFFFFF"/>
</linearGradient>
<polygon fill="url(#SVGID_7_)" points="462.7,90 478.7,121.3 385.5,132.4 "/>
<linearGradient id="SVGID_8_" gradientUnits="userSpaceOnUse" x1="485.333" y1="116.9497" x2="534" y2="-9.7168" gradientTransform="matrix(1 0 0 -1 -197 300.6221)">
	<stop  offset="0" style="stop-color:#FFFFFF;stop-opacity:0"/>
	<stop  offset="1" style="stop-color:#FFFFFF"/>
</linearGradient>
<polygon fill="url(#SVGID_8_)" points="246.7,208.7 331.3,309.3 331.3,162.2 "/>
<linearGradient id="SVGID_9_" gradientUnits="userSpaceOnUse" x1="581.9209" y1="48.563" x2="557.2552" y2="-36.7696" gradientTransform="matrix(1 0 0 -1 -197 300.6221)">
	<stop  offset="0" style="stop-color:#FFFFFF;stop-opacity:0"/>
	<stop  offset="1" style="stop-color:#FFFFFF"/>
</linearGradient>
<polygon fill="url(#SVGID_9_)" points="383.3,385.7 331.3,309.3 382.4,290.7 "/>
<linearGradient id="SVGID_10_" gradientUnits="userSpaceOnUse" x1="731" y1="-28.0435" x2="875.667" y2="-28.0435" gradientTransform="matrix(1 0 0 -1 -197 300.6221)">
	<stop  offset="0" style="stop-color:#FFFFFF;stop-opacity:0"/>
	<stop  offset="1" style="stop-color:#FFFFFF"/>
</linearGradient>
<polygon fill="url(#SVGID_10_)" points="534,306 610.7,293.3 678.7,364 "/>
<linearGradient id="SVGID_11_" gradientUnits="userSpaceOnUse" x1="197" y1="20.2886" x2="319.667" y2="20.2886" gradientTransform="matrix(1 0 0 -1 -197 300.6221)">
	<stop  offset="0" style="stop-color:#FFFFFF;stop-opacity:0"/>
	<stop  offset="1" style="stop-color:#FFFFFF"/>
</linearGradient>
<polygon fill="url(#SVGID_11_)" points="122.7,285.7 47.3,306 0,254.7 "/>
<linearGradient id="SVGID_12_" gradientUnits="userSpaceOnUse" x1="567.0205" y1="-128.2593" x2="538.3536" y2="-42.2593" gradientTransform="matrix(1 0 0 -1 -197 300.6221)">
	<stop  offset="0" style="stop-color:#FFFFFF;stop-opacity:0"/>
	<stop  offset="1" style="stop-color:#FFFFFF"/>
</linearGradient>
<polygon fill="url(#SVGID_12_)" points="331.3,309.3 319.8,361.3 383.3,385.7 "/>
<linearGradient id="SVGID_13_" gradientUnits="userSpaceOnUse" x1="561.0645" y1="89.4883" x2="513.7307" y2="-11.1778" gradientTransform="matrix(1 0 0 -1 -197 300.6221)">
	<stop  offset="0" style="stop-color:#FFFFFF;stop-opacity:0"/>
	<stop  offset="1" style="stop-color:#FFFFFF"/>
</linearGradient>
<polygon fill="url(#SVGID_13_)" points="331.3,162.2 382.4,290.7 331.3,309.3 "/>
<linearGradient id="SVGID_14_" gradientUnits="userSpaceOnUse" x1="480.8467" y1="-34.6841" x2="528.333" y2="-34.6841" gradientTransform="matrix(1 0 0 -1 -197 300.6221)">
	<stop  offset="0" style="stop-color:#FFFFFF;stop-opacity:0"/>
	<stop  offset="1" style="stop-color:#FFFFFF"/>
</linearGradient>
<polygon fill="url(#SVGID_14_)" points="319.8,361.3 283.8,347.5 331.3,309.3 "/>
<linearGradient id="SVGID_15_" gradientUnits="userSpaceOnUse" x1="449.0615" y1="-27.7935" x2="528.333" y2="-27.7935" gradientTransform="matrix(1 0 0 -1 -197 300.6221)">
	<stop  offset="0" style="stop-color:#FFFFFF;stop-opacity:0"/>
	<stop  offset="1" style="stop-color:#FFFFFF"/>
</linearGradient>
<polygon fill="url(#SVGID_15_)" points="252.1,335.3 331.3,309.3 283.8,347.5 "/>
<linearGradient id="SVGID_16_" gradientUnits="userSpaceOnUse" x1="359.2422" y1="-7.4907" x2="528.5752" y2="-23.4907" gradientTransform="matrix(1 0 0 -1 -197 300.6221)">
	<stop  offset="0" style="stop-color:#FFFFFF;stop-opacity:0"/>
	<stop  offset="1" style="stop-color:#FFFFFF"/>
</linearGradient>
<polygon fill="url(#SVGID_16_)" points="122.7,285.7 331.3,309.3 252.1,335.3 "/>
<linearGradient id="SVGID_17_" gradientUnits="userSpaceOnUse" x1="642.5254" y1="79.5195" x2="639.8583" y2="-15.1476" gradientTransform="matrix(1 0 0 -1 -197 300.6221)">
	<stop  offset="0" style="stop-color:#FFFFFF;stop-opacity:0"/>
	<stop  offset="1" style="stop-color:#FFFFFF"/>
</linearGradient>
<polygon fill="url(#SVGID_17_)" points="382.4,290.7 534,306 354.7,220.8 "/>
<linearGradient id="SVGID_18_" gradientUnits="userSpaceOnUse" x1="518.1621" y1="134.1553" x2="588.8276" y2="119.4891" gradientTransform="matrix(1 0 0 -1 -197 300.6221)">
	<stop  offset="0" style="stop-color:#FFFFFF;stop-opacity:0"/>
	<stop  offset="1" style="stop-color:#FFFFFF"/>
</linearGradient>
<polygon fill="url(#SVGID_18_)" points="385.5,132.4 354.7,220.8 331.3,162.2 "/>
<linearGradient id="SVGID_19_" gradientUnits="userSpaceOnUse" x1="625.0684" y1="-117.4292" x2="577.7354" y2="-24.0962" gradientTransform="matrix(1 0 0 -1 -197 300.6221)">
	<stop  offset="0" style="stop-color:#FFFFFF;stop-opacity:0"/>
	<stop  offset="1" style="stop-color:#FFFFFF"/>
</linearGradient>
<polygon fill="url(#SVGID_19_)" points="383.3,385.7 478.7,462 382.4,290.7 "/>
<linearGradient id="SVGID_20_" gradientUnits="userSpaceOnUse" x1="579.4307" y1="-21.0444" x2="731" y2="-21.0444" gradientTransform="matrix(1 0 0 -1 -197 300.6221)">
	<stop  offset="0" style="stop-color:#FFFFFF;stop-opacity:0"/>
	<stop  offset="1" style="stop-color:#FFFFFF"/>
</linearGradient>
<polygon fill="url(#SVGID_20_)" points="534,306 382.4,290.7 478.7,352.7 "/>
<linearGradient id="SVGID_21_" gradientUnits="userSpaceOnUse" x1="627.5498" y1="-122.7114" x2="627.5498" y2="-51.3772" gradientTransform="matrix(1 0 0 -1 -197 300.6221)">
	<stop  offset="0" style="stop-color:#FFFFFF;stop-opacity:0"/>
	<stop  offset="1" style="stop-color:#FFFFFF"/>
</linearGradient>
<polygon fill="url(#SVGID_21_)" points="478.7,462 478.7,352.7 382.4,290.7 "/>
<linearGradient id="SVGID_22_" gradientUnits="userSpaceOnUse" x1="675.667" y1="-28.7114" x2="731" y2="-28.7114" gradientTransform="matrix(1 0 0 -1 -197 300.6221)">
	<stop  offset="0" style="stop-color:#FFFFFF;stop-opacity:0"/>
	<stop  offset="1" style="stop-color:#FFFFFF"/>
</linearGradient>
<polygon fill="url(#SVGID_22_)" points="534,306 522.7,347.5 478.7,352.7 "/>
<linearGradient id="SVGID_23_" gradientUnits="userSpaceOnUse" x1="830.127" y1="-44.4512" x2="708.1263" y2="-23.1175" gradientTransform="matrix(1 0 0 -1 -197 300.6221)">
	<stop  offset="0" style="stop-color:#FFFFFF;stop-opacity:0"/>
	<stop  offset="1" style="stop-color:#FFFFFF"/>
</linearGradient>
<polygon fill="url(#SVGID_23_)" points="678.7,364 522.7,347.5 534,306 "/>
<linearGradient id="SVGID_24_" gradientUnits="userSpaceOnUse" x1="197" y1="36.1226" x2="363" y2="36.1226" gradientTransform="matrix(1 0 0 -1 -197 300.6221)">
	<stop  offset="0" style="stop-color:#FFFFFF;stop-opacity:0"/>
	<stop  offset="1" style="stop-color:#FFFFFF"/>
</linearGradient>
<polygon fill="url(#SVGID_24_)" points="0,254.7 166,243.3 122.7,285.7 "/>
<linearGradient id="SVGID_25_" gradientUnits="userSpaceOnUse" x1="466.3125" y1="188.3301" x2="417.646" y2="88.3309" gradientTransform="matrix(1 0 0 -1 -197 300.6221)">
	<stop  offset="0" style="stop-color:#FFFFFF;stop-opacity:0"/>
	<stop  offset="1" style="stop-color:#FFFFFF"/>
</linearGradient>
<polygon fill="url(#SVGID_25_)" points="246.7,208.7 174.7,138 336.9,142.3 "/>
<linearGradient id="SVGID_26_" gradientUnits="userSpaceOnUse" x1="330.1094" y1="-19.9995" x2="341.4423" y2="36.6664" gradientTransform="matrix(1 0 0 -1 -197 300.6221)">
	<stop  offset="0" style="stop-color:#FFFFFF;stop-opacity:0"/>
	<stop  offset="1" style="stop-color:#FFFFFF"/>
</linearGradient>
<polygon fill="url(#SVGID_26_)" points="166,243.3 154,289.2 122.7,285.7 "/>
<linearGradient id="SVGID_27_" gradientUnits="userSpaceOnUse" x1="443.667" y1="41.6226" x2="528.333" y2="41.6226" gradientTransform="matrix(1 0 0 -1 -197 300.6221)">
	<stop  offset="0" style="stop-color:#FFFFFF;stop-opacity:0"/>
	<stop  offset="1" style="stop-color:#FFFFFF"/>
</linearGradient>
<polygon fill="url(#SVGID_27_)" points="331.3,309.3 252.1,282.7 246.7,208.7 "/>
<linearGradient id="SVGID_28_" gradientUnits="userSpaceOnUse" x1="427.2334" y1="37.9951" x2="351.2325" y2="36.6616" gradientTransform="matrix(1 0 0 -1 -197 300.6221)">
	<stop  offset="0" style="stop-color:#FFFFFF;stop-opacity:0"/>
	<stop  offset="1" style="stop-color:#FFFFFF"/>
</linearGradient>
<polygon fill="url(#SVGID_28_)" points="166,243.3 252.1,282.7 249.4,245.9 "/>
<linearGradient id="SVGID_29_" gradientUnits="userSpaceOnUse" x1="449.667" y1="73.3154" x2="344.9469" y2="73.3154" gradientTransform="matrix(1 0 0 -1 -197 300.6221)">
	<stop  offset="0" style="stop-color:#FFFFFF;stop-opacity:0"/>
	<stop  offset="1" style="stop-color:#FFFFFF"/>
</linearGradient>
<polygon fill="url(#SVGID_29_)" points="246.7,208.7 166,243.3 249.4,245.9 "/>
<linearGradient id="SVGID_30_" gradientUnits="userSpaceOnUse" x1="390.9688" y1="-11.5679" x2="350.3022" y2="63.1002" gradientTransform="matrix(1 0 0 -1 -197 300.6221)">
	<stop  offset="0" style="stop-color:#FFFFFF;stop-opacity:0"/>
	<stop  offset="1" style="stop-color:#FFFFFF"/>
</linearGradient>
<polygon fill="url(#SVGID_30_)" points="154,289.2 166,243.3 212.5,295.9 "/>
<linearGradient id="SVGID_31_" gradientUnits="userSpaceOnUse" x1="409.5322" y1="4.6226" x2="528.333" y2="4.6226" gradientTransform="matrix(1 0 0 -1 -197 300.6221)">
	<stop  offset="0" style="stop-color:#FFFFFF;stop-opacity:0"/>
	<stop  offset="1" style="stop-color:#FFFFFF"/>
</linearGradient>
<polygon fill="url(#SVGID_31_)" points="252.1,282.7 212.5,295.9 331.3,309.3 "/>
<linearGradient id="SVGID_32_" gradientUnits="userSpaceOnUse" x1="449.667" y1="31.0269" x2="344.9469" y2="31.0268" gradientTransform="matrix(1 0 0 -1 -197 300.6221)">
	<stop  offset="0" style="stop-color:#FFFFFF;stop-opacity:0"/>
	<stop  offset="1" style="stop-color:#FFFFFF"/>
</linearGradient>
<polygon fill="url(#SVGID_32_)" points="166,243.3 212.5,295.9 252.1,282.7 "/>
<linearGradient id="SVGID_33_" gradientUnits="userSpaceOnUse" x1="445.4014" y1="96.4995" x2="342.7353" y2="115.1665" gradientTransform="matrix(1 0 0 -1 -197 300.6221)">
	<stop  offset="0" style="stop-color:#FFFFFF;stop-opacity:0"/>
	<stop  offset="1" style="stop-color:#FFFFFF"/>
</linearGradient>
<polygon fill="url(#SVGID_33_)" points="174.7,138 168.4,242.3 246.7,208.7 "/>
<linearGradient id="SVGID_34_" gradientUnits="userSpaceOnUse" x1="486" y1="229.4897" x2="625" y2="229.4897" gradientTransform="matrix(1 0 0 -1 -197 300.6221)">
	<stop  offset="0" style="stop-color:#FFFFFF;stop-opacity:0"/>
	<stop  offset="1" style="stop-color:#FFFFFF"/>
</linearGradient>
<polygon fill="url(#SVGID_34_)" points="428,0 289,141 336.9,142.3 "/>
<linearGradient id="SVGID_35_" gradientUnits="userSpaceOnUse" x1="418.4492" y1="188.7539" x2="519.1171" y2="188.0869" gradientTransform="matrix(1 0 0 -1 -197 300.6221)">
	<stop  offset="0" style="stop-color:#FFFFFF;stop-opacity:0"/>
	<stop  offset="1" style="stop-color:#FFFFFF"/>
</linearGradient>
<polygon fill="url(#SVGID_35_)" points="227,139.4 345.2,84 289,141 "/>
<linearGradient id="SVGID_36_" gradientUnits="userSpaceOnUse" x1="565.9902" y1="65.4907" x2="583.9899" y2="155.489" gradientTransform="matrix(1 0 0 -1 -197 300.6221)">
	<stop  offset="0" style="stop-color:#FFFFFF;stop-opacity:0"/>
	<stop  offset="1" style="stop-color:#FFFFFF"/>
</linearGradient>
<polygon fill="url(#SVGID_36_)" points="385.5,132.4 386.1,235.7 354.7,220.8 "/>
<linearGradient id="SVGID_37_" gradientUnits="userSpaceOnUse" x1="804.0049" y1="33.147" x2="722.0048" y2="38.4805" gradientTransform="matrix(1 0 0 -1 -197 300.6221)">
	<stop  offset="0" style="stop-color:#FFFFFF;stop-opacity:0"/>
	<stop  offset="1" style="stop-color:#FFFFFF"/>
</linearGradient>
<polygon fill="url(#SVGID_37_)" points="599.3,254.7 555.3,220.8 534,306 "/>
<linearGradient id="SVGID_38_" gradientUnits="userSpaceOnUse" x1="583.0518" y1="37.2026" x2="731" y2="37.2026" gradientTransform="matrix(1 0 0 -1 -197 300.6221)">
	<stop  offset="0" style="stop-color:#FFFFFF;stop-opacity:0"/>
	<stop  offset="1" style="stop-color:#FFFFFF"/>
</linearGradient>
<polygon fill="url(#SVGID_38_)" points="386.1,235.7 462.7,220.8 534,306 "/>
<linearGradient id="SVGID_39_" gradientUnits="userSpaceOnUse" x1="619.3711" y1="46.6011" x2="601.3713" y2="165.2669" gradientTransform="matrix(1 0 0 -1 -197 300.6221)">
	<stop  offset="0" style="stop-color:#FFFFFF;stop-opacity:0"/>
	<stop  offset="1" style="stop-color:#FFFFFF"/>
</linearGradient>
<polygon fill="url(#SVGID_39_)" points="436.5,126.3 386.1,235.7 385.5,132.4 "/>
<linearGradient id="SVGID_40_" gradientUnits="userSpaceOnUse" x1="636.2881" y1="110.7593" x2="601.6216" y2="167.4249" gradientTransform="matrix(1 0 0 -1 -197 300.6221)">
	<stop  offset="0" style="stop-color:#FFFFFF;stop-opacity:0"/>
	<stop  offset="1" style="stop-color:#FFFFFF"/>
</linearGradient>
<polygon fill="url(#SVGID_40_)" points="478.7,121.3 386.1,235.7 436.5,126.3 "/>
<linearGradient id="SVGID_41_" gradientUnits="userSpaceOnUse" x1="626.873" y1="124.9268" x2="668.8724" y2="76.9276" gradientTransform="matrix(1 0 0 -1 -197 300.6221)">
	<stop  offset="0" style="stop-color:#FFFFFF;stop-opacity:0"/>
	<stop  offset="1" style="stop-color:#FFFFFF"/>
</linearGradient>
<polygon fill="url(#SVGID_41_)" points="462.7,220.8 478.7,121.3 386.1,235.7 "/>
<linearGradient id="SVGID_42_" gradientUnits="userSpaceOnUse" x1="704.4541" y1="50.8628" x2="757.1201" y2="31.5293" gradientTransform="matrix(1 0 0 -1 -197 300.6221)">
	<stop  offset="0" style="stop-color:#FFFFFF;stop-opacity:0"/>
	<stop  offset="1" style="stop-color:#FFFFFF"/>
</linearGradient>
<polygon fill="url(#SVGID_42_)" points="555.3,220.8 517.3,235.7 534,306 "/>
<linearGradient id="SVGID_43_" gradientUnits="userSpaceOnUse" x1="721.959" y1="89.0513" x2="683.9578" y2="15.049" gradientTransform="matrix(1 0 0 -1 -197 300.6221)">
	<stop  offset="0" style="stop-color:#FFFFFF;stop-opacity:0"/>
	<stop  offset="1" style="stop-color:#FFFFFF"/>
</linearGradient>
<polygon fill="url(#SVGID_43_)" points="462.7,220.8 517.3,235.7 534,306 "/>
<linearGradient id="SVGID_44_" gradientUnits="userSpaceOnUse" x1="329.5303" y1="308.6665" x2="332.8618" y2="308.6665">
	<stop  offset="0" style="stop-color:#FFFFFF;stop-opacity:0"/>
	<stop  offset="1" style="stop-color:#FFFFFF"/>
</linearGradient>
<circle fill="url(#SVGID_44_)" cx="331.2" cy="308.7" r="1.7"/>
<linearGradient id="SVGID_45_" gradientUnits="userSpaceOnUse" x1="245.001" y1="207" x2="248.333" y2="207">
	<stop  offset="0" style="stop-color:#FFFFFF;stop-opacity:0"/>
	<stop  offset="1" style="stop-color:#FFFFFF"/>
</linearGradient>
<circle fill="url(#SVGID_45_)" cx="246.7" cy="207" r="1.7"/>
<linearGradient id="SVGID_46_" gradientUnits="userSpaceOnUse" x1="353.001" y1="220.8389" x2="356.333" y2="220.8389">
	<stop  offset="0" style="stop-color:#FFFFFF;stop-opacity:0"/>
	<stop  offset="1" style="stop-color:#FFFFFF"/>
</linearGradient>
<circle fill="url(#SVGID_46_)" cx="354.7" cy="220.8" r="1.7"/>
<linearGradient id="SVGID_47_" gradientUnits="userSpaceOnUse" x1="384.3857" y1="235.7427" x2="387.7178" y2="235.7427">
	<stop  offset="0" style="stop-color:#FFFFFF;stop-opacity:0"/>
	<stop  offset="1" style="stop-color:#FFFFFF"/>
</linearGradient>
<circle fill="url(#SVGID_47_)" cx="386.1" cy="235.7" r="1.7"/>
<linearGradient id="SVGID_48_" gradientUnits="userSpaceOnUse" x1="248.7192" y1="282.4087" x2="252.0508" y2="282.4087">
	<stop  offset="0" style="stop-color:#FFFFFF;stop-opacity:0"/>
	<stop  offset="1" style="stop-color:#FFFFFF"/>
</linearGradient>
<circle fill="url(#SVGID_48_)" cx="250.4" cy="282.4" r="1.7"/>
<linearGradient id="SVGID_49_" gradientUnits="userSpaceOnUse" x1="165.748" y1="243.2954" x2="169.0801" y2="243.2954">
	<stop  offset="0" style="stop-color:#FFFFFF;stop-opacity:0"/>
	<stop  offset="1" style="stop-color:#FFFFFF"/>
</linearGradient>
<circle fill="url(#SVGID_49_)" cx="167.4" cy="243.3" r="1.7"/>
<linearGradient id="SVGID_50_" gradientUnits="userSpaceOnUse" x1="532.334" y1="306.0005" x2="535.666" y2="306.0005">
	<stop  offset="0" style="stop-color:#FFFFFF;stop-opacity:0"/>
	<stop  offset="1" style="stop-color:#FFFFFF"/>
</linearGradient>
<circle fill="url(#SVGID_50_)" cx="534" cy="306" r="1.7"/>
<linearGradient id="SVGID_51_" gradientUnits="userSpaceOnUse" x1="120.335" y1="284.6665" x2="123.667" y2="284.6665">
	<stop  offset="0" style="stop-color:#FFFFFF;stop-opacity:0"/>
	<stop  offset="1" style="stop-color:#FFFFFF"/>
</linearGradient>
<circle fill="url(#SVGID_51_)" cx="122" cy="284.7" r="1.7"/>
<linearGradient id="SVGID_52_" gradientUnits="userSpaceOnUse" x1="380.7646" y1="385.6665" x2="384.0967" y2="385.6665">
	<stop  offset="0" style="stop-color:#FFFFFF;stop-opacity:0"/>
	<stop  offset="1" style="stop-color:#FFFFFF"/>
</linearGradient>
<circle fill="url(#SVGID_52_)" cx="382.4" cy="385.7" r="1.7"/>
<linearGradient id="SVGID_53_" gradientUnits="userSpaceOnUse" x1="461.001" y1="220.8389" x2="464.333" y2="220.8389">
	<stop  offset="0" style="stop-color:#FFFFFF;stop-opacity:0"/>
	<stop  offset="1" style="stop-color:#FFFFFF"/>
</linearGradient>
<circle fill="url(#SVGID_53_)" cx="462.7" cy="220.8" r="1.7"/>
<linearGradient id="SVGID_54_" gradientUnits="userSpaceOnUse" x1="381.667" y1="290.2202" x2="384.999" y2="290.2202">
	<stop  offset="0" style="stop-color:#FFFFFF;stop-opacity:0"/>
	<stop  offset="1" style="stop-color:#FFFFFF"/>
</linearGradient>
<circle fill="url(#SVGID_54_)" cx="383.3" cy="290.2" r="1.7"/>
<linearGradient id="SVGID_55_" gradientUnits="userSpaceOnUse" x1="384.0518" y1="133.4009" x2="387.3838" y2="133.4009">
	<stop  offset="0" style="stop-color:#FFFFFF;stop-opacity:0"/>
	<stop  offset="1" style="stop-color:#FFFFFF"/>
</linearGradient>
<circle fill="url(#SVGID_55_)" cx="385.7" cy="133.4" r="1.7"/>
<linearGradient id="SVGID_56_" gradientUnits="userSpaceOnUse" x1="414.0186" y1="83.334" x2="417.3506" y2="83.334">
	<stop  offset="0" style="stop-color:#FFFFFF;stop-opacity:0"/>
	<stop  offset="1" style="stop-color:#FFFFFF"/>
</linearGradient>
<circle fill="url(#SVGID_56_)" cx="415.7" cy="83.3" r="1.7"/>
<linearGradient id="SVGID_57_" gradientUnits="userSpaceOnUse" x1="477.001" y1="352.6665" x2="480.333" y2="352.6665">
	<stop  offset="0" style="stop-color:#FFFFFF;stop-opacity:0"/>
	<stop  offset="1" style="stop-color:#FFFFFF"/>
</linearGradient>
<circle fill="url(#SVGID_57_)" cx="478.7" cy="352.7" r="1.7"/>
</svg>
