<?xml version="1.0" encoding="utf-8"?>
<!-- Generator: Adobe Illustrator 15.0.0, SVG Export Plug-In  -->
<!DOCTYPE svg PUBLIC "-//W3C//DTD SVG 1.1//EN" "http://www.w3.org/Graphics/SVG/1.1/DTD/svg11.dtd" [
	<!ENTITY ns_flows "http://ns.adobe.com/Flows/1.0/">
]>
<svg version="1.1"
	 xmlns="http://www.w3.org/2000/svg" xmlns:xlink="http://www.w3.org/1999/xlink" xmlns:a="http://ns.adobe.com/AdobeSVGViewerExtensions/3.0/"
	 x="0px" y="0px" width="678px" height="470px" viewBox="0.667 0.667 678 470"
	 overflow="visible" enable-background="new 0.667 0.667 678 470" xml:space="preserve">
<defs>
</defs>
<path fill="#FFFFFF" d="M345.194,84L226.26,139.568L174.667,138l-6.234,103.986c-0.282-0.22-0.633-0.356-1.019-0.356
	c-0.92,0-1.666,0.746-1.666,1.666c0,0.019,0.005,0.035,0.005,0.054L0,254.667L47.333,306L32,358.667l193.369,14.86L154,470.667
	l227.011-84.14c0.292,0.481,0.816,0.806,1.42,0.806c0.731,0,1.347-0.476,1.57-1.131l94.666,75.797V354.333
	c0.92,0,1.666-0.746,1.666-1.666c0-0.066-0.012-0.129-0.02-0.193l42.354-4.975l156,16.5l-68-70.666l-11.334-38.666l-44-33.828
	l-38,14.904l-53.065-14.467c0.038-0.14,0.065-0.285,0.065-0.437c0-0.83-0.608-1.512-1.402-1.639l15.736-97.867l-16-31.333L416,84
	l12-84"/>
<linearGradient id="SVGID_1_" gradientUnits="userSpaceOnUse" x1="229" y1="-32.8335" x2="580.333" y2="-32.8335" gradientTransform="matrix(1 0 0 -1 -197 302.833)">
	<stop  offset="0" style="stop-color:#FFFEF5"/>
	<stop  offset="1" style="stop-color:#E6E5E3"/>
</linearGradient>
<polygon fill="url(#SVGID_1_)" points="32,358.667 122.667,285.667 383.333,385.667 "/>
<linearGradient id="SVGID_2_" gradientUnits="userSpaceOnUse" x1="443.667" y1="156.5" x2="659.667" y2="156.5" gradientTransform="matrix(1 0 0 -1 -197 302.833)">
	<stop  offset="0" style="stop-color:#FFFEF5"/>
	<stop  offset="1" style="stop-color:#E6E5E3"/>
</linearGradient>
<polygon fill="url(#SVGID_2_)" points="246.667,208.666 462.667,90 416,84 "/>
<linearGradient id="SVGID_3_" gradientUnits="userSpaceOnUse" x1="770.3408" y1="46.4282" x2="769.0069" y2="-10.9032" gradientTransform="matrix(1 0 0 -1 -197 302.833)">
	<stop  offset="0" style="stop-color:#E7E6E3"/>
	<stop  offset="1" style="stop-color:#F7F4EC"/>
</linearGradient>
<polygon fill="url(#SVGID_3_)" points="534,306 610.667,293.333 599.333,254.667 "/>
<linearGradient id="SVGID_4_" gradientUnits="userSpaceOnUse" x1="351" y1="-119.2637" x2="580.333" y2="-119.2637" gradientTransform="matrix(1 0 0 -1 -197 302.833)">
	<stop  offset="0" style="stop-color:#FEFEF7"/>
	<stop  offset="1" style="stop-color:#F4F4ED"/>
</linearGradient>
<polygon fill="url(#SVGID_4_)" points="225.369,373.527 154,470.667 383.333,385.667 "/>
<linearGradient id="SVGID_5_" gradientUnits="userSpaceOnUse" x1="229" y1="-19.3335" x2="319.667" y2="-19.3335" gradientTransform="matrix(1 0 0 -1 -197 302.833)">
	<stop  offset="0" style="stop-color:#BAB7BD"/>
	<stop  offset="1" style="stop-color:#EEEDE9"/>
</linearGradient>
<polygon fill="url(#SVGID_5_)" points="32,358.667 47.333,306 122.667,285.667 "/>
<linearGradient id="SVGID_6_" gradientUnits="userSpaceOnUse" x1="533.8604" y1="231.7007" x2="625" y2="231.7007" gradientTransform="matrix(1 0 0 -1 -197 302.833)">
	<stop  offset="0" style="stop-color:#BAB7BD"/>
	<stop  offset="1" style="stop-color:#EEEDE9"/>
</linearGradient>
<polygon fill="url(#SVGID_6_)" points="416,84 428,0 336.861,142.264 "/>
<linearGradient id="SVGID_7_" gradientUnits="userSpaceOnUse" x1="637.4775" y1="240.1655" x2="628.1434" y2="168.8319" gradientTransform="matrix(1 0 0 -1 -197 302.833)">
	<stop  offset="0" style="stop-color:#E7E6E3"/>
	<stop  offset="1" style="stop-color:#F7F4EC"/>
</linearGradient>
<polygon fill="url(#SVGID_7_)" points="462.667,90 478.667,121.333 385.487,132.401 "/>
<linearGradient id="SVGID_8_" gradientUnits="userSpaceOnUse" x1="485.334" y1="119.1606" x2="534.001" y2="-7.5058" gradientTransform="matrix(1 0 0 -1 -197 302.833)">
	<stop  offset="0" style="stop-color:#FFFEF5"/>
	<stop  offset="1" style="stop-color:#E6E5E3"/>
</linearGradient>
<polygon fill="url(#SVGID_8_)" points="246.667,208.666 331.333,309.333 331.333,162.152 "/>
<linearGradient id="SVGID_9_" gradientUnits="userSpaceOnUse" x1="581.9209" y1="50.7744" x2="557.2552" y2="-34.5582" gradientTransform="matrix(1 0 0 -1 -197 302.833)">
	<stop  offset="0" style="stop-color:#FFFEF5"/>
	<stop  offset="1" style="stop-color:#E6E5E3"/>
</linearGradient>
<polygon fill="url(#SVGID_9_)" points="383.333,385.667 331.333,309.333 382.431,290.667 "/>
<linearGradient id="SVGID_10_" gradientUnits="userSpaceOnUse" x1="731" y1="-25.8325" x2="875.667" y2="-25.8325" gradientTransform="matrix(1 0 0 -1 -197 302.833)">
	<stop  offset="0" style="stop-color:#FFFEF5"/>
	<stop  offset="1" style="stop-color:#E6E5E3"/>
</linearGradient>
<polygon fill="url(#SVGID_10_)" points="534,306 610.667,293.333 678.667,363.999 "/>
<linearGradient id="SVGID_11_" gradientUnits="userSpaceOnUse" x1="197" y1="22.4995" x2="319.667" y2="22.4995" gradientTransform="matrix(1 0 0 -1 -197 302.833)">
	<stop  offset="0" style="stop-color:#B8B9B5"/>
	<stop  offset="1" style="stop-color:#EEEEEB"/>
</linearGradient>
<polygon fill="url(#SVGID_11_)" points="122.667,285.667 47.333,306 0,254.667 "/>
<linearGradient id="SVGID_12_" gradientUnits="userSpaceOnUse" x1="567.0195" y1="-126.0493" x2="538.3527" y2="-40.0493" gradientTransform="matrix(1 0 0 -1 -197 302.833)">
	<stop  offset="0" style="stop-color:#B8B9B5"/>
	<stop  offset="1" style="stop-color:#EEEEEB"/>
</linearGradient>
<polygon fill="url(#SVGID_12_)" points="331.333,309.333 319.765,361.28 383.333,385.667 "/>
<linearGradient id="SVGID_13_" gradientUnits="userSpaceOnUse" x1="561.0645" y1="91.6992" x2="513.7307" y2="-8.9669" gradientTransform="matrix(1 0 0 -1 -197 302.833)">
	<stop  offset="0" style="stop-color:#FEFEF7"/>
	<stop  offset="1" style="stop-color:#F4F4ED"/>
</linearGradient>
<polygon fill="url(#SVGID_13_)" points="331.333,162.152 382.431,290.667 331.333,309.333 "/>
<linearGradient id="SVGID_14_" gradientUnits="userSpaceOnUse" x1="480.8467" y1="-32.4731" x2="528.333" y2="-32.4731" gradientTransform="matrix(1 0 0 -1 -197 302.833)">
	<stop  offset="0" style="stop-color:#BAB7BD"/>
	<stop  offset="1" style="stop-color:#EEEDE9"/>
</linearGradient>
<polygon fill="url(#SVGID_14_)" points="319.765,361.28 283.846,347.499 331.333,309.333 "/>
<linearGradient id="SVGID_15_" gradientUnits="userSpaceOnUse" x1="449.0615" y1="-25.5825" x2="528.333" y2="-25.5825" gradientTransform="matrix(1 0 0 -1 -197 302.833)">
	<stop  offset="0" style="stop-color:#E5E5E2"/>
	<stop  offset="1" style="stop-color:#FEFCF4"/>
</linearGradient>
<polygon fill="url(#SVGID_15_)" points="252.062,335.306 331.333,309.333 283.846,347.499 "/>
<linearGradient id="SVGID_16_" gradientUnits="userSpaceOnUse" x1="359.2422" y1="-5.2808" x2="528.5752" y2="-21.2807" gradientTransform="matrix(1 0 0 -1 -197 302.833)">
	<stop  offset="0" style="stop-color:#E7E6E3"/>
	<stop  offset="1" style="stop-color:#F7F4EC"/>
</linearGradient>
<polygon fill="url(#SVGID_16_)" points="122.667,285.667 331.333,309.333 252.062,335.306 "/>
<linearGradient id="SVGID_17_" gradientUnits="userSpaceOnUse" x1="642.5264" y1="81.73" x2="639.8593" y2="-12.9377" gradientTransform="matrix(1 0 0 -1 -197 302.833)">
	<stop  offset="0" style="stop-color:#FCFAF2"/>
	<stop  offset="1" style="stop-color:#E3E1DE"/>
</linearGradient>
<polygon fill="url(#SVGID_17_)" points="382.431,290.667 534,306 354.667,220.839 "/>
<linearGradient id="SVGID_18_" gradientUnits="userSpaceOnUse" x1="518.1631" y1="136.3662" x2="588.8286" y2="121.7" gradientTransform="matrix(1 0 0 -1 -197 302.833)">
	<stop  offset="0" style="stop-color:#B8B9B5"/>
	<stop  offset="1" style="stop-color:#EEEEEB"/>
</linearGradient>
<polygon fill="url(#SVGID_18_)" points="385.487,132.401 354.667,220.839 331.333,162.152 "/>
<linearGradient id="SVGID_19_" gradientUnits="userSpaceOnUse" x1="625.0674" y1="-115.2183" x2="577.7344" y2="-21.8853" gradientTransform="matrix(1 0 0 -1 -197 302.833)">
	<stop  offset="0" style="stop-color:#C5C1BF"/>
	<stop  offset="1" style="stop-color:#F3F2EC"/>
</linearGradient>
<polygon fill="url(#SVGID_19_)" points="383.333,385.667 478.667,461.999 382.431,290.667 "/>
<linearGradient id="SVGID_20_" gradientUnits="userSpaceOnUse" x1="579.4307" y1="-18.8335" x2="731" y2="-18.8335" gradientTransform="matrix(1 0 0 -1 -197 302.833)">
	<stop  offset="0" style="stop-color:#FFFEF5"/>
	<stop  offset="1" style="stop-color:#E6E5E3"/>
</linearGradient>
<polygon fill="url(#SVGID_20_)" points="534,306 382.431,290.667 478.667,352.667 "/>
<linearGradient id="SVGID_21_" gradientUnits="userSpaceOnUse" x1="627.5498" y1="-120.5005" x2="627.5498" y2="-49.1663" gradientTransform="matrix(1 0 0 -1 -197 302.833)">
	<stop  offset="0" style="stop-color:#BAB7BD"/>
	<stop  offset="1" style="stop-color:#EEEDE9"/>
</linearGradient>
<polygon fill="url(#SVGID_21_)" points="478.667,461.999 478.667,352.667 382.431,290.667 "/>
<linearGradient id="SVGID_22_" gradientUnits="userSpaceOnUse" x1="675.667" y1="-26.5005" x2="731" y2="-26.5005" gradientTransform="matrix(1 0 0 -1 -197 302.833)">
	<stop  offset="0" style="stop-color:#FEFEF7"/>
	<stop  offset="1" style="stop-color:#F4F4ED"/>
</linearGradient>
<polygon fill="url(#SVGID_22_)" points="534,306 522.667,347.499 478.667,352.667 "/>
<linearGradient id="SVGID_23_" gradientUnits="userSpaceOnUse" x1="830.127" y1="-42.2397" x2="708.1263" y2="-20.9061" gradientTransform="matrix(1 0 0 -1 -197 302.833)">
	<stop  offset="0" style="stop-color:#B8B9B5"/>
	<stop  offset="1" style="stop-color:#EEEEEB"/>
</linearGradient>
<polygon fill="url(#SVGID_23_)" points="678.667,363.999 522.667,347.499 534,306 "/>
<linearGradient id="SVGID_24_" gradientUnits="userSpaceOnUse" x1="197" y1="38.3335" x2="363" y2="38.3335" gradientTransform="matrix(1 0 0 -1 -197 302.833)">
	<stop  offset="0" style="stop-color:#FFFEF5"/>
	<stop  offset="1" style="stop-color:#E6E5E3"/>
</linearGradient>
<polygon fill="url(#SVGID_24_)" points="0,254.667 166,243.333 122.667,285.667 "/>
<linearGradient id="SVGID_25_" gradientUnits="userSpaceOnUse" x1="466.3135" y1="190.54" x2="417.647" y2="90.5409" gradientTransform="matrix(1 0 0 -1 -197 302.833)">
	<stop  offset="0" style="stop-color:#B8B9B5"/>
	<stop  offset="1" style="stop-color:#EEEEEB"/>
</linearGradient>
<polygon fill="url(#SVGID_25_)" points="246.667,208.666 174.667,138 336.861,142.264 "/>
<linearGradient id="SVGID_26_" gradientUnits="userSpaceOnUse" x1="330.1099" y1="-17.7886" x2="341.4427" y2="38.8773" gradientTransform="matrix(1 0 0 -1 -197 302.833)">
	<stop  offset="0" style="stop-color:#BAB7BD"/>
	<stop  offset="1" style="stop-color:#EEEDE9"/>
</linearGradient>
<polygon fill="url(#SVGID_26_)" points="166,243.333 154,289.22 122.667,285.667 "/>
<linearGradient id="SVGID_27_" gradientUnits="userSpaceOnUse" x1="443.667" y1="43.8335" x2="528.333" y2="43.8335" gradientTransform="matrix(1 0 0 -1 -197 302.833)">
	<stop  offset="0" style="stop-color:#FCFAF2"/>
	<stop  offset="1" style="stop-color:#E3E1DE"/>
</linearGradient>
<polygon fill="url(#SVGID_27_)" points="331.333,309.333 252.062,282.667 246.667,208.666 "/>
<linearGradient id="SVGID_28_" gradientUnits="userSpaceOnUse" x1="427.2334" y1="40.2065" x2="351.2325" y2="38.873" gradientTransform="matrix(1 0 0 -1 -197 302.833)">
	<stop  offset="0" style="stop-color:#E7E6E3"/>
	<stop  offset="1" style="stop-color:#F7F4EC"/>
</linearGradient>
<polygon fill="url(#SVGID_28_)" points="166,243.333 252.062,282.667 249.385,245.948 "/>
<linearGradient id="SVGID_29_" gradientUnits="userSpaceOnUse" x1="449.667" y1="75.5264" x2="344.9469" y2="75.5264" gradientTransform="matrix(1 0 0 -1 -197 302.833)">
	<stop  offset="0" style="stop-color:#FEFEF7"/>
	<stop  offset="1" style="stop-color:#F4F4ED"/>
</linearGradient>
<polygon fill="url(#SVGID_29_)" points="246.667,208.666 166,243.333 249.385,245.948 "/>
<linearGradient id="SVGID_30_" gradientUnits="userSpaceOnUse" x1="390.9688" y1="-9.3569" x2="350.3027" y2="65.3101" gradientTransform="matrix(1 0 0 -1 -197 302.833)">
	<stop  offset="0" style="stop-color:#B8B9B5"/>
	<stop  offset="1" style="stop-color:#EEEEEB"/>
</linearGradient>
<polygon fill="url(#SVGID_30_)" points="154,289.22 166,243.333 212.532,295.859 "/>
<linearGradient id="SVGID_31_" gradientUnits="userSpaceOnUse" x1="409.5322" y1="6.8335" x2="528.333" y2="6.8335" gradientTransform="matrix(1 0 0 -1 -197 302.833)">
	<stop  offset="0" style="stop-color:#FEFEF7"/>
	<stop  offset="1" style="stop-color:#F4F4ED"/>
</linearGradient>
<polygon fill="url(#SVGID_31_)" points="252.062,282.667 212.532,295.859 331.333,309.333 "/>
<linearGradient id="SVGID_32_" gradientUnits="userSpaceOnUse" x1="449.667" y1="33.2378" x2="344.9469" y2="33.2378" gradientTransform="matrix(1 0 0 -1 -197 302.833)">
	<stop  offset="0" style="stop-color:#BAB7BD"/>
	<stop  offset="1" style="stop-color:#EEEDE9"/>
</linearGradient>
<polygon fill="url(#SVGID_32_)" points="166,243.333 212.532,295.859 252.062,282.667 "/>
<linearGradient id="SVGID_33_" gradientUnits="userSpaceOnUse" x1="445.4014" y1="98.7109" x2="342.7353" y2="117.3779" gradientTransform="matrix(1 0 0 -1 -197 302.833)">
	<stop  offset="0" style="stop-color:#FFFEF5"/>
	<stop  offset="1" style="stop-color:#E6E5E3"/>
</linearGradient>
<polygon fill="url(#SVGID_33_)" points="174.667,138 168.414,242.295 246.667,208.666 "/>
<linearGradient id="SVGID_34_" gradientUnits="userSpaceOnUse" x1="486" y1="231.7007" x2="625" y2="231.7007" gradientTransform="matrix(1 0 0 -1 -197 302.833)">
	<stop  offset="0" style="stop-color:#FEFEF7"/>
	<stop  offset="1" style="stop-color:#F4F4ED"/>
</linearGradient>
<polygon fill="url(#SVGID_34_)" points="428,0 289,141.005 336.861,142.264 "/>
<linearGradient id="SVGID_35_" gradientUnits="userSpaceOnUse" x1="418.4482" y1="190.9653" x2="519.1169" y2="190.2983" gradientTransform="matrix(1 0 0 -1 -197 302.833)">
	<stop  offset="0" style="stop-color:#BAB7BD"/>
	<stop  offset="1" style="stop-color:#EEEDE9"/>
</linearGradient>
<polygon fill="url(#SVGID_35_)" points="227,139.375 345.194,84 289,141.005 "/>
<linearGradient id="SVGID_36_" gradientUnits="userSpaceOnUse" x1="565.9912" y1="67.7012" x2="583.991" y2="157.7003" gradientTransform="matrix(1 0 0 -1 -197 302.833)">
	<stop  offset="0" style="stop-color:#ECEBE8"/>
	<stop  offset="1" style="stop-color:#E5E4E0"/>
</linearGradient>
<polygon fill="url(#SVGID_36_)" points="385.487,132.401 386.052,235.743 354.667,220.839 "/>
<linearGradient id="SVGID_37_" gradientUnits="userSpaceOnUse" x1="804.0059" y1="35.3579" x2="722.0058" y2="40.6914" gradientTransform="matrix(1 0 0 -1 -197 302.833)">
	<stop  offset="0" style="stop-color:#B8B9B5"/>
	<stop  offset="1" style="stop-color:#EEEEEB"/>
</linearGradient>
<polygon fill="url(#SVGID_37_)" points="599.333,254.667 555.333,220.839 534,306 "/>
<linearGradient id="SVGID_38_" gradientUnits="userSpaceOnUse" x1="583.0518" y1="39.4136" x2="731" y2="39.4136" gradientTransform="matrix(1 0 0 -1 -197 302.833)">
	<stop  offset="0" style="stop-color:#FEFEF7"/>
	<stop  offset="1" style="stop-color:#F4F4ED"/>
</linearGradient>
<polygon fill="url(#SVGID_38_)" points="386.052,235.743 462.667,220.839 534,306 "/>
<linearGradient id="SVGID_39_" gradientUnits="userSpaceOnUse" x1="619.3711" y1="48.812" x2="601.3715" y2="167.4767" gradientTransform="matrix(1 0 0 -1 -197 302.833)">
	<stop  offset="0" style="stop-color:#FFFEF5"/>
	<stop  offset="1" style="stop-color:#E6E5E3"/>
</linearGradient>
<polygon fill="url(#SVGID_39_)" points="436.549,126.336 386.052,235.743 385.487,132.401 "/>
<linearGradient id="SVGID_40_" gradientUnits="userSpaceOnUse" x1="636.2871" y1="112.9702" x2="601.6206" y2="169.6359" gradientTransform="matrix(1 0 0 -1 -197 302.833)">
	<stop  offset="0" style="stop-color:#BAB7BD"/>
	<stop  offset="1" style="stop-color:#EEEDE9"/>
</linearGradient>
<polygon fill="url(#SVGID_40_)" points="478.667,121.333 386.052,235.743 436.549,126.336 "/>
<linearGradient id="SVGID_41_" gradientUnits="userSpaceOnUse" x1="626.873" y1="127.1372" x2="668.8724" y2="79.138" gradientTransform="matrix(1 0 0 -1 -197 302.833)">
	<stop  offset="0" style="stop-color:#FFFEF5"/>
	<stop  offset="1" style="stop-color:#E6E5E3"/>
</linearGradient>
<polygon fill="url(#SVGID_41_)" points="462.667,220.839 478.667,121.333 386.052,235.743 "/>
<linearGradient id="SVGID_42_" gradientUnits="userSpaceOnUse" x1="704.4541" y1="53.0728" x2="757.1214" y2="33.7388" gradientTransform="matrix(1 0 0 -1 -197 302.833)">
	<stop  offset="0" style="stop-color:#FFFEF5"/>
	<stop  offset="1" style="stop-color:#E6E5E3"/>
</linearGradient>
<polygon fill="url(#SVGID_42_)" points="555.333,220.839 517.333,235.743 534,306 "/>
<linearGradient id="SVGID_43_" gradientUnits="userSpaceOnUse" x1="721.959" y1="91.2622" x2="683.9578" y2="17.2599" gradientTransform="matrix(1 0 0 -1 -197 302.833)">
	<stop  offset="0" style="stop-color:#FCFAF2"/>
	<stop  offset="1" style="stop-color:#E3E1DE"/>
</linearGradient>
<polygon fill="url(#SVGID_43_)" points="462.667,220.839 517.333,235.743 534,306 "/>
<circle fill="#FFFFFF" cx="331.196" cy="308.667" r="1.666"/>
<circle fill="#FFFFFF" cx="246.667" cy="207" r="1.666"/>
<circle fill="#FFFFFF" cx="354.667" cy="220.839" r="1.666"/>
<circle fill="#FFFFFF" cx="386.052" cy="235.743" r="1.666"/>
<circle fill="#FFFFFF" cx="250.385" cy="282.409" r="1.666"/>
<circle fill="#FFFFFF" cx="167.414" cy="243.295" r="1.666"/>
<circle fill="#FFFFFF" cx="534" cy="306" r="1.666"/>
<circle fill="#FFFFFF" cx="122.001" cy="284.667" r="1.666"/>
<circle fill="#FFFFFF" cx="382.431" cy="385.667" r="1.666"/>
<circle fill="#FFFFFF" cx="462.667" cy="220.839" r="1.666"/>
<circle fill="#FFFFFF" cx="383.333" cy="290.22" r="1.666"/>
<circle fill="#FFFFFF" cx="385.718" cy="133.401" r="1.666"/>
<circle fill="#FFFFFF" cx="415.685" cy="83.334" r="1.666"/>
<circle fill="#FFFFFF" cx="478.667" cy="352.667" r="1.666"/>
<linearGradient id="SVGID_44_" gradientUnits="userSpaceOnUse" x1="229" y1="-32.8335" x2="580.333" y2="-32.8335" gradientTransform="matrix(1 0 0 -1 -197 302.833)">
	<stop  offset="0" style="stop-color:#FFFEF5"/>
	<stop  offset="1" style="stop-color:#E6E5E3"/>
</linearGradient>
<polygon fill="url(#SVGID_44_)" points="32,358.667 122.667,285.667 383.333,385.667 "/>
<linearGradient id="SVGID_45_" gradientUnits="userSpaceOnUse" x1="443.667" y1="156.5" x2="659.667" y2="156.5" gradientTransform="matrix(1 0 0 -1 -197 302.833)">
	<stop  offset="0" style="stop-color:#FFFEF5"/>
	<stop  offset="1" style="stop-color:#E6E5E3"/>
</linearGradient>
<polygon fill="url(#SVGID_45_)" points="246.667,208.666 462.667,90 416,84 "/>
<linearGradient id="SVGID_46_" gradientUnits="userSpaceOnUse" x1="351" y1="-119.2637" x2="580.333" y2="-119.2637" gradientTransform="matrix(1 0 0 -1 -197 302.833)">
	<stop  offset="0" style="stop-color:#FEFEF7"/>
	<stop  offset="1" style="stop-color:#F4F4ED"/>
</linearGradient>
<polygon fill="url(#SVGID_46_)" points="225.369,373.527 154,470.667 383.333,385.667 "/>
<linearGradient id="SVGID_47_" gradientUnits="userSpaceOnUse" x1="533.8604" y1="231.7007" x2="625" y2="231.7007" gradientTransform="matrix(1 0 0 -1 -197 302.833)">
	<stop  offset="0" style="stop-color:#BAB7BD"/>
	<stop  offset="1" style="stop-color:#EEEDE9"/>
</linearGradient>
<polygon fill="url(#SVGID_47_)" points="416,84 428,0 336.861,142.264 "/>
<linearGradient id="SVGID_48_" gradientUnits="userSpaceOnUse" x1="637.4775" y1="240.1655" x2="628.1434" y2="168.8319" gradientTransform="matrix(1 0 0 -1 -197 302.833)">
	<stop  offset="0" style="stop-color:#E7E6E3"/>
	<stop  offset="1" style="stop-color:#F7F4EC"/>
</linearGradient>
<polygon fill="url(#SVGID_48_)" points="462.667,90 478.667,121.333 385.487,132.401 "/>
<linearGradient id="SVGID_49_" gradientUnits="userSpaceOnUse" x1="485.334" y1="119.1606" x2="534.001" y2="-7.5058" gradientTransform="matrix(1 0 0 -1 -197 302.833)">
	<stop  offset="0" style="stop-color:#FFFEF5"/>
	<stop  offset="1" style="stop-color:#E6E5E3"/>
</linearGradient>
<polygon fill="url(#SVGID_49_)" points="246.667,208.666 331.333,309.333 331.333,162.152 "/>
<linearGradient id="SVGID_50_" gradientUnits="userSpaceOnUse" x1="581.9209" y1="50.7744" x2="557.2552" y2="-34.5582" gradientTransform="matrix(1 0 0 -1 -197 302.833)">
	<stop  offset="0" style="stop-color:#FFFEF5"/>
	<stop  offset="1" style="stop-color:#E6E5E3"/>
</linearGradient>
<polygon fill="url(#SVGID_50_)" points="383.333,385.667 331.333,309.333 382.431,290.667 "/>
<linearGradient id="SVGID_51_" gradientUnits="userSpaceOnUse" x1="567.0195" y1="-126.0493" x2="538.3527" y2="-40.0493" gradientTransform="matrix(1 0 0 -1 -197 302.833)">
	<stop  offset="0" style="stop-color:#B8B9B5"/>
	<stop  offset="1" style="stop-color:#EEEEEB"/>
</linearGradient>
<polygon fill="url(#SVGID_51_)" points="331.333,309.333 319.765,361.28 383.333,385.667 "/>
<linearGradient id="SVGID_52_" gradientUnits="userSpaceOnUse" x1="561.0645" y1="91.6992" x2="513.7307" y2="-8.9669" gradientTransform="matrix(1 0 0 -1 -197 302.833)">
	<stop  offset="0" style="stop-color:#FEFEF7"/>
	<stop  offset="1" style="stop-color:#F4F4ED"/>
</linearGradient>
<polygon fill="url(#SVGID_52_)" points="331.333,162.152 382.431,290.667 331.333,309.333 "/>
<linearGradient id="SVGID_53_" gradientUnits="userSpaceOnUse" x1="480.8467" y1="-32.4731" x2="528.333" y2="-32.4731" gradientTransform="matrix(1 0 0 -1 -197 302.833)">
	<stop  offset="0" style="stop-color:#BAB7BD"/>
	<stop  offset="1" style="stop-color:#EEEDE9"/>
</linearGradient>
<polygon fill="url(#SVGID_53_)" points="319.765,361.28 283.846,347.499 331.333,309.333 "/>
<linearGradient id="SVGID_54_" gradientUnits="userSpaceOnUse" x1="449.0615" y1="-25.5825" x2="528.333" y2="-25.5825" gradientTransform="matrix(1 0 0 -1 -197 302.833)">
	<stop  offset="0" style="stop-color:#E5E5E2"/>
	<stop  offset="1" style="stop-color:#FEFCF4"/>
</linearGradient>
<polygon fill="url(#SVGID_54_)" points="252.062,335.306 331.333,309.333 283.846,347.499 "/>
<linearGradient id="SVGID_55_" gradientUnits="userSpaceOnUse" x1="359.2422" y1="-5.2808" x2="528.5752" y2="-21.2807" gradientTransform="matrix(1 0 0 -1 -197 302.833)">
	<stop  offset="0" style="stop-color:#E7E6E3"/>
	<stop  offset="1" style="stop-color:#F7F4EC"/>
</linearGradient>
<polygon fill="url(#SVGID_55_)" points="122.667,285.667 331.333,309.333 252.062,335.306 "/>
<linearGradient id="SVGID_56_" gradientUnits="userSpaceOnUse" x1="642.5264" y1="81.73" x2="639.8593" y2="-12.9377" gradientTransform="matrix(1 0 0 -1 -197 302.833)">
	<stop  offset="0" style="stop-color:#FCFAF2"/>
	<stop  offset="1" style="stop-color:#E3E1DE"/>
</linearGradient>
<polygon fill="url(#SVGID_56_)" points="382.431,290.667 534,306 354.667,220.839 "/>
<linearGradient id="SVGID_57_" gradientUnits="userSpaceOnUse" x1="518.1631" y1="136.3662" x2="588.8286" y2="121.7" gradientTransform="matrix(1 0 0 -1 -197 302.833)">
	<stop  offset="0" style="stop-color:#B8B9B5"/>
	<stop  offset="1" style="stop-color:#EEEEEB"/>
</linearGradient>
<polygon fill="url(#SVGID_57_)" points="385.487,132.401 354.667,220.839 331.333,162.152 "/>
<linearGradient id="SVGID_58_" gradientUnits="userSpaceOnUse" x1="625.0674" y1="-115.2183" x2="577.7344" y2="-21.8853" gradientTransform="matrix(1 0 0 -1 -197 302.833)">
	<stop  offset="0" style="stop-color:#C5C1BF"/>
	<stop  offset="1" style="stop-color:#F3F2EC"/>
</linearGradient>
<polygon fill="url(#SVGID_58_)" points="383.333,385.667 478.667,461.999 382.431,290.667 "/>
<linearGradient id="SVGID_59_" gradientUnits="userSpaceOnUse" x1="579.4307" y1="-18.8335" x2="731" y2="-18.8335" gradientTransform="matrix(1 0 0 -1 -197 302.833)">
	<stop  offset="0" style="stop-color:#FFFEF5"/>
	<stop  offset="1" style="stop-color:#E6E5E3"/>
</linearGradient>
<polygon fill="url(#SVGID_59_)" points="534,306 382.431,290.667 478.667,352.667 "/>
<linearGradient id="SVGID_60_" gradientUnits="userSpaceOnUse" x1="627.5498" y1="-120.5005" x2="627.5498" y2="-49.1663" gradientTransform="matrix(1 0 0 -1 -197 302.833)">
	<stop  offset="0" style="stop-color:#BAB7BD"/>
	<stop  offset="1" style="stop-color:#EEEDE9"/>
</linearGradient>
<polygon fill="url(#SVGID_60_)" points="478.667,461.999 478.667,352.667 382.431,290.667 "/>
<linearGradient id="SVGID_61_" gradientUnits="userSpaceOnUse" x1="675.667" y1="-26.5005" x2="731" y2="-26.5005" gradientTransform="matrix(1 0 0 -1 -197 302.833)">
	<stop  offset="0" style="stop-color:#FEFEF7"/>
	<stop  offset="1" style="stop-color:#F4F4ED"/>
</linearGradient>
<polygon fill="url(#SVGID_61_)" points="534,306 522.667,347.499 478.667,352.667 "/>
<linearGradient id="SVGID_62_" gradientUnits="userSpaceOnUse" x1="466.3135" y1="190.54" x2="417.647" y2="90.5409" gradientTransform="matrix(1 0 0 -1 -197 302.833)">
	<stop  offset="0" style="stop-color:#B8B9B5"/>
	<stop  offset="1" style="stop-color:#EEEEEB"/>
</linearGradient>
<polygon fill="url(#SVGID_62_)" points="246.667,208.666 174.667,138 336.861,142.264 "/>
<linearGradient id="SVGID_63_" gradientUnits="userSpaceOnUse" x1="443.667" y1="43.8335" x2="528.333" y2="43.8335" gradientTransform="matrix(1 0 0 -1 -197 302.833)">
	<stop  offset="0" style="stop-color:#FCFAF2"/>
	<stop  offset="1" style="stop-color:#E3E1DE"/>
</linearGradient>
<polygon fill="url(#SVGID_63_)" points="331.333,309.333 252.062,282.667 246.667,208.666 "/>
<linearGradient id="SVGID_64_" gradientUnits="userSpaceOnUse" x1="427.2334" y1="40.2065" x2="351.2325" y2="38.873" gradientTransform="matrix(1 0 0 -1 -197 302.833)">
	<stop  offset="0" style="stop-color:#E7E6E3"/>
	<stop  offset="1" style="stop-color:#F7F4EC"/>
</linearGradient>
<polygon fill="url(#SVGID_64_)" points="166,243.333 252.062,282.667 249.385,245.948 "/>
<linearGradient id="SVGID_65_" gradientUnits="userSpaceOnUse" x1="449.667" y1="75.5264" x2="344.9469" y2="75.5264" gradientTransform="matrix(1 0 0 -1 -197 302.833)">
	<stop  offset="0" style="stop-color:#FEFEF7"/>
	<stop  offset="1" style="stop-color:#F4F4ED"/>
</linearGradient>
<polygon fill="url(#SVGID_65_)" points="246.667,208.666 166,243.333 249.385,245.948 "/>
<linearGradient id="SVGID_66_" gradientUnits="userSpaceOnUse" x1="390.9688" y1="-9.3569" x2="350.3027" y2="65.3101" gradientTransform="matrix(1 0 0 -1 -197 302.833)">
	<stop  offset="0" style="stop-color:#B8B9B5"/>
	<stop  offset="1" style="stop-color:#EEEEEB"/>
</linearGradient>
<polygon fill="url(#SVGID_66_)" points="154,289.22 166,243.333 212.532,295.859 "/>
<linearGradient id="SVGID_67_" gradientUnits="userSpaceOnUse" x1="409.5322" y1="6.8335" x2="528.333" y2="6.8335" gradientTransform="matrix(1 0 0 -1 -197 302.833)">
	<stop  offset="0" style="stop-color:#FEFEF7"/>
	<stop  offset="1" style="stop-color:#F4F4ED"/>
</linearGradient>
<polygon fill="url(#SVGID_67_)" points="252.062,282.667 212.532,295.859 331.333,309.333 "/>
<linearGradient id="SVGID_68_" gradientUnits="userSpaceOnUse" x1="449.667" y1="33.2378" x2="344.9469" y2="33.2378" gradientTransform="matrix(1 0 0 -1 -197 302.833)">
	<stop  offset="0" style="stop-color:#BAB7BD"/>
	<stop  offset="1" style="stop-color:#EEEDE9"/>
</linearGradient>
<polygon fill="url(#SVGID_68_)" points="166,243.333 212.532,295.859 252.062,282.667 "/>
<linearGradient id="SVGID_69_" gradientUnits="userSpaceOnUse" x1="445.4014" y1="98.7109" x2="342.7353" y2="117.3779" gradientTransform="matrix(1 0 0 -1 -197 302.833)">
	<stop  offset="0" style="stop-color:#FFFEF5"/>
	<stop  offset="1" style="stop-color:#E6E5E3"/>
</linearGradient>
<polygon fill="url(#SVGID_69_)" points="174.667,138 168.414,242.295 246.667,208.666 "/>
<linearGradient id="SVGID_70_" gradientUnits="userSpaceOnUse" x1="486" y1="231.7007" x2="625" y2="231.7007" gradientTransform="matrix(1 0 0 -1 -197 302.833)">
	<stop  offset="0" style="stop-color:#FEFEF7"/>
	<stop  offset="1" style="stop-color:#F4F4ED"/>
</linearGradient>
<polygon fill="url(#SVGID_70_)" points="428,0 289,141.005 336.861,142.264 "/>
<linearGradient id="SVGID_71_" gradientUnits="userSpaceOnUse" x1="418.4482" y1="190.9653" x2="519.1169" y2="190.2983" gradientTransform="matrix(1 0 0 -1 -197 302.833)">
	<stop  offset="0" style="stop-color:#BAB7BD"/>
	<stop  offset="1" style="stop-color:#EEEDE9"/>
</linearGradient>
<polygon fill="url(#SVGID_71_)" points="227,139.375 345.194,84 289,141.005 "/>
<linearGradient id="SVGID_72_" gradientUnits="userSpaceOnUse" x1="565.9912" y1="67.7012" x2="583.991" y2="157.7003" gradientTransform="matrix(1 0 0 -1 -197 302.833)">
	<stop  offset="0" style="stop-color:#ECEBE8"/>
	<stop  offset="1" style="stop-color:#E5E4E0"/>
</linearGradient>
<polygon fill="url(#SVGID_72_)" points="385.487,132.401 386.052,235.743 354.667,220.839 "/>
<linearGradient id="SVGID_73_" gradientUnits="userSpaceOnUse" x1="583.0518" y1="39.4136" x2="731" y2="39.4136" gradientTransform="matrix(1 0 0 -1 -197 302.833)">
	<stop  offset="0" style="stop-color:#FEFEF7"/>
	<stop  offset="1" style="stop-color:#F4F4ED"/>
</linearGradient>
<polygon fill="url(#SVGID_73_)" points="386.052,235.743 462.667,220.839 534,306 "/>
<linearGradient id="SVGID_74_" gradientUnits="userSpaceOnUse" x1="619.3711" y1="48.812" x2="601.3715" y2="167.4767" gradientTransform="matrix(1 0 0 -1 -197 302.833)">
	<stop  offset="0" style="stop-color:#FFFEF5"/>
	<stop  offset="1" style="stop-color:#E6E5E3"/>
</linearGradient>
<polygon fill="url(#SVGID_74_)" points="436.549,126.336 386.052,235.743 385.487,132.401 "/>
<linearGradient id="SVGID_75_" gradientUnits="userSpaceOnUse" x1="636.2871" y1="112.9702" x2="601.6206" y2="169.6359" gradientTransform="matrix(1 0 0 -1 -197 302.833)">
	<stop  offset="0" style="stop-color:#BAB7BD"/>
	<stop  offset="1" style="stop-color:#EEEDE9"/>
</linearGradient>
<polygon fill="url(#SVGID_75_)" points="478.667,121.333 386.052,235.743 436.549,126.336 "/>
<linearGradient id="SVGID_76_" gradientUnits="userSpaceOnUse" x1="626.873" y1="127.1372" x2="668.8724" y2="79.138" gradientTransform="matrix(1 0 0 -1 -197 302.833)">
	<stop  offset="0" style="stop-color:#FFFEF5"/>
	<stop  offset="1" style="stop-color:#E6E5E3"/>
</linearGradient>
<polygon fill="url(#SVGID_76_)" points="462.667,220.839 478.667,121.333 386.052,235.743 "/>
<linearGradient id="SVGID_77_" gradientUnits="userSpaceOnUse" x1="704.4541" y1="53.0728" x2="757.1214" y2="33.7388" gradientTransform="matrix(1 0 0 -1 -197 302.833)">
	<stop  offset="0" style="stop-color:#FFFEF5"/>
	<stop  offset="1" style="stop-color:#E6E5E3"/>
</linearGradient>
<polygon fill="url(#SVGID_77_)" points="555.333,220.839 517.333,235.743 534,306 "/>
<linearGradient id="SVGID_78_" gradientUnits="userSpaceOnUse" x1="721.959" y1="91.2622" x2="683.9578" y2="17.2599" gradientTransform="matrix(1 0 0 -1 -197 302.833)">
	<stop  offset="0" style="stop-color:#FCFAF2"/>
	<stop  offset="1" style="stop-color:#E3E1DE"/>
</linearGradient>
<polygon fill="url(#SVGID_78_)" points="462.667,220.839 517.333,235.743 534,306 "/>
<circle fill="#FFFFFF" cx="331.196" cy="308.667" r="1.666"/>
<circle fill="#FFFFFF" cx="246.667" cy="207" r="1.666"/>
<circle fill="#FFFFFF" cx="354.667" cy="220.839" r="1.666"/>
<circle fill="#FFFFFF" cx="386.052" cy="235.743" r="1.666"/>
<circle fill="#FFFFFF" cx="250.385" cy="282.409" r="1.666"/>
<circle fill="#FFFFFF" cx="382.431" cy="385.667" r="1.666"/>
<circle fill="#FFFFFF" cx="462.667" cy="220.839" r="1.666"/>
<circle fill="#FFFFFF" cx="383.333" cy="290.22" r="1.666"/>
<circle fill="#FFFFFF" cx="385.718" cy="133.401" r="1.666"/>
<circle fill="#FFFFFF" cx="478.667" cy="352.667" r="1.666"/>
</svg>
