<?xml version="1.0" encoding="utf-8"?>
<!-- Generator: Adobe Illustrator 15.0.0, SVG Export Plug-In  -->
<!DOCTYPE svg PUBLIC "-//W3C//DTD SVG 1.1//EN" "http://www.w3.org/Graphics/SVG/1.1/DTD/svg11.dtd" [
	<!ENTITY ns_flows "http://ns.adobe.com/Flows/1.0/">
]>
<svg version="1.1"
	 xmlns="http://www.w3.org/2000/svg" xmlns:xlink="http://www.w3.org/1999/xlink" xmlns:a="http://ns.adobe.com/AdobeSVGViewerExtensions/3.0/"
	 x="0px" y="0px" width="840px" height="115px" viewBox="0.826 0.876 840 115"
	 overflow="visible" enable-background="new 0.826 0.876 840 115" xml:space="preserve">
<defs>
</defs>
<polyline display="none" fill="#E5E5E5" points="824.439,28.397 786.824,19.516 729.553,19.516 567.253,46.411 483.824,17.327 
	388.595,30.451 344.891,28.677 324.552,41.801 109.714,8.813 30.805,28.946 9.109,16.783 103.73,3.913 319.664,20.406 
	345.738,13.844 389.068,14.731 484.518,8.169 573.577,22.711 737.093,9.263 793.833,9.263 832.696,14.199 824.439,28.397 "/>
<polygon display="none" fill="#929292" points="784.65,61.041 765.797,47.306 706.931,47.306 548.279,114.545 481.743,41.836 
	387.174,74.644 342.348,70.209 339.213,103.02 127.66,20.554 74.051,46.096 54.931,43.764 121.678,15.652 334.326,81.625 
	343.195,55.377 387.647,58.925 482.437,32.678 554.604,90.845 714.472,37.054 772.806,37.054 803.991,53.57 "/>
<polygon display="none" fill="#9B9B9B" points="803.991,53.57 772.806,38.042 714.472,38.042 554.604,91.833 482.437,33.666 
	387.647,59.913 343.195,56.365 334.326,82.613 121.678,16.64 54.931,43.764 34,39.481 115.695,11.739 329.439,61.219 
	344.043,41.533 388.121,44.194 483.131,24.508 560.928,68.134 722.012,27.791 779.815,27.791 816.183,42.597 "/>
<polyline display="none" fill="#C2C2C2" points="816.183,43.044 824.439,28.397 786.824,18.527 729.553,18.527 567.253,45.423 
	483.824,16.339 388.595,29.463 344.891,27.688 324.552,40.813 109.714,7.826 30.805,28.946 34,39.481 115.695,12.727 
	329.439,62.207 344.043,42.521 388.121,45.182 483.131,25.497 560.928,69.122 722.012,28.779 779.815,28.779 816.183,42.597 "/>
<polyline display="none" fill="#FFFFFF" points="832.696,14.199 840.953,0 0.164,0 9.109,16.783 103.73,4.901 319.664,21.394 
	345.738,14.832 389.068,15.719 484.518,9.157 573.577,23.699 737.093,10.251 793.833,10.251 832.696,14.199 "/>
<linearGradient id="SVGID_1_" gradientUnits="userSpaceOnUse" x1="730.3857" y1="80.9727" x2="763.169" y2="-8.4363">
	<stop  offset="0" style="stop-color:#231F20;stop-opacity:0.5"/>
	<stop  offset="0.0896" style="stop-color:#231F20;stop-opacity:0.4552"/>
	<stop  offset="1" style="stop-color:#231F20;stop-opacity:0"/>
</linearGradient>
<polygon display="none" fill="url(#SVGID_1_)" points="765.797,47.306 792.115,10.251 736.146,10.33 706.931,47.306 "/>
<linearGradient id="SVGID_2_" gradientUnits="userSpaceOnUse" x1="497.3701" y1="85.0225" x2="558.762" y2="10.263">
	<stop  offset="0" style="stop-color:#231F20;stop-opacity:0.5"/>
	<stop  offset="0.0896" style="stop-color:#231F20;stop-opacity:0.4552"/>
	<stop  offset="1" style="stop-color:#231F20;stop-opacity:0"/>
</linearGradient>
<polygon display="none" fill="url(#SVGID_2_)" points="484.518,9.157 481.743,41.836 548.279,114.545 573.577,23.699 "/>
<linearGradient id="SVGID_3_" gradientUnits="userSpaceOnUse" x1="344.2568" y1="76.2314" x2="386.9383" y2="15.6834">
	<stop  offset="0" style="stop-color:#231F20;stop-opacity:0.5"/>
	<stop  offset="0.0896" style="stop-color:#231F20;stop-opacity:0.4552"/>
	<stop  offset="1" style="stop-color:#231F20;stop-opacity:0"/>
</linearGradient>
<polygon display="none" fill="url(#SVGID_3_)" points="387.174,74.644 391.326,15.652 345.738,14.832 342.348,70.209 "/>
<linearGradient id="SVGID_4_" gradientUnits="userSpaceOnUse" x1="345.5449" y1="60.7314" x2="294.9854" y2="30.9907">
	<stop  offset="0" style="stop-color:#231F20;stop-opacity:0.5"/>
	<stop  offset="0.0896" style="stop-color:#231F20;stop-opacity:0.4552"/>
	<stop  offset="1" style="stop-color:#231F20;stop-opacity:0"/>
</linearGradient>
<polygon display="none" fill="url(#SVGID_4_)" points="339.213,103.02 319.664,21.394 345.738,14.832 342.348,74.644 "/>
<linearGradient id="SVGID_5_" gradientUnits="userSpaceOnUse" x1="214.6211" y1="76.5654" x2="234.3623" y2="11.4194">
	<stop  offset="0" style="stop-color:#231F20;stop-opacity:0.5"/>
	<stop  offset="0.0896" style="stop-color:#231F20;stop-opacity:0.4552"/>
	<stop  offset="1" style="stop-color:#231F20;stop-opacity:0"/>
</linearGradient>
<polygon display="none" fill="url(#SVGID_5_)" points="127.66,20.554 103.73,4.901 319.664,21.394 339.213,103.02 "/>
<path fill="#929292" d="M759.256,38.833c0,0-82.908,82.038-189.331,14.389C463.5-14.428,417.353,18.016,412.49,35.965
	c-4.862,17.945-34.655,8.221-41.46,1.161c-15.122-15.686-86.995-28.774-91.856,31.281c-4.861,60.058-197.498-13.006-197.498-13.006
	l20.419,13.431c0,0,183.432,92.327,189.509,17.256c6.077-75.068,61.383-58.708,80.286-39.1c8.506,8.823,32.36,20.979,38.438-1.455
	c6.078-22.435,15.267-62.991,148.298,21.571c133.029,84.563,180.247-18.981,180.247-18.981L759.256,38.833z"/>
<path fill="#9B9B9B" d="M779.64,29.543c0,0-118.599,61.329-198.417,10.592C501.404-10.603,418.3,13.73,414.653,27.192
	c-3.647,13.46-39.378,6.167-44.481,0.872C358.83,16.3,270.391,6.484,266.744,51.524c-3.646,45.043-205.487-9.556-205.487-9.556
	l20.419,13.432c0,0,192.637,73.86,197.498,13.804c4.861-60.054,76.734-46.966,91.856-31.28c6.805,7.057,36.598,16.784,41.46-1.162
	c4.862-17.95,51.01-50.394,157.435,17.255c106.423,67.649,189.331-15.186,189.331-15.186L779.64,29.543z"/>
<path fill="#C2C2C2" d="M779.64,29.543c0,0-118.599,62.127-198.417,11.39S418.3,14.529,414.653,27.991
	c-3.647,13.458-39.378,6.166-44.481,0.871c-11.342-11.765-99.781-21.58-103.428,23.461C263.098,97.364,61.257,41.969,61.257,41.969
	L40.838,28.538c0,0,211.046,36.132,213.477,6.103c2.431-30.026,107.437-23.482,114.998-15.64c3.402,3.529,45.072,8.393,47.503-0.581
	c2.431-8.974,122.494-25.198,175.706,8.627c53.212,33.825,207.501-6.794,207.501-6.794L779.64,29.543z"/>
<path fill="#E5E5E5" d="M800.022,20.253c0,0-154.289,41.417-207.501,7.593C539.31-5.979,419.246,10.243,416.815,19.217
	s-44.101,4.111-47.503,0.583c-7.562-7.843-112.567-14.388-114.998,15.64S40.838,28.538,40.838,28.538L20.419,15.105
	c0,0,220.251,17.667,221.466,2.653c1.216-15.014,122.788-11.741,126.569-7.819c1.701,1.765,49.309,4.196,50.523-0.291
	c1.216-4.487,158.237-12.598,184.843,4.314c26.606,16.912,216.585-2.998,216.585-2.998L800.022,20.253z"/>
<path fill="#FFFFFF" d="M840.789,0.876H0l20.419,14.229c0,0,220.251,18.464,221.466,3.452c1.216-15.014,122.788-11.742,126.569-7.82
	c1.701,1.765,49.309,4.197,50.523-0.291c1.216-4.487,158.237-12.599,184.843,4.313c26.606,16.913,216.585-3.795,216.585-3.795
	L840.789,0.876z"/>
<linearGradient id="SVGID_6_" gradientUnits="userSpaceOnUse" x1="312.041" y1="74.6895" x2="301.9499" y2="-13.4794">
	<stop  offset="0" style="stop-color:#231F20;stop-opacity:0.5"/>
	<stop  offset="0.0896" style="stop-color:#231F20;stop-opacity:0.4552"/>
	<stop  offset="1" style="stop-color:#231F20;stop-opacity:0"/>
</linearGradient>
<path fill="url(#SVGID_6_)" d="M291.861,83.275l-49.977-64.718c0,0,4.53-17.974,126.569-7.82v32.158
	C368.454,42.895,303.04-5.603,291.861,83.275z"/>
<linearGradient id="SVGID_7_" gradientUnits="userSpaceOnUse" x1="365.7764" y1="88.7236" x2="567.1882" y2="-16.5597">
	<stop  offset="0" style="stop-color:#231F20;stop-opacity:0.5"/>
	<stop  offset="0.0896" style="stop-color:#231F20;stop-opacity:0.4552"/>
	<stop  offset="1" style="stop-color:#231F20;stop-opacity:0"/>
</linearGradient>
<path fill="url(#SVGID_7_)" d="M410.328,45.534l8.649-35.087C523.66-6.962,603.82,14.759,603.82,14.759l-71.466,36.312
	c0,0-58.374-37.015-95.554-34.878C436.801,16.192,413.724,19.611,410.328,45.534z"/>
<linearGradient id="SVGID_8_" gradientUnits="userSpaceOnUse" x1="772.6895" y1="54.8931" x2="743.0511" y2="19.4913">
	<stop  offset="0" style="stop-color:#231F20;stop-opacity:0.5"/>
	<stop  offset="0.0896" style="stop-color:#231F20;stop-opacity:0.4552"/>
	<stop  offset="1" style="stop-color:#231F20;stop-opacity:0"/>
</linearGradient>
<path fill="url(#SVGID_8_)" d="M710.589,81.64l41.169-64.166l68.647-6.51l-59.907,27.302c0,0-12.436,12.396-27.339,20.115
	C733.159,58.381,723.826,73.354,710.589,81.64z"/>
<linearGradient id="SVGID_9_" gradientUnits="userSpaceOnUse" x1="120.0244" y1="128.5498" x2="166.6055" y2="31.1143">
	<stop  offset="0" style="stop-color:#231F20"/>
	<stop  offset="0.0896" style="stop-color:#231F20;stop-opacity:0.9104"/>
	<stop  offset="1" style="stop-color:#231F20;stop-opacity:0"/>
</linearGradient>
<path fill="url(#SVGID_9_)" d="M241.885,18.557c0,0,0,17.864-221.408-3.493l81.618,53.768c0,0,186.469,94.645,189.767,14.443
	L241.885,18.557z"/>
</svg>
