<?xml version="1.0" encoding="utf-8"?>
<!-- Generator: Adobe Illustrator 15.0.0, SVG Export Plug-In  -->
<!DOCTYPE svg PUBLIC "-//W3C//DTD SVG 1.1//EN" "http://www.w3.org/Graphics/SVG/1.1/DTD/svg11.dtd" [
	<!ENTITY ns_flows "http://ns.adobe.com/Flows/1.0/">
]>
<svg version="1.1"
	 xmlns="http://www.w3.org/2000/svg" xmlns:xlink="http://www.w3.org/1999/xlink" xmlns:a="http://ns.adobe.com/AdobeSVGViewerExtensions/3.0/"
	 x="0px" y="0px" width="500px" height="127px" viewBox="0.216 0.467 500 127"
	 overflow="visible" enable-background="new 0.216 0.467 500 127" xml:space="preserve">
<defs>
</defs>
<path fill="#FFFFFF" d="M500,0H0.018v3.126h114.229c-3.455,0.082-4.215,0.155-4.504,0.244c0.096-0.035,0.169-0.052,0.18-0.054
	c-2.939,0.487-67.337,0.72-109.906,0.757L0.019,7.12c0.272,0,27.533-0.025,54.614-0.137c51.978-0.213,55.527-0.513,56.232-0.785
	c-0.169,0.07-0.302,0.088-0.331,0.092c0.559-0.064,3.782-0.135,8.421-0.205c-7.647,0.249-8.795,0.418-9.166,0.561
	C105.88,7.612,42.08,8.074,0.015,8.149l0.005,2.965c0.269,0,27.201-0.051,54.128-0.273c50.46-0.417,55.603-1.027,56.661-1.407
	c0.942-0.135,5.625-0.311,11.916-0.49c-7.018,0.303-12.229,0.644-12.924,0.999c-3.896,1.465-67.791,2.167-109.788,2.281l0.008,2.884
	c17.608-0.048,104.932-0.392,110.885-2.507c1.19-0.29,9.748-0.694,19.833-1.064c-19.434,0.948-20.479,1.478-20.897,1.691
	c-4.083,1.973-67.918,2.917-109.829,3.071l0.01,2.804c10.729-0.04,104.663-0.465,111.02-3.342
	c1.592-0.477,15.154-1.244,28.538-1.836c-13.808,0.723-27.958,1.705-29.657,2.569c-4.905,2.496-68.418,3.688-109.913,3.88
	l0.013,2.723c10.632-0.049,104.078-0.584,111.098-4.158c1.858-0.724,20.049-1.922,35.212-2.679
	c-15.469,0.91-34.148,2.389-36.328,3.499c-6.635,3.377-81.651,4.531-109.996,4.69l0.015,2.642
	c10.495-0.059,102.777-0.7,111.174-4.974c2.081-0.955,25.917-2.754,41.84-3.598c-16.071,0.958-40.081,3.045-42.949,4.504
	c-7.786,3.963-82.102,5.313-110.08,5.5l0.017,2.562c4.132-0.027,101.308-0.731,111.225-5.778c3.289-1.674,49.774-5.209,55.572-4.707
	c0.698,0.06,2.57,0.259,5.16,0.536c18.241,1.942,37.471,3.844,41.784,3.201c1.9-0.282,16.886-1.736,36.366-3.458
	c-19.24,1.966-34.199,3.646-36.822,4.036c-4.962,0.737-27.992-2.085-39.059-3.441c-3.603-0.442-6.206-0.761-7.227-0.849
	c-6.316-0.545-52.194,3.292-56.852,5.663c-8.619,4.386-75.83,6.045-110.165,6.31l0.019,2.481c4.077-0.031,99.983-0.835,111.271-6.58
	c3.803-1.935,49.05-5.957,55.514-5.402c0.976,0.084,3.695,0.417,7.137,0.839c16.658,2.042,34.838,4.158,39.725,3.433
	c2.82-0.419,20.042-2.332,41.478-4.485c-21.958,2.534-39.507,4.785-41.923,5.143c-5.376,0.798-26.257-2.111-37.474-3.675
	c-4.326-0.603-7.451-1.038-8.749-1.15c-6.934-0.601-51.476,3.666-56.75,6.35C98.098,35.739,0.987,36.662,0.008,36.67l0.021,2.401
	c4.022-0.036,98.66-0.939,111.317-7.381c4.372-2.225,48.425-6.702,55.456-6.098c1.235,0.106,4.495,0.561,8.623,1.136
	c12.132,1.691,32.436,4.52,38.158,3.672c3.946-0.586,23.279-3.035,46.392-5.653c-25.553,3.279-46.348,6.319-46.824,6.39
	c-5.808,0.862-24.84-2.125-36.21-3.909c-4.683-0.735-8.382-1.315-9.951-1.451c-7.944-0.682-51.291,4.311-56.65,7.038
	c-13.546,6.894-109.366,7.92-110.333,7.93l0.023,2.319c3.968-0.039,97.335-1.043,111.362-8.182
	c4.994-2.542,47.883-7.438,55.399-6.794c1.488,0.128,5.151,0.703,9.79,1.431c12.246,1.922,30.752,4.826,36.911,3.912
	c9.297-1.381,29.463-4.213,51.726-7.009c-14.111,1.988-29.822,4.336-47.125,7.047c-2.439,0.382-4.164,0.652-5.022,0.78
	c-6.239,0.929-23.647-2.124-35.166-4.142c-5.083-0.891-9.097-1.594-10.933-1.752c-8.362-0.724-50.5,4.646-56.549,7.725
	C95.488,43.68,0.958,44.809,0.005,44.82l0.024,2.238c3.913-0.043,96.011-1.147,111.408-8.983c5.733-2.918,47.528-8.162,55.342-7.49
	c1.738,0.149,5.709,0.846,10.738,1.727c12.358,2.166,29.282,5.134,35.881,4.152c0.861-0.128,2.592-0.399,5.04-0.783
	c18.255-2.86,34.732-5.316,49.417-7.37c-18.205,2.803-34.915,5.665-45.274,7.439c-4.742,0.812-8.169,1.399-9.592,1.611
	c-6.675,0.991-22.636-2.11-34.291-4.375c-5.389-1.047-9.645-1.874-11.745-2.055c-8.998-0.771-49.426,4.839-56.448,8.413
	C94.185,47.65,0.944,48.882,0.004,48.894l0.026,2.158c3.858-0.047,94.687-1.251,111.454-9.784
	c6.099-3.104,45.885-8.994,55.284-8.185c1.987,0.171,6.404,1.029,11.519,2.023c11.807,2.294,27.981,5.438,35.019,4.391
	c1.447-0.215,4.884-0.804,9.64-1.618c11.23-1.924,29.942-5.129,49.906-8.149c-18.387,3.04-35.637,6.268-46.983,8.391
	c-6.438,1.205-11.09,2.076-12.96,2.354c-7.11,1.058-22.391-2.216-33.547-4.606c-5.621-1.204-10.061-2.155-12.426-2.358
	c-10.15-0.875-49.118,5.42-56.347,9.1C92.88,51.622,0.931,52.956,0.004,52.969l0.028,2.077c3.803-0.051,93.363-1.355,111.499-10.585
	c6.852-3.488,45.561-9.714,55.227-8.881c2.236,0.192,6.839,1.178,12.169,2.32c11.312,2.422,26.803,5.741,34.288,4.629
	c1.908-0.283,6.576-1.157,13.036-2.366c11.897-2.227,30.301-5.67,49.673-8.834c-18.141,3.219-35.415,6.74-47.504,9.204
	c-7.734,1.577-13.322,2.716-15.591,3.053c-7.547,1.121-22.205-2.321-32.905-4.835c-5.568-1.308-10.377-2.438-13.006-2.664
	c-11.219-0.964-48.9,6.048-56.246,9.787C91.576,55.592,0.917,57.029,0.003,57.043l0.029,1.997
	c3.749-0.055,92.039-1.459,111.545-11.387c6.996-3.561,44.475-10.495,55.169-9.577c2.484,0.214,7.228,1.328,12.72,2.618
	c11.462,2.693,25.729,6.044,33.655,4.867c2.322-0.345,7.932-1.488,15.696-3.071c12.751-2.599,31.288-6.377,50.499-9.731
	c-18.226,3.436-35.854,7.335-48.863,10.213c-8.745,1.935-15.063,3.333-17.706,3.726c-7.986,1.187-21.495-2.279-32.349-5.063
	c-5.691-1.46-10.607-2.722-13.499-2.97c-11.63-1.003-47.736,6.194-56.146,10.474C90.271,59.562,0.903,61.103,0.002,61.117
	l0.031,1.916c3.694-0.059,90.714-1.563,111.59-12.188c8.034-4.089,43.997-11.237,55.112-10.273
	c2.734,0.235,7.579,1.478,13.188,2.917c11.021,2.828,24.737,6.348,33.106,5.103c2.709-0.402,9.055-1.807,17.838-3.75
	c14.406-3.188,34.492-7.631,54.747-11.304c-19.942,3.854-39.5,8.535-53.508,11.889c-9.543,2.285-16.438,3.936-19.439,4.381
	c-8.422,1.251-21.417-2.376-31.857-5.291c-5.78-1.614-10.771-3.007-13.927-3.279c-12.536-1.076-47.613,6.871-56.045,11.162
	C88.967,63.533,0.889,65.176,0.002,65.192l0.032,1.835c3.639-0.062,89.39-1.667,111.637-12.989
	c8.285-4.217,42.752-12.026,55.055-10.969c2.985,0.257,7.9,1.629,13.591,3.217c10.608,2.961,23.809,6.647,32.621,5.338
	c3.08-0.458,10.008-2.116,19.597-4.412c14.092-3.374,33.818-8.095,53.867-11.958c-19.364,3.973-38.408,8.889-52.938,12.642
	c-9.792,2.53-17.527,4.527-20.876,5.025c-8.861,1.317-21.372-2.472-31.424-5.516c-5.838-1.767-10.879-3.294-14.299-3.588
	c-12.851-1.103-46.448,7.017-55.943,11.849C87.663,67.503,0.875,69.25,0.001,69.266l0.032,1.756
	c3.585-0.067,88.067-1.772,111.683-13.792c9.343-4.755,42.373-12.751,54.998-11.665c3.236,0.279,8.197,1.78,13.94,3.52
	c10.22,3.095,22.94,6.946,32.19,5.572c3.44-0.511,10.83-2.419,21.057-5.062c16.5-4.262,38.838-10.03,60.81-14.199
	c-21.94,4.364-43.927,10.475-60.121,14.976c-10.276,2.856-18.393,5.112-22.083,5.66c-9.298,1.383-21.355-2.567-31.042-5.74
	c-5.868-1.922-10.936-3.582-14.618-3.899c-14.067-1.213-46.493,7.778-55.842,12.537C86.359,71.473,0.862,73.324,0.001,73.34
	l0.034,1.675c3.53-0.071,86.742-1.876,111.729-14.592c9.212-4.688,41.122-13.547,54.939-12.36c3.489,0.3,8.471,1.932,14.241,3.821
	c9.855,3.228,22.12,7.244,31.81,5.805c3.793-0.563,11.55-2.72,22.286-5.704c18.185-5.054,43.695-12.141,68.175-16.485
	c-24.624,4.515-49.799,12.019-67.683,17.354c-10.658,3.18-19.076,5.691-23.104,6.29c-9.733,1.446-20.873-2.49-30.701-5.963
	c-5.876-2.077-10.952-3.871-14.896-4.21c-14.709-1.262-45.375,7.947-55.742,13.224C85.055,75.445,0.848,77.397,0,77.416l0.034,1.593
	C3.51,78.933,85.454,77.03,111.81,63.616c10.228-5.206,40.439-14.302,54.882-13.056c3.743,0.322,8.729,2.084,14.503,4.125
	c10.001,3.535,21.336,7.542,31.465,6.037c4.141-0.615,12.607-3.141,23.326-6.339c29.457-8.789,78.759-23.5,112.455-20.873
	c21.493,1.675,55.627-0.315,83.495-2.618c-29.497,2.558-62.111,4.38-83.561,2.709c-35.395-2.761-83.388,12.578-112.06,21.742
	c-10.955,3.501-19.607,6.267-23.97,6.915c-10.174,1.513-20.917-2.578-30.396-6.186c-5.866-2.232-10.932-4.161-15.139-4.522
	c-15.664-1.349-44.974,8.483-55.641,13.911C83.75,79.415,0.835,81.471,0,81.491l0.035,1.512c0.838-0.02,84.097-2.084,111.821-16.193
	c10.944-5.57,40.069-15.017,54.825-13.752c3.996,0.344,9.21,2.328,14.73,4.429c9.652,3.673,20.59,7.837,31.157,6.269
	c4.483-0.667,13.188-3.448,24.208-6.971c28.567-9.13,76.376-24.414,111.482-21.674c25.302,1.973,65.148-0.883,94.121-3.626
	c3.183-0.301,6.277-0.605,9.268-0.908c-33.141,3.525-75.903,6.852-103.461,4.705c-36.822-2.871-81.588,12.429-111.214,22.553
	c-11.181,3.821-20.013,6.839-24.707,7.536c-10.613,1.574-20.977-2.666-30.124-6.408c-5.595-2.289-10.879-4.451-15.349-4.835
	c-16.235-1.394-44.183,8.819-55.54,14.599C82.447,83.385,0.821,85.545,0,85.565l0.035,1.432
	c0.824-0.021,82.773-2.188,111.868-16.995c11.229-5.715,38.818-15.822,54.767-14.448c4.252,0.366,9.438,2.488,14.93,4.734
	c9.316,3.812,19.874,8.132,30.876,6.498c4.823-0.716,13.709-3.752,24.959-7.597c29.515-10.086,74.116-25.328,110.64-22.48
	c26.553,2.072,66.375-0.927,95.107-3.806c8.619-0.864,17.515-1.854,25.661-2.823c-33.588,4.233-86.751,9.54-120.847,6.88
	c-38.238-2.984-81.712,12.875-110.477,23.367c-11.348,4.139-20.311,7.408-25.335,8.154c-11.048,1.645-21.053-2.752-29.88-6.628
	c-5.553-2.439-10.798-4.742-15.53-5.149c-17.186-1.475-43.78,9.353-55.439,15.286C81.143,87.356,0.808,89.618,0,89.639l0.036,1.351
	c0.811-0.021,81.449-2.291,111.914-17.796c11.54-5.873,37.827-16.593,54.71-15.144c4.508,0.388,9.654,2.648,15.102,5.041
	c8.994,3.95,19.186,8.425,30.622,6.729c5.16-0.767,14.18-4.057,25.6-8.222c28.655-10.452,71.963-26.25,109.908-23.289
	c27.801,2.168,67.601-0.971,96.092-3.986c13.244-1.401,26.854-3.1,37.424-4.541c-30.86,4.49-93.129,12.013-133.601,8.859
	c-39.671-3.091-81.891,13.322-109.832,24.183c-11.463,4.456-20.517,7.975-25.87,8.77c-11.487,1.706-21.142-2.839-29.66-6.849
	c-5.5-2.589-10.694-5.034-15.687-5.463c-18.488-1.594-44.859,10.64-55.338,15.973C79.839,91.326,0.795,93.692,0,93.713l0.036,1.271
	c0.797-0.022,80.125-2.396,111.96-18.598c10.381-5.283,36.485-17.398,54.653-15.839c4.766,0.41,9.86,2.809,15.254,5.347
	c8.682,4.087,18.522,8.719,30.388,6.956c5.494-0.815,14.606-4.357,26.144-8.843c27.832-10.819,69.891-27.172,109.272-24.1
	c29.054,2.265,68.825-1.015,97.075-4.165c18.103-2.019,35.734-4.486,46.21-6.14c-24.987,4.204-96.065,14.404-143.376,10.717
	c-41.106-3.205-82.122,13.768-109.267,25c-11.534,4.771-20.644,8.541-26.325,9.385c-11.924,1.771-21.243-2.926-29.464-7.069
	c-5.434-2.739-10.567-5.326-15.82-5.778c-19.248-1.659-44.468,11.18-55.237,16.661C78.535,95.296,0.782,97.765,0,97.789l0.035,1.189
	c0.784-0.023,78.802-2.5,112.007-19.399c10.679-5.434,35.686-18.162,54.595-16.535c5.025,0.432,10.058,2.969,15.387,5.655
	c8.38,4.224,17.876,9.012,30.175,7.184c5.826-0.865,14.996-4.659,26.605-9.463c27.041-11.188,67.905-28.096,108.719-24.913
	c30.3,2.362,70.048-1.058,98.058-4.343c25.79-3.025,48.734-6.785,53.965-7.946C492.004,31.036,405.678,46.538,347.427,42
	c-42.54-3.318-82.396,14.217-108.773,25.818c-11.566,5.088-20.701,9.106-26.71,9.998c-12.366,1.837-21.355-3.012-29.288-7.289
	c-5.358-2.89-10.42-5.618-15.934-6.093c-18.202-1.568-38.99,9.081-52.748,16.127c-0.824,0.423-1.621,0.831-2.389,1.221
	C77.231,99.266,0.769,101.839,0,101.863l0.035,1.109c0.771-0.024,77.479-2.604,112.054-20.2c0.768-0.392,1.565-0.8,2.391-1.223
	c13.645-6.987,34.265-17.546,52.147-16.009c5.285,0.454,10.248,3.131,15.502,5.964c8.085,4.36,17.25,9.301,29.978,7.411
	c6.156-0.915,15.352-4.96,26.994-10.081c26.276-11.557,65.987-29.022,108.24-25.729c31.546,2.46,71.269-1.102,99.038-4.522
	c26.199-3.227,49.529-7.313,53.621-8.376V0z M213.683,3.126c-0.426,0.006-1.244,0.006-2.367,0H213.683z M214.212,6.15v0.003
	c0.289-0.016,1.284-0.039,2.871-0.066c-1.888,0.064-3.028,0.115-3.261,0.15c-0.574,0.054-5.122-0.015-11.174-0.141
	C208.737,6.16,213.391,6.19,214.212,6.15z M214.18,9.18c0.923-0.084,5.643-0.235,12.811-0.427c-7.7,0.3-12.759,0.522-13.276,0.599
	c-1.036,0.141-10.24-0.135-20.21-0.498C203.789,9.111,213.32,9.307,214.18,9.18z M214.123,12.208
	c0.134-0.016,4.273-0.182,11.035-0.44c-6.638,0.353-10.915,0.607-11.525,0.698c-1.678,0.249-14.359-0.335-26.075-0.959
	C199.545,11.987,212.577,12.438,214.123,12.208z M214.044,15.238c0.709-0.104,7.837-0.503,18.576-1.05
	c-10.576,0.683-17.822,1.204-19.068,1.389c-2.481,0.369-19.422-0.708-32.25-1.617C194.311,14.692,211.736,15.58,214.044,15.238z
	 M213.952,18.271c1.595-0.237,13.06-1.028,28.753-2.004c-15.938,1.21-27.603,2.181-29.234,2.422
	c-1.784,0.264-9.659,0.047-36.097-2.29C190.289,17.341,210.852,18.73,213.952,18.271z M213.391,21.801
	c-4.509,0.666-29.467-1.973-40.655-3.164c24.703,2.231,38.175,3.106,41.124,2.665c1.78-0.265,15.537-1.399,33.741-2.766
	C229.172,20.174,215.222,21.529,213.391,21.801z M348.565,31.921c-2.073-0.161-4.204-0.256-6.385-0.293
	c2.218,0.03,4.37,0.121,6.444,0.282c14.575,1.137,36.136,0.495,57.489-0.762C384.344,32.481,363.274,33.068,348.565,31.921z"/>
<path fill="#FFFFFF" d="M500,30.26c-2.956,1.075-91.601,18.19-152.763,13.42c-43.967-3.425-82.704,14.666-108.336,26.639
	c-11.565,5.402-20.701,9.67-27.037,10.611c-12.801,1.903-21.104-2.883-29.131-7.51c-5.273-3.04-10.255-5.911-16.028-6.408
	c-17.704-1.525-36.278,8.221-49.839,15.335c-1.822,0.955-3.559,1.866-5.197,2.7C75.927,103.238,0.756,105.913,0,105.937l0.034,1.028
	c0.757-0.024,76.155-2.707,112.101-21.001c1.642-0.835,3.382-1.749,5.208-2.707c13.448-7.055,31.861-16.719,49.273-15.22
	c5.546,0.478,10.431,3.292,15.603,6.273c7.799,4.496,16.638,9.591,29.796,7.636c6.484-0.963,15.68-5.258,27.321-10.696
	c25.534-11.927,64.111-29.956,107.822-26.545c32.788,2.555,72.486-1.145,100.016-4.7c26.851-3.468,48.976-7.669,52.826-8.712V30.26z
	"/>
<path fill="#FFFFFF" d="M500,31.426c-3.042,1.167-89.067,18.913-152.952,13.934C301.646,41.822,264,60.475,239.092,72.819
	c-11.535,5.717-20.646,10.232-27.309,11.223c-13.244,1.967-21.248-2.963-28.99-7.73c-5.181-3.188-10.074-6.202-16.106-6.721
	c-17.481-1.509-34.179,7.546-47.593,14.818c-2.584,1.401-5.025,2.724-7.341,3.903C74.624,107.208,0.743,109.986,0.001,110.011
	l0.033,0.948c0.744-0.026,74.832-2.812,112.148-21.803c2.328-1.185,4.773-2.511,7.363-3.915
	c13.303-7.211,29.857-16.185,47.06-14.707c5.809,0.5,10.609,3.455,15.691,6.584c7.519,4.63,16.042,9.878,29.626,7.86
	c6.811-1.012,15.981-5.557,27.591-11.311c26.296-13.034,62.312-30.883,107.46-27.363c34.032,2.654,73.704-1.188,100.991-4.878
	c26.4-3.57,48.286-7.958,52.034-9.04V31.426z"/>
<path fill="#FFFFFF" d="M500,32.592c-3.138,1.27-86.468,19.645-153.142,14.447c-46.85-3.649-81.974,14.804-107.619,28.28
	c-11.479,6.032-20.545,10.797-27.536,11.835c-13.682,2.031-21.401-3.043-28.865-7.951c-5.08-3.34-9.878-6.494-16.169-7.036
	c-17.409-1.492-32.482,6.985-45.779,14.47c-3.168,1.783-6.162,3.468-9.054,4.94C73.32,111.178,0.73,114.059,0.002,114.086
	l0.032,0.867c0.73-0.027,73.509-2.916,112.195-22.604c2.909-1.48,5.909-3.169,9.086-4.958c13.188-7.423,28.136-15.84,45.279-14.36
	c6.072,0.522,10.781,3.619,15.767,6.896c7.247,4.766,15.458,10.167,29.469,8.084c7.137-1.06,16.26-5.854,27.812-11.924
	c25.552-13.428,60.547-31.818,107.148-28.184c35.275,2.75,74.919-1.23,101.966-5.054c26.909-3.805,47.691-8.32,51.243-9.378V32.592z
	"/>
<path fill="#FFFFFF" d="M500,33.759c-3.174,1.34-85.322,20.263-153.331,14.96c-48.293-3.768-82.412,15.23-107.325,29.102
	c-11.399,6.346-20.402,11.358-27.721,12.445c-14.125,2.096-21.562-3.123-28.754-8.173c-4.972-3.489-9.668-6.786-16.217-7.35
	c-17.434-1.499-31.691,6.855-44.271,14.229c-3.629,2.127-7.058,4.136-10.461,5.868c-39.902,20.308-111.2,23.293-111.916,23.32
	l0.031,0.786c0.717-0.028,72.185-3.019,112.242-23.405c3.424-1.742,6.862-3.758,10.502-5.891
	c12.479-7.313,26.621-15.606,43.806-14.123c6.337,0.545,10.949,3.782,15.832,7.21c7.319,5.137,14.885,10.45,29.322,8.306
	c7.46-1.107,16.519-6.151,27.988-12.536c24.827-13.821,58.829-32.751,106.881-29.004c8.412,0.656,17.021,0.945,25.677,0.945
	C432.151,50.447,493.738,36.608,500,34.572V33.759z"/>
<path fill="#FFFFFF" d="M500,34.927c-3.302,1.467-82.601,21.002-153.521,15.472c-49.731-3.876-82.872,15.658-107.068,29.922
	c-11.298,6.66-20.223,11.921-27.87,13.057c-14.566,2.166-21.729-3.203-28.656-8.394c-4.859-3.64-9.448-7.077-16.252-7.663
	c-17.517-1.505-30.468,6.41-42.992,14.066c-3.996,2.442-7.769,4.749-11.639,6.719C70.712,119.119,0.706,122.207,0.003,122.235
	l0.029,0.706c0.704-0.029,70.862-3.123,112.289-24.206c3.895-1.982,7.68-4.296,11.688-6.746
	c12.427-7.596,25.273-15.455,42.563-13.965c6.604,0.569,11.114,3.948,15.889,7.525c7.043,5.277,14.324,10.73,29.184,8.526
	c7.783-1.155,16.759-6.447,28.124-13.146c24.116-14.217,57.145-33.687,106.654-29.827c8.581,0.669,17.312,0.964,26.045,0.964
	C433.316,52.065,493.96,37.734,500,35.663V34.927z"/>
<path fill="#FFFFFF" d="M500,36.095c-3.375,1.558-81.363,21.627-153.711,15.984c-51.178-3.988-83.35,16.084-106.843,30.743
	c-11.179,6.975-20.009,12.483-27.984,13.668c-15.008,2.229-21.904-3.284-28.571-8.616c-4.739-3.789-9.215-7.367-16.275-7.976
	c-17.652-1.517-29.972,6.351-41.891,13.96c-4.286,2.736-8.334,5.321-12.64,7.513C69.409,123.088,0.693,126.28,0.004,126.309
	l0.027,0.626c0.69-0.03,69.539-3.228,112.336-25.008c4.333-2.204,8.583-4.918,12.693-7.542
	c11.832-7.554,24.066-15.363,41.501-13.864c6.872,0.591,11.275,4.113,15.938,7.842c6.773,5.415,13.777,11.017,29.054,8.745
	c8.104-1.203,16.982-6.742,28.223-13.756c23.419-14.612,55.492-34.624,106.463-30.65c38.986,3.039,78.548-1.356,104.872-5.581
	c26.603-4.269,45.74-9.264,48.888-10.376V36.095z"/>
</svg>
