<?xml version="1.0" encoding="utf-8"?>
<!-- Generator: Adobe Illustrator 15.0.0, SVG Export Plug-In  -->
<!DOCTYPE svg PUBLIC "-//W3C//DTD SVG 1.1//EN" "http://www.w3.org/Graphics/SVG/1.1/DTD/svg11.dtd" [
	<!ENTITY ns_flows "http://ns.adobe.com/Flows/1.0/">
]>
<svg version="1.1"
	 xmlns="http://www.w3.org/2000/svg" xmlns:xlink="http://www.w3.org/1999/xlink" xmlns:a="http://ns.adobe.com/AdobeSVGViewerExtensions/3.0/"
	 x="0px" y="0px" width="840px" height="150px" viewBox="0.961 2.5 840 150"
	 overflow="visible" enable-background="new 0.961 2.5 840 150" xml:space="preserve">
<defs>
</defs>
<linearGradient id="SVGID_1_" gradientUnits="userSpaceOnUse" x1="0" y1="2.5" x2="840.7896" y2="2.5">
	<stop  offset="0" style="stop-color:#FFFFFF;stop-opacity:0"/>
	<stop  offset="0.135" style="stop-color:#FFFFFF"/>
	<stop  offset="0.8712" style="stop-color:#FFFFFF"/>
	<stop  offset="1" style="stop-color:#FFFFFF;stop-opacity:0"/>
</linearGradient>
<rect fill="url(#SVGID_1_)" width="840.79" height="5"/>
<linearGradient id="SVGID_2_" gradientUnits="userSpaceOnUse" x1="2.3433" y1="6.3633" x2="838.4653" y2="6.3633">
	<stop  offset="0" style="stop-color:#FFFFFF;stop-opacity:0"/>
	<stop  offset="0.135" style="stop-color:#FFFFFF"/>
	<stop  offset="0.8712" style="stop-color:#FFFFFF"/>
	<stop  offset="1" style="stop-color:#FFFFFF;stop-opacity:0"/>
</linearGradient>
<path fill="url(#SVGID_2_)" d="M523.303,11.446c-3.868,0-7.861-0.005-11.98-0.016c-30.975-0.077-92.815-0.682-95.402-1.732
	l-0.264-0.107c-4.975-0.767-46.746-0.411-50.297,0.113c-1.521,0.344-5.634,0.524-19.517,0.732
	c-12.079,0.18-27.178,0.253-41.425,0.207c-27.722-0.095-61.85-0.646-67.01-2.733c-0.514-0.208-0.898-0.465-1.186-0.74
	C225.203,4.823,91.196,6.716,2.445,8.594l-0.102-4.8c0.587-0.012,59.431-1.251,117.566-1.98c34.151-0.429,61.383-0.6,80.938-0.509
	c11.63,0.054,20.647,0.203,26.801,0.441c7.815,0.303,10.888,0.567,11.992,1.865c10.378,3.002,119.081,2.452,124.583,1.455
	c-0.036,0.007-0.293,0.058-0.608,0.245c0.93-0.493,4.018-0.777,25.886-0.925c11.344-0.078,25.36-0.029,27.708,0.63
	c0.174,0.049,0.332,0.107,0.476,0.173c4.583,0.508,45.76,1.332,94.625,1.443c66.842,0.155,93.789-1.184,96.72-2.485
	c1.623-0.844,5.989-3.114,118.55-1.456c55.35,0.815,110.336,2.204,110.885,2.218l-0.121,4.799
	C751.231,7.496,618.843,5.333,611.173,8.44C607.348,10.43,577.792,11.446,523.303,11.446z"/>
<linearGradient id="SVGID_3_" gradientUnits="userSpaceOnUse" x1="4.6904" y1="10.2266" x2="836.1421" y2="10.2266">
	<stop  offset="0" style="stop-color:#FFFFFF;stop-opacity:0"/>
	<stop  offset="0.135" style="stop-color:#FFFFFF"/>
	<stop  offset="0.8712" style="stop-color:#FFFFFF"/>
	<stop  offset="1" style="stop-color:#FFFFFF;stop-opacity:0"/>
</linearGradient>
<path fill="url(#SVGID_3_)" d="M518.34,17.89c-3.396,0-6.751-0.008-10.046-0.023c-39.644-0.182-88.773-1.63-92.702-3.225
	c-0.342-0.139-0.609-0.317-0.818-0.508c-5.17-1.513-44.816-0.574-49.094,0.219c-1.107,0.508-4.377,1.019-18.936,1.484
	c-11.155,0.355-25.269,0.523-38.727,0.469c-21.188-0.091-58.125-0.807-67.446-4.576c-0.639-0.258-2.365-0.957-3.048-2.468
	C226.356,4.634,92.958,8.444,4.886,12.186L4.69,7.589c0.585-0.025,59.18-2.503,117.119-3.961c34.043-0.856,61.205-1.197,80.74-1.018
	c11.633,0.108,20.669,0.406,26.858,0.886c8.643,0.67,11.689,1.542,12.318,3.72c2.864,1.866,20.362,4.096,61.064,4.454
	c31.073,0.269,58.431-0.729,61.01-1.512c-0.008,0.002-0.148,0.046-0.337,0.167c0.799-0.482,3.824-1.208,24.604-1.535
	c8.724-0.137,23.969-0.196,28.067,0.956c0.282,0.079,0.911,0.256,1.467,0.691c5.109,1.016,45.145,2.638,91.554,2.833
	c54.853,0.229,91.625-1.727,98.378-5.237c17.871-9.29,220.014,1.333,228.61,1.789l-0.244,4.595
	c-58.209-3.092-212.327-9.533-226.245-2.301C600.644,16.798,557.041,17.89,518.34,17.89z"/>
<linearGradient id="SVGID_4_" gradientUnits="userSpaceOnUse" x1="7.042" y1="14.0879" x2="833.8208" y2="14.0879">
	<stop  offset="0" style="stop-color:#FFFFFF;stop-opacity:0"/>
	<stop  offset="0.135" style="stop-color:#FFFFFF"/>
	<stop  offset="0.8712" style="stop-color:#FFFFFF"/>
	<stop  offset="1" style="stop-color:#FFFFFF;stop-opacity:0"/>
</linearGradient>
<path fill="url(#SVGID_4_)" d="M513.136,24.333c-2.701,0-5.288-0.009-7.737-0.024c-41.013-0.25-84.761-2.508-90.021-4.644
	c-0.585-0.238-1.03-0.567-1.332-0.983c-5.053-2.257-45.041-0.774-48.463,0.389c0.014-0.005,0.218-0.078,0.458-0.282
	c-3.815,3.235-54.23,3.184-54.741,3.182c-15.905-0.045-54.271-0.705-66.986-5.849c-1.149-0.464-4.528-1.832-5.127-4.654
	c-2.561-1.857-19.733-5.361-119.279-1.474c-56.34,2.2-112.03,5.749-112.586,5.785l-0.281-4.393
	C7.625,11.348,65.97,7.63,123.711,5.442c33.935-1.286,61.031-1.8,80.539-1.528c35.686,0.498,38.928,3.437,39.248,6.664
	c0.908,2.055,14.342,6.239,58.593,6.908c30.913,0.471,58.556-1.041,61.395-2.249c-0.005,0.002-0.128,0.055-0.29,0.193
	c2.841-2.409,43.882-3.277,51.665-1.093c0.525,0.147,1.717,0.482,2.484,1.358c5.056,1.513,43.629,3.93,87.804,4.209
	c53.688,0.349,90.475-2.575,100.908-7.998c26.537-13.792,219.561,2.141,227.765,2.826l-0.366,4.387
	c-1.996-0.167-199.949-16.518-225.369-3.306C594.15,23.056,545.59,24.333,513.136,24.333z"/>
<linearGradient id="SVGID_5_" gradientUnits="userSpaceOnUse" x1="9.3975" y1="17.9941" x2="831.4966" y2="17.9941">
	<stop  offset="0" style="stop-color:#FFFFFF;stop-opacity:0"/>
	<stop  offset="0.135" style="stop-color:#FFFFFF"/>
	<stop  offset="0.8712" style="stop-color:#FFFFFF"/>
	<stop  offset="1" style="stop-color:#FFFFFF;stop-opacity:0"/>
</linearGradient>
<path fill="url(#SVGID_5_)" d="M508.731,30.864c-44.09,0-86.75-3.366-93.415-6.073c-0.613-0.25-1.439-0.669-1.861-1.512
	c-4.414-3.025-43.375-1.343-47.804,0.458c-4.307,2.804-33.578,3.878-51.366,3.894c-14.792,0.015-50.895-0.611-65.859-6.665
	c-4.681-1.894-7.116-4.225-7.441-7.124c-0.479-0.751-4.504-4.041-38.081-4.469c-19.65-0.254-46.449,0.494-79.666,2.212
	c-56.6,2.928-112.92,7.734-113.482,7.783l-0.359-4.187c0.58-0.05,58.675-5.008,116.218-7.926c33.824-1.715,60.85-2.402,80.333-2.037
	c35.502,0.662,38.855,4.545,39.21,8.133c0.088,0.889,1.159,1.913,3.015,2.883c20.248,10.579,109.52,7.041,115.062,4.07
	c3.918-2.81,41.466-3.938,50.249-1.473c1.171,0.329,2.719,0.894,3.499,2.112c4.704,2.004,41.75,5.23,83.96,5.595
	c51.859,0.454,89.616-3.471,103.636-10.757c35.208-18.296,219.107,2.953,226.918,3.866l-0.488,4.174
	c-1.9-0.223-190.421-22.018-224.492-4.311C590.017,28.086,548.784,30.864,508.731,30.864z"/>
<linearGradient id="SVGID_6_" gradientUnits="userSpaceOnUse" x1="11.7563" y1="21.8135" x2="829.1724" y2="21.8135">
	<stop  offset="0" style="stop-color:#FFFFFF;stop-opacity:0"/>
	<stop  offset="0.135" style="stop-color:#FFFFFF"/>
	<stop  offset="0.8712" style="stop-color:#FFFFFF"/>
	<stop  offset="1" style="stop-color:#FFFFFF;stop-opacity:0"/>
</linearGradient>
<path fill="url(#SVGID_6_)" d="M504.155,37.221c-1.376,0-2.705-0.004-3.992-0.012c-40.143-0.246-76.858-3.968-84.703-7.154
	c-0.948-0.385-2.08-0.969-2.501-2.092c-1.012-1.107-7.991-2.546-23.336-2.063c-12.433,0.394-22.46,1.763-24.031,2.548
	c-4.297,3.333-31.342,4.715-48.601,4.831c-13.795,0.085-47.679-0.417-64.245-7.117c-6.189-2.503-9.522-5.747-9.908-9.642
	c-0.035-0.349-0.396-0.71-0.693-0.952c-15.478-12.581-171.245,1.069-229.958,7.39l-0.429-3.979
	c0.53-0.057,53.654-5.75,108.479-9.432c32.225-2.164,58.743-3.221,78.783-3.138c25.834,0.104,40.767,2.084,45.649,6.053
	c1.292,1.049,2.016,2.282,2.152,3.664c0.256,2.59,3.523,4.589,6.218,5.809c24.57,11.128,104.781,7.163,110.072,3.372
	c3.407-2.888,38.594-4.959,48.957-2.048c1.551,0.436,3.639,1.203,4.476,2.909c3.802,2.251,36.116,6.506,80.013,7.006
	c29.436,0.333,82.412-0.975,106.544-13.517c43.875-22.802,218.653,3.768,226.071,4.909l-0.609,3.956
	c-1.803-0.277-180.892-27.514-223.616-5.313C581.806,35.236,533.481,37.221,504.155,37.221z"/>
<linearGradient id="SVGID_7_" gradientUnits="userSpaceOnUse" x1="14.1206" y1="25.6475" x2="826.8491" y2="25.6475">
	<stop  offset="0" style="stop-color:#FFFFFF;stop-opacity:0"/>
	<stop  offset="0.135" style="stop-color:#FFFFFF"/>
	<stop  offset="0.8712" style="stop-color:#FFFFFF"/>
	<stop  offset="1" style="stop-color:#FFFFFF;stop-opacity:0"/>
</linearGradient>
<path fill="url(#SVGID_7_)" d="M499.759,43.593c-39.147,0-74.632-4.331-83.886-8.089c-1.954-0.793-2.985-1.631-3.345-2.716
	c-0.002-0.006-0.212-0.583-2.098-1.234c-10.333-3.567-41.997-0.325-44.969,1.647c-7.148,6.066-80.385,9.724-108.328-1.577
	c-7.751-3.135-11.936-7.29-12.437-12.348c-0.065-0.664-0.489-1.297-1.295-1.938C225.882,3.415,86.083,17.274,14.61,26.549
	l-0.489-3.771c0.519-0.067,52.531-6.787,106.657-11.206c73.098-5.969,115.152-5.03,124.99,2.789c1.631,1.296,2.544,2.823,2.714,4.54
	c0.35,3.54,3.741,6.634,10.078,9.197c29.298,11.85,99.741,6.193,104.481,2.171c3.618-3.069,35.657-5.983,47.602-2.631
	c2.967,0.833,4.74,2.05,5.409,3.716c3.123,2.671,33.78,7.826,75.914,8.45c28.448,0.417,80.53-1.133,109.657-16.271
	c52.544-27.312,218.198,4.581,225.226,5.952l-0.729,3.733c-1.707-0.333-171.372-33.01-222.743-6.311
	C579.109,39.522,537.712,43.593,499.759,43.593z"/>
<linearGradient id="SVGID_8_" gradientUnits="userSpaceOnUse" x1="16.4883" y1="29.561" x2="824.5229" y2="29.561">
	<stop  offset="0" style="stop-color:#FFFFFF;stop-opacity:0"/>
	<stop  offset="0.135" style="stop-color:#FFFFFF"/>
	<stop  offset="0.8712" style="stop-color:#FFFFFF"/>
	<stop  offset="1" style="stop-color:#FFFFFF;stop-opacity:0"/>
</linearGradient>
<path fill="url(#SVGID_8_)" d="M495.385,50.111c-35.554,0-67.907-4.521-78.743-8.921c-2.681-1.089-4.071-2.163-4.509-3.484
	c-0.123-0.372-0.724-1.33-3.635-2.186c-11.82-3.475-40.443,0.239-43.179,2.446c-7.885,6.69-75.143,10.919-103.817-0.679
	c-9.286-3.756-14.314-8.888-14.945-15.254c-0.109-1.103-0.757-2.101-1.981-3.052C219.633-0.402,19.054,29.832,17.03,30.139
	l-0.542-3.562c8.323-1.266,204.143-30.768,230.299-10.442c2.018,1.568,3.147,3.433,3.356,5.542
	c0.488,4.928,4.764,9.055,12.71,12.269c28.562,11.551,93.769,6.67,100.137,1.271c3.873-3.284,34.14-6.633,46.263-3.229
	c3.5,0.983,5.554,2.456,6.273,4.501c2.346,3.08,31.11,9.156,71.579,9.939c27.53,0.533,78.813-1.229,113.043-19.018
	c25.759-13.387,71.383-16.267,135.602-8.563c47.669,5.719,88.367,15.467,88.773,15.565l-0.846,3.503
	c-1.61-0.389-161.847-38.5-221.867-7.307c-30.864,16.04-74.588,19.459-105.832,19.503C495.782,50.111,495.582,50.111,495.385,50.111
	z"/>
<linearGradient id="SVGID_9_" gradientUnits="userSpaceOnUse" x1="18.8604" y1="33.4312" x2="822.1938" y2="33.4312">
	<stop  offset="0" style="stop-color:#FFFFFF;stop-opacity:0"/>
	<stop  offset="0.135" style="stop-color:#FFFFFF"/>
	<stop  offset="0.8712" style="stop-color:#FFFFFF"/>
	<stop  offset="1" style="stop-color:#FFFFFF;stop-opacity:0"/>
</linearGradient>
<path fill="url(#SVGID_9_)" d="M490.167,56.587c-32.384,0-60.179-4.478-72.319-9.409c-3.627-1.473-5.569-2.921-6.11-4.556
	c-0.406-1.224-2.052-2.273-4.762-3.034c-12.375-3.473-38.862,0.65-41.834,3.17c-8.662,7.346-70.348,12.072-99.371,0.333
	c-10.742-4.345-16.581-10.504-17.353-18.304c-0.158-1.599-1.055-2.999-2.742-4.28C217.872-0.613,21.427,33.383,19.446,33.729
	l-0.586-3.354c8.149-1.423,199.897-34.59,228.875-12.579c2.448,1.859,3.817,4.099,4.07,6.656c0.638,6.441,5.766,11.65,15.242,15.483
	c28.95,11.712,88.787,6.252,95.892,0.227c4.345-3.684,32.558-7.332,44.957-3.851c3.904,1.096,6.284,2.859,7.073,5.241
	c0.003,0.005,0.543,1.187,5.528,2.998c24.743,8.988,117.006,18.523,178.173-13.263c29.386-15.271,75.962-18.55,138.433-9.746
	c46.391,6.538,84.709,17.686,85.091,17.797l-0.957,3.268c-1.515-0.445-152.33-43.987-220.996-8.298
	C568.081,51.02,526.272,56.587,490.167,56.587z"/>
<linearGradient id="SVGID_10_" gradientUnits="userSpaceOnUse" x1="21.2368" y1="37.2695" x2="819.8628" y2="37.2695">
	<stop  offset="0" style="stop-color:#FFFFFF;stop-opacity:0"/>
	<stop  offset="0.135" style="stop-color:#FFFFFF"/>
	<stop  offset="0.8712" style="stop-color:#FFFFFF"/>
	<stop  offset="1" style="stop-color:#FFFFFF;stop-opacity:0"/>
</linearGradient>
<path fill="url(#SVGID_10_)" d="M486.429,62.999c-30.028,0-54.912-4.609-66.888-9.473c-4.833-1.963-7.516-3.922-8.2-5.989
	c-0.682-2.056-3.43-3.219-5.616-3.832c-12.434-3.492-37.555,1.125-40.764,3.847c-9.243,7.838-65.592,13.369-95.063,1.45
	c-12.093-4.892-18.695-12.112-19.621-21.46c-0.213-2.15-1.381-3.985-3.571-5.611C216.223-0.704,23.798,36.935,21.857,37.318
	l-0.62-3.145c7.979-1.575,195.768-38.287,227.381-14.816c2.915,2.164,4.547,4.812,4.85,7.869
	c0.799,8.068,6.731,14.395,17.633,18.804c29.487,11.925,84.185,5.526,91.788-0.923c4.781-4.055,31.012-8.049,43.703-4.488
	c4.268,1.198,6.889,3.187,7.792,5.91c0.057,0.171,0.715,1.733,6.364,4.027c12.559,5.101,39.809,9.917,72.385,9.16
	c27.12-0.625,67.188-5.394,104.061-24.555c41.117-21.369,99.513-17.736,141.262-10.926c45.112,7.358,81.05,19.907,81.408,20.033
	l-1.064,3.023c-0.355-0.125-36.068-12.592-80.912-19.902c-41.254-6.725-98.893-10.341-139.215,10.615
	c-37.42,19.445-78.006,24.282-105.465,24.916C490.922,62.973,488.66,62.999,486.429,62.999z"/>
<linearGradient id="SVGID_11_" gradientUnits="userSpaceOnUse" x1="23.6187" y1="41.127" x2="817.5288" y2="41.127">
	<stop  offset="0" style="stop-color:#FFFFFF;stop-opacity:0"/>
	<stop  offset="0.135" style="stop-color:#FFFFFF"/>
	<stop  offset="0.8712" style="stop-color:#FFFFFF"/>
	<stop  offset="1" style="stop-color:#FFFFFF;stop-opacity:0"/>
</linearGradient>
<path fill="url(#SVGID_11_)" d="M481.845,69.447c-27.448,0-48.741-4.547-60.173-9.19c-6.243-2.535-9.852-5.16-10.727-7.8
	c-0.688-2.078-2.848-3.64-6.418-4.642c-12.707-3.568-36.169,1.497-39.746,4.532c-9.892,8.389-61.322,14.615-90.938,2.635
	c-13.313-5.385-20.616-13.69-21.705-24.684c-0.272-2.754-1.731-5.055-4.46-7.035C214.693-0.671,26.166,40.488,24.265,40.907
	l-0.646-2.936C31.432,36.251,215.374-3.89,249.443,20.83c3.416,2.478,5.329,5.564,5.686,9.171c0.97,9.794,7.645,17.261,19.84,22.194
	c29.684,12.007,79.675,4.807,87.867-2.141c4.627-3.925,29.152-8.881,42.502-5.134c4.591,1.289,7.438,3.506,8.459,6.591
	c0.427,1.287,3.016,3.529,9.004,5.961c25.174,10.223,100.559,19.167,172.913-18.438c45.633-23.714,103.541-19.671,144.089-12.105
	c43.835,8.181,77.391,22.134,77.725,22.274l-1.162,2.771c-0.331-0.139-33.642-13.985-77.175-22.102
	c-40.063-7.47-97.236-11.482-142.09,11.829c-40.084,20.832-79.112,26.468-104.795,27.528
	C488.732,69.377,485.239,69.447,481.845,69.447z"/>
<linearGradient id="SVGID_12_" gradientUnits="userSpaceOnUse" x1="26.0039" y1="44.9751" x2="815.188" y2="44.9751">
	<stop  offset="0" style="stop-color:#FFFFFF;stop-opacity:0"/>
	<stop  offset="0.135" style="stop-color:#FFFFFF"/>
	<stop  offset="0.8712" style="stop-color:#FFFFFF"/>
	<stop  offset="1" style="stop-color:#FFFFFF;stop-opacity:0"/>
</linearGradient>
<path fill="url(#SVGID_12_)" d="M477.768,75.875c-20.714,0-40.132-3.034-53.734-8.559c-7.593-3.083-12.381-6.615-13.485-9.944
	c-0.835-2.52-3.245-4.355-7.163-5.455c-11.951-3.354-34.417,1.517-38.785,5.223c-10.004,8.484-57.601,15.764-87.017,3.865
	c-14.391-5.821-22.326-15.226-23.586-27.953c-0.338-3.409-2.105-6.202-5.403-8.541C213.273-0.528,28.53,44.043,26.667,44.497
	l-0.664-2.727c7.654-1.862,187.857-45.323,224.214-19.548c3.945,2.796,6.156,6.347,6.572,10.553
	c1.149,11.607,8.5,20.229,21.846,25.628c28.023,11.335,74.811,4.515,84.149-3.404c5.389-4.57,28.749-9.323,41.358-5.784
	c4.871,1.368,7.922,3.815,9.068,7.274c0.816,2.463,5.256,5.539,11.876,8.228c24.695,10.029,91.826,18.379,169.148-21.806
	c50.146-26.06,107.568-21.609,146.912-13.286c42.557,9.003,73.728,24.363,74.038,24.518l-1.25,2.513
	c-0.307-0.153-31.214-15.376-73.438-24.299c-38.873-8.216-95.58-12.621-144.967,13.045c-33.522,17.421-69.481,27.805-103.991,30.03
	C486.92,75.729,482.312,75.875,477.768,75.875z"/>
<linearGradient id="SVGID_13_" gradientUnits="userSpaceOnUse" x1="28.394" y1="48.8457" x2="812.8394" y2="48.8457">
	<stop  offset="0" style="stop-color:#FFFFFF;stop-opacity:0"/>
	<stop  offset="0.135" style="stop-color:#FFFFFF"/>
	<stop  offset="0.8712" style="stop-color:#FFFFFF"/>
	<stop  offset="1" style="stop-color:#FFFFFF;stop-opacity:0"/>
</linearGradient>
<path fill="url(#SVGID_13_)" d="M472.825,82.347c-23.406,0-38.739-4.591-46.518-7.75c-8.868-3.602-14.755-8.087-16.154-12.309
	c-0.986-2.975-3.628-5.084-7.854-6.271c-12.234-3.435-33.175,1.927-37.877,5.916c-10.473,8.881-54.678,16.7-83.309,5.118
	c-15.102-6.109-23.834-16.913-25.254-31.245c-0.407-4.111-2.498-7.421-6.392-10.118C211.969-0.284,30.891,47.6,29.066,48.087
	l-0.672-2.519c7.498-2,184.073-48.676,222.556-22.022c4.498,3.115,7.021,7.153,7.502,12.004c1.336,13.496,9.29,23.282,23.638,29.085
	c27.832,11.258,70.58,3.846,80.646-4.69c5.174-4.39,27.082-10.139,40.268-6.438c5.111,1.435,8.349,4.113,9.625,7.96
	c0.88,2.659,5.194,6.869,14.66,10.713c10.929,4.439,70.275,24.078,165.474-25.396c54.657-28.404,111.594-23.545,149.731-14.466
	c41.276,9.826,70.061,26.595,70.347,26.763l-1.322,2.247c-0.283-0.167-28.79-16.764-69.706-26.493
	c-37.688-8.961-93.93-13.759-147.849,14.262c-35.567,18.485-70.312,29.388-103.27,32.407
	C484.288,82.092,478.331,82.347,472.825,82.347z"/>
<linearGradient id="SVGID_14_" gradientUnits="userSpaceOnUse" x1="30.7886" y1="52.6865" x2="810.481" y2="52.6865">
	<stop  offset="0" style="stop-color:#FFFFFF;stop-opacity:0"/>
	<stop  offset="0.135" style="stop-color:#FFFFFF"/>
	<stop  offset="0.8712" style="stop-color:#FFFFFF"/>
	<stop  offset="1" style="stop-color:#FFFFFF;stop-opacity:0"/>
</linearGradient>
<path fill="url(#SVGID_14_)" d="M468.7,88.756c-15.522,0-29.486-2.303-40.524-6.786c-9.787-3.975-16.672-9.494-18.417-14.763
	c-1.141-3.442-3.998-5.828-8.494-7.089c-12.018-3.375-31.933,2.293-37.023,6.611c-10.569,8.963-51.54,17.821-79.816,6.383
	c-15.869-6.418-25.104-18.366-26.706-34.549c-0.481-4.859-2.909-8.706-7.42-11.758C210.773,0.066,33.248,51.158,31.459,51.677
	l-0.671-2.312c7.348-2.133,180.405-51.922,220.858-24.556c5.07,3.43,7.919,7.977,8.467,13.515
	c1.53,15.454,10.013,26.407,25.213,32.555c27.496,11.121,67.168,2.652,77.356-5.988c5.35-4.536,26.064-10.786,39.231-7.093
	c5.312,1.492,8.72,4.402,10.128,8.65c1.179,3.558,6.274,8.918,17.039,13.29c13.988,5.683,67.033,20.379,162.202-29.078
	c59.168-30.749,115.616-25.48,152.547-15.646c39.996,10.65,66.389,28.83,66.65,29.012l-1.375,1.976
	c-0.259-0.18-26.369-18.151-65.979-28.684c-36.5-9.706-92.281-14.898-150.733,15.478c-36.969,19.213-71.562,30.875-102.818,34.66
	C482.4,88.326,475.404,88.756,468.7,88.756z"/>
<linearGradient id="SVGID_15_" gradientUnits="userSpaceOnUse" x1="33.188" y1="56.5894" x2="808.1138" y2="56.5894">
	<stop  offset="0" style="stop-color:#FFFFFF;stop-opacity:0"/>
	<stop  offset="0.135" style="stop-color:#FFFFFF"/>
	<stop  offset="0.8712" style="stop-color:#FFFFFF"/>
	<stop  offset="1" style="stop-color:#FFFFFF;stop-opacity:0"/>
</linearGradient>
<path fill="url(#SVGID_15_)" d="M464.32,95.288c-15.946,0-27.3-2.877-34.888-5.958c-10.397-4.223-17.9-10.655-20.071-17.207
	c-1.298-3.919-4.354-6.579-9.081-7.906c-11.979-3.361-30.921,2.811-36.22,7.304c-12.125,10.283-50.456,18.198-76.541,7.647
	c-16.487-6.669-26.149-19.758-27.941-37.852c-0.56-5.651-3.334-10.051-8.482-13.453C209.692,0.509,35.604,54.719,33.849,55.269
	l-0.661-2.106c0.44-0.138,44.581-13.943,93.326-24.15c65.668-13.75,107.992-14.756,125.8-2.99c5.658,3.739,8.842,8.811,9.462,15.077
	c1.73,17.471,10.67,29.591,26.572,36.023c25.38,10.266,62.561,2.658,74.285-7.285c5.751-4.878,25.393-11.355,38.244-7.746
	c5.477,1.538,9.037,4.679,10.58,9.337c1.521,4.591,7.26,11.167,18.806,15.855c10.262,4.169,28.564,8.215,57.491,3.836
	c29.649-4.491,63.985-16.799,102.054-36.583c28.111-14.609,57.079-22.945,86.1-24.775c23.219-1.462,46.524,1.21,69.26,7.95
	c38.712,11.476,62.708,31.067,62.946,31.263l-1.406,1.702c-0.235-0.194-23.95-19.539-62.258-30.875
	c-35.316-10.45-90.636-16.038-153.624,16.695C532.442,86.838,491.643,95.287,464.32,95.288z"/>
<linearGradient id="SVGID_16_" gradientUnits="userSpaceOnUse" x1="35.5908" y1="60.4492" x2="805.731" y2="60.4492">
	<stop  offset="0" style="stop-color:#FFFFFF;stop-opacity:0"/>
	<stop  offset="0.135" style="stop-color:#FFFFFF"/>
	<stop  offset="0.8712" style="stop-color:#FFFFFF"/>
	<stop  offset="1" style="stop-color:#FFFFFF;stop-opacity:0"/>
</linearGradient>
<path fill="url(#SVGID_16_)" d="M459.796,101.731c-12.784,0.001-22.488-2.143-29.803-5.113
	c-15.165-6.159-19.757-15.744-21.028-19.579c-1.459-4.405-4.697-7.339-9.622-8.721c-11.944-3.354-30.002,3.366-35.463,7.997
	c-12.274,10.412-47.838,19.272-73.472,8.905c-16.966-6.862-26.983-21.091-28.969-41.149c-0.633-6.393-3.854-11.504-9.571-15.194
	C208.72,1.035,37.954,58.281,36.234,58.862l-0.644-1.902c0.432-0.146,43.717-14.719,91.829-25.627
	c64.795-14.69,107.032-16.084,125.538-4.143c6.258,4.038,9.784,9.651,10.48,16.683c1.936,19.543,11.263,32.828,27.724,39.485
	c24.958,10.096,59.515,1.523,71.42-8.574c5.893-4.999,24.532-11.985,37.305-8.399c5.607,1.574,9.303,4.946,10.985,10.023
	c1.183,3.57,5.488,12.505,19.877,18.35c13.921,5.653,32.453,6.438,55.082,2.332c28.622-5.193,63.107-18.206,102.499-38.678
	c30.096-15.641,60.247-24.565,89.617-26.524c23.516-1.573,46.577,1.297,68.551,8.519c37.424,12.3,59.019,33.302,59.232,33.512
	l-1.41,1.431c-0.211-0.208-21.534-20.925-58.543-33.065c-34.134-11.198-88.999-17.18-156.521,17.911
	C527.908,92.077,486.924,101.73,459.796,101.731z"/>
<linearGradient id="SVGID_17_" gradientUnits="userSpaceOnUse" x1="37.9985" y1="64.2754" x2="803.3325" y2="64.2754">
	<stop  offset="0" style="stop-color:#FFFFFF;stop-opacity:0"/>
	<stop  offset="0.135" style="stop-color:#FFFFFF"/>
	<stop  offset="0.8712" style="stop-color:#FFFFFF"/>
	<stop  offset="1" style="stop-color:#FFFFFF;stop-opacity:0"/>
</linearGradient>
<path fill="url(#SVGID_17_)" d="M455.13,108.108c-9.756,0-18.196-1.434-25.251-4.299c-13.437-5.457-19.005-14.896-21.31-21.854
	c-1.623-4.896-5.026-8.104-10.115-9.533c-11.072-3.108-28.249,3.169-34.754,8.686c-12.903,10.944-46.006,20.097-70.608,10.147
	c-17.306-6.999-27.608-22.363-29.793-44.429c-0.718-7.25-4.312-12.962-10.682-16.976C207.852,1.646,40.302,61.842,38.615,62.454
	l-0.616-1.701c0.423-0.153,42.879-15.472,90.368-27.075c63.936-15.621,106.064-17.425,125.215-5.357
	c6.867,4.326,10.742,10.493,11.518,18.328c2.145,21.66,11.791,36.104,28.671,42.931c23.973,9.699,56.206,0.798,68.76-9.85
	c6.961-5.904,24.606-12.363,36.413-9.049c5.703,1.602,9.52,5.204,11.343,10.706c2.186,6.596,7.477,15.55,20.274,20.747
	c20.388,8.283,64.053,8.091,156.293-39.847c32.081-16.672,63.416-26.185,93.136-28.274c23.812-1.676,46.628,1.384,67.836,9.088
	c36.132,13.124,55.318,35.534,55.508,35.758l-1.383,1.166c-0.187-0.222-19.123-22.312-54.835-35.258
	c-32.953-11.945-87.364-18.326-159.428,19.125c-40.858,21.233-75.771,34.986-103.77,40.877
	C473.338,106.995,463.723,108.107,455.13,108.108z"/>
<linearGradient id="SVGID_18_" gradientUnits="userSpaceOnUse" x1="40.4106" y1="68.124" x2="800.9204" y2="68.124">
	<stop  offset="0" style="stop-color:#FFFFFF;stop-opacity:0"/>
	<stop  offset="0.135" style="stop-color:#FFFFFF"/>
	<stop  offset="0.8712" style="stop-color:#FFFFFF"/>
	<stop  offset="1" style="stop-color:#FFFFFF;stop-opacity:0"/>
</linearGradient>
<path fill="url(#SVGID_18_)" d="M450.567,114.527c-8.325,0-15.47-1.206-21.42-3.623c-13.326-5.412-18.208-15.685-20.974-24.029
	c-1.788-5.397-5.344-8.878-10.569-10.345c-11.142-3.127-27.225,3.557-34.083,9.374c-13.004,11.029-43.844,21.118-67.935,11.373
	c-17.517-7.086-28.039-23.578-30.426-47.694c-0.807-8.145-4.779-14.466-11.808-18.79C207.093,2.337,42.647,65.409,40.992,66.048
	l-0.581-1.501c0.416-0.161,42.069-16.206,88.947-28.497c63.094-16.543,105.094-18.775,124.837-6.629
	c7.479,4.602,11.707,11.331,12.566,20.003c2.325,23.482,12.501,39.514,29.428,46.36c23.5,9.506,53.598-0.345,66.291-11.107
	c7.125-6.044,23.888-12.975,35.56-9.696c5.771,1.62,9.695,5.452,11.662,11.389c2.656,8.017,7.335,17.88,20.051,23.045
	c26.966,10.951,79.326-3.601,155.623-43.251c34.065-17.704,66.586-27.806,96.656-30.024c24.088-1.778,46.672,1.471,67.115,9.655
	c34.835,13.947,51.607,37.76,51.773,37.999l-1.323,0.916c-0.164-0.235-16.715-23.704-51.136-37.456
	c-31.778-12.697-85.738-19.475-162.344,20.338C526.033,98.816,480.614,114.527,450.567,114.527z"/>
<linearGradient id="SVGID_19_" gradientUnits="userSpaceOnUse" x1="42.8267" y1="72" x2="798.4888" y2="72">
	<stop  offset="0" style="stop-color:#FFFFFF;stop-opacity:0"/>
	<stop  offset="0.135" style="stop-color:#FFFFFF"/>
	<stop  offset="0.8712" style="stop-color:#FFFFFF"/>
	<stop  offset="1" style="stop-color:#FFFFFF;stop-opacity:0"/>
</linearGradient>
<path fill="url(#SVGID_19_)" d="M446.255,121.001c-7.192,0-13.315-1.036-18.392-3.101c-13.242-5.386-17.058-16.939-19.844-25.377
	l-0.243-0.734c-1.956-5.903-5.651-9.655-10.984-11.152c-11.064-3.106-26.503,4.165-33.452,10.06
	c-12.945,10.978-41.805,22.137-65.439,12.58c-17.609-7.122-28.288-24.737-30.882-50.94c-0.898-9.071-5.253-16.013-12.944-20.632
	C206.441,3.093,44.989,68.975,43.363,69.644l-0.536-1.304c0.407-0.168,41.286-16.92,87.565-29.894
	c62.268-17.458,104.125-20.132,124.409-7.95c8.094,4.861,12.677,12.163,13.622,21.702c2.54,25.648,12.916,42.859,30.008,49.771
	c22.835,9.236,51.688-1.908,63.999-12.349c7.179-6.088,23.186-13.586,34.746-10.341c5.811,1.632,9.829,5.691,11.941,12.066
	l0.243,0.736c2.851,8.631,6.398,19.372,19.036,24.513c24.884,10.119,75.751-5.108,155.505-46.556
	c36.051-18.736,69.754-29.426,100.175-31.774c24.38-1.882,46.714,1.558,66.389,10.223c33.53,14.767,47.885,39.977,48.025,40.229
	l-1.23,0.688c-0.14-0.249-14.31-25.099-47.443-39.662c-30.602-13.45-84.112-20.628-165.265,21.547
	C520.495,104.578,474.895,121.001,446.255,121.001z"/>
<linearGradient id="SVGID_20_" gradientUnits="userSpaceOnUse" x1="0" y1="152.5" x2="840.7896" y2="152.5">
	<stop  offset="0" style="stop-color:#FFFFFF;stop-opacity:0"/>
	<stop  offset="0.135" style="stop-color:#FFFFFF"/>
	<stop  offset="0.8712" style="stop-color:#FFFFFF"/>
	<stop  offset="1" style="stop-color:#FFFFFF;stop-opacity:0"/>
</linearGradient>
<rect y="150" fill="url(#SVGID_20_)" width="840.79" height="5"/>
<linearGradient id="SVGID_21_" gradientUnits="userSpaceOnUse" x1="2.3438" y1="148.4688" x2="838.4653" y2="148.4688">
	<stop  offset="0" style="stop-color:#FFFFFF;stop-opacity:0"/>
	<stop  offset="0.135" style="stop-color:#FFFFFF"/>
	<stop  offset="0.8712" style="stop-color:#FFFFFF"/>
	<stop  offset="1" style="stop-color:#FFFFFF;stop-opacity:0"/>
</linearGradient>
<path fill="url(#SVGID_21_)" d="M522.674,153.552c-3.87,0-7.856-0.006-11.978-0.016c-30.988-0.077-92.854-0.683-95.439-1.732
	l-0.264-0.107c-4.959-0.763-46.498-0.41-50.109,0.112c-1.502,0.345-5.558,0.525-19.27,0.733c-11.91,0.181-26.8,0.258-40.857,0.207
	c-27.343-0.094-61.02-0.644-66.174-2.729c-0.517-0.209-0.903-0.469-1.192-0.745c-11.053-2.348-145.741-0.454-234.948,1.423
	l-0.101-4.799c0.59-0.013,59.726-1.252,118.151-1.98c34.321-0.429,61.688-0.604,81.34-0.509c11.687,0.054,20.749,0.202,26.934,0.44
	c7.857,0.304,10.94,0.568,12.045,1.87c10.264,2.977,117.492,2.44,122.921,1.452c-0.036,0.007-0.289,0.058-0.6,0.241
	c0.935-0.491,4.045-0.775,25.79-0.923c11.301-0.078,25.271-0.029,27.621,0.63c0.175,0.049,0.334,0.107,0.479,0.174
	c4.588,0.508,45.779,1.332,94.662,1.442c66.878,0.163,93.827-1.185,96.758-2.485c1.623-0.843,5.995-3.113,118.844-1.456
	c55.494,0.815,110.628,2.205,111.178,2.219l-0.121,4.799c-87.345-2.212-220.08-4.373-227.758-1.268
	C606.761,152.535,577.185,153.551,522.674,153.552z"/>
<linearGradient id="SVGID_22_" gradientUnits="userSpaceOnUse" x1="4.6909" y1="144.4375" x2="836.1431" y2="144.4375">
	<stop  offset="0" style="stop-color:#FFFFFF;stop-opacity:0"/>
	<stop  offset="0.135" style="stop-color:#FFFFFF"/>
	<stop  offset="0.8712" style="stop-color:#FFFFFF"/>
	<stop  offset="1" style="stop-color:#FFFFFF;stop-opacity:0"/>
</linearGradient>
<path fill="url(#SVGID_22_)" d="M517.749,152.101c-3.396,0-6.751-0.008-10.045-0.023c-39.661-0.182-88.811-1.63-92.737-3.225
	c-0.342-0.139-0.609-0.317-0.818-0.509c-5.158-1.509-44.646-0.572-48.925,0.218c-1.098,0.508-4.329,1.019-18.696,1.483
	c-10.998,0.355-24.918,0.533-38.194,0.47c-20.897-0.089-57.343-0.801-66.637-4.56c-0.642-0.26-2.38-0.963-3.066-2.482
	c-11.203-4.63-145.244-0.82-233.745,2.925L4.691,141.8c0.588-0.024,59.459-2.503,117.671-3.961
	c34.204-0.857,61.497-1.198,81.119-1.019c11.688,0.107,20.766,0.406,26.983,0.886c8.688,0.67,11.743,1.544,12.369,3.728
	c2.832,1.862,20.105,4.089,60.269,4.446c30.652,0.273,57.671-0.729,60.234-1.511c-0.007,0.003-0.146,0.046-0.333,0.166
	c0.799-0.482,3.818-1.208,24.52-1.534c8.691-0.138,23.885-0.195,27.982,0.954c0.282,0.08,0.913,0.257,1.469,0.693
	c5.11,1.016,45.162,2.637,91.591,2.832c54.868,0.215,91.66-1.729,98.414-5.237c17.872-9.288,220.544,1.33,229.164,1.788
	l-0.244,4.594c-58.364-3.092-212.882-9.531-226.799-2.3C600.089,151.009,556.465,152.101,517.749,152.101z"/>
<linearGradient id="SVGID_23_" gradientUnits="userSpaceOnUse" x1="7.0425" y1="140.4043" x2="833.8198" y2="140.4043">
	<stop  offset="0" style="stop-color:#FFFFFF;stop-opacity:0"/>
	<stop  offset="0.135" style="stop-color:#FFFFFF"/>
	<stop  offset="0.8712" style="stop-color:#FFFFFF"/>
	<stop  offset="1" style="stop-color:#FFFFFF;stop-opacity:0"/>
</linearGradient>
<path fill="url(#SVGID_23_)" d="M512.579,150.648c-2.7,0-5.286-0.009-7.733-0.023c-41.029-0.25-84.795-2.508-90.056-4.645
	c-0.586-0.237-1.032-0.567-1.333-0.984c-5.041-2.254-44.9-0.771-48.306,0.39c0.008-0.003,0.214-0.074,0.458-0.281
	c-3.807,3.229-53.515,3.202-54.019,3.182c-15.686-0.043-53.537-0.695-66.204-5.818c-1.156-0.468-4.556-1.843-5.158-4.684
	c-2.574-1.858-19.823-5.363-119.812-1.475c-56.593,2.2-112.535,5.75-113.094,5.785l-0.28-4.393
	c0.585-0.037,59.19-3.755,117.189-5.943c34.085-1.286,61.302-1.797,80.895-1.528c35.83,0.498,39.09,3.435,39.41,6.661
	c0.011-0.029,0.335,0.62,2.499,1.495c20.34,8.228,110.603,5.476,116.011,3.17c-0.012,0.006-0.131,0.06-0.286,0.19
	c2.836-2.404,43.753-3.272,51.508-1.095c0.525,0.148,1.718,0.483,2.486,1.359c5.057,1.514,43.645,3.931,87.838,4.21
	c53.699,0.33,90.507-2.576,100.94-7.998c26.539-13.791,220.061,2.141,228.286,2.826l-0.365,4.387
	c-2.002-0.167-200.471-16.52-225.892-3.307C593.626,149.373,545.043,150.648,512.579,150.648z"/>
<linearGradient id="SVGID_24_" gradientUnits="userSpaceOnUse" x1="9.3979" y1="136.417" x2="831.4956" y2="136.417">
	<stop  offset="0" style="stop-color:#FFFFFF;stop-opacity:0"/>
	<stop  offset="0.135" style="stop-color:#FFFFFF"/>
	<stop  offset="0.8712" style="stop-color:#FFFFFF"/>
	<stop  offset="1" style="stop-color:#FFFFFF;stop-opacity:0"/>
</linearGradient>
<path fill="url(#SVGID_24_)" d="M508.216,149.288c-44.11,0.001-86.783-3.367-93.452-6.075c-0.613-0.25-1.439-0.67-1.861-1.514
	c-4.403-3.021-43.299-1.339-47.667,0.462c-7.247,4.567-91.824,6.966-115.795-2.73c-4.705-1.902-7.153-4.247-7.481-7.165
	c-0.484-0.753-4.541-4.043-38.259-4.471c-19.727-0.249-46.643,0.494-79.998,2.214c-56.833,2.928-113.384,7.733-113.948,7.782
	l-0.357-4.188c0.583-0.05,58.921-5.007,116.706-7.926c33.965-1.714,61.107-2.402,80.668-2.037
	c35.643,0.661,39.007,4.545,39.362,8.133c0.09,0.907,1.178,1.948,3.063,2.931c8.418,4.386,31.042,6.988,62.071,7.14
	c27.771,0.121,49.023-1.751,51.559-3.115c3.895-2.805,41.342-3.938,50.101-1.478c1.173,0.329,2.724,0.896,3.504,2.116
	c4.705,2.004,41.765,5.229,83.993,5.595c51.854,0.451,89.646-3.473,103.665-10.758c35.207-18.297,219.575,2.951,227.406,3.865
	l-0.486,4.174c-1.904-0.222-190.909-22.016-224.982-4.311C589.526,146.509,548.278,149.288,508.216,149.288z"/>
<linearGradient id="SVGID_25_" gradientUnits="userSpaceOnUse" x1="11.7568" y1="132.3398" x2="829.1714" y2="132.3398">
	<stop  offset="0" style="stop-color:#FFFFFF;stop-opacity:0"/>
	<stop  offset="0.135" style="stop-color:#FFFFFF"/>
	<stop  offset="0.8712" style="stop-color:#FFFFFF"/>
	<stop  offset="1" style="stop-color:#FFFFFF;stop-opacity:0"/>
</linearGradient>
<path fill="url(#SVGID_25_)" d="M503.67,147.748c-1.376,0-2.709-0.005-3.996-0.013c-40.161-0.246-76.888-3.968-84.731-7.153
	c-0.947-0.385-2.079-0.969-2.5-2.092c-1.008-1.107-7.964-2.551-23.265-2.063c-12.401,0.394-22.405,1.764-23.967,2.549
	c-7.045,5.406-85.071,8.464-111.517-2.233c-6.212-2.513-9.559-5.774-9.947-9.694c-0.034-0.346-0.394-0.704-0.689-0.944
	c-15.489-12.594-171.91,1.06-230.875,7.383l-0.427-3.98c0.532-0.057,53.882-5.752,108.932-9.434
	c32.355-2.163,58.956-3.221,79.097-3.136c25.931,0.106,40.912,2.089,45.797,6.062c1.288,1.047,2.01,2.277,2.147,3.655
	c0.26,2.629,3.567,4.648,6.296,5.879c10.464,4.722,32.875,7.395,61.589,7.278c25.894-0.087,44.894-2.374,47.116-3.975
	c3.395-2.883,38.477-4.954,48.814-2.054c1.553,0.437,3.646,1.204,4.484,2.913c3.803,2.251,36.129,6.506,80.043,7.006
	c29.453,0.333,82.441-0.975,106.572-13.517c43.877-22.802,219.09,3.766,226.527,4.907l-0.607,3.957
	c-1.81-0.278-181.354-27.517-224.074-5.312C581.348,145.763,533.008,147.747,503.67,147.748z"/>
<linearGradient id="SVGID_26_" gradientUnits="userSpaceOnUse" x1="14.1211" y1="128.2812" x2="826.8472" y2="128.2812">
	<stop  offset="0" style="stop-color:#FFFFFF;stop-opacity:0"/>
	<stop  offset="0.135" style="stop-color:#FFFFFF"/>
	<stop  offset="0.8712" style="stop-color:#FFFFFF"/>
	<stop  offset="1" style="stop-color:#FFFFFF;stop-opacity:0"/>
</linearGradient>
<path fill="url(#SVGID_26_)" d="M499.318,146.228c-39.166,0-74.666-4.334-83.924-8.094c-1.953-0.793-2.984-1.631-3.343-2.716
	c-0.002-0.005-0.214-0.586-2.105-1.238c-10.308-3.552-41.875-0.314-44.835,1.652c-7.077,6.003-79.487,9.652-107.094-1.516
	c-7.772-3.145-11.969-7.319-12.474-12.408c-0.065-0.659-0.487-1.291-1.29-1.929c-17.534-13.939-157.882-0.076-229.645,9.201
	l-0.487-3.771c0.521-0.067,52.742-6.789,107.077-11.209c73.381-5.966,115.579-5.024,125.421,2.803
	c1.627,1.293,2.538,2.817,2.708,4.53c0.354,3.57,3.757,6.686,10.115,9.257c28.938,11.706,98.557,6.088,103.247,2.111
	c3.609-3.063,35.562-5.977,47.473-2.635c2.968,0.832,4.743,2.051,5.413,3.719c3.124,2.672,33.792,7.826,75.941,8.45
	c28.461,0.423,80.558-1.133,109.685-16.27c52.544-27.31,218.604,4.58,225.646,5.952l-0.727,3.732
	c-1.712-0.333-171.796-33.011-223.166-6.31C578.682,142.154,537.278,146.227,499.318,146.228z"/>
<linearGradient id="SVGID_27_" gradientUnits="userSpaceOnUse" x1="16.4893" y1="124.2988" x2="824.522" y2="124.2988">
	<stop  offset="0" style="stop-color:#FFFFFF;stop-opacity:0"/>
	<stop  offset="0.135" style="stop-color:#FFFFFF"/>
	<stop  offset="0.8712" style="stop-color:#FFFFFF"/>
	<stop  offset="1" style="stop-color:#FFFFFF;stop-opacity:0"/>
</linearGradient>
<path fill="url(#SVGID_27_)" d="M494.975,144.848c-35.572,0-67.94-4.521-78.777-8.923c-2.679-1.088-4.069-2.162-4.506-3.483
	c-0.124-0.373-0.727-1.335-3.647-2.191c-11.791-3.462-40.325,0.251-43.049,2.452c-4.365,3.702-25.043,6.098-43.213,6.551
	c-11.825,0.293-41.296,0.187-59.471-7.166c-9.301-3.763-14.339-8.917-14.973-15.318c-0.108-1.098-0.754-2.092-1.974-3.04
	C220.403,94.323,19.06,124.569,17.029,124.876l-0.54-3.562c8.355-1.266,204.915-30.776,231.087-10.431
	c2.013,1.565,3.14,3.426,3.348,5.53c0.492,4.963,4.777,9.112,12.738,12.333c28.216,11.416,92.697,6.553,99.003,1.207
	c4.046-3.434,33.842-6.685,46.14-3.234c3.503,0.983,5.559,2.458,6.278,4.506c2.348,3.08,31.123,9.155,71.607,9.938
	c27.539,0.539,78.839-1.229,113.065-19.016c25.759-13.388,71.447-16.268,135.797-8.564c47.765,5.718,88.562,15.467,88.969,15.564
	l-0.844,3.504c-1.615-0.39-162.24-38.498-222.26-7.307c-30.865,16.04-74.603,19.459-105.859,19.503
	C495.365,144.848,495.169,144.848,494.975,144.848z"/>
<linearGradient id="SVGID_28_" gradientUnits="userSpaceOnUse" x1="18.8613" y1="120.2744" x2="822.1929" y2="120.2744">
	<stop  offset="0" style="stop-color:#FFFFFF;stop-opacity:0"/>
	<stop  offset="0.135" style="stop-color:#FFFFFF"/>
	<stop  offset="0.8712" style="stop-color:#FFFFFF"/>
	<stop  offset="1" style="stop-color:#FFFFFF;stop-opacity:0"/>
</linearGradient>
<path fill="url(#SVGID_28_)" d="M489.792,143.432c-32.398,0.001-60.202-4.48-72.35-9.413c-3.626-1.473-5.568-2.921-6.109-4.556
	c-0.407-1.227-2.053-2.276-4.762-3.037c-12.34-3.465-38.761,0.658-41.727,3.174c-4.938,4.188-24.78,6.742-41.126,7.343
	c-23.333,0.858-44.182-1.672-57.207-6.94c-10.755-4.35-16.602-10.531-17.378-18.373c-0.158-1.593-1.052-2.988-2.734-4.267
	C218.573,86.21,21.433,120.226,19.445,120.571l-0.584-3.354c8.177-1.423,200.601-34.604,229.598-12.566
	c2.442,1.856,3.809,4.091,4.062,6.642c0.642,6.482,5.778,11.715,15.267,15.553c28.616,11.576,87.815,6.128,94.854,0.158
	c4.337-3.681,32.482-7.329,44.849-3.855c3.904,1.096,6.284,2.86,7.074,5.244c0.002,0.005,0.544,1.187,5.53,2.997
	c24.756,8.99,117.045,18.529,178.217-13.263c29.385-15.271,76.021-18.549,138.612-9.745c46.479,6.538,84.887,17.686,85.27,17.798
	l-0.955,3.268c-1.52-0.444-152.688-43.986-221.356-8.299C567.72,137.862,525.903,143.431,489.792,143.432z"/>
<linearGradient id="SVGID_29_" gradientUnits="userSpaceOnUse" x1="21.2378" y1="116.2178" x2="819.8618" y2="116.2178">
	<stop  offset="0" style="stop-color:#FFFFFF;stop-opacity:0"/>
	<stop  offset="0.135" style="stop-color:#FFFFFF"/>
	<stop  offset="0.8712" style="stop-color:#FFFFFF"/>
	<stop  offset="1" style="stop-color:#FFFFFF;stop-opacity:0"/>
</linearGradient>
<path fill="url(#SVGID_29_)" d="M486.082,141.946c-30.041,0.001-54.933-4.609-66.911-9.475c-4.832-1.962-7.513-3.92-8.197-5.986
	c-0.683-2.06-3.432-3.224-5.618-3.837c-12.399-3.479-37.461,1.133-40.665,3.85c-9.172,7.779-64.981,13.306-94.132,1.518
	c-12.096-4.893-18.7-12.136-19.63-21.526c-0.212-2.144-1.377-3.975-3.562-5.598c-30.505-22.662-223.563,14.99-225.509,15.374
	l-0.619-3.145c8.005-1.575,196.407-38.298,228.04-14.803c2.91,2.162,4.538,4.805,4.84,7.854c0.803,8.112,6.739,14.461,17.642,18.871
	c29.159,11.794,83.315,5.406,90.857-0.99c4.772-4.05,30.944-8.045,43.604-4.491c4.268,1.198,6.891,3.188,7.794,5.915
	c0.057,0.17,0.715,1.731,6.361,4.024c12.561,5.103,39.816,9.919,72.407,9.162c27.128-0.625,67.207-5.393,104.083-24.557
	c41.118-21.369,99.601-17.736,141.425-10.926c45.192,7.358,81.212,19.907,81.57,20.033l-1.062,3.023
	c-0.355-0.125-36.15-12.593-81.075-19.902c-41.326-6.725-99.055-10.341-139.379,10.615c-37.422,19.447-78.02,24.284-105.488,24.917
	C490.575,141.921,488.311,141.946,486.082,141.946z"/>
<linearGradient id="SVGID_30_" gradientUnits="userSpaceOnUse" x1="23.6191" y1="112.1797" x2="817.5269" y2="112.1797">
	<stop  offset="0" style="stop-color:#FFFFFF;stop-opacity:0"/>
	<stop  offset="0.135" style="stop-color:#FFFFFF"/>
	<stop  offset="0.8712" style="stop-color:#FFFFFF"/>
	<stop  offset="1" style="stop-color:#FFFFFF;stop-opacity:0"/>
</linearGradient>
<path fill="url(#SVGID_30_)" d="M481.538,140.499c-27.463,0.001-48.765-4.549-60.201-9.193c-6.241-2.534-9.848-5.158-10.723-7.798
	c-0.689-2.08-2.849-3.643-6.417-4.645c-12.021-3.376-35.633,1.119-39.659,4.534c-9.825,8.332-60.802,14.556-90.114,2.699
	c-13.307-5.383-20.608-13.709-21.702-24.747c-0.272-2.748-1.728-5.044-4.451-7.021C215.262,70.364,26.17,111.542,24.264,111.96
	l-0.645-2.936c7.837-1.722,192.325-41.876,226.418-17.128c3.41,2.476,5.32,5.557,5.676,9.156
	c0.974,9.839,7.648,17.327,19.837,22.258c29.37,11.879,78.908,4.693,87.042-2.205c4.621-3.919,29.096-8.879,42.415-5.136
	c4.59,1.288,7.436,3.506,8.458,6.593c0.426,1.286,3.014,3.527,9,5.959c25.181,10.226,100.588,19.176,172.955-18.433
	c45.632-23.715,103.621-19.673,144.234-12.106c43.907,8.18,77.535,22.133,77.87,22.272l-1.16,2.773
	c-0.332-0.14-33.715-13.985-77.32-22.103c-40.13-7.47-97.381-11.481-142.237,11.829c-40.087,20.833-79.126,26.469-104.816,27.527
	C488.42,140.43,484.929,140.499,481.538,140.499z"/>
<linearGradient id="SVGID_31_" gradientUnits="userSpaceOnUse" x1="26.0049" y1="108.1328" x2="815.187" y2="108.1328">
	<stop  offset="0" style="stop-color:#FFFFFF;stop-opacity:0"/>
	<stop  offset="0.135" style="stop-color:#FFFFFF"/>
	<stop  offset="0.8712" style="stop-color:#FFFFFF"/>
	<stop  offset="1" style="stop-color:#FFFFFF;stop-opacity:0"/>
</linearGradient>
<path fill="url(#SVGID_31_)" d="M477.493,139.032c-20.723,0-40.149-3.035-53.757-8.561c-7.591-3.083-12.378-6.613-13.481-9.941
	c-0.835-2.522-3.246-4.359-7.163-5.459c-11.924-3.348-34.344,1.525-38.707,5.227c-9.945,8.431-57.163,15.707-86.295,3.922
	c-14.376-5.814-22.306-15.239-23.571-28.01c-0.336-3.402-2.101-6.19-5.393-8.526C213.776,62.61,28.534,107.202,26.667,107.655
	l-0.662-2.727c7.673-1.864,188.362-45.342,224.743-19.533c3.939,2.793,6.147,6.339,6.563,10.537
	c1.153,11.651,8.499,20.293,21.831,25.687c27.748,11.223,74.148,4.407,83.428-3.462c5.382-4.566,28.698-9.32,41.28-5.787
	c4.871,1.367,7.921,3.815,9.069,7.277c0.815,2.462,5.254,5.536,11.873,8.224c24.704,10.033,91.854,18.387,169.187-21.802
	C644.126,80.009,701.62,84.46,741.019,92.782c42.621,9.003,73.857,24.362,74.168,24.517l-1.248,2.514
	c-0.308-0.152-31.28-15.376-73.568-24.299c-38.936-8.217-95.712-12.621-145.098,13.046c-33.525,17.422-69.491,27.807-104.011,30.029
	C486.642,138.887,482.036,139.032,477.493,139.032z"/>
<linearGradient id="SVGID_32_" gradientUnits="userSpaceOnUse" x1="28.3945" y1="104.1094" x2="812.8384" y2="104.1094">
	<stop  offset="0" style="stop-color:#FFFFFF;stop-opacity:0"/>
	<stop  offset="0.135" style="stop-color:#FFFFFF"/>
	<stop  offset="0.8712" style="stop-color:#FFFFFF"/>
	<stop  offset="1" style="stop-color:#FFFFFF;stop-opacity:0"/>
</linearGradient>
<path fill="url(#SVGID_32_)" d="M472.583,137.61c-23.415,0-38.755-4.593-46.536-7.753c-8.866-3.601-14.753-8.086-16.151-12.305
	c-0.986-2.978-3.629-5.089-7.853-6.274c-12.207-3.428-33.113,1.934-37.811,5.919c-10.418,8.834-54.31,16.648-82.688,5.171
	c-15.082-6.101-23.806-16.924-25.229-31.298c-0.407-4.104-2.494-7.409-6.383-10.104c-37.523-26.004-219.037,21.896-220.866,22.384
	l-0.671-2.52c7.515-2,184.512-48.694,223.021-22.007c4.492,3.112,7.013,7.146,7.492,11.988c1.341,13.54,9.285,23.344,23.613,29.139
	c27.577,11.155,70.012,3.748,80.025-4.742c5.17-4.386,27.042-10.135,40.202-6.44c5.109,1.435,8.347,4.114,9.623,7.964
	c0.88,2.657,5.193,6.866,14.658,10.71c10.935,4.441,70.297,24.087,165.506-25.392c54.655-28.405,111.653-23.546,149.845-14.467
	c41.332,9.826,70.173,26.595,70.46,26.763l-1.32,2.248c-0.283-0.167-28.848-16.765-69.82-26.493
	c-37.738-8.962-94.042-13.76-147.963,14.262c-35.57,18.486-70.321,29.389-103.286,32.406
	C484.043,137.355,478.088,137.609,472.583,137.61z"/>
<linearGradient id="SVGID_33_" gradientUnits="userSpaceOnUse" x1="30.7891" y1="100.0547" x2="810.481" y2="100.0547">
	<stop  offset="0" style="stop-color:#FFFFFF;stop-opacity:0"/>
	<stop  offset="0.135" style="stop-color:#FFFFFF"/>
	<stop  offset="0.8712" style="stop-color:#FFFFFF"/>
	<stop  offset="1" style="stop-color:#FFFFFF;stop-opacity:0"/>
</linearGradient>
<path fill="url(#SVGID_33_)" d="M468.495,136.124c-15.528,0-29.499-2.304-40.541-6.789c-9.787-3.975-16.672-9.493-18.417-14.761
	c-1.141-3.444-3.999-5.831-8.492-7.092c-11.993-3.368-31.88,2.3-36.965,6.613c-10.524,8.924-51.248,17.774-79.297,6.429
	c-15.843-6.408-25.067-18.37-26.673-34.595c-0.48-4.852-2.905-8.693-7.412-11.744c-39.551-26.77-217.446,24.341-219.238,24.86
	l-0.67-2.312c7.362-2.133,180.779-51.941,221.257-24.541c5.064,3.428,7.91,7.97,8.458,13.501c1.534,15.494,10.006,26.462,25.18,32.6
	c27.273,11.032,66.695,2.568,76.838-6.033c5.344-4.534,26.032-10.785,39.173-7.095c5.311,1.49,8.718,4.401,10.126,8.651
	c1.178,3.558,6.273,8.916,17.037,13.288c13.996,5.685,67.053,20.389,162.23-29.074c59.169-30.749,115.669-25.48,152.645-15.646
	c40.044,10.65,66.485,28.829,66.747,29.012l-1.373,1.977c-0.26-0.18-26.418-18.151-66.077-28.685
	c-36.546-9.705-92.378-14.898-150.832,15.479c-36.972,19.214-71.57,30.875-102.833,34.659
	C482.192,135.694,475.198,136.124,468.495,136.124z"/>
<linearGradient id="SVGID_34_" gradientUnits="userSpaceOnUse" x1="33.1885" y1="96.0625" x2="808.1128" y2="96.0625">
	<stop  offset="0" style="stop-color:#FFFFFF;stop-opacity:0"/>
	<stop  offset="0.135" style="stop-color:#FFFFFF"/>
	<stop  offset="0.8712" style="stop-color:#FFFFFF"/>
	<stop  offset="1" style="stop-color:#FFFFFF;stop-opacity:0"/>
</linearGradient>
<path fill="url(#SVGID_34_)" d="M464.148,134.762c-15.952,0.001-27.31-2.878-34.9-5.961c-10.397-4.223-17.9-10.654-20.07-17.205
	c-1.299-3.92-4.354-6.581-9.079-7.907c-11.961-3.355-30.879,2.815-36.172,7.307c-12.083,10.248-50.212,18.165-76.119,7.685
	c-16.459-6.657-26.107-19.76-27.903-37.89c-0.559-5.644-3.331-10.04-8.475-13.44C209.999,39.963,35.606,94.191,33.849,94.743
	l-0.66-2.107c0.441-0.138,44.659-13.947,93.483-24.155c65.773-13.75,108.157-14.751,125.975-2.973
	c5.654,3.737,8.834,8.806,9.455,15.065c1.733,17.507,10.661,29.64,26.534,36.06c25.198,10.194,62.18,2.585,73.863-7.321
	c5.746-4.875,25.366-11.353,38.197-7.749c5.475,1.537,9.034,4.68,10.578,9.339c1.521,4.59,7.259,11.165,18.806,15.854
	c10.264,4.168,28.575,8.217,57.501,3.838c29.655-4.49,63.995-16.798,102.065-36.583c28.11-14.609,57.088-22.945,86.125-24.775
	c23.234-1.467,46.557,1.209,69.315,7.949c38.752,11.475,62.789,31.066,63.027,31.262l-1.404,1.703
	c-0.235-0.194-23.991-19.538-62.34-30.875c-35.356-10.453-90.721-16.039-153.706,16.694
	C532.28,126.311,491.476,134.761,464.148,134.762z"/>
<linearGradient id="SVGID_35_" gradientUnits="userSpaceOnUse" x1="35.5913" y1="92.0283" x2="805.73" y2="92.0283">
	<stop  offset="0" style="stop-color:#FFFFFF;stop-opacity:0"/>
	<stop  offset="0.135" style="stop-color:#FFFFFF"/>
	<stop  offset="0.8712" style="stop-color:#FFFFFF"/>
	<stop  offset="1" style="stop-color:#FFFFFF;stop-opacity:0"/>
</linearGradient>
<path fill="url(#SVGID_35_)" d="M459.661,133.311c-12.79,0.001-22.496-2.144-29.813-5.115c-15.167-6.16-19.759-15.743-21.029-19.577
	c-1.46-4.406-4.697-7.341-9.621-8.723c-11.926-3.35-29.969,3.369-35.425,7.998c-8.393,7.118-27.683,13.52-47.192,13.521
	c-8.949,0-17.939-1.346-25.953-4.587c-16.937-6.851-26.939-21.09-28.929-41.177c-0.632-6.387-3.85-11.496-9.564-15.184
	C208.964,32.6,37.957,89.858,36.234,90.439l-0.643-1.902c0.432-0.146,43.778-14.722,91.953-25.63
	c64.88-14.689,107.163-16.078,125.679-4.127c6.254,4.038,9.779,9.647,10.475,16.673c1.938,19.573,11.251,32.868,27.683,39.513
	c24.807,10.033,59.218,1.466,71.093-8.604c5.89-4.996,24.511-11.979,37.267-8.4c5.605,1.573,9.301,4.946,10.984,10.025
	c1.183,3.569,5.487,12.502,19.878,18.347c13.924,5.655,32.458,6.441,55.09,2.336c28.627-5.193,63.115-18.206,102.508-38.678
	c30.096-15.641,60.254-24.565,89.638-26.525c23.522-1.57,46.604,1.296,68.595,8.518c37.456,12.299,59.083,33.3,59.297,33.511
	l-1.408,1.432c-0.212-0.208-21.567-20.925-58.608-33.065c-34.163-11.198-89.064-17.18-156.587,17.911
	C527.781,123.654,486.792,133.309,459.661,133.311z"/>
<linearGradient id="SVGID_36_" gradientUnits="userSpaceOnUse" x1="37.9985" y1="87.9609" x2="803.3325" y2="87.9609">
	<stop  offset="0" style="stop-color:#FFFFFF;stop-opacity:0"/>
	<stop  offset="0.135" style="stop-color:#FFFFFF"/>
	<stop  offset="0.8712" style="stop-color:#FFFFFF"/>
	<stop  offset="1" style="stop-color:#FFFFFF;stop-opacity:0"/>
</linearGradient>
<path fill="url(#SVGID_36_)" d="M455.028,131.793c-9.759,0-18.201-1.434-25.258-4.3c-13.438-5.457-19.006-14.896-21.311-21.853
	c-1.624-4.899-5.027-8.107-10.116-9.536c-11.058-3.102-28.223,3.174-34.724,8.688c-12.879,10.923-45.879,20.076-70.37,10.168
	c-17.279-6.989-27.569-22.359-29.756-44.45c-0.718-7.246-4.31-12.955-10.677-16.968C208.038,25.318,40.303,85.526,38.615,86.139
	l-0.616-1.701c0.424-0.153,42.925-15.475,90.462-27.078c63.999-15.623,106.164-17.419,125.321-5.346
	c6.864,4.326,10.737,10.489,11.512,18.319c2.147,21.684,11.781,36.134,28.634,42.952c23.863,9.651,55.991,0.756,68.521-9.87
	c6.957-5.901,24.589-12.361,36.383-9.051c5.703,1.601,9.52,5.204,11.344,10.709c2.185,6.595,7.476,15.548,20.274,20.745
	c20.388,8.283,64.062,8.094,156.306-39.845c32.081-16.672,63.421-26.186,93.15-28.275c23.81-1.672,46.646,1.384,67.869,9.087
	c36.155,13.124,55.366,35.533,55.557,35.759l-1.382,1.167c-0.188-0.222-19.147-22.313-54.884-35.259
	c-32.98-11.947-87.416-18.326-159.477,19.126c-40.86,21.234-75.775,34.987-103.776,40.877
	C473.236,130.681,463.622,131.793,455.028,131.793z"/>
<linearGradient id="SVGID_37_" gradientUnits="userSpaceOnUse" x1="40.4106" y1="83.9131" x2="800.9185" y2="83.9131">
	<stop  offset="0" style="stop-color:#FFFFFF;stop-opacity:0"/>
	<stop  offset="0.135" style="stop-color:#FFFFFF"/>
	<stop  offset="0.8712" style="stop-color:#FFFFFF"/>
	<stop  offset="1" style="stop-color:#FFFFFF;stop-opacity:0"/>
</linearGradient>
<path fill="url(#SVGID_37_)" d="M450.501,130.316c-8.33,0.001-15.473-1.206-21.426-3.623c-13.328-5.413-18.211-15.687-20.976-24.031
	c-1.789-5.398-5.345-8.879-10.569-10.346c-11.131-3.124-27.208,3.561-34.064,9.376c-12.988,11.015-43.768,21.098-67.78,11.387
	c-17.497-7.078-28.008-23.575-30.398-47.708c-0.806-8.141-4.777-14.461-11.804-18.784C207.214,18.114,42.647,81.196,40.991,81.838
	l-0.58-1.502c0.416-0.16,42.1-16.207,89.009-28.499c63.137-16.544,105.161-18.771,124.909-6.621
	c7.477,4.601,11.704,11.329,12.562,19.997c2.327,23.499,12.493,39.535,29.4,46.374c23.422,9.475,53.458-0.372,66.135-11.121
	c7.122-6.043,23.875-12.972,35.54-9.699c5.771,1.62,9.694,5.452,11.662,11.39c2.656,8.017,7.336,17.881,20.054,23.046
	c26.971,10.949,79.329-3.597,155.63-43.249c34.065-17.704,66.589-27.806,96.666-30.024c24.099-1.78,46.686,1.471,67.138,9.655
	c34.85,13.946,51.639,37.76,51.804,37.999l-1.322,0.916c-0.163-0.235-16.731-23.703-51.168-37.456
	c-31.792-12.697-85.771-19.474-162.375,20.338C525.972,114.604,480.549,130.314,450.501,130.316z"/>
<linearGradient id="SVGID_38_" gradientUnits="userSpaceOnUse" x1="42.8271" y1="79.8945" x2="798.4888" y2="79.8945">
	<stop  offset="0" style="stop-color:#FFFFFF;stop-opacity:0"/>
	<stop  offset="0.135" style="stop-color:#FFFFFF"/>
	<stop  offset="0.8712" style="stop-color:#FFFFFF"/>
	<stop  offset="1" style="stop-color:#FFFFFF;stop-opacity:0"/>
</linearGradient>
<path fill="url(#SVGID_38_)" d="M446.222,128.896c-7.196,0.001-13.315-1.035-18.395-3.101c-13.242-5.386-17.058-16.94-19.844-25.377
	l-0.242-0.733c-1.957-5.904-5.653-9.657-10.985-11.154c-11.06-3.104-26.496,4.168-33.442,10.062
	c-12.938,10.971-41.771,22.13-65.364,12.585c-17.597-7.117-28.27-24.734-30.865-50.945c-0.898-9.069-5.252-16.01-12.943-20.629
	C206.498,10.985,44.989,76.87,43.363,77.538l-0.536-1.304c0.408-0.168,41.301-16.921,87.595-29.896
	c62.29-17.457,104.159-20.131,124.445-7.945c8.093,4.861,12.675,12.162,13.62,21.699c2.54,25.656,12.911,42.869,29.99,49.777
	c22.797,9.223,51.621-1.921,63.924-12.354c7.178-6.088,23.181-13.583,34.736-10.343c5.811,1.632,9.829,5.691,11.942,12.068
	l0.243,0.734c2.85,8.631,6.398,19.373,19.037,24.513c24.885,10.123,75.752-5.105,155.508-46.554
	c36.052-18.736,69.757-29.426,100.181-31.774c24.376-1.883,46.721,1.557,66.4,10.222c33.538,14.767,47.9,39.977,48.041,40.229
	l-1.23,0.688c-0.14-0.249-14.317-25.099-47.459-39.662c-30.608-13.45-84.13-20.628-165.282,21.548
	C520.466,112.472,474.863,128.894,446.222,128.896z"/>
<linearGradient id="SVGID_39_" gradientUnits="userSpaceOnUse" x1="45.2471" y1="75.8242" x2="796.0435" y2="75.8242">
	<stop  offset="0" style="stop-color:#FFFFFF;stop-opacity:0"/>
	<stop  offset="0.135" style="stop-color:#FFFFFF"/>
	<stop  offset="0.8712" style="stop-color:#FFFFFF"/>
	<stop  offset="1" style="stop-color:#FFFFFF;stop-opacity:0"/>
</linearGradient>
<path fill="url(#SVGID_39_)" d="M441.497,127.371c-6.24,0-11.47-0.9-15.717-2.696c-11.413-4.825-14.448-14.941-17.126-23.866
	c-0.423-1.409-0.836-2.786-1.272-4.102c-2.126-6.416-5.95-10.439-11.365-11.959c-11.053-3.104-26.02,4.942-32.856,10.743
	c-15.208,12.896-42.496,22.107-63.113,13.765c-17.586-7.113-28.364-25.843-31.168-54.164c-0.993-10.029-5.732-17.598-14.087-22.497
	C205.884,3.922,47.328,72.544,45.731,73.24l-0.484-1.109c0.4-0.175,40.53-17.616,86.221-31.268
	c61.46-18.362,103.159-21.494,123.936-9.312c8.708,5.105,13.646,12.985,14.68,23.422c2.796,28.242,13.03,46.129,30.417,53.161
	c20.175,8.159,46.938-0.898,61.876-13.566c7.306-6.198,22.381-14.235,33.966-10.985c5.826,1.636,9.927,5.924,12.187,12.744
	c0.439,1.326,0.855,2.714,1.282,4.135c2.601,8.67,5.55,18.495,16.438,23.099c22.502,9.521,73.587-6.726,156.171-49.645
	C645.7,41.03,699.016,31.856,740.896,46.648c40.446,14.286,55.005,46.653,55.147,46.979l-1.109,0.485
	c-0.141-0.321-14.517-32.234-54.471-46.333c-41.547-14.659-94.531-5.506-157.482,27.209
	C515.466,110.075,468.831,127.369,441.497,127.371z"/>
</svg>
