<?xml version="1.0" encoding="utf-8"?>
<!-- Generator: Adobe Illustrator 15.0.0, SVG Export Plug-In  -->
<!DOCTYPE svg PUBLIC "-//W3C//DTD SVG 1.1//EN" "http://www.w3.org/Graphics/SVG/1.1/DTD/svg11.dtd" [
	<!ENTITY ns_flows "http://ns.adobe.com/Flows/1.0/">
]>
<svg version="1.1"
	 xmlns="http://www.w3.org/2000/svg" xmlns:xlink="http://www.w3.org/1999/xlink" xmlns:a="http://ns.adobe.com/AdobeSVGViewerExtensions/3.0/"
	 x="0px" y="0px" width="840px" height="115px" viewBox="0.662 0.876 840 115"
	 overflow="visible" enable-background="new 0.662 0.876 840 115" xml:space="preserve">
<defs>
</defs>
<polyline fill="#E5E5E5" points="824.275,28.397 786.66,19.516 729.389,19.516 567.089,46.411 483.66,17.327 388.431,30.451 
	344.727,28.677 324.388,41.801 109.55,8.813 30.641,28.946 8.945,16.783 103.566,3.913 319.5,20.406 345.574,13.844 388.904,14.731 
	484.354,8.169 573.413,22.711 736.929,9.263 793.669,9.263 832.532,14.199 824.275,28.397 "/>
<polygon fill="#929292" points="784.486,61.041 765.633,47.306 706.767,47.306 548.115,114.545 481.579,41.836 387.01,74.644 
	342.184,70.209 339.049,103.02 127.496,20.554 73.887,46.096 54.767,43.764 121.514,15.652 334.162,81.625 343.031,55.377 
	387.483,58.925 482.272,32.678 554.439,90.845 714.308,37.054 772.642,37.054 803.827,53.57 "/>
<polygon fill="#9B9B9B" points="803.827,53.57 772.642,38.042 714.308,38.042 554.439,91.833 482.272,33.666 387.483,59.913 
	343.031,56.365 334.162,82.613 121.514,16.64 54.767,43.764 33.836,39.481 115.531,11.739 329.275,61.219 343.879,41.533 
	387.957,44.194 482.967,24.508 560.764,68.134 721.848,27.791 779.651,27.791 816.019,42.597 "/>
<polyline fill="#C2C2C2" points="816.019,43.044 824.275,28.397 786.66,18.527 729.389,18.527 567.089,45.423 483.66,16.339 
	388.431,29.463 344.727,27.688 324.388,40.813 109.55,7.826 30.641,28.946 33.836,39.481 115.531,12.727 329.275,62.207 
	343.879,42.521 387.957,45.182 482.967,25.497 560.764,69.122 721.848,28.779 779.651,28.779 816.019,42.597 "/>
<polyline fill="#FFFFFF" points="832.532,14.199 840.789,0 0,0 8.945,16.783 103.566,4.901 319.5,21.394 345.574,14.832 
	388.904,15.719 484.354,9.157 573.413,23.699 736.929,10.251 793.669,10.251 832.532,14.199 "/>
<linearGradient id="SVGID_1_" gradientUnits="userSpaceOnUse" x1="730.2217" y1="80.9727" x2="763.0049" y2="-8.4363">
	<stop  offset="0" style="stop-color:#231F20;stop-opacity:0.5"/>
	<stop  offset="0.0896" style="stop-color:#231F20;stop-opacity:0.4552"/>
	<stop  offset="1" style="stop-color:#231F20;stop-opacity:0"/>
</linearGradient>
<polygon fill="url(#SVGID_1_)" points="765.633,47.306 791.951,10.251 735.981,10.33 706.767,47.306 "/>
<linearGradient id="SVGID_2_" gradientUnits="userSpaceOnUse" x1="497.2061" y1="85.0225" x2="558.5979" y2="10.263">
	<stop  offset="0" style="stop-color:#231F20;stop-opacity:0.5"/>
	<stop  offset="0.0896" style="stop-color:#231F20;stop-opacity:0.4552"/>
	<stop  offset="1" style="stop-color:#231F20;stop-opacity:0"/>
</linearGradient>
<polygon fill="url(#SVGID_2_)" points="484.354,9.157 481.579,41.836 548.115,114.545 573.413,23.699 "/>
<linearGradient id="SVGID_3_" gradientUnits="userSpaceOnUse" x1="344.0928" y1="76.2314" x2="386.7742" y2="15.6834">
	<stop  offset="0" style="stop-color:#231F20;stop-opacity:0.5"/>
	<stop  offset="0.0896" style="stop-color:#231F20;stop-opacity:0.4552"/>
	<stop  offset="1" style="stop-color:#231F20;stop-opacity:0"/>
</linearGradient>
<polygon fill="url(#SVGID_3_)" points="387.01,74.644 391.162,15.652 345.574,14.832 342.184,70.209 "/>
<linearGradient id="SVGID_4_" gradientUnits="userSpaceOnUse" x1="345.3809" y1="60.7314" x2="294.8213" y2="30.9907">
	<stop  offset="0" style="stop-color:#231F20;stop-opacity:0.5"/>
	<stop  offset="0.0896" style="stop-color:#231F20;stop-opacity:0.4552"/>
	<stop  offset="1" style="stop-color:#231F20;stop-opacity:0"/>
</linearGradient>
<polygon fill="url(#SVGID_4_)" points="339.049,103.02 319.5,21.394 345.574,14.832 342.184,74.644 "/>
<linearGradient id="SVGID_5_" gradientUnits="userSpaceOnUse" x1="214.457" y1="76.5654" x2="234.1983" y2="11.4194">
	<stop  offset="0" style="stop-color:#231F20;stop-opacity:0.5"/>
	<stop  offset="0.0896" style="stop-color:#231F20;stop-opacity:0.4552"/>
	<stop  offset="1" style="stop-color:#231F20;stop-opacity:0"/>
</linearGradient>
<polygon fill="url(#SVGID_5_)" points="127.496,20.554 103.566,4.901 319.5,21.394 339.049,103.02 "/>
</svg>
