<?xml version="1.0" encoding="utf-8"?>
<!-- Generator: Adobe Illustrator 15.0.0, SVG Export Plug-In  -->
<!DOCTYPE svg PUBLIC "-//W3C//DTD SVG 1.1//EN" "http://www.w3.org/Graphics/SVG/1.1/DTD/svg11.dtd" [
	<!ENTITY ns_flows "http://ns.adobe.com/Flows/1.0/">
]>
<svg version="1.1"
	 xmlns="http://www.w3.org/2000/svg" xmlns:xlink="http://www.w3.org/1999/xlink" xmlns:a="http://ns.adobe.com/AdobeSVGViewerExtensions/3.0/"
	 x="0px" y="0px" width="840px" height="150px" viewBox="0.394 2.5 840 150"
	 overflow="visible" enable-background="new 0.394 2.5 840 150" xml:space="preserve">
<defs>
</defs>
<linearGradient id="SVGID_1_" gradientUnits="userSpaceOnUse" x1="0" y1="2.5" x2="840.7886" y2="2.5">
	<stop  offset="0" style="stop-color:#FFFFFF;stop-opacity:0"/>
	<stop  offset="0.1288" style="stop-color:#FFFFFF"/>
	<stop  offset="0.8834" style="stop-color:#FFFFFF"/>
	<stop  offset="1" style="stop-color:#FFFFFF;stop-opacity:0"/>
</linearGradient>
<rect fill="url(#SVGID_1_)" width="840.789" height="5"/>
<linearGradient id="SVGID_2_" gradientUnits="userSpaceOnUse" x1="2.4087" y1="6.1997" x2="838.5728" y2="6.1997">
	<stop  offset="0" style="stop-color:#FFFFFF;stop-opacity:0"/>
	<stop  offset="0.1288" style="stop-color:#FFFFFF"/>
	<stop  offset="0.8834" style="stop-color:#FFFFFF"/>
	<stop  offset="1" style="stop-color:#FFFFFF;stop-opacity:0"/>
</linearGradient>
<polygon fill="url(#SVGID_2_)" points="578.739,11.033 484.713,7.271 389.648,8.967 346.897,8.738 315.435,10.437 315.347,10.435 
	99.49,6.168 2.561,9.241 2.409,4.443 99.462,1.367 99.524,1.368 315.353,5.634 346.852,3.937 389.618,4.167 484.766,2.468 
	484.835,2.471 578.785,6.23 742.611,2.752 798.615,2.752 838.573,4.03 838.418,8.828 798.538,7.551 742.662,7.553 "/>
<linearGradient id="SVGID_3_" gradientUnits="userSpaceOnUse" x1="4.8223" y1="9.9004" x2="836.3511" y2="9.9004">
	<stop  offset="0" style="stop-color:#FFFFFF;stop-opacity:0"/>
	<stop  offset="0.1288" style="stop-color:#FFFFFF"/>
	<stop  offset="0.8834" style="stop-color:#FFFFFF"/>
	<stop  offset="1" style="stop-color:#FFFFFF;stop-opacity:0"/>
</linearGradient>
<polygon fill="url(#SVGID_3_)" points="576.914,17.068 576.772,17.057 484.501,9.542 389.482,12.936 389.429,12.935 346.684,12.477 
	316.872,15.876 316.695,15.87 101.153,7.339 5.116,13.48 4.822,8.889 101.097,2.732 101.216,2.737 316.701,11.265 346.447,7.873 
	389.424,8.333 484.607,4.935 484.741,4.946 577.002,12.459 740.453,5.506 796.748,5.503 836.351,8.062 836.054,12.654 
	796.599,10.105 740.55,10.105 "/>
<linearGradient id="SVGID_4_" gradientUnits="userSpaceOnUse" x1="7.2427" y1="13.6016" x2="834.1216" y2="13.6016">
	<stop  offset="0" style="stop-color:#FFFFFF;stop-opacity:0"/>
	<stop  offset="0.1288" style="stop-color:#FFFFFF"/>
	<stop  offset="0.8834" style="stop-color:#FFFFFF"/>
	<stop  offset="1" style="stop-color:#FFFFFF;stop-opacity:0"/>
</linearGradient>
<polygon fill="url(#SVGID_4_)" points="575.089,23.105 484.292,11.816 389.341,16.903 389.265,16.902 346.473,16.217 
	318.311,21.318 102.814,8.511 7.667,17.717 7.243,13.336 102.732,4.097 102.904,4.107 318.045,16.894 346.112,11.809 389.259,12.5 
	484.446,7.4 484.64,7.424 575.222,18.687 738.439,8.256 794.948,8.267 834.122,12.098 833.694,16.479 794.626,12.658 738.51,12.658 
	"/>
<linearGradient id="SVGID_5_" gradientUnits="userSpaceOnUse" x1="9.668" y1="17.3018" x2="831.8892" y2="17.3018">
	<stop  offset="0" style="stop-color:#FFFFFF;stop-opacity:0"/>
	<stop  offset="0.1288" style="stop-color:#FFFFFF"/>
	<stop  offset="0.8834" style="stop-color:#FFFFFF"/>
	<stop  offset="1" style="stop-color:#FFFFFF;stop-opacity:0"/>
</linearGradient>
<polygon fill="url(#SVGID_5_)" points="573.266,29.143 484.08,14.09 389.2,20.871 389.103,20.869 346.261,19.957 319.751,26.763 
	319.402,26.736 104.475,9.684 10.21,21.953 9.668,17.786 104.368,5.46 104.587,5.477 319.385,22.519 345.774,15.743 389.095,16.666 
	484.283,9.863 573.44,24.911 736.238,11.008 793.069,11.026 831.889,16.134 831.34,20.3 792.657,15.21 736.417,15.21 "/>
<linearGradient id="SVGID_6_" gradientUnits="userSpaceOnUse" x1="12.0996" y1="21.0029" x2="829.6499" y2="21.0029">
	<stop  offset="0" style="stop-color:#FFFFFF;stop-opacity:0"/>
	<stop  offset="0.1288" style="stop-color:#FFFFFF"/>
	<stop  offset="0.8834" style="stop-color:#FFFFFF"/>
	<stop  offset="1" style="stop-color:#FFFFFF;stop-opacity:0"/>
</linearGradient>
<polygon fill="url(#SVGID_6_)" points="571.444,35.184 571.13,35.116 483.872,16.367 389.057,24.839 388.941,24.835 346.05,23.697 
	321.196,32.211 320.762,32.168 106.134,10.857 12.748,26.186 12.1,22.235 106.005,6.822 106.267,6.848 320.724,28.142 
	345.436,19.677 388.931,20.831 484.12,12.326 484.416,12.39 571.657,31.135 734.11,13.76 791.181,13.787 829.65,20.173 
	828.994,24.121 790.688,17.763 734.323,17.763 "/>
<linearGradient id="SVGID_7_" gradientUnits="userSpaceOnUse" x1="14.5386" y1="24.7041" x2="827.4019" y2="24.7041">
	<stop  offset="0" style="stop-color:#FFFFFF;stop-opacity:0"/>
	<stop  offset="0.1288" style="stop-color:#FFFFFF"/>
	<stop  offset="0.8834" style="stop-color:#FFFFFF"/>
	<stop  offset="1" style="stop-color:#FFFFFF;stop-opacity:0"/>
</linearGradient>
<polygon fill="url(#SVGID_7_)" points="569.623,41.224 483.666,18.645 388.914,28.807 388.781,28.803 345.842,27.44 322.643,37.662 
	107.792,12.032 15.28,30.419 14.539,26.689 107.643,8.184 107.943,8.22 322.061,33.762 345.099,23.611 388.771,24.997 
	483.955,14.788 569.873,37.357 731.983,16.513 789.289,16.55 827.402,24.212 826.652,27.941 788.724,20.316 732.226,20.316 "/>
<linearGradient id="SVGID_8_" gradientUnits="userSpaceOnUse" x1="16.9829" y1="28.4062" x2="825.1489" y2="28.4062">
	<stop  offset="0" style="stop-color:#FFFFFF;stop-opacity:0"/>
	<stop  offset="0.1288" style="stop-color:#FFFFFF"/>
	<stop  offset="0.8834" style="stop-color:#FFFFFF"/>
	<stop  offset="1" style="stop-color:#FFFFFF;stop-opacity:0"/>
</linearGradient>
<polygon fill="url(#SVGID_8_)" points="567.803,47.267 567.408,47.144 483.46,20.922 388.769,32.775 345.631,31.183 324.09,43.115 
	109.45,13.208 17.804,34.651 16.983,31.143 109.283,9.546 109.615,9.592 323.396,39.379 344.762,27.544 388.61,29.163 
	483.789,17.25 484.162,17.366 568.086,43.581 729.859,19.266 787.389,19.314 825.149,28.252 824.319,31.759 786.764,22.869 
	730.128,22.869 "/>
<linearGradient id="SVGID_9_" gradientUnits="userSpaceOnUse" x1="19.4351" y1="32.1079" x2="822.8892" y2="32.1079">
	<stop  offset="0" style="stop-color:#FFFFFF;stop-opacity:0"/>
	<stop  offset="0.1288" style="stop-color:#FFFFFF"/>
	<stop  offset="0.8834" style="stop-color:#FFFFFF"/>
	<stop  offset="1" style="stop-color:#FFFFFF;stop-opacity:0"/>
</linearGradient>
<polygon fill="url(#SVGID_9_)" points="565.985,53.31 483.256,23.201 388.622,36.744 388.464,36.737 345.417,34.926 325.538,48.571 
	111.106,14.383 20.322,38.882 19.435,35.595 110.923,10.906 111.283,10.963 324.732,44.995 344.426,31.477 388.451,33.329 
	483.619,19.709 484.019,19.855 566.299,49.801 727.737,22.017 785.263,22.017 822.889,32.293 821.993,35.577 784.807,25.421 
	728.028,25.421 "/>
<linearGradient id="SVGID_10_" gradientUnits="userSpaceOnUse" x1="21.8926" y1="35.8096" x2="820.6206" y2="35.8096">
	<stop  offset="0" style="stop-color:#FFFFFF;stop-opacity:0"/>
	<stop  offset="0.1288" style="stop-color:#FFFFFF"/>
	<stop  offset="0.8834" style="stop-color:#FFFFFF"/>
	<stop  offset="1" style="stop-color:#FFFFFF;stop-opacity:0"/>
</linearGradient>
<polygon fill="url(#SVGID_10_)" points="564.168,59.352 563.722,59.165 483.055,25.479 388.475,40.711 345.2,38.669 326.983,54.028 
	326.242,53.895 112.761,15.559 22.832,43.113 21.893,40.049 112.563,12.267 112.945,12.335 326.068,50.607 344.096,35.408 
	388.293,37.495 483.448,22.169 483.869,22.345 564.51,56.021 725.615,24.77 783.336,24.77 820.621,36.333 819.671,39.395 
	782.85,27.975 725.923,27.975 "/>
<linearGradient id="SVGID_11_" gradientUnits="userSpaceOnUse" x1="24.3594" y1="39.5117" x2="818.3472" y2="39.5117">
	<stop  offset="0" style="stop-color:#FFFFFF;stop-opacity:0"/>
	<stop  offset="0.1288" style="stop-color:#FFFFFF"/>
	<stop  offset="0.8834" style="stop-color:#FFFFFF"/>
	<stop  offset="1" style="stop-color:#FFFFFF;stop-opacity:0"/>
</linearGradient>
<polygon fill="url(#SVGID_11_)" points="562.355,65.396 482.857,27.758 388.326,44.68 388.153,44.671 344.978,42.413 
	328.426,59.488 114.415,16.734 25.336,47.344 24.359,44.501 114.207,13.627 327.408,56.22 343.771,39.34 388.137,41.661 
	483.274,24.63 483.709,24.835 562.718,62.242 723.5,27.522 781.408,27.522 818.347,40.374 817.359,43.212 780.9,30.528 
	723.82,30.528 "/>
<linearGradient id="SVGID_12_" gradientUnits="userSpaceOnUse" x1="26.833" y1="43.2129" x2="816.0659" y2="43.2129">
	<stop  offset="0" style="stop-color:#FFFFFF;stop-opacity:0"/>
	<stop  offset="0.1288" style="stop-color:#FFFFFF"/>
	<stop  offset="0.8834" style="stop-color:#FFFFFF"/>
	<stop  offset="1" style="stop-color:#FFFFFF;stop-opacity:0"/>
</linearGradient>
<polygon fill="url(#SVGID_12_)" points="560.543,71.438 560.076,71.189 482.663,30.036 388.175,48.648 344.748,46.157 
	329.864,64.947 116.067,17.909 27.833,51.577 26.833,48.955 115.851,14.988 116.26,15.079 328.753,61.83 343.453,43.272 
	387.981,45.826 483.098,27.089 560.924,68.462 721.381,30.274 779.474,30.274 816.066,44.415 815.054,47.032 778.951,33.08 
	721.71,33.08 "/>
<linearGradient id="SVGID_13_" gradientUnits="userSpaceOnUse" x1="29.3125" y1="46.915" x2="813.7778" y2="46.915">
	<stop  offset="0" style="stop-color:#FFFFFF;stop-opacity:0"/>
	<stop  offset="0.1288" style="stop-color:#FFFFFF"/>
	<stop  offset="0.8834" style="stop-color:#FFFFFF"/>
	<stop  offset="1" style="stop-color:#FFFFFF;stop-opacity:0"/>
</linearGradient>
<polygon fill="url(#SVGID_13_)" points="558.734,77.48 482.47,32.313 388.024,52.616 344.508,49.899 331.295,70.407 117.718,19.084 
	30.322,55.811 29.312,53.407 117.497,16.35 117.912,16.45 330.105,67.44 343.145,47.203 387.828,49.992 482.919,29.55 
	483.359,29.81 559.128,74.685 719.268,33.026 777.539,33.026 813.778,48.454 812.756,50.852 777.007,35.633 719.602,35.633 "/>
<linearGradient id="SVGID_14_" gradientUnits="userSpaceOnUse" x1="31.7993" y1="50.6172" x2="811.48" y2="50.6172">
	<stop  offset="0" style="stop-color:#FFFFFF;stop-opacity:0"/>
	<stop  offset="0.1288" style="stop-color:#FFFFFF"/>
	<stop  offset="0.8834" style="stop-color:#FFFFFF"/>
	<stop  offset="1" style="stop-color:#FFFFFF;stop-opacity:0"/>
</linearGradient>
<polygon fill="url(#SVGID_14_)" points="556.927,83.522 482.279,34.59 387.872,56.584 344.258,53.643 332.717,75.867 
	119.368,20.257 32.804,60.045 31.799,57.857 119.143,17.711 331.466,73.053 342.848,51.135 387.675,54.158 482.736,32.012 
	483.167,32.294 557.33,80.907 717.157,35.778 775.6,35.778 775.841,35.891 811.48,52.491 810.464,54.673 775.067,38.186 
	717.491,38.186 "/>
<linearGradient id="SVGID_15_" gradientUnits="userSpaceOnUse" x1="34.2935" y1="54.3193" x2="809.1782" y2="54.3193">
	<stop  offset="0" style="stop-color:#FFFFFF;stop-opacity:0"/>
	<stop  offset="0.1288" style="stop-color:#FFFFFF"/>
	<stop  offset="0.8834" style="stop-color:#FFFFFF"/>
	<stop  offset="1" style="stop-color:#FFFFFF;stop-opacity:0"/>
</linearGradient>
<polygon fill="url(#SVGID_15_)" points="555.124,89.563 554.68,89.243 482.092,36.866 387.718,60.552 343.995,57.386 
	334.129,81.323 121.016,21.431 35.281,64.28 34.293,62.306 120.792,19.075 121.202,19.19 332.836,78.667 342.562,55.068 
	387.524,58.325 482.551,34.475 482.967,34.775 555.528,87.132 715.048,38.53 773.656,38.53 809.178,56.527 808.18,58.497 
	773.128,40.738 715.376,40.738 "/>
<linearGradient id="SVGID_16_" gradientUnits="userSpaceOnUse" x1="36.7944" y1="58.0195" x2="806.8687" y2="58.0195">
	<stop  offset="0" style="stop-color:#FFFFFF;stop-opacity:0"/>
	<stop  offset="0.1288" style="stop-color:#FFFFFF"/>
	<stop  offset="0.8834" style="stop-color:#FFFFFF"/>
	<stop  offset="1" style="stop-color:#FFFFFF;stop-opacity:0"/>
</linearGradient>
<polygon fill="url(#SVGID_16_)" points="553.323,95.6 481.91,39.142 387.562,64.521 387.39,64.507 343.719,61.127 335.531,86.776 
	334.585,86.492 122.662,22.603 37.75,68.519 36.794,66.752 122.441,20.439 122.842,20.56 334.219,84.283 342.29,59.002 
	387.373,62.492 482.363,36.94 482.759,37.253 553.723,93.355 712.941,41.282 771.709,41.282 806.869,60.561 805.904,62.321 
	771.196,43.291 713.261,43.291 "/>
<linearGradient id="SVGID_17_" gradientUnits="userSpaceOnUse" x1="39.3013" y1="61.7207" x2="804.5513" y2="61.7207">
	<stop  offset="0" style="stop-color:#FFFFFF;stop-opacity:0"/>
	<stop  offset="0.1288" style="stop-color:#FFFFFF"/>
	<stop  offset="0.8834" style="stop-color:#FFFFFF"/>
	<stop  offset="1" style="stop-color:#FFFFFF;stop-opacity:0"/>
</linearGradient>
<polygon fill="url(#SVGID_17_)" points="551.525,101.637 551.129,101.295 481.73,41.415 387.406,68.487 343.431,64.867 
	336.919,92.226 335.989,91.927 124.307,23.773 40.211,72.759 39.301,71.196 124.093,21.805 124.477,21.928 335.613,89.905 
	342.031,62.937 387.225,66.657 482.171,39.406 482.542,39.726 551.916,99.584 710.836,44.034 769.76,44.034 804.551,64.591 
	803.631,66.149 769.266,45.843 711.143,45.843 "/>
<linearGradient id="SVGID_18_" gradientUnits="userSpaceOnUse" x1="41.8145" y1="65.4199" x2="802.229" y2="65.4199">
	<stop  offset="0" style="stop-color:#FFFFFF;stop-opacity:0"/>
	<stop  offset="0.1288" style="stop-color:#FFFFFF"/>
	<stop  offset="0.8834" style="stop-color:#FFFFFF"/>
	<stop  offset="1" style="stop-color:#FFFFFF;stop-opacity:0"/>
</linearGradient>
<polygon fill="url(#SVGID_18_)" points="549.731,107.668 549.367,107.327 481.554,43.685 387.249,72.455 343.129,68.606 
	338.295,97.671 337.396,97.363 125.95,24.942 42.667,77.002 41.814,75.637 125.747,23.171 337.019,95.532 341.785,66.874 
	387.078,70.824 481.976,41.873 550.104,105.812 708.734,46.787 767.805,46.787 802.229,68.62 801.368,69.979 767.338,48.396 
	709.023,48.396 "/>
<linearGradient id="SVGID_19_" gradientUnits="userSpaceOnUse" x1="44.334" y1="69.1201" x2="799.9009" y2="69.1201">
	<stop  offset="0" style="stop-color:#FFFFFF;stop-opacity:0"/>
	<stop  offset="0.1288" style="stop-color:#FFFFFF"/>
	<stop  offset="0.8834" style="stop-color:#FFFFFF"/>
	<stop  offset="1" style="stop-color:#FFFFFF;stop-opacity:0"/>
</linearGradient>
<polygon fill="url(#SVGID_19_)" points="547.939,113.7 481.382,45.953 387.089,76.422 342.813,72.343 339.658,103.106 
	338.809,102.799 127.591,26.109 45.118,81.248 44.334,80.076 127.401,24.54 127.737,24.662 338.44,101.165 341.553,70.811 
	386.931,74.991 481.777,44.343 482.083,44.654 548.291,112.046 706.633,49.54 765.849,49.54 799.901,72.646 799.11,73.813 
	765.416,50.95 706.901,50.95 "/>
<linearGradient id="SVGID_20_" gradientUnits="userSpaceOnUse" x1="0" y1="152.5" x2="840.7886" y2="152.5">
	<stop  offset="0" style="stop-color:#FFFFFF;stop-opacity:0"/>
	<stop  offset="0.1288" style="stop-color:#FFFFFF"/>
	<stop  offset="0.8834" style="stop-color:#FFFFFF"/>
	<stop  offset="1" style="stop-color:#FFFFFF;stop-opacity:0"/>
</linearGradient>
<rect y="150" fill="url(#SVGID_20_)" width="840.789" height="5"/>
<linearGradient id="SVGID_21_" gradientUnits="userSpaceOnUse" x1="2.4077" y1="148.3047" x2="838.5718" y2="148.3047">
	<stop  offset="0" style="stop-color:#FFFFFF;stop-opacity:0"/>
	<stop  offset="0.1288" style="stop-color:#FFFFFF"/>
	<stop  offset="0.8834" style="stop-color:#FFFFFF"/>
	<stop  offset="1" style="stop-color:#FFFFFF;stop-opacity:0"/>
</linearGradient>
<polygon fill="url(#SVGID_21_)" points="577.035,153.139 576.96,153.136 485.478,149.376 389.389,151.072 345.859,150.844 
	316.318,152.542 316.226,152.54 98.604,148.274 2.561,151.347 2.408,146.548 98.575,143.472 98.637,143.474 316.229,147.739 
	345.809,146.043 389.359,146.271 485.536,144.573 485.606,144.576 577.083,148.336 741.942,144.858 798.955,144.857 
	838.572,146.135 838.417,150.934 798.877,149.657 741.993,149.658 "/>
<linearGradient id="SVGID_22_" gradientUnits="userSpaceOnUse" x1="4.8218" y1="144.1113" x2="836.3511" y2="144.1113">
	<stop  offset="0" style="stop-color:#FFFFFF;stop-opacity:0"/>
	<stop  offset="0.1288" style="stop-color:#FFFFFF"/>
	<stop  offset="0.8834" style="stop-color:#FFFFFF"/>
	<stop  offset="1" style="stop-color:#FFFFFF;stop-opacity:0"/>
</linearGradient>
<polygon fill="url(#SVGID_22_)" points="575.303,151.279 575.16,151.268 485.223,143.753 389.184,147.146 345.708,146.688 
	317.709,150.087 317.525,150.08 100.316,141.55 5.118,147.691 4.822,143.1 100.259,136.942 100.378,136.947 317.521,145.476 
	345.454,142.084 345.605,142.085 389.178,142.544 485.334,139.146 485.47,139.156 575.399,146.67 739.821,139.717 797.071,139.715 
	836.351,142.273 836.052,146.865 796.919,144.316 739.918,144.316 "/>
<linearGradient id="SVGID_23_" gradientUnits="userSpaceOnUse" x1="7.2407" y1="139.918" x2="834.1235" y2="139.918">
	<stop  offset="0" style="stop-color:#FFFFFF;stop-opacity:0"/>
	<stop  offset="0.1288" style="stop-color:#FFFFFF"/>
	<stop  offset="0.8834" style="stop-color:#FFFFFF"/>
	<stop  offset="1" style="stop-color:#FFFFFF;stop-opacity:0"/>
</linearGradient>
<polygon fill="url(#SVGID_23_)" points="573.572,149.422 573.364,149.396 484.969,138.132 389.111,143.22 389.035,143.218 
	345.558,142.533 319.104,147.635 318.829,147.619 102.028,134.827 7.668,144.034 7.241,139.653 101.943,130.413 102.115,130.423 
	318.812,143.209 345.171,138.125 345.399,138.129 389.028,138.815 485.131,133.716 485.329,133.74 573.712,145.002 737.844,134.572 
	795.252,134.583 834.124,138.414 833.692,142.795 794.928,138.975 737.914,138.975 "/>
<linearGradient id="SVGID_24_" gradientUnits="userSpaceOnUse" x1="9.6655" y1="135.7227" x2="831.8911" y2="135.7227">
	<stop  offset="0" style="stop-color:#FFFFFF;stop-opacity:0"/>
	<stop  offset="0.1288" style="stop-color:#FFFFFF"/>
	<stop  offset="0.8834" style="stop-color:#FFFFFF"/>
	<stop  offset="1" style="stop-color:#FFFFFF;stop-opacity:0"/>
</linearGradient>
<polygon fill="url(#SVGID_24_)" points="571.842,147.564 484.715,132.513 388.983,139.292 345.408,138.379 320.501,145.186 
	320.136,145.157 103.736,128.105 10.212,140.374 9.666,136.208 103.627,123.881 103.847,123.898 320.1,140.939 344.888,134.164 
	345.192,134.171 388.879,135.087 484.928,128.284 485.179,128.328 572.026,143.332 735.681,129.429 793.354,129.447 
	831.891,134.556 831.338,138.722 792.939,133.632 735.859,133.632 "/>
<linearGradient id="SVGID_25_" gradientUnits="userSpaceOnUse" x1="12.0967" y1="131.5293" x2="829.6499" y2="131.5293">
	<stop  offset="0" style="stop-color:#FFFFFF;stop-opacity:0"/>
	<stop  offset="0.1288" style="stop-color:#FFFFFF"/>
	<stop  offset="0.8834" style="stop-color:#FFFFFF"/>
	<stop  offset="1" style="stop-color:#FFFFFF;stop-opacity:0"/>
</linearGradient>
<polygon fill="url(#SVGID_25_)" points="570.115,145.71 569.796,145.641 484.462,126.894 388.855,135.365 345.26,134.225 
	321.9,142.739 321.447,142.695 105.445,121.384 12.75,136.713 12.097,132.764 105.313,117.349 105.576,117.374 321.386,138.667 
	344.604,130.203 388.73,131.357 484.722,122.853 485.022,122.918 570.337,141.661 733.588,124.287 791.449,124.314 829.65,130.699 
	828.99,134.646 790.953,128.289 733.801,128.289 "/>
<linearGradient id="SVGID_26_" gradientUnits="userSpaceOnUse" x1="14.5356" y1="127.3359" x2="827.4038" y2="127.3359">
	<stop  offset="0" style="stop-color:#FFFFFF;stop-opacity:0"/>
	<stop  offset="0.1288" style="stop-color:#FFFFFF"/>
	<stop  offset="0.8834" style="stop-color:#FFFFFF"/>
	<stop  offset="1" style="stop-color:#FFFFFF;stop-opacity:0"/>
</linearGradient>
<polygon fill="url(#SVGID_26_)" points="568.387,143.856 568.025,143.76 484.213,121.276 388.726,131.438 388.595,131.434 
	345.111,130.072 323.301,140.296 322.762,140.232 107.154,114.663 15.282,133.05 14.536,129.321 107.001,110.815 107.302,110.851 
	322.67,136.392 344.321,126.242 388.583,127.628 484.515,117.419 568.649,139.989 731.5,119.145 789.537,119.182 827.404,126.843 
	826.65,130.571 788.969,122.947 731.742,122.947 "/>
<linearGradient id="SVGID_27_" gradientUnits="userSpaceOnUse" x1="16.981" y1="123.1426" x2="825.1509" y2="123.1426">
	<stop  offset="0" style="stop-color:#FFFFFF;stop-opacity:0"/>
	<stop  offset="0.1288" style="stop-color:#FFFFFF"/>
	<stop  offset="0.8834" style="stop-color:#FFFFFF"/>
	<stop  offset="1" style="stop-color:#FFFFFF;stop-opacity:0"/>
</linearGradient>
<polygon fill="url(#SVGID_27_)" points="566.663,142.004 566.263,141.877 483.965,115.659 388.596,127.512 388.451,127.507 
	344.962,125.921 324.703,137.855 324.082,137.77 108.861,107.944 17.807,129.388 16.981,125.88 108.689,104.282 109.022,104.328 
	323.955,134.113 344.04,122.28 388.438,123.9 484.305,111.985 566.958,138.316 729.414,114.003 787.618,114.052 825.151,122.989 
	824.317,126.495 786.989,117.606 729.682,117.606 "/>
<linearGradient id="SVGID_28_" gradientUnits="userSpaceOnUse" x1="19.4326" y1="118.9502" x2="822.8911" y2="118.9502">
	<stop  offset="0" style="stop-color:#FFFFFF;stop-opacity:0"/>
	<stop  offset="0.1288" style="stop-color:#FFFFFF"/>
	<stop  offset="0.8834" style="stop-color:#FFFFFF"/>
	<stop  offset="1" style="stop-color:#FFFFFF;stop-opacity:0"/>
</linearGradient>
<polygon fill="url(#SVGID_28_)" points="564.939,140.152 483.719,110.043 388.463,123.586 388.308,123.58 344.808,121.769 
	326.104,135.417 325.405,135.307 110.566,101.225 20.324,125.725 19.433,122.439 110.378,97.748 110.739,97.806 325.239,131.833 
	343.762,118.317 388.293,120.172 484.094,106.551 484.499,106.701 565.265,136.643 727.328,108.859 785.471,108.859 785.693,108.92 
	822.891,119.136 821.989,122.419 785.012,112.264 727.618,112.264 "/>
<linearGradient id="SVGID_29_" gradientUnits="userSpaceOnUse" x1="21.8911" y1="114.7578" x2="820.6226" y2="114.7578">
	<stop  offset="0" style="stop-color:#FFFFFF;stop-opacity:0"/>
	<stop  offset="0.1288" style="stop-color:#FFFFFF"/>
	<stop  offset="0.8834" style="stop-color:#FFFFFF"/>
	<stop  offset="1" style="stop-color:#FFFFFF;stop-opacity:0"/>
</linearGradient>
<polygon fill="url(#SVGID_29_)" points="563.218,138.301 483.476,104.427 388.33,119.659 344.649,117.617 327.501,132.98 
	326.732,132.843 112.27,94.505 22.834,122.061 21.891,118.998 112.069,91.214 326.526,129.551 343.488,114.354 388.149,116.442 
	483.88,101.116 563.57,134.969 725.245,103.717 783.527,103.717 820.623,115.281 819.669,118.342 783.039,106.922 725.551,106.922 
	"/>
<linearGradient id="SVGID_30_" gradientUnits="userSpaceOnUse" x1="24.3574" y1="110.5645" x2="818.3491" y2="110.5645">
	<stop  offset="0" style="stop-color:#FFFFFF;stop-opacity:0"/>
	<stop  offset="0.1288" style="stop-color:#FFFFFF"/>
	<stop  offset="0.8834" style="stop-color:#FFFFFF"/>
	<stop  offset="1" style="stop-color:#FFFFFF;stop-opacity:0"/>
</linearGradient>
<polygon fill="url(#SVGID_30_)" points="561.498,136.449 561.034,136.227 483.236,98.811 388.196,115.732 344.484,113.466 
	328.895,130.546 328.063,130.38 113.974,87.786 25.339,118.397 24.357,115.556 113.762,84.679 114.161,84.759 327.818,127.267 
	343.222,110.392 388.008,112.713 483.664,95.682 484.101,95.892 561.873,133.295 723.164,98.574 781.579,98.574 818.349,111.428 
	817.357,114.266 781.069,101.58 723.484,101.58 "/>
<linearGradient id="SVGID_31_" gradientUnits="userSpaceOnUse" x1="26.8306" y1="106.3721" x2="816.0669" y2="106.3721">
	<stop  offset="0" style="stop-color:#FFFFFF;stop-opacity:0"/>
	<stop  offset="0.1288" style="stop-color:#FFFFFF"/>
	<stop  offset="0.8834" style="stop-color:#FFFFFF"/>
	<stop  offset="1" style="stop-color:#FFFFFF;stop-opacity:0"/>
</linearGradient>
<polygon fill="url(#SVGID_31_)" points="559.782,134.598 559.311,134.345 482.998,93.194 388.06,111.807 387.884,111.796 
	344.31,109.315 330.283,128.111 329.399,127.917 115.675,81.066 27.834,114.735 26.831,112.114 115.455,78.146 329.116,124.982 
	342.963,106.429 387.867,108.984 483.445,90.247 560.172,131.621 721.085,93.432 779.627,93.432 779.873,93.527 816.067,107.573 
	815.051,110.188 779.102,96.238 721.414,96.238 "/>
<linearGradient id="SVGID_32_" gradientUnits="userSpaceOnUse" x1="29.311" y1="102.1787" x2="813.7769" y2="102.1787">
	<stop  offset="0" style="stop-color:#FFFFFF;stop-opacity:0"/>
	<stop  offset="0.1288" style="stop-color:#FFFFFF"/>
	<stop  offset="0.8834" style="stop-color:#FFFFFF"/>
	<stop  offset="1" style="stop-color:#FFFFFF;stop-opacity:0"/>
</linearGradient>
<polygon fill="url(#SVGID_32_)" points="558.068,132.745 557.598,132.465 482.763,87.577 387.924,107.879 387.745,107.868 
	344.125,105.164 331.663,125.677 330.738,125.455 117.375,74.347 30.324,111.073 29.311,108.671 117.15,71.612 330.421,122.698 
	342.715,102.465 387.728,105.256 483.222,84.813 483.664,85.077 558.471,129.948 719.009,88.289 777.672,88.289 777.917,88.395 
	813.777,103.718 812.753,106.114 777.139,90.896 719.341,90.896 "/>
<linearGradient id="SVGID_33_" gradientUnits="userSpaceOnUse" x1="31.7983" y1="97.9863" x2="811.4819" y2="97.9863">
	<stop  offset="0" style="stop-color:#FFFFFF;stop-opacity:0"/>
	<stop  offset="0.1288" style="stop-color:#FFFFFF"/>
	<stop  offset="0.8834" style="stop-color:#FFFFFF"/>
	<stop  offset="1" style="stop-color:#FFFFFF;stop-opacity:0"/>
</linearGradient>
<polygon fill="url(#SVGID_33_)" points="556.356,130.893 555.896,130.587 482.531,81.96 387.785,103.952 387.606,103.94 
	343.93,101.012 333.033,123.24 119.073,67.625 32.806,107.412 31.798,105.227 118.846,65.08 119.262,65.188 331.736,120.416 
	342.48,98.502 387.589,101.526 482.996,79.38 483.428,79.667 556.766,128.275 716.935,83.146 775.714,83.146 811.482,99.859 
	810.462,102.041 775.179,85.554 717.267,85.554 "/>
<linearGradient id="SVGID_34_" gradientUnits="userSpaceOnUse" x1="34.2925" y1="93.792" x2="809.1782" y2="93.792">
	<stop  offset="0" style="stop-color:#FFFFFF;stop-opacity:0"/>
	<stop  offset="0.1288" style="stop-color:#FFFFFF"/>
	<stop  offset="0.8834" style="stop-color:#FFFFFF"/>
	<stop  offset="1" style="stop-color:#FFFFFF;stop-opacity:0"/>
</linearGradient>
<polygon fill="url(#SVGID_34_)" points="554.648,129.036 554.203,128.713 482.302,76.34 387.645,100.025 343.722,96.859 
	334.392,120.802 333.429,120.531 120.771,60.904 35.282,103.755 34.292,101.78 120.544,58.548 333.062,118.136 342.256,94.541 
	387.452,97.799 482.767,73.948 555.058,126.604 714.863,78.003 773.752,78.003 809.178,96 808.178,97.969 773.223,80.211 
	715.191,80.211 "/>
<linearGradient id="SVGID_35_" gradientUnits="userSpaceOnUse" x1="36.7935" y1="89.5986" x2="806.8687" y2="89.5986">
	<stop  offset="0" style="stop-color:#FFFFFF;stop-opacity:0"/>
	<stop  offset="0.1288" style="stop-color:#FFFFFF"/>
	<stop  offset="0.8834" style="stop-color:#FFFFFF"/>
	<stop  offset="1" style="stop-color:#FFFFFF;stop-opacity:0"/>
</linearGradient>
<polygon fill="url(#SVGID_35_)" points="552.943,127.18 552.519,126.843 482.077,70.72 387.505,96.099 387.333,96.085 343.5,92.706 
	335.741,118.36 122.466,54.182 37.75,100.098 36.793,98.332 122.244,52.018 122.645,52.138 334.399,115.858 342.045,90.579 
	387.316,94.069 482.536,68.518 482.932,68.833 553.347,124.936 712.792,72.861 771.787,72.861 772.012,72.986 806.869,92.14 
	805.902,93.899 771.271,74.87 713.112,74.87 "/>
<linearGradient id="SVGID_36_" gradientUnits="userSpaceOnUse" x1="39.3008" y1="85.4043" x2="804.5522" y2="85.4043">
	<stop  offset="0" style="stop-color:#FFFFFF;stop-opacity:0"/>
	<stop  offset="0.1288" style="stop-color:#FFFFFF"/>
	<stop  offset="0.8834" style="stop-color:#FFFFFF"/>
	<stop  offset="1" style="stop-color:#FFFFFF;stop-opacity:0"/>
</linearGradient>
<polygon fill="url(#SVGID_36_)" points="551.239,125.321 550.843,124.978 481.855,65.098 387.362,92.172 343.266,88.552 
	337.077,115.914 124.16,47.457 40.212,96.444 39.301,94.882 123.945,45.488 335.749,113.587 341.848,86.62 387.182,90.342 
	482.3,63.089 551.633,123.269 710.725,67.719 769.818,67.719 804.552,88.276 803.63,89.833 769.322,69.527 711.032,69.527 "/>
<linearGradient id="SVGID_37_" gradientUnits="userSpaceOnUse" x1="41.8145" y1="81.2109" x2="802.229" y2="81.2109">
	<stop  offset="0" style="stop-color:#FFFFFF;stop-opacity:0"/>
	<stop  offset="0.1288" style="stop-color:#FFFFFF"/>
	<stop  offset="0.8834" style="stop-color:#FFFFFF"/>
	<stop  offset="1" style="stop-color:#FFFFFF;stop-opacity:0"/>
</linearGradient>
<polygon fill="url(#SVGID_37_)" points="549.54,123.461 549.176,123.118 481.637,59.474 387.219,88.244 343.018,84.395 
	338.4,113.462 125.852,40.731 42.668,92.792 41.814,91.429 125.647,38.961 126.01,39.085 337.111,111.319 341.664,82.662 
	387.048,86.613 482.061,57.662 549.917,121.604 708.66,62.577 767.845,62.577 802.229,84.409 801.366,85.769 767.376,64.186 
	708.949,64.186 "/>
<linearGradient id="SVGID_38_" gradientUnits="userSpaceOnUse" x1="44.334" y1="77.0156" x2="799.9009" y2="77.0156">
	<stop  offset="0" style="stop-color:#FFFFFF;stop-opacity:0"/>
	<stop  offset="0.1288" style="stop-color:#FFFFFF"/>
	<stop  offset="0.8834" style="stop-color:#FFFFFF"/>
	<stop  offset="1" style="stop-color:#FFFFFF;stop-opacity:0"/>
</linearGradient>
<polygon fill="url(#SVGID_38_)" points="547.844,121.597 481.422,53.847 387.075,84.316 386.931,84.304 342.758,80.238 
	339.71,111.003 338.857,110.694 127.542,34.004 45.118,89.145 44.334,87.973 127.352,32.435 127.687,32.557 338.485,109.06 
	341.493,78.705 386.917,82.887 481.819,52.238 482.125,52.549 548.196,119.942 706.596,57.434 765.869,57.434 766.047,57.556 
	799.901,80.541 799.108,81.707 765.435,58.844 706.864,58.844 "/>
<linearGradient id="SVGID_39_" gradientUnits="userSpaceOnUse" x1="46.8594" y1="72.8203" x2="797.5649" y2="72.8203">
	<stop  offset="0" style="stop-color:#FFFFFF;stop-opacity:0"/>
	<stop  offset="0.1288" style="stop-color:#FFFFFF"/>
	<stop  offset="0.8834" style="stop-color:#FFFFFF"/>
	<stop  offset="1" style="stop-color:#FFFFFF;stop-opacity:0"/>
</linearGradient>
<polygon fill="url(#SVGID_39_)" points="546.151,119.729 545.864,119.414 481.211,48.218 386.929,80.389 342.485,76.079 
	341.007,108.537 340.224,108.237 129.231,27.274 47.562,85.499 46.859,84.513 129.058,25.911 129.361,26.028 339.874,106.807 
	341.333,74.75 386.786,79.158 481.573,46.816 546.473,118.284 704.535,52.291 763.889,52.291 764.047,52.406 797.565,76.668 
	796.856,77.648 763.497,53.501 704.777,53.501 "/>
</svg>
