<?xml version="1.0" encoding="utf-8"?>
<!-- Generator: Adobe Illustrator 15.0.0, SVG Export Plug-In  -->
<!DOCTYPE svg PUBLIC "-//W3C//DTD SVG 1.1//EN" "http://www.w3.org/Graphics/SVG/1.1/DTD/svg11.dtd" [
	<!ENTITY ns_flows "http://ns.adobe.com/Flows/1.0/">
]>
<svg version="1.1"
	 xmlns="http://www.w3.org/2000/svg" xmlns:xlink="http://www.w3.org/1999/xlink" xmlns:a="http://ns.adobe.com/AdobeSVGViewerExtensions/3.0/"
	 x="0px" y="0px" width="394px" height="173px" viewBox="0.2 -0.2 394 173"
	 overflow="visible" enable-background="new 0.2 -0.2 394 173" xml:space="preserve">
<defs>
</defs>
<path fill="#FFFFFF" d="M240.9,9.9c0,0,0.1,0,0.1,0l8,4.9c0.1,0,0.1,0.1,0.1,0.1c0,0.1-0.1,0.1-0.1,0.1l-13.2-1.7
	c-0.1,0-0.1,0-0.1-0.1c0-0.1,0-0.1,0.1-0.1L240.9,9.9C240.9,9.9,240.9,9.9,240.9,9.9z M248.4,14.7l-7.5-4.5l-4.8,3L248.4,14.7z"/>
<circle fill="#FFFFFF" cx="241" cy="10" r="0.9"/>
<path fill="#FFFFFF" d="M235.7,13.1C235.7,13.1,235.7,13.1,235.7,13.1c0.1,0,0.1,0,0.1,0l2.7,2.4c0,0,0,0.1,0,0.1c0,0,0,0.1-0.1,0.1
	l0,0L232,18c-0.1,0-0.1,0-0.1,0c0,0,0-0.1,0-0.2L235.7,13.1C235.7,13.1,235.7,13.1,235.7,13.1z M238.2,15.6l-2.5-2.2l-3.5,4.3
	L238.2,15.6z"/>
<circle fill="#FFFFFF" cx="231.9" cy="17.9" r="1.9"/>
<circle fill="#FFFFFF" cx="231.9" cy="17.9" r="0.9"/>
<path fill="#FFFFFF" d="M215.9,18.2C215.9,18.2,215.9,18.2,215.9,18.2l19.9-5.1c0.1,0,0.1,0,0.1,0.1c0,0,0,0.1,0,0.1L232,18
	c0,0-0.1,0-0.1,0l-16,0.4c-0.1,0-0.1,0-0.1-0.1C215.8,18.2,215.8,18.2,215.9,18.2z M235.4,13.4L217,18.1l14.9-0.3L235.4,13.4z"/>
<circle fill="#FFFFFF" cx="215.9" cy="18.3" r="1.9"/>
<circle fill="#FFFFFF" cx="215.9" cy="18.3" r="0.9"/>
<path fill="#FFFFFF" d="M253.8,15.9C253.8,15.8,253.8,15.8,253.8,15.9l9.4,2.2c0,0,0.1,0,0.1,0.1c0,0,0,0.1,0,0.1l-2.3,4.7
	c0,0-0.1,0.1-0.1,0.1c0,0-0.1,0-0.1,0l-7.1-6.9C253.7,16,253.7,16,253.8,15.9C253.7,15.9,253.7,15.9,253.8,15.9z M263,18.2l-8.8-2
	l6.6,6.4L263,18.2z"/>
<circle fill="#FFFFFF" cx="253.8" cy="16" r="0.9"/>
<path fill="#FFFFFF" d="M263.1,18C263.2,18,263.2,18,263.1,18l23.7,6.6c0.1,0,0.1,0.1,0.1,0.1c0,0.1-0.1,0.1-0.1,0.1L260.9,23
	c0,0-0.1,0-0.1-0.1c0,0,0-0.1,0-0.1L263.1,18C263.1,18,263.1,18,263.1,18z M285.6,24.5l-22.3-6.2l-2.2,4.4L285.6,24.5z"/>
<circle fill="#FFFFFF" cx="263.2" cy="18.1" r="1.9"/>
<circle fill="#FFFFFF" cx="263.2" cy="18.1" r="0.9"/>
<path fill="#FFFFFF" d="M231.9,17.8C231.9,17.8,231.9,17.8,231.9,17.8l21.9-1.9c0.1,0,0.1,0,0.1,0.1s0,0.1-0.1,0.1l-29.6,7.2
	c-0.1,0-0.1,0-0.1-0.1c0-0.1,0-0.1,0-0.2L231.9,17.8C231.9,17.8,231.9,17.8,231.9,17.8z M252.2,16.2L232,18l-7.2,4.8L252.2,16.2z"/>
<circle fill="#FFFFFF" cx="231.9" cy="17.9" r="0.9"/>
<path fill="#FFFFFF" d="M224.1,23C224.1,23,224.1,23,224.1,23l29.7-7.2c0,0,0.1,0,0.1,0l7.1,6.9c0,0,0,0.1,0,0.1
	c0,0-0.1,0.1-0.1,0.1l-36.7,0.3c-0.1,0-0.1,0-0.1-0.1C224,23.1,224.1,23,224.1,23z M253.8,16.1L225.3,23l35.3-0.3L253.8,16.1z"/>
<circle fill="#FFFFFF" cx="253.8" cy="16" r="0.9"/>
<path fill="#FFFFFF" d="M260.9,22.7C260.9,22.7,260.9,22.7,260.9,22.7l26,1.8c0.1,0,0.1,0.1,0.1,0.1s0,0.1-0.1,0.1l-21.2,2.7
	c0,0-0.1,0-0.1,0l-4.7-4.6C260.8,22.9,260.8,22.8,260.9,22.7C260.8,22.8,260.8,22.7,260.9,22.7z M285.6,24.7L261.2,23l4.4,4.3
	L285.6,24.7z"/>
<circle fill="#FFFFFF" cx="260.9" cy="22.8" r="1.9"/>
<circle fill="#FFFFFF" cx="260.9" cy="22.8" r="0.9"/>
<path fill="#FFFFFF" d="M265.6,27.3C265.6,27.3,265.6,27.3,265.6,27.3l21.2-2.7c0.1,0,0.1,0,0.1,0.1c0,0.1,0,0.1-0.1,0.1l-21.4,2.9
	c-0.1,0-0.1,0-0.1-0.1c0-0.1,0-0.1,0-0.1L265.6,27.3C265.6,27.3,265.6,27.3,265.6,27.3z"/>
<circle fill="#FFFFFF" cx="265.6" cy="27.4" r="1.9"/>
<circle fill="#FFFFFF" cx="265.6" cy="27.4" r="0.9"/>
<path fill="#FFFFFF" d="M260.9,22.7c0,0,0.1,0,0.1,0l4.7,4.6c0,0,0,0.1,0,0.1c0,0,0,0.1-0.1,0.1l-0.3,0.2c-0.1,0-0.1,0-0.2,0
	l-4.5-4.7C260.8,22.9,260.8,22.8,260.9,22.7C260.8,22.7,260.8,22.7,260.9,22.7z M265.4,27.4l-0.8-0.8L265.4,27.4L265.4,27.4z"/>
<circle fill="#FFFFFF" cx="260.9" cy="22.8" r="1.9"/>
<circle fill="#FFFFFF" cx="260.9" cy="22.8" r="0.9"/>
<path fill="#FFFFFF" d="M215.9,18.2C215.9,18.2,215.9,18.1,215.9,18.2l16-0.4c0.1,0,0.1,0,0.1,0.1c0,0.1,0,0.1-0.1,0.1l-26.7,7.6
	c-0.1,0-0.1,0-0.1-0.1c0-0.1,0-0.1,0-0.2L215.9,18.2C215.9,18.2,215.9,18.2,215.9,18.2z M231,18.1l-15,0.3l-10,6.8L231,18.1z"/>
<circle fill="#FFFFFF" cx="205.2" cy="25.5" r="1.9"/>
<circle fill="#FFFFFF" cx="205.2" cy="25.5" r="0.9"/>
<path fill="#FFFFFF" d="M205.2,25.4C205.2,25.4,205.2,25.4,205.2,25.4l26.7-7.6c0.1,0,0.1,0,0.1,0.1s0,0.1,0,0.2l-7.8,5.2
	c0,0,0,0-0.1,0l-18.9,2.4c-0.1,0-0.1,0-0.1-0.1C205.1,25.5,205.1,25.4,205.2,25.4z M231.2,18.2l-24.4,6.9l17.3-2.2L231.2,18.2z"/>
<circle fill="#FFFFFF" cx="205.2" cy="25.5" r="1.9"/>
<circle fill="#FFFFFF" cx="205.2" cy="25.5" r="0.9"/>
<path fill="#FFFFFF" d="M301.6,25.7C301.6,25.7,301.7,25.7,301.6,25.7l35.8,3.6c0,0,0.1,0,0.1,0.1c0,0,0,0.1,0,0.1l-5.2,12
	c0,0,0,0.1-0.1,0.1l0,0c0,0-0.1,0-0.1,0l-30.6-15.6C301.5,25.9,301.5,25.8,301.6,25.7C301.5,25.7,301.6,25.7,301.6,25.7z
	 M337.2,29.6L302.3,26l29.9,15.3L337.2,29.6z"/>
<circle fill="#FFFFFF" cx="301.7" cy="25.8" r="1.9"/>
<circle fill="#FFFFFF" cx="301.7" cy="25.8" r="0.9"/>
<path fill="#FFFFFF" d="M301.6,25.7C301.6,25.7,301.7,25.7,301.6,25.7l30.7,15.6c0,0,0.1,0.1,0.1,0.1c0,0.1-0.1,0.1-0.1,0.1
	l-50.8,5.9c-0.1,0-0.1,0-0.1-0.1c0,0,0-0.1,0-0.1L301.6,25.7C301.6,25.7,301.6,25.7,301.6,25.7z M331.8,41.4L301.7,26l-19.9,21.2
	L331.8,41.4z"/>
<circle fill="#FFFFFF" cx="301.7" cy="25.8" r="1.9"/>
<circle fill="#FFFFFF" cx="301.7" cy="25.8" r="0.9"/>
<path fill="#FFFFFF" d="M286.8,24.6C286.8,24.6,286.8,24.6,286.8,24.6l14.9,1.1c0,0,0.1,0,0.1,0.1c0,0,0,0.1,0,0.1l-20.2,21.5
	c0,0-0.1,0.1-0.1,0c-0.1,0-0.1-0.1-0.1-0.1L286.8,24.6C286.7,24.6,286.7,24.6,286.8,24.6z M301.4,25.9l-14.5-1.1l-5.3,22.1
	L301.4,25.9z"/>
<circle fill="#FFFFFF" cx="281.4" cy="47.4" r="1.9"/>
<circle fill="#FFFFFF" cx="281.4" cy="47.4" r="0.9"/>
<path fill="#FFFFFF" d="M260.9,22.7c0,0,0.1,0,0.1,0l4.5,4.7c0,0,0,0.1,0,0.1c0,0,0,0.1-0.1,0.1l-28.3,13c-0.1,0-0.1,0-0.2,0
	c0-0.1,0-0.1,0-0.2L260.9,22.7C260.8,22.7,260.9,22.7,260.9,22.7z M265.2,27.5l-4.3-4.5l-22.8,17L265.2,27.5z"/>
<circle fill="#FFFFFF" cx="260.9" cy="22.8" r="1.9"/>
<circle fill="#FFFFFF" cx="260.9" cy="22.8" r="0.9"/>
<path fill="#FFFFFF" d="M224.1,23C224.1,23,224.2,23,224.1,23l36.8-0.3c0.1,0,0.1,0,0.1,0.1c0,0.1,0,0.1,0,0.1l-23.8,17.7
	c0,0-0.1,0-0.1,0c0,0-0.1,0-0.1,0l-12.9-17.4C224,23.2,224,23.1,224.1,23C224.1,23.1,224.1,23,224.1,23z M260.5,23l-36.1,0.3
	l12.7,17.1L260.5,23z"/>
<circle fill="#FFFFFF" cx="260.9" cy="22.8" r="1.9"/>
<circle fill="#FFFFFF" cx="260.9" cy="22.8" r="0.9"/>
<path fill="#FFFFFF" d="M265.3,27.5C265.3,27.5,265.3,27.5,265.3,27.5l21.5-2.9c0,0,0.1,0,0.1,0c0,0,0,0.1,0,0.1l-5.4,22.7
	c0,0,0,0.1-0.1,0.1c0,0-0.1,0-0.1,0l-16.1-19.8C265.2,27.6,265.2,27.6,265.3,27.5C265.3,27.5,265.3,27.5,265.3,27.5z M286.6,24.8
	l-21,2.8l15.8,19.4L286.6,24.8z"/>
<circle fill="#FFFFFF" cx="265.4" cy="27.6" r="0.9"/>
<path fill="#FFFFFF" d="M224.1,23C224.1,23,224.2,23,224.1,23c0.1,0,0.1,0,0.1,0l12.9,17.4c0,0,0,0.1,0,0.1c0,0,0,0.1-0.1,0.1
	l-30.9,6.6c-0.1,0-0.1,0-0.1-0.1c0,0,0-0.1,0-0.1L224.1,23C224.1,23,224.1,23,224.1,23z M236.9,40.5l-12.7-17.1L206.5,47L236.9,40.5
	z"/>
<circle fill="#FFFFFF" cx="206.2" cy="47.2" r="1.9"/>
<circle fill="#FFFFFF" cx="206.2" cy="47.2" r="0.9"/>
<path fill="#FFFFFF" d="M265.3,27.5c0,0,0.1,0,0.1,0l16.1,19.8c0,0,0,0.1,0,0.1c0,0-0.1,0.1-0.1,0.1l-44.3-6.8
	c-0.1,0-0.1-0.1-0.1-0.1c0-0.1,0-0.1,0.1-0.1L265.3,27.5C265.3,27.5,265.3,27.5,265.3,27.5z M281.1,47.2l-15.8-19.4l-27.8,12.8
	L281.1,47.2z"/>
<circle fill="#FFFFFF" cx="237.1" cy="40.6" r="0.9"/>
<path fill="#FFFFFF" d="M205.2,25.4C205.2,25.4,205.2,25.4,205.2,25.4l19-2.4c0,0,0.1,0,0.1,0.1s0,0.1,0,0.1l-18,24.1
	c0,0-0.1,0.1-0.1,0c-0.1,0-0.1-0.1-0.1-0.1l-0.9-21.7C205.1,25.5,205.1,25.4,205.2,25.4z M223.9,23.3l-18.5,2.3l0.9,21.2L223.9,23.3
	z"/>
<circle fill="#FFFFFF" cx="205.2" cy="25.5" r="1.9"/>
<circle fill="#FFFFFF" cx="205.2" cy="25.5" r="0.9"/>
<path fill="#FFFFFF" d="M281.4,47.2C281.4,47.2,281.4,47.2,281.4,47.2l50.8-5.9c0.1,0,0.1,0,0.1,0.1c0,0.1,0,0.1-0.1,0.1l-47.4,8.2
	c0,0-0.1,0-0.1,0l-3.4-2.3C281.3,47.4,281.3,47.4,281.4,47.2C281.3,47.3,281.3,47.2,281.4,47.2z M327.8,42.1l-46.1,5.4l3.1,2.1
	L327.8,42.1z"/>
<circle fill="#FFFFFF" cx="284.8" cy="49.7" r="1.9"/>
<circle fill="#FFFFFF" cx="284.8" cy="49.7" r="0.9"/>
<path fill="#FFFFFF" d="M169.1,27.8C169.1,27.8,169.1,27.8,169.1,27.8l36.1-2.4c0,0,0.1,0,0.1,0c0,0,0,0.1,0,0.1l0.9,21.7
	c0,0,0,0.1-0.1,0.1c0,0-0.1,0-0.1,0l-37-19.3C169,28,169,27.9,169.1,27.8C169,27.8,169,27.8,169.1,27.8z M205.1,25.6L169.6,28
	L206,47L205.1,25.6z"/>
<circle fill="#FFFFFF" cx="205.2" cy="25.5" r="1.9"/>
<circle fill="#FFFFFF" cx="205.2" cy="25.5" r="0.9"/>
<path fill="#FFFFFF" d="M169.1,27.8C169.1,27.8,169.1,27.8,169.1,27.8l37.1,19.3c0,0,0.1,0.1,0.1,0.1c0,0.1-0.1,0.1-0.1,0.1
	l-64.3,6.8c-0.1,0-0.1,0-0.1-0.1s0-0.1,0-0.1L169.1,27.8C169,27.8,169.1,27.8,169.1,27.8z M205.7,47.1L169.1,28l-26.9,25.8
	L205.7,47.1z"/>
<circle fill="#FFFFFF" cx="169.1" cy="27.9" r="0.9"/>
<path fill="#FFFFFF" d="M142.9,34.5C142.9,34.5,142.9,34.5,142.9,34.5l26.2-6.7c0.1,0,0.1,0,0.1,0.1c0,0.1,0,0.1,0,0.2l-25.4,19.3
	c0,0-0.1,0-0.1,0c0,0-0.1-0.1-0.1-0.1l-0.8-12.6C142.8,34.6,142.9,34.5,142.9,34.5z M168.6,28.2l-25.5,6.6l0.8,12.2L168.6,28.2z"/>
<circle fill="#FFFFFF" cx="143.7" cy="47.2" r="0.9"/>
<path fill="#FFFFFF" d="M169.1,27.8c0,0,0.1,0,0.1,0c0,0.1,0,0.1,0,0.2l-27.3,26.1c0,0-0.1,0-0.1,0l-10.1-4.3c0,0-0.1-0.1-0.1-0.1
	c0,0,0-0.1,0.1-0.1L169.1,27.8C169.1,27.8,169.1,27.8,169.1,27.8z M141.8,53.9l26.4-25.3L132,49.7L141.8,53.9z"/>
<circle fill="#FFFFFF" cx="131.7" cy="49.7" r="0.9"/>
<path fill="#FFFFFF" d="M237,40.5C237,40.4,237.1,40.4,237,40.5l44.4,6.8c0,0,0.1,0,0.1,0.1c0,0,0,0.1,0,0.1l-31.9,40
	c0,0-0.1,0.1-0.1,0s-0.1,0-0.1-0.1L237,40.6C236.9,40.6,236.9,40.5,237,40.5C237,40.5,237,40.5,237,40.5z M281.2,47.4l-43.9-6.7
	l12.3,46.4L281.2,47.4z"/>
<circle fill="#FFFFFF" cx="281.4" cy="47.4" r="1.9"/>
<circle fill="#FFFFFF" cx="281.4" cy="47.4" r="0.9"/>
<path fill="#FFFFFF" d="M281.4,47.2c0,0,0.1,0,0.1,0l3.4,2.3c0,0,0,0.1,0.1,0.1s0,0.1,0,0.1l-35.3,37.7c0,0-0.1,0.1-0.2,0
	s-0.1-0.1,0-0.2L281.4,47.2C281.3,47.3,281.4,47.2,281.4,47.2z M284.6,49.7l-3.2-2.2L251.5,85L284.6,49.7z"/>
<circle fill="#FFFFFF" cx="249.5" cy="87.4" r="1.9"/>
<circle fill="#FFFFFF" cx="249.5" cy="87.4" r="0.9"/>
<path fill="#FFFFFF" d="M206.1,47.1C206.1,47.1,206.1,47.1,206.1,47.1l30.9-6.6c0.1,0,0.1,0,0.1,0.1l12.4,46.8c0,0.1,0,0.1-0.1,0.1
	c0,0-0.1,0-0.1,0l-43.3-40.2C206,47.3,206,47.2,206.1,47.1C206,47.1,206.1,47.1,206.1,47.1z M237,40.7l-30.6,6.6L249.3,87L237,40.7z
	"/>
<circle fill="#FFFFFF" cx="206.2" cy="47.2" r="1.9"/>
<circle fill="#FFFFFF" cx="206.2" cy="47.2" r="0.9"/>
<path fill="#FFFFFF" d="M284.7,49.6C284.8,49.6,284.8,49.6,284.7,49.6l47.5-8.2c0,0,0.1,0,0.1,0l53.3,25.2c0.1,0,0.1,0.1,0.1,0.2
	c0,0.1-0.1,0.1-0.1,0.1l-100.8-17c-0.1,0-0.1,0-0.1-0.1C284.6,49.7,284.7,49.6,284.7,49.6C284.7,49.6,284.7,49.6,284.7,49.6z
	 M332.2,41.6l-46.7,8.1l99.2,16.7L332.2,41.6z"/>
<circle fill="#FFFFFF" cx="385.6" cy="66.7" r="0.9"/>
<path fill="#FFFFFF" d="M141.8,53.9C141.8,53.9,141.8,53.9,141.8,53.9l64.3-6.8c0.1,0,0.1,0,0.1,0.1c0,0.1,0,0.1-0.1,0.1l-79.3,31.2
	c-0.1,0-0.1,0-0.1,0s0-0.1,0-0.1L141.8,53.9C141.8,53.9,141.8,53.9,141.8,53.9z M205.3,47.4l-63.3,6.7l-14.7,24L205.3,47.4z"/>
<circle fill="#FFFFFF" cx="126.9" cy="78.4" r="1.9"/>
<circle fill="#FFFFFF" cx="126.9" cy="78.4" r="0.9"/>
<path fill="#FFFFFF" d="M206.1,47.1c0.1,0,0.1,0,0.2,0.1c0,0.1,0,0.1,0,0.2l-73.8,44.5c0,0-0.1,0-0.1,0c0,0-0.1,0-0.1-0.1l-5.5-13.4
	c0,0,0-0.1,0-0.1c0,0,0-0.1,0.1-0.1L206.1,47.1C206.1,47.1,206.1,47.1,206.1,47.1z M132.4,91.6l72.4-43.7l-77.8,30.6L132.4,91.6z"/>
<circle fill="#FFFFFF" cx="126.9" cy="78.4" r="1.9"/>
<circle fill="#FFFFFF" cx="126.9" cy="78.4" r="0.9"/>
<path fill="#FFFFFF" d="M206.1,47.1c0,0,0.1,0,0.1,0l43.3,40.2c0,0,0,0.1,0,0.1c0,0,0,0.1-0.1,0.1l-114.3,24.1c-0.1,0-0.1,0-0.1-0.1
	c0,0,0-0.1,0-0.1L206.1,47.1C206.1,47.1,206.1,47.1,206.1,47.1z M249.2,87.3l-43.1-39.9l-70.5,63.9L249.2,87.3z"/>
<circle fill="#FFFFFF" cx="135.2" cy="111.5" r="1.9"/>
<circle fill="#FFFFFF" cx="135.2" cy="111.5" r="0.9"/>
<path fill="#FFFFFF" d="M206.1,47.1c0.1,0,0.1,0,0.1,0c0,0.1,0,0.1,0,0.2l-70.9,64.3c0,0-0.1,0-0.1,0c0,0-0.1-0.1-0.1-0.1l-2.8-19.7
	c0,0,0-0.1,0.1-0.1L206.1,47.1C206.1,47.1,206.1,47.1,206.1,47.1z M135.3,111.2L205.1,48l-72.6,43.8L135.3,111.2z"/>
<circle fill="#FFFFFF" cx="206.2" cy="47.2" r="1.9"/>
<circle fill="#FFFFFF" cx="206.2" cy="47.2" r="0.9"/>
<path fill="#FFFFFF" d="M284.7,49.6C284.8,49.6,284.8,49.6,284.7,49.6c0.1,0,0.2,0.1,0.2,0.1l11.8,74c0,0,0,0.1-0.1,0.1
	c0,0-0.1,0-0.1,0l-47.1-36.3c0,0,0-0.1,0-0.1s0-0.1,0-0.1L284.7,49.6C284.7,49.6,284.7,49.6,284.7,49.6z M296.4,123.4L284.7,50
	l-35,37.4L296.4,123.4z"/>
<circle fill="#FFFFFF" cx="296.6" cy="123.7" r="0.9"/>
<path fill="#FFFFFF" d="M135.2,111.3C135.2,111.3,135.2,111.3,135.2,111.3l114.3-24.1c0.1,0,0.1,0,0.1,0.1c0,0.1,0,0.1-0.1,0.2
	l-126.1,70.7c0,0-0.1,0-0.1,0c0,0-0.1-0.1,0-0.1L135.2,111.3C135.1,111.4,135.1,111.4,135.2,111.3z M248.7,87.7l-113.4,23.9
	l-11.7,46.2L248.7,87.7z"/>
<circle fill="#FFFFFF" cx="135.2" cy="111.5" r="1.9"/>
<circle fill="#FFFFFF" cx="135.2" cy="111.5" r="0.9"/>
<path fill="#FFFFFF" d="M132.3,91.6C132.3,91.6,132.4,91.6,132.3,91.6c0.1,0,0.2,0,0.2,0.1l2.8,19.7c0,0,0,0,0,0l-11.8,46.6
	c0,0.1-0.1,0.1-0.1,0.1c-0.1,0-0.1-0.1-0.1-0.1l9-66.3C132.3,91.7,132.3,91.7,132.3,91.6z M135.1,111.5l-2.7-18.8l-8.6,63.2
	L135.1,111.5z"/>
<circle fill="#FFFFFF" cx="132.4" cy="91.8" r="1.9"/>
<circle fill="#FFFFFF" cx="132.4" cy="91.8" r="0.9"/>
<path fill="#FFFFFF" d="M368.8,6C368.8,6,368.9,6,368.8,6c0.1,0,0.2,0.1,0.2,0.1l0.4,6.8c0,0.1,0,0.1-0.1,0.1l-27.8,11.8
	c-0.1,0-0.1,0-0.2-0.1c0-0.1,0-0.1,0-0.2L368.8,6C368.8,6,368.8,6,368.8,6z M369.2,12.9l-0.4-6.5l-26.2,17.8L369.2,12.9z"/>
<circle fill="#FFFFFF" cx="368.9" cy="6.2" r="0.9"/>
<path fill="#FFFFFF" d="M369.3,12.9C369.3,12.9,369.3,12.9,369.3,12.9l19.6,2c0.1,0,0.1,0.1,0.1,0.1c0,0.1,0,0.1-0.1,0.1l-36.3,7.3
	c-0.1,0-0.1,0-0.1-0.1c0-0.1,0-0.1,0.1-0.2L369.3,12.9C369.2,12.9,369.2,12.9,369.3,12.9z M388,15l-18.7-1.9l-16,8.9L388,15z"/>
<circle fill="#FFFFFF" cx="352.6" cy="22.3" r="1.9"/>
<circle fill="#FFFFFF" cx="352.6" cy="22.3" r="0.9"/>
<path fill="#FFFFFF" d="M343.9,14.4L343.9,14.4L368.8,6c0.1,0,0.1,0,0.2,0.1c0,0.1,0,0.1-0.1,0.2l-41.4,19.2c-0.1,0-0.1,0-0.2-0.1
	c0-0.1,0-0.1,0-0.2L343.9,14.4C343.9,14.4,343.9,14.4,343.9,14.4z M366.7,7L344,14.6l-15,9.9L366.7,7z"/>
<circle fill="#FFFFFF" cx="327.5" cy="25.3" r="0.9"/>
<path fill="#FFFFFF" d="M368.8,6c0.1,0,0.1,0,0.2,0.1c0,0.1,0,0.1,0,0.2l-27.4,18.6c0,0,0,0-0.1,0l-14,0.6c-0.1,0-0.1,0-0.1-0.1
	c0-0.1,0-0.1,0.1-0.1L368.8,6C368.8,6,368.8,6,368.8,6z M341.4,24.6l26.1-17.7l-39.4,18.3L341.4,24.6z"/>
<circle fill="#FFFFFF" cx="327.5" cy="25.3" r="0.9"/>
<path fill="#FFFFFF" d="M369.3,12.9c0.1,0,0.1,0,0.2,0.1c0,0.1,0,0.1-0.1,0.2l-16.7,9.3c0,0,0,0,0,0l-11.1,2.5c-0.1,0-0.1,0-0.1-0.1
	c0-0.1,0-0.1,0.1-0.2L369.3,12.9C369.2,12.9,369.2,12.9,369.3,12.9z M352.5,22.2l14.7-8.1l-24.4,10.3L352.5,22.2z"/>
<circle fill="#FFFFFF" cx="352.6" cy="22.3" r="1.9"/>
<circle fill="#FFFFFF" cx="352.6" cy="22.3" r="0.9"/>
<path fill="#FFFFFF" d="M340.4,15.1C340.4,15.1,340.4,15.1,340.4,15.1l3.6-0.7c0.1,0,0.1,0,0.1,0.1c0,0.1,0,0.1-0.1,0.2l-14.8,6.6
	c-0.1,0-0.1,0-0.2-0.1s0-0.1,0.1-0.2L340.4,15.1C340.3,15.1,340.3,15.1,340.4,15.1z M342.9,14.9l-2.5,0.5l-7.8,4.1L342.9,14.9z"/>
<circle fill="#FFFFFF" cx="340.4" cy="15.2" r="0.9"/>
<path fill="#FFFFFF" d="M352.5,22.2C352.5,22.2,352.5,22.2,352.5,22.2l36.3-7.3c0,0,0.1,0,0.1,0c0,0,0,0.1,0,0.1l-5.5,11.7
	c0,0-0.1,0.1-0.1,0.1l-30.7-4.4c-0.1,0-0.1-0.1-0.1-0.1C352.4,22.2,352.5,22.2,352.5,22.2z M388.6,15.2l-35.3,7.1l29.9,4.3
	L388.6,15.2z"/>
<circle fill="#FFFFFF" cx="352.6" cy="22.3" r="1.9"/>
<circle fill="#FFFFFF" cx="352.6" cy="22.3" r="0.9"/>
<path fill="#FFFFFF" d="M340.4,15.1c0.1,0,0.1,0,0.2,0.1c0,0.1,0,0.1-0.1,0.2l-11.3,5.9l-9.7,2.5c-0.1,0-0.1,0-0.2-0.1
	s0-0.1,0.1-0.2L340.4,15.1C340.4,15.1,340.4,15.1,340.4,15.1z M329.1,21l9-4.7l-16.8,6.8L329.1,21z"/>
<circle fill="#FFFFFF" cx="319.5" cy="23.7" r="0.9"/>
<path fill="#FFFFFF" d="M343.9,14.4c0.1,0,0.1,0,0.2,0.1c0,0.1,0,0.1,0,0.2l-16.5,10.8c0,0-0.1,0-0.1,0c0,0-0.1-0.1,0-0.1l1.6-4.2
	c0,0,0-0.1,0.1-0.1L343.9,14.4C343.9,14.4,343.9,14.4,343.9,14.4z M327.7,25l14.8-9.8l-13.4,6L327.7,25z"/>
<circle fill="#FFFFFF" cx="327.5" cy="25.3" r="0.9"/>
<path fill="#FFFFFF" d="M329.1,21c0,0,0.1,0,0.1,0c0,0,0.1,0.1,0,0.1l-1.6,4.2c0,0-0.1,0.1-0.1,0.1l-4.7,0.4c-0.1,0-0.1,0-0.1-0.1
	s0-0.1,0-0.1L329.1,21C329.1,21,329.1,21,329.1,21z M327.4,25.2l1.5-3.7l-5.7,4.1L327.4,25.2z"/>
<circle fill="#FFFFFF" cx="322.7" cy="25.7" r="0.9"/>
<path fill="#FFFFFF" d="M319.4,23.6C319.4,23.6,319.4,23.6,319.4,23.6l9.7-2.5c0.1,0,0.1,0,0.2,0.1s0,0.1-0.1,0.2l-20.5,7.3l0,0
	c-0.1,0-0.1,0-0.2-0.1c0-0.1,0-0.1,0.1-0.2L319.4,23.6C319.4,23.6,319.4,23.6,319.4,23.6z M326.3,22l-6.8,1.8l-7.7,3.4L326.3,22z"/>
<circle fill="#FFFFFF" cx="319.5" cy="23.7" r="0.9"/>
<path fill="#FFFFFF" d="M329.1,21c0.1,0,0.1,0,0.2,0.1c0,0.1,0,0.1,0,0.2l-6.4,4.6c0,0,0,0,0,0l-16.2,4.1c-0.1,0-0.1,0-0.2-0.1
	c0-0.1,0-0.1,0.1-0.2L329.1,21C329.1,21,329.1,21,329.1,21z M322.7,25.6l5.6-4l-19.7,7.6L322.7,25.6z"/>
<circle fill="#FFFFFF" cx="322.7" cy="25.7" r="0.9"/>
<path fill="#FFFFFF" d="M329.1,21c0.1,0,0.1,0,0.2,0.1c0,0.1,0,0.1-0.1,0.2l-22.6,8.7c0,0,0,0,0,0c-0.1,0-0.1,0-0.2-0.1
	c0-0.1,0-0.1,0-0.2l2.1-1.4L329.1,21L329.1,21z M307.6,29.3l11.7-4.5l-10.7,3.8L307.6,29.3z"/>
<circle fill="#FFFFFF" cx="306.5" cy="29.8" r="0.9"/>
<path fill="#FFFFFF" d="M327.4,25.2C327.5,25.2,327.5,25.2,327.4,25.2l14-0.6c0.1,0,0.1,0,0.1,0.1c0,0.1,0,0.1-0.1,0.1l-15.8,3.6
	c0,0-0.1,0-0.1,0c0,0,0-0.1,0-0.1L327.4,25.2C327.4,25.3,327.4,25.2,327.4,25.2z M340.1,24.9l-12.5,0.5l-1.6,2.7L340.1,24.9z"/>
<circle fill="#FFFFFF" cx="327.5" cy="25.3" r="0.9"/>
<path fill="#FFFFFF" d="M319.4,23.6c0.1,0,0.1,0,0.2,0.1c0,0.1,0,0.1-0.1,0.2l-2.2,1.1l-8.7,3.7c-0.1,0-0.1,0-0.2-0.1
	c0-0.1,0-0.1,0.1-0.2L319.4,23.6C319.4,23.6,319.4,23.6,319.4,23.6z"/>
<circle fill="#FFFFFF" cx="317.3" cy="24.7" r="0.9"/>
<path fill="#FFFFFF" d="M341.4,24.6c0.1,0,0.1,0,0.2,0.1c0,0.1,0,0.1-0.1,0.2l0,0l-13.9,5.6c-0.1,0-0.1,0-0.2-0.1c0-0.1,0-0.1,0-0.2
	l0.2-0.1c0,0,0,0,0,0L341.4,24.6C341.4,24.6,341.4,24.6,341.4,24.6z"/>
<circle fill="#FFFFFF" cx="327.8" cy="30.2" r="1.9"/>
<circle fill="#FFFFFF" cx="327.8" cy="30.2" r="0.9"/>
<path fill="#FFFFFF" d="M322.7,25.6C322.7,25.6,322.7,25.6,322.7,25.6l4.8-0.4c0,0,0.1,0,0.1,0.1c0,0,0,0.1,0,0.1l-1.8,3
	c0,0-0.1,0.1-0.1,0.1c0,0-0.1,0-0.1,0l-2.9-2.6C322.6,25.8,322.6,25.7,322.7,25.6C322.6,25.6,322.7,25.6,322.7,25.6z M327.3,25.5
	l-4.2,0.3l2.6,2.3L327.3,25.5z"/>
<circle fill="#FFFFFF" cx="322.7" cy="25.7" r="0.9"/>
<path fill="#FFFFFF" d="M325.6,28.2C325.6,28.2,325.6,28.2,325.6,28.2l15.8-3.6c0.1,0,0.1,0,0.1,0.1c0,0.1,0,0.1-0.1,0.2l-13.7,5.4
	c0,0-0.1,0-0.1,0l-2.1-1.9C325.5,28.4,325.5,28.3,325.6,28.2C325.5,28.2,325.6,28.2,325.6,28.2z M339.9,25.2l-14,3.2l1.9,1.7
	L339.9,25.2z"/>
<circle fill="#FFFFFF" cx="325.7" cy="28.3" r="0.9"/>
<path fill="#FFFFFF" d="M352.5,22.2C352.5,22.2,352.5,22.2,352.5,22.2l30.8,4.4c0.1,0,0.1,0.1,0.1,0.1s0,0.1-0.1,0.1L335.5,41
	c-0.1,0-0.1,0-0.1-0.1c0,0,0-0.1,0-0.2L352.5,22.2C352.5,22.2,352.5,22.2,352.5,22.2z M382.7,26.7l-30.1-4.3l-16.7,18.2L382.7,26.7z
	"/>
<circle fill="#FFFFFF" cx="352.6" cy="22.3" r="0.9"/>
<path fill="#FFFFFF" d="M306.5,29.7C306.5,29.7,306.5,29.7,306.5,29.7l16.2-4.1c0.1,0,0.1,0,0.1,0.1c0,0,0,0.1,0,0.1l-10,10.6
	c0,0-0.1,0-0.1,0c0,0-0.1,0-0.1,0l-6.2-6.5C306.4,29.9,306.4,29.8,306.5,29.7C306.4,29.7,306.5,29.7,306.5,29.7z M322.4,25.9
	l-15.6,3.9l5.9,6.3L322.4,25.9z"/>
<circle fill="#FFFFFF" cx="312.7" cy="36.3" r="0.9"/>
<path fill="#FFFFFF" d="M308.6,28.3C308.6,28.3,308.6,28.3,308.6,28.3c0.1,0,0.1,0,0.2,0.1l4.1,7.9c0,0.1,0,0.1,0,0.2
	c-0.1,0-0.1,0-0.2,0l-6.2-6.5c0,0,0-0.1,0-0.1c0,0,0-0.1,0.1-0.1L308.6,28.3C308.6,28.3,308.6,28.3,308.6,28.3z M312.2,35.6l-3.6-7
	l-1.8,1.2L312.2,35.6z"/>
<circle fill="#FFFFFF" cx="312.7" cy="36.3" r="0.9"/>
<path fill="#FFFFFF" d="M341.4,24.6C341.4,24.6,341.4,24.6,341.4,24.6l11.1-2.5c0.1,0,0.1,0,0.1,0.1c0,0,0,0.1,0,0.1l-17,18.6
	c0,0-0.1,0.1-0.2,0c-0.1,0-0.1-0.1-0.1-0.1L341.4,24.6C341.3,24.7,341.4,24.6,341.4,24.6z M352.2,22.5l-10.6,2.4l-5.7,15.4
	L352.2,22.5z"/>
<circle fill="#FFFFFF" cx="335.5" cy="40.8" r="0.9"/>
<path fill="#FFFFFF" d="M303.3,30.6C303.3,30.6,303.3,30.6,303.3,30.6l19.5-5c0,0,0.1,0,0.1,0l2.9,2.6c0,0,0.1,0.1,0,0.1
	c0,0-0.1,0.1-0.1,0.1l-22.4,2.4c-0.1,0-0.1,0-0.1-0.1C303.2,30.7,303.2,30.6,303.3,30.6z M322.7,25.9L305,30.4l20.4-2.2L322.7,25.9z
	"/>
<circle fill="#FFFFFF" cx="322.7" cy="25.7" r="0.9"/>
<path fill="#FFFFFF" d="M303.3,30.6C303.3,30.6,303.3,30.6,303.3,30.6l19.5-5c0.1,0,0.1,0,0.1,0.1c0,0,0,0.1,0,0.1l-10,10.6
	c0,0-0.1,0.1-0.2,0l-9.4-5.6C303.2,30.8,303.2,30.7,303.3,30.6C303.2,30.6,303.2,30.6,303.3,30.6z M322.4,25.9l-18.7,4.8l9,5.4
	L322.4,25.9z"/>
<circle fill="#FFFFFF" cx="312.7" cy="36.3" r="0.9"/>
<path fill="#FFFFFF" d="M335.5,40.7C335.5,40.7,335.5,40.7,335.5,40.7l47.8-14.1c0.1,0,0.1,0,0.2,0.1c0,0.1,0,0.1-0.1,0.2l0,0
	l-45.6,15.4c0,0-0.1,0-0.1,0l-2.2-1.3c0,0-0.1-0.1-0.1-0.1C335.4,40.8,335.4,40.7,335.5,40.7z M377,28.7l-41.2,12.2l1.9,1.1
	L377,28.7z"/>
<circle fill="#FFFFFF" cx="337.7" cy="42.1" r="0.9"/>
<path fill="#FFFFFF" d="M341.4,24.6c0,0,0.1,0,0.1,0c0,0,0,0.1,0,0.1l-5.9,16.1c0,0-0.1,0.1-0.1,0.1c0,0-0.1,0-0.1,0l-7.9-10.5
	c0,0,0-0.1,0-0.1c0,0,0-0.1,0.1-0.1L341.4,24.6C341.4,24.6,341.4,24.6,341.4,24.6z M335.5,40.6l5.8-15.6l-13.5,5.4L335.5,40.6z"/>
<circle fill="#FFFFFF" cx="327.6" cy="30.3" r="0.9"/>
<path fill="#FFFFFF" d="M325.6,28.2c0,0,0.1,0,0.1,0l1.9,2c0,0,0,0.1,0,0.1c0,0,0,0.1-0.1,0.1l-16.2,11.1c-0.1,0-0.1,0-0.2,0
	c0-0.1,0-0.1,0-0.2L325.6,28.2C325.6,28.2,325.6,28.2,325.6,28.2z M327.4,30.3l-1.7-1.8l-12.9,11.9L327.4,30.3z"/>
<circle fill="#FFFFFF" cx="325.7" cy="28.3" r="0.9"/>
<path fill="#FFFFFF" d="M303.3,30.6C303.3,30.6,303.3,30.6,303.3,30.6l22.4-2.4c0.1,0,0.1,0,0.1,0.1c0,0,0,0.1,0,0.1l-14.3,13.2
	c0,0-0.1,0-0.1,0c0,0-0.1,0-0.1,0l-8.1-10.8C303.2,30.7,303.2,30.7,303.3,30.6C303.2,30.6,303.2,30.6,303.3,30.6z M325.3,28.5
	l-21.8,2.3l7.9,10.5L325.3,28.5z"/>
<circle fill="#FFFFFF" cx="325.7" cy="28.3" r="0.9"/>
<path fill="#FFFFFF" d="M327.5,30.2c0.1,0,0.1,0,0.1,0l7.9,10.5c0,0,0,0.1,0,0.1s-0.1,0.1-0.1,0.1l-24.1,0.6c-0.1,0-0.1,0-0.1-0.1
	c0-0.1,0-0.1,0-0.1L327.5,30.2C327.5,30.2,327.5,30.2,327.5,30.2z M335.3,40.7l-7.7-10.2l-15.8,10.8L335.3,40.7z"/>
<circle fill="#FFFFFF" cx="311.4" cy="41.5" r="0.9"/>
<path fill="#FFFFFF" d="M303.3,30.6C303.3,30.6,303.3,30.6,303.3,30.6c0.1,0,0.1,0,0.1,0l8.1,10.8c0,0,0,0.1,0,0.1
	c0,0,0,0.1-0.1,0.1l-13.8,6.2c0,0-0.1,0-0.1,0c0,0,0-0.1,0-0.1L303.3,30.6C303.2,30.6,303.2,30.6,303.3,30.6z M311.2,41.4L303.3,31
	l-5.6,16.5L311.2,41.4z"/>
<circle fill="#FFFFFF" cx="297.5" cy="47.7" r="0.9"/>
<path fill="#FFFFFF" d="M311.3,41.4C311.3,41.4,311.4,41.4,311.3,41.4l24.2-0.7c0,0,0.1,0,0.1,0.1c0,0,0,0.1,0,0.1l-25.9,31.7
	c0,0-0.1,0.1-0.1,0c-0.1,0-0.1-0.1-0.1-0.1l1.8-31.1C311.3,41.4,311.3,41.4,311.3,41.4z M335.2,41l-23.7,0.6l-1.8,30.6L335.2,41z"/>
<circle fill="#FFFFFF" cx="335.5" cy="40.8" r="0.9"/>
<path fill="#FFFFFF" d="M335.5,40.7c0,0,0.1,0,0.1,0l2.2,1.3c0,0,0.1,0.1,0.1,0.1c0,0,0,0.1,0,0.1l-28.1,30.5c0,0-0.1,0.1-0.2,0
	c-0.1,0-0.1-0.1,0-0.2L335.5,40.7C335.4,40.7,335.4,40.7,335.5,40.7z M337.5,42.1l-1.9-1.1l-23.2,28.4L337.5,42.1z"/>
<circle fill="#FFFFFF" cx="309.6" cy="72.6" r="0.9"/>
<path fill="#FFFFFF" d="M311.3,41.4c0,0,0.1,0,0.1,0c0,0,0.1,0.1,0.1,0.1l-1.8,31.1c0,0.1,0,0.1-0.1,0.1c-0.1,0-0.1,0-0.1-0.1
	l-12-24.9c0,0,0-0.1,0-0.1c0,0,0-0.1,0.1-0.1L311.3,41.4C311.3,41.4,311.3,41.4,311.3,41.4z M309.5,72.1l1.8-30.4l-13.5,6.1
	L309.5,72.1z"/>
<circle fill="#FFFFFF" cx="297.5" cy="47.7" r="0.9"/>
<path fill="#FFFFFF" d="M337.6,42C337.6,42,337.6,42,337.6,42L337.6,42l45.6-15.4c0,0,0.1,0,0.1,0c0,0,0.1,0.1,0.1,0.1l9.7,116.4
	c0,0.1,0,0.1-0.1,0.1c0,0,0,0,0,0c-0.1,0-0.1,0-0.1-0.1l-55.3-101c0,0,0,0,0,0C337.5,42.1,337.6,42,337.6,42z M383.2,26.9
	l-45.3,15.3l55,100.4L383.2,26.9z"/>
<circle fill="#FFFFFF" cx="393" cy="143.1" r="0.9"/>
<path fill="#FFFFFF" d="M337.6,42C337.7,42,337.7,42,337.6,42c0.1,0,0.2,0.1,0.2,0.1l16,104.7c0,0.1,0,0.1-0.1,0.1c0,0,0,0,0,0
	c-0.1,0-0.1,0-0.1-0.1l-44.1-74.2c0,0,0-0.1,0-0.1L337.6,42C337.6,42,337.6,42,337.6,42z M353.4,146.2L337.6,42.4l-27.9,30.2
	L353.4,146.2z"/>
<circle fill="#FFFFFF" cx="353.6" cy="146.8" r="0.9"/>
<path fill="#FFFFFF" d="M98.7,47C98.7,47,98.7,47,98.7,47l33,2.6c0,0,0.1,0,0.1,0.1c0,0,0,0.1,0,0.1l-4.1,5.6c0,0-0.1,0.1-0.1,0
	l-28.8-8.2C98.6,47.2,98.6,47.2,98.7,47C98.6,47,98.6,47,98.7,47z M131.4,49.8L100,47.3l27.5,7.8L131.4,49.8z"/>
<circle fill="#FFFFFF" cx="131.7" cy="49.7" r="0.9"/>
<path fill="#FFFFFF" d="M108.7,52C108.7,52,108.8,52,108.7,52l18.8,3.2c0,0,0.1,0,0.1,0L141.1,69c0,0,0,0.1,0,0.2c0,0-0.1,0.1-0.2,0
	l-32.2-17C108.6,52.2,108.6,52.1,108.7,52C108.6,52,108.7,52,108.7,52z M127.4,55.4l-17.9-3.1l30.8,16.2L127.4,55.4z"/>
<circle fill="#FFFFFF" cx="108.8" cy="52.1" r="1.9"/>
<circle fill="#FFFFFF" cx="108.8" cy="52.1" r="0.9"/>
<path fill="#FFFFFF" d="M87.7,38.7C87.7,38.7,87.8,38.7,87.7,38.7l19.6,1.8c0,0,0,0,0,0l24.3,9c0.1,0,0.1,0.1,0.1,0.2
	c0,0.1-0.1,0.1-0.1,0.1L87.7,39C87.7,39,87.6,38.9,87.7,38.7C87.7,38.8,87.7,38.8,87.7,38.7z M107.3,40.8l-17.9-1.7l40.1,9.9
	L107.3,40.8z"/>
<circle fill="#FFFFFF" cx="87.8" cy="38.9" r="0.9"/>
<path fill="#FFFFFF" d="M87.7,38.7C87.7,38.7,87.8,38.7,87.7,38.7l44,10.9c0.1,0,0.1,0.1,0.1,0.1c0,0.1-0.1,0.1-0.1,0.1l-32.9-2.6
	c0,0,0,0-0.1,0l-11-8.3C87.6,38.9,87.6,38.9,87.7,38.7C87.7,38.8,87.7,38.8,87.7,38.7z M130.1,49.5L88.3,39.1L98.8,47L130.1,49.5z"
	/>
<circle fill="#FFFFFF" cx="87.8" cy="38.9" r="0.9"/>
<path fill="#FFFFFF" d="M98.7,47C98.7,47,98.7,47,98.7,47l28.8,8.2c0.1,0,0.1,0.1,0.1,0.1c0,0.1-0.1,0.1-0.1,0.1l-18.8-3.2
	c0,0,0,0,0,0l-10-5C98.6,47.2,98.6,47.1,98.7,47C98.6,47,98.7,47,98.7,47z M125.3,54.8L100,47.6l8.8,4.4L125.3,54.8z"/>
<circle fill="#FFFFFF" cx="108.8" cy="52.1" r="1.9"/>
<circle fill="#FFFFFF" cx="108.8" cy="52.1" r="0.9"/>
<path fill="#FFFFFF" d="M91.7,36.5C91.7,36.5,91.8,36.5,91.7,36.5l12.5,2.4c0,0,0,0,0,0l3.1,1.7c0.1,0,0.1,0.1,0.1,0.2
	c0,0.1-0.1,0.1-0.1,0.1l-15.6-4.1C91.7,36.7,91.6,36.6,91.7,36.5C91.6,36.5,91.7,36.5,91.7,36.5z M104.1,39.1l-8.6-1.7l10.8,2.8
	L104.1,39.1z"/>
<circle fill="#FFFFFF" cx="104.2" cy="39" r="0.9"/>
<path fill="#FFFFFF" d="M108.7,52C108.7,52,108.8,52,108.7,52L141,69c0,0,0.1,0.1,0.1,0.1s0,0.1-0.1,0.1l-11.8,5.7c0,0-0.1,0-0.1,0
	l-20.4-22.6C108.6,52.2,108.6,52.1,108.7,52C108.7,52,108.7,52,108.7,52z M140.7,69.1l-31.4-16.5l19.8,22.1L140.7,69.1z"/>
<circle fill="#FFFFFF" cx="108.8" cy="52.1" r="1.9"/>
<circle fill="#FFFFFF" cx="108.8" cy="52.1" r="0.9"/>
<path fill="#FFFFFF" d="M82.7,32.4C82.8,32.4,82.8,32.4,82.7,32.4l21.5,6.5c0.1,0,0.1,0.1,0.1,0.1c0,0.1-0.1,0.1-0.1,0.1l-12.4-2.4
	l-9-4.1C82.7,32.6,82.6,32.6,82.7,32.4C82.7,32.5,82.7,32.4,82.7,32.4z M101.8,38.4l-17.2-5.2l7.2,3.3L101.8,38.4z"/>
<circle fill="#FFFFFF" cx="82.8" cy="32.5" r="0.9"/>
<path fill="#FFFFFF" d="M91.7,36.5C91.7,36.5,91.8,36.5,91.7,36.5l15.6,4.1c0.1,0,0.1,0.1,0.1,0.1c0,0.1-0.1,0.1-0.1,0.1L87.8,39
	c-0.1,0-0.1,0-0.1-0.1c0-0.1,0-0.1,0.1-0.1L91.7,36.5C91.7,36.5,91.7,36.5,91.7,36.5z M105.8,40.4l-14-3.7l-3.6,2L105.8,40.4z"/>
<circle fill="#FFFFFF" cx="87.8" cy="38.9" r="0.9"/>
<path fill="#FFFFFF" d="M83.9,36.1C83.9,36.1,83.9,36.1,83.9,36.1l7.9,0.4c0.1,0,0.1,0,0.1,0.1c0,0.1,0,0.1-0.1,0.1l-4,2.3
	c0,0-0.1,0-0.1,0l-3.8-2.7C83.8,36.3,83.8,36.2,83.9,36.1C83.8,36.1,83.9,36.1,83.9,36.1z M91.3,36.7l-7-0.4l3.4,2.4L91.3,36.7z"/>
<circle fill="#FFFFFF" cx="83.9" cy="36.2" r="0.9"/>
<path fill="#FFFFFF" d="M71.4,29.4C71.4,29.4,71.5,29.4,71.4,29.4l11.4,3.1l9,4.1c0.1,0,0.1,0.1,0.1,0.2c0,0.1-0.1,0.1-0.2,0.1
	l-20.3-7.1C71.3,29.6,71.3,29.5,71.4,29.4C71.3,29.4,71.4,29.4,71.4,29.4z M89.1,35.5l-6.4-2.9l-8-2.2L89.1,35.5z"/>
<circle fill="#FFFFFF" cx="82.8" cy="32.5" r="0.9"/>
<path fill="#FFFFFF" d="M69,29.1C69,29.1,69,29.1,69,29.1l22.8,7.3c0.1,0,0.1,0.1,0.1,0.1c0,0.1-0.1,0.1-0.1,0.1l-7.8-0.4
	c0,0,0,0,0,0l-14.9-6.9C68.9,29.3,68.9,29.3,69,29.1C68.9,29.2,68.9,29.1,69,29.1z M90.8,36.4L70.9,30L84,36.1L90.8,36.4z"/>
<circle fill="#FFFFFF" cx="83.9" cy="36.2" r="0.9"/>
<path fill="#FFFFFF" d="M69,29.1C69,29.1,69,29.1,69,29.1l2.5,0.2l20.3,7.1c0.1,0,0.1,0.1,0.1,0.2c0,0.1-0.1,0.1-0.2,0.1L69,29.4
	C68.9,29.4,68.9,29.3,69,29.1C68.9,29.2,68.9,29.2,69,29.1z M82.1,33.4l-10.7-3.7l-1.3-0.1L82.1,33.4z"/>
<circle fill="#FFFFFF" cx="69" cy="29.3" r="0.9"/>
<path fill="#FFFFFF" d="M84.4,39.9l3.3-1.2c0,0,0.1,0,0.1,0l11,8.3c0.1,0,0.1,0.1,0,0.2c0,0.1-0.1,0.1-0.2,0l-14.3-7.1
	c0,0-0.1-0.1-0.1-0.1C84.3,40,84.3,39.9,84.4,39.9z M87.7,39l-3,1l12.8,6.4L87.7,39z"/>
<circle fill="#FFFFFF" cx="87.8" cy="38.9" r="0.9"/>
<path fill="#FFFFFF" d="M71.4,29.4C71.4,29.4,71.5,29.4,71.4,29.4l11.4,3.1c0.1,0,0.1,0.1,0.1,0.2c0,0.1-0.1,0.1-0.1,0.1l-2.3-0.5
	l-9-2.5C71.3,29.6,71.3,29.5,71.4,29.4C71.3,29.4,71.4,29.4,71.4,29.4z"/>
<circle fill="#FFFFFF" cx="80.4" cy="32" r="0.9"/>
<path fill="#FFFFFF" d="M84.5,42.7C84.5,42.7,84.6,42.7,84.5,42.7l0.3,0c0,0,0,0,0,0L98.8,47c0.1,0,0.1,0.1,0.1,0.2
	s-0.1,0.1-0.2,0.1v0l-14.2-4.3c-0.1,0-0.1-0.1-0.1-0.1C84.5,42.8,84.5,42.7,84.5,42.7z"/>
<circle fill="#FFFFFF" cx="84.8" cy="42.8" r="1.9"/>
<circle fill="#FFFFFF" cx="84.8" cy="42.8" r="0.9"/>
<path fill="#FFFFFF" d="M83.9,36.1c0,0,0.1,0,0.1,0l3.8,2.7c0,0,0.1,0.1,0.1,0.1c0,0,0,0.1-0.1,0.1l-3.3,1.2c0,0-0.1,0-0.1,0
	c0,0-0.1-0.1-0.1-0.1l-0.5-3.8C83.8,36.1,83.8,36.1,83.9,36.1C83.9,36.1,83.9,36.1,83.9,36.1z M87.5,38.8l-3.4-2.4l0.4,3.4
	L87.5,38.8z"/>
<circle fill="#FFFFFF" cx="83.9" cy="36.2" r="0.9"/>
<path fill="#FFFFFF" d="M84.4,39.9C84.4,39.9,84.5,39.9,84.4,39.9L98.8,47c0.1,0,0.1,0.1,0.1,0.2c0,0.1-0.1,0.1-0.2,0.1l-13.9-4.3
	c0,0-0.1-0.1-0.1-0.1L84.3,40C84.3,40,84.3,40,84.4,39.9C84.4,39.9,84.4,39.9,84.4,39.9z M97.3,46.5l-12.7-6.3l0.3,2.5L97.3,46.5z"
	/>
<circle fill="#FFFFFF" cx="84.4" cy="40" r="0.9"/>
<path fill="#FFFFFF" d="M83.7,55.8C83.7,55.8,83.7,55.8,83.7,55.8l25.1-3.8c0,0,0.1,0,0.1,0l20.4,22.6c0,0,0,0.1,0,0.2
	c0,0-0.1,0.1-0.1,0L83.7,56.1c-0.1,0-0.1-0.1-0.1-0.1C83.6,55.9,83.6,55.9,83.7,55.8z M108.7,52.3L84.2,56l44.5,18.4L108.7,52.3z"/>
<circle fill="#FFFFFF" cx="108.8" cy="52.1" r="0.9"/>
<path fill="#FFFFFF" d="M69,29.1C69,29.1,69,29.1,69,29.1l15,6.9c0.1,0,0.1,0.1,0.1,0.1c0,0.1,0,0.1-0.1,0.1l-14.5,2
	c0,0-0.1,0-0.1,0c0,0,0-0.1,0-0.1l-0.4-8.9C68.9,29.2,68.9,29.2,69,29.1C68.9,29.1,68.9,29.1,69,29.1z M83.5,36.1l-14.4-6.7l0.4,8.6
	L83.5,36.1z"/>
<circle fill="#FFFFFF" cx="69.4" cy="38.2" r="0.9"/>
<path fill="#FFFFFF" d="M69,29.1C69,29.1,69,29.1,69,29.1l2.5,0.2c0,0,0.1,0,0.1,0.1c0,0,0,0.1,0,0.1l-2.1,8.7
	c0,0.1-0.1,0.1-0.1,0.1c-0.1,0-0.1-0.1-0.1-0.1l-0.4-8.9C68.9,29.2,68.9,29.2,69,29.1C68.9,29.2,68.9,29.1,69,29.1z M71.3,29.6
	l-2.2-0.2l0.3,7.9L71.3,29.6z"/>
<circle fill="#FFFFFF" cx="69.4" cy="38.2" r="0.9"/>
<path fill="#FFFFFF" d="M98.7,47C98.7,47,98.8,47,98.7,47l10.1,5c0,0,0.1,0.1,0.1,0.1c0,0.1-0.1,0.1-0.1,0.1l-25,3.8
	c-0.1,0-0.1,0-0.1-0.1c0-0.1,0-0.1,0.1-0.1L98.7,47C98.7,47,98.7,47,98.7,47z M108.3,52.1l-9.6-4.8l-14.4,8.5L108.3,52.1z"/>
<circle fill="#FFFFFF" cx="83.7" cy="56" r="0.9"/>
<path fill="#FFFFFF" d="M65.9,27.8C65.9,27.8,66,27.8,65.9,27.8L84,36.1c0,0,0.1,0.1,0.1,0.1l0.5,3.8c0,0,0,0.1-0.1,0.1
	c0,0-0.1,0-0.1,0L65.9,28C65.8,28,65.8,27.9,65.9,27.8C65.9,27.8,65.9,27.8,65.9,27.8z M83.8,36.3l-16.4-7.5l16.8,11L83.8,36.3z"/>
<circle fill="#FFFFFF" cx="83.9" cy="36.2" r="0.9"/>
<path fill="#FFFFFF" d="M65.9,27.8C66,27.8,66,27.8,65.9,27.8L84,36.1c0.1,0,0.1,0.1,0.1,0.1c0,0.1,0,0.1-0.1,0.1l-14.5,2
	c-0.1,0-0.1,0-0.1-0.1L65.8,28C65.8,27.9,65.8,27.9,65.9,27.8C65.9,27.8,65.9,27.8,65.9,27.8z M83.5,36.1l-17.3-8l3.3,9.9L83.5,36.1
	z"/>
<circle fill="#FFFFFF" cx="69.4" cy="38.2" r="0.9"/>
<path fill="#FFFFFF" d="M83.7,55.8C83.7,55.8,83.7,55.8,83.7,55.8l45.5,18.8c0.1,0,0.1,0.1,0.1,0.2c0,0.1-0.1,0.1-0.2,0.1L84.5,58.4
	c0,0-0.1,0-0.1-0.1L83.6,56C83.6,56,83.6,55.9,83.7,55.8C83.6,55.9,83.6,55.8,83.7,55.8z M123.1,72.4L83.9,56.2l0.7,2L123.1,72.4z"
	/>
<circle fill="#FFFFFF" cx="84.5" cy="58.3" r="0.9"/>
<path fill="#FFFFFF" d="M84.5,42.7C84.6,42.7,84.6,42.7,84.5,42.7L98.8,47c0,0,0.1,0.1,0.1,0.1c0,0,0,0.1-0.1,0.1l-15,8.8
	c0,0-0.1,0-0.1,0c0,0-0.1-0.1-0.1-0.1l0.9-13.1C84.5,42.8,84.5,42.7,84.5,42.7C84.5,42.7,84.5,42.7,84.5,42.7z M98.4,47.2L84.7,43
	l-0.8,12.7L98.4,47.2z"/>
<circle fill="#FFFFFF" cx="84.6" cy="42.8" r="0.9"/>
<path fill="#FFFFFF" d="M65,41.3C65,41.3,65,41.3,65,41.3l19.5-1.4c0,0,0.1,0,0.1,0c0,0,0,0.1,0,0.1l0.1,2.8c0,0,0,0.1,0,0.1
	c0,0-0.1,0-0.1,0L65,41.5c-0.1,0-0.1-0.1-0.1-0.1C64.9,41.3,64.9,41.3,65,41.3z M84.3,40.2l-17.6,1.2l17.7,1.3L84.3,40.2z"/>
<circle fill="#FFFFFF" cx="84.4" cy="40" r="0.9"/>
<path fill="#FFFFFF" d="M65.9,27.8c0,0,0.1,0,0.1,0l18.5,12.1c0,0,0.1,0.1,0.1,0.1c0,0.1-0.1,0.1-0.1,0.1L65,41.5c0,0-0.1,0-0.1,0
	c0,0,0-0.1,0-0.1l0.9-13.5C65.8,27.9,65.9,27.8,65.9,27.8C65.9,27.8,65.9,27.8,65.9,27.8z M84.1,39.9l-18-11.8l-0.9,13.1L84.1,39.9z
	"/>
<circle fill="#FFFFFF" cx="84.4" cy="40" r="0.9"/>
<path fill="#FFFFFF" d="M65,41.3C65,41.3,65,41.3,65,41.3l19.6,1.4c0.1,0,0.1,0.1,0.1,0.1L83.8,56c0,0,0,0.1-0.1,0.1
	c0,0-0.1,0-0.1,0L64.9,41.5C64.9,41.5,64.9,41.4,65,41.3C64.9,41.3,64.9,41.3,65,41.3z M84.4,42.9l-19-1.4l18.2,14.2L84.4,42.9z"/>
<circle fill="#FFFFFF" cx="65" cy="41.4" r="0.9"/>
<path fill="#FFFFFF" d="M65.9,27.8c0,0,0.1,0,0.1,0c0,0,0.1,0.1,0.1,0.1l-0.9,13.5c0,0,0,0.1-0.1,0.1c0,0-0.1,0-0.1,0l-14.6-3.8
	c0,0-0.1-0.1-0.1-0.1c0,0,0-0.1,0.1-0.1L65.9,27.8C65.9,27.8,65.9,27.8,65.9,27.8z M64.9,41.2l0.9-13.1l-15,9.4L64.9,41.2z"/>
<circle fill="#FFFFFF" cx="50.5" cy="37.6" r="0.9"/>
<path fill="#FFFFFF" d="M65,41.3c0,0,0.1,0,0.1,0l18.7,14.6c0,0,0.1,0.1,0,0.1c0,0,0,0.1-0.1,0.1l-40.4,8.6c-0.1,0-0.1,0-0.1-0.1
	c0,0,0-0.1,0-0.1L65,41.3C64.9,41.3,65,41.3,65,41.3z M83.4,55.9L65,41.6L43.7,64.3L83.4,55.9z"/>
<circle fill="#FFFFFF" cx="83.7" cy="56" r="0.9"/>
<path fill="#FFFFFF" d="M43.3,64.4C43.3,64.4,43.3,64.4,43.3,64.4l40.4-8.6c0.1,0,0.1,0,0.1,0.1l0.8,2.3c0,0,0,0.1,0,0.1
	c0,0,0,0.1-0.1,0.1l-41.2,6.2c-0.1,0-0.1,0-0.1-0.1C43.2,64.5,43.2,64.4,43.3,64.4z M83.6,56.1l-36.2,7.7l36.9-5.6L83.6,56.1z"/>
<circle fill="#FFFFFF" cx="43.3" cy="64.5" r="0.9"/>
<path fill="#FFFFFF" d="M50.4,37.5C50.4,37.5,50.5,37.5,50.4,37.5L65,41.3c0,0,0.1,0,0.1,0.1c0,0,0,0.1,0,0.1L43.4,64.6
	c0,0-0.1,0.1-0.2,0c0,0-0.1-0.1-0.1-0.1L50.4,37.5C50.3,37.5,50.4,37.5,50.4,37.5z M64.8,41.5l-14.2-3.7l-7,26.3L64.8,41.5z"/>
<circle fill="#FFFFFF" cx="50.5" cy="37.6" r="0.9"/>
<path fill="#FFFFFF" d="M84.5,58.2C84.5,58.2,84.5,58.2,84.5,58.2l44.7,16.5c0,0,0.1,0,0.1,0.1c0,0,0,0.1,0,0.1l-68.8,97
	c0,0-0.1,0.1-0.2,0c-0.1,0-0.1-0.1-0.1-0.1L84.5,58.2C84.4,58.2,84.4,58.2,84.5,58.2C84.5,58.2,84.5,58.2,84.5,58.2z M128.9,74.8
	L84.6,58.5L60.5,171.2L128.9,74.8z"/>
<circle fill="#FFFFFF" cx="60.3" cy="171.7" r="0.9"/>
<path fill="#FFFFFF" d="M43.3,64.4C43.3,64.4,43.3,64.4,43.3,64.4l41.2-6.2c0,0,0.1,0,0.1,0.1c0,0,0,0.1,0,0.1l-56.4,91.7
	c0,0.1-0.1,0.1-0.2,0.1S28,150.1,28,150L43.3,64.4C43.2,64.5,43.2,64.4,43.3,64.4z M84.3,58.5l-40.9,6.2l-15.1,84.8L84.3,58.5z"/>
<circle fill="#FFFFFF" cx="28.1" cy="150" r="0.9"/>
<path fill="#FFFFFF" d="M226.2,29.6c7.8,2.9,14.9,5.4,21.6,7.7l0.1,0l0,0.1c0.4,1.1,0.6,1.7,1,2.9l0.1,0.3l-0.3-0.1
	c-7.4-3.5-15-7-22.6-10.6L226.2,29.6z M247.6,37.5c-6-2.1-12.2-4.3-19-6.8c6.6,3.1,13.3,6.3,19.8,9.3
	C248.2,39.1,248,38.5,247.6,37.5z"/>
<circle fill="#FFFFFF" cx="247.7" cy="37.4" r="1.9"/>
<path fill="#FFFFFF" d="M213.1,33.2l0.5-0.1c5.1-1.6,8.9-2.7,12.5-3.5l0,0l0,0c7.5,3.6,15.1,7.2,22.6,10.6l0.9,0.4l-1-0.2
	c-9.4-1.7-20.2-3.9-35.1-7.1L213.1,33.2z M226.1,29.8c-3.4,0.8-7.2,1.8-12,3.3c14.2,3,24.6,5.2,33.6,6.9
	C240.6,36.7,233.3,33.3,226.1,29.8z"/>
<circle fill="#FFFFFF" cx="248.7" cy="40.3" r="1.9"/>
<path fill="#FFFFFF" d="M213.7,20.6l0.2,0.2c4.3,3,8.3,5.9,12.3,8.8l0.4,0.3l-0.5,0c-3.9-0.4-7.9-0.8-12-1.1l-0.1,0l0-0.1
	c0-2.5,0-5.2-0.3-7.7L213.7,20.6z M225.7,29.5c-3.8-2.8-7.7-5.6-11.7-8.4c0.2,2.4,0.3,5,0.3,7.4C218.1,28.8,222,29.2,225.7,29.5z"/>
<circle fill="#FFFFFF" cx="214.1" cy="28.6" r="1.9"/>
<path fill="#FFFFFF" d="M201.2,16.1l0.6,0.2c3.9,1.5,8,2.9,12.1,4.4l0.1,0l0,0.1c0.3,2.6,0.3,5.2,0.3,7.8l0,0.3l-0.2-0.2
	c-4.1-4.3-8.2-8.3-12.4-12.1L201.2,16.1z M213.7,20.9c-3.8-1.4-7.7-2.8-11.4-4.2c4,3.7,7.8,7.4,11.7,11.5
	C214,25.9,214,23.4,213.7,20.9z"/>
<circle fill="#FFFFFF" cx="214.1" cy="28.6" r="1.9"/>
<path fill="#FFFFFF" d="M214,28.5l0.1,0c4.1,0.3,8.1,0.7,12,1.1l0.8,0.1l-0.8,0.2c-3.6,0.8-7.4,1.9-12.5,3.5l-0.2,0.1l0-0.3
	c0.2-1.5,0.3-3,0.5-4.4L214,28.5z M225.4,29.7c-3.6-0.4-7.4-0.7-11.1-1c-0.1,1.4-0.3,2.8-0.5,4.3C218.4,31.5,222,30.5,225.4,29.7z"
	/>
<circle fill="#FFFFFF" cx="214.1" cy="28.6" r="1.9"/>
<path fill="#FFFFFF" d="M248.8,40.2L248.8,40.2c2.7,4.9,5.3,10.2,9,17.9l0.1,0.2l-0.2,0c-9.1-1.1-19.7-2.7-33.3-5.1l-0.3-0.1
	l0.3-0.2c7.9-4.6,16.3-9.4,24.4-12.7L248.8,40.2z M257.4,57.9c-3.6-7.5-6.2-12.8-8.7-17.5c-8,3.3-16.2,7.9-24,12.5
	C238,55.3,248.4,56.9,257.4,57.9z"/>
<circle fill="#FFFFFF" cx="224.3" cy="53" r="1.9"/>
<path fill="#FFFFFF" d="M186.4,18.7l0.4-0.1c4.4-0.8,9.6-1.7,14.9-2.3l0.1,0l0,0c4.2,3.9,8.2,7.8,12.4,12.2l0.4,0.4l-0.5-0.2
	c-8.5-3-17.5-6.2-27.3-9.9L186.4,18.7z M201.7,16.6c-5.1,0.5-10.1,1.4-14.4,2.2c9.5,3.5,18.1,6.6,26.4,9.5
	C209.7,24.2,205.8,20.3,201.7,16.6z"/>
<circle fill="#FFFFFF" cx="214.1" cy="28.6" r="1.9"/>
<path fill="#FFFFFF" d="M185.8,17.3l0.2,0c5.7-0.5,10.8-0.8,15.7-0.9l0,0.2c-5.3,0.6-10.5,1.5-14.9,2.3l-0.1,0l0-0.1
	c-0.3-0.5-0.5-0.8-0.8-1.4L185.8,17.3z M198.7,16.7c-3.9,0.2-8,0.4-12.5,0.8c0.2,0.4,0.4,0.7,0.6,1.1
	C190.4,17.9,194.5,17.2,198.7,16.7z"/>
<circle fill="#FFFFFF" cx="186" cy="17.4" r="1.9"/>
<path fill="#FFFFFF" d="M213.4,33l0.3,0.1c14.9,3.2,25.7,5.4,35.1,7.1l0.4,0.1l-0.4,0.2c-8.1,3.3-16.5,8.1-24.3,12.7l-0.1,0.1
	l-0.1-0.1c-4-8-7.4-14.3-10.7-19.8L213.4,33z M248.3,40.4c-9.2-1.7-19.8-3.9-34.4-7c3.2,5.5,6.6,11.7,10.5,19.5
	C232.1,48.3,240.3,43.7,248.3,40.4z"/>
<circle fill="#FFFFFF" cx="224.3" cy="53" r="1.9"/>
<path fill="#FFFFFF" d="M257.6,57.9l0.1,0.1c2.5,2.6,4.9,5.3,7,7.6l0.1,0.1l-0.1,0.1c-3.8,2.2-8,4.5-12.3,6.7l-0.3,0.1l0.1-0.3
	c1.9-5.6,3.6-10.3,5.3-14.4L257.6,57.9z M264.4,65.7c-2-2.2-4.3-4.8-6.7-7.4c-1.6,3.9-3.3,8.4-5.1,13.9
	C256.7,70,260.7,67.8,264.4,65.7z"/>
<circle fill="#FFFFFF" cx="264.6" cy="65.7" r="1.9"/>
<path fill="#FFFFFF" d="M164.9,0.8l0.9,0.4c11.7,5.1,23.8,10.2,36,15.2l0.6,0.2l-0.6,0c-4.9,0.1-10,0.4-15.7,0.9l0,0l0,0
	c-2.8-2.2-5.6-4.4-8.3-6.5c-4.1-3.3-8.2-6.5-12.1-9.6L164.9,0.8z M201.2,16.3c-11.7-4.8-23.4-9.7-34.6-14.6c3.7,2.9,7.4,5.9,11.3,9
	c2.7,2.1,5.4,4.3,8.2,6.5C191.5,16.8,196.5,16.5,201.2,16.3z"/>
<circle fill="#FFFFFF" cx="201.7" cy="16.4" r="1.9"/>
<path fill="#FFFFFF" d="M186.9,18.6c9.8,3.6,18.8,6.8,27.3,9.9l0.1,0l0,0.1c-0.1,1.4-0.3,2.9-0.5,4.4l0,0.3l-0.2-0.1
	c-10.5-5.6-19.1-10.2-26.8-14.4L186.9,18.6z M214,28.7c-8-2.8-16.4-5.9-25.6-9.2c7.3,4,15.4,8.3,25.2,13.5
	C213.7,31.5,213.9,30.1,214,28.7z"/>
<circle fill="#FFFFFF" cx="186.8" cy="18.7" r="1.9"/>
<path fill="#FFFFFF" d="M165.7,1.1l0.1,0.1c3.9,3.1,7.9,6.3,12.1,9.6c2.7,2.1,5.5,4.3,8.3,6.5l0.6,0.5l-0.7-0.2
	c-8.7-3-17.4-6.1-25.7-9l-0.2-0.1l0.1-0.1c2.3-2.6,4-4.9,5.4-7.1L165.7,1.1z M185.4,17c-2.6-2.1-5.2-4.1-7.7-6.1
	c-4.1-3.2-8.1-6.4-12-9.5c-1.3,2.1-3,4.3-5.2,6.9C168.5,11.1,177,14.1,185.4,17z"/>
<circle fill="#FFFFFF" cx="160.3" cy="8.4" r="1.9"/>
<path fill="#FFFFFF" d="M211.7,33.7c0.6-0.2,1.2-0.4,1.9-0.6l0.1,0.2c-2.7,1-5.8,2.2-9.2,3.6l0,0l0,0c-0.1,0-0.2-0.1-0.3-0.1
	l-0.4-0.1l0.3-0.1C206.8,35.5,209.3,34.5,211.7,33.7z"/>
<circle fill="#FFFFFF" cx="204.4" cy="36.8" r="1.9"/>
<path fill="#FFFFFF" d="M186.1,18.2l0.8,0.4c7.7,4.2,16.3,8.8,26.8,14.4l0.3,0.1l-0.3,0.1c-0.6,0.2-1.2,0.4-1.9,0.6
	c-2.4,0.8-4.9,1.8-7.7,2.8l-0.1,0l-0.1-0.1c-5.8-6.2-11.6-12.3-17.2-17.9L186.1,18.2z M213.3,33.2c-10.1-5.4-18.3-9.8-25.8-13.9
	c5.4,5.4,11,11.2,16.6,17.2c2.8-1.1,5.3-2,7.6-2.8C212.3,33.5,212.8,33.3,213.3,33.2z"/>
<circle fill="#FFFFFF" cx="204.1" cy="36.6" r="1.9"/>
<path fill="#FFFFFF" d="M213.6,32.8l0.2,0.3c3.3,5.6,6.7,11.9,10.7,19.9l0.2,0.4l-0.4-0.2c-3.6-2.3-7.5-4.7-12.3-7.6l-0.1,0l0-0.3
	c0.6-4.3,1.1-8.4,1.5-12.1L213.6,32.8z M224,52.7c-3.9-7.6-7.2-13.7-10.3-19.1c-0.4,3.6-0.9,7.5-1.5,11.7l0,0.1
	C216.8,48.2,220.5,50.5,224,52.7z"/>
<circle fill="#FFFFFF" cx="224.3" cy="53" r="1.9"/>
<path fill="#FFFFFF" d="M213.8,33l0,0.2c-0.4,3.7-1,7.8-1.5,12.1l-0.1,0.5l-0.2-0.2c-2.6-3-5.1-5.9-7.6-8.7l-0.1-0.1l0.2-0.1
	c3.4-1.4,6.5-2.6,9.2-3.6L213.8,33z M212,45.1c0.6-4.2,1.1-8.2,1.5-11.8c-2.7,1-5.5,2.1-8.8,3.5C207,39.5,209.5,42.3,212,45.1z"/>
<circle fill="#FFFFFF" cx="212.1" cy="45.4" r="1.9"/>
<path fill="#FFFFFF" d="M223.8,52.8l0.6,0.1c13.6,2.4,24.2,4,33.3,5.1l0.2,0l-0.1,0.2c-1.7,4-3.4,8.7-5.3,14.3l-0.1,0.2l-0.1-0.1
	c-8.5-6.1-17.4-12.3-27.9-19.4L223.8,52.8z M257.4,58.2c-8.9-1.1-19.3-2.6-32.5-5c10.3,6.9,19,13,27.3,19
	C254.1,66.7,255.8,62.1,257.4,58.2z"/>
<circle fill="#FFFFFF" cx="224.3" cy="53" r="1.9"/>
<path fill="#FFFFFF" d="M160.4,8.3c8.3,2.9,17.1,6,25.7,9l0,0l0,0c0.3,0.5,0.5,0.8,0.8,1.4l0.2,0.3l-0.3-0.1
	c-8.6-3.3-17.5-6.8-26.5-10.4L160.4,8.3z M186,17.5c-6.5-2.3-13.1-4.6-19.5-6.8c6.8,2.7,13.5,5.3,20.1,7.8
	C186.3,18.1,186.2,17.9,186,17.5z"/>
<circle fill="#FFFFFF" cx="160.3" cy="8.4" r="1.9"/>
<path fill="#FFFFFF" d="M186.8,18.6L186.8,18.6c5.7,5.7,11.5,11.8,17.3,18l0.3,0.3l-0.4-0.1c-3.6-0.7-7.2-1.5-10.9-2.2
	c-5.5-1.1-11.1-2.3-16.9-3.4l-0.2,0l0.1-0.2c4.4-4.9,7.7-8.8,10.5-12.2L186.8,18.6z M203.7,36.4c-5.7-6.1-11.3-12-16.9-17.5
	c-2.8,3.4-6,7.2-10.3,12c5.7,1.2,11.3,2.3,16.7,3.4C196.8,35,200.3,35.7,203.7,36.4z"/>
<circle fill="#FFFFFF" cx="176.3" cy="31" r="1.9"/>
<path fill="#FFFFFF" d="M224,52.7l0.4,0.3c10.6,7.1,19.5,13.3,27.9,19.4l0.5,0.4l-0.6-0.1c-6.4-1.5-13.2-3.2-20.9-5.1l-0.1,0l0-0.1
	c-2.8-5.7-5-10.2-7.1-14.3L224,52.7z M251.7,72.2c-8.2-5.9-16.9-11.9-27-18.8c2,4,4.2,8.4,6.8,13.9
	C238.9,69.1,245.5,70.7,251.7,72.2z"/>
<circle fill="#FFFFFF" cx="231.4" cy="67.4" r="1.9"/>
<path fill="#FFFFFF" d="M203.6,36.4l0.6,0.2c0.1,0,0.2,0.1,0.3,0.1l0,0l0,0c2.5,2.8,5.1,5.7,7.6,8.7l-0.2,0.2
	c-2.6-2.9-5.3-5.8-8-8.8L203.6,36.4z"/>
<circle fill="#FFFFFF" cx="212.1" cy="45.4" r="1.9"/>
<path fill="#FFFFFF" d="M211.4,44.9l0.8,0.5c4.8,2.9,8.7,5.3,12.3,7.6l0,0l0,0c2.1,4.1,4.3,8.7,7.1,14.3l0.4,0.9l-0.6-0.7
	c-6.5-7.6-13-15-19.3-21.9L211.4,44.9z M224.2,53.1c-3.4-2.1-7.1-4.4-11.5-7.1c5.9,6.5,12,13.4,18.1,20.5
	C228.3,61.3,226.2,57,224.2,53.1z"/>
<circle fill="#FFFFFF" cx="231.4" cy="67.4" r="1.9"/>
<path fill="#FFFFFF" d="M160,8.1l0.4,0.2c9,3.6,17.9,7.1,26.5,10.4l0.2,0.1l-0.1,0.1c-2.8,3.5-6.2,7.3-10.5,12.2l-0.1,0.1l-0.1-0.1
	c-5.9-8.5-11.2-15.9-16-22.6L160,8.1z M186.6,18.8c-8.4-3.2-17.1-6.7-25.9-10.2c4.7,6.5,9.8,13.8,15.6,22.1
	C180.6,26,183.9,22.2,186.6,18.8z"/>
<circle fill="#FFFFFF" cx="186.8" cy="18.7" r="1.9"/>
<path fill="#FFFFFF" d="M176.3,30.9c5.8,1.2,11.4,2.3,16.9,3.4c3.7,0.8,7.3,1.5,10.9,2.2l0,0l0,0c2.7,2.9,5.4,5.9,8,8.8l0.4,0.4
	l-0.5-0.2c-11.3-4.5-23.3-9.4-35.8-14.5L176.3,30.9z M204,36.8c-3.5-0.7-7.2-1.5-10.8-2.2c-5-1-10.2-2.1-15.6-3.2
	c11.8,4.8,23.3,9.5,34,13.8C209.1,42.4,206.6,39.6,204,36.8z"/>
<circle fill="#FFFFFF" cx="212.1" cy="45.4" r="1.9"/>
<path fill="#FFFFFF" d="M264.7,65.5l0,0.2c2.3,15.7,6.3,34,12.3,56.1l0.3,1.2l-0.5-1.1c-8.4-16.6-15.3-30.5-21.3-42.7
	c-1.1-2.3-2.2-4.5-3.3-6.6l-0.1-0.1l0.1-0.1c4.3-2.2,8.5-4.5,12.3-6.7L264.7,65.5z M276.4,120.7c-5.8-21.5-9.7-39.4-11.9-54.7
	c-3.7,2.2-7.8,4.4-12,6.6c1,2.1,2.1,4.3,3.2,6.5C261.6,91,268.2,104.6,276.4,120.7z"/>
<circle fill="#FFFFFF" cx="276.8" cy="121.8" r="1.9"/>
<path fill="#FFFFFF" d="M160.3,8.1l0.2,0.2c4.8,6.7,10,14.1,16,22.6l0.1,0.2l-0.2,0c-7.5,0.6-15.5,1.3-24.4,2.1l-0.2,0l0.1-0.2
	c4-10.1,6.9-17.8,8.4-24.6L160.3,8.1z M176.1,30.9c-5.8-8.4-11-15.6-15.7-22.2c-1.6,6.8-4.3,14.3-8.3,24.2
	C160.8,32.1,168.7,31.5,176.1,30.9z"/>
<circle fill="#FFFFFF" cx="151.9" cy="33" r="1.9"/>
<path fill="#FFFFFF" d="M231.3,67.2l0.2,0c7.7,1.9,14.5,3.6,20.9,5.1l0.2,0.1l-0.2,0.2c-6.9,6.8-13.2,12.8-19.8,18.7l-0.2,0.2l0-0.3
	c-0.5-8.3-0.9-16.1-1.1-23.8L231.3,67.2z M252,72.5c-6.3-1.5-13-3.1-20.5-5c0.2,7.6,0.6,15.2,1.1,23.4
	C239.1,85.1,245.3,79.2,252,72.5z"/>
<circle fill="#FFFFFF" cx="231.4" cy="67.4" r="1.9"/>
<path fill="#FFFFFF" d="M252.2,72l0.2,0.4c1.1,2.1,2.1,4.4,3.3,6.6c6,12.2,12.9,26.1,21.3,42.7l0.1,0.2l-0.3,0
	c-7.9-1.5-16.7-3.4-27.7-5.8l-0.1,0l0-0.1c0.7-17.4,1.8-31.6,3.2-43.6L252.2,72z M276.6,121.6c-8.4-16.5-15.2-30.3-21.2-42.5
	c-1.1-2.2-2.1-4.2-3.1-6.3c-1.4,11.9-2.4,26-3.1,43C260.1,118.3,268.8,120.1,276.6,121.6z"/>
<circle fill="#FFFFFF" cx="276.8" cy="121.8" r="1.9"/>
<path fill="#FFFFFF" d="M212,45.2l0.1,0.1c6.3,6.9,12.8,14.3,19.3,21.9l0.1,0.1l-0.2,0.1c-10.6,3-22.6,6.1-35.5,9l-0.3,0.1l0.1-0.2
	c6.3-12.5,11.6-22.6,16.1-31L212,45.2z M231.2,67.3c-6.4-7.5-12.9-14.8-19.1-21.6c-4.5,8.3-9.7,18.3-15.9,30.6
	C208.9,73.3,220.6,70.3,231.2,67.3z"/>
<circle fill="#FFFFFF" cx="231.4" cy="67.4" r="1.9"/>
<path fill="#FFFFFF" d="M118.5,0L118.5,0c13.5,2.3,27.2,5,41.8,8.2l0,0.2c-14-0.9-29.7-1.3-47.8-1.4l-0.3,0l0.2-0.2
	C114.8,4.3,116.8,2.1,118.5,0L118.5,0z M158.7,8.1c-14-3.1-27.2-5.7-40.1-7.9c-1.7,1.9-3.6,4.1-5.8,6.6
	C130.1,6.9,145.2,7.3,158.7,8.1z"/>
<circle fill="#FFFFFF" cx="112.5" cy="6.9" r="1.9"/>
<path fill="#FFFFFF" d="M231.5,66.9l0,0.5c0.2,7.7,0.6,15.5,1.1,23.8l0,0.1l-0.1,0c-4.9-0.2-7.5-0.4-12.7-0.7l-0.2,0l0.1-0.2
	c4.9-10,8.5-17.1,11.6-23.1L231.5,66.9z M232.4,91c-0.5-8.1-0.9-15.7-1.1-23.2c-3,5.9-6.5,12.9-11.3,22.5
	C225,90.7,227.6,90.8,232.4,91z"/>
<circle fill="#FFFFFF" cx="219.8" cy="90.5" r="1.9"/>
<path fill="#FFFFFF" d="M176.1,30.8l0.3,0.1c12.4,5.1,24.5,9.9,35.7,14.5l0.1,0.1l-0.1,0.1c-4.6,8.3-9.9,18.5-16.1,31l-0.1,0.2
	l-0.1-0.2c-4.9-11.2-9.2-21.1-13-30c-2.3-5.5-4.6-10.7-6.6-15.5L176.1,30.8z M211.9,45.5c-11.1-4.5-23-9.3-35.3-14.3
	c2,4.7,4.2,9.8,6.5,15.2c3.7,8.7,8,18.7,12.9,29.7C202.1,63.8,207.4,53.8,211.9,45.5z"/>
<circle fill="#FFFFFF" cx="212.1" cy="45.4" r="1.9"/>
<path fill="#FFFFFF" d="M252.5,72.1l0,0.4c-1.4,12-2.5,26.2-3.2,43.6l0,0.4l-0.2-0.3c-6.4-9.7-11.9-17.8-16.6-24.9l-0.1-0.1l0.1-0.1
	c6.6-5.9,12.9-11.9,19.8-18.7L252.5,72.1z M249,115.6c0.7-17,1.7-31,3.1-42.9c-6.8,6.7-13,12.5-19.5,18.4
	C237.3,98.1,242.7,106.2,249,115.6z"/>
<circle fill="#FFFFFF" cx="232.5" cy="91.1" r="1.9"/>
<path fill="#FFFFFF" d="M112.1,6.8l0.4,0c18.1,0.1,33.8,0.5,47.8,1.4l0.1,0l0,0.1c-1.6,6.9-4.4,14.6-8.4,24.7l-0.1,0.1l-0.1-0.1
	c-12.4-7.8-26.8-17-39.4-26.1L112.1,6.8z M160.2,8.5c-13.9-0.9-29.4-1.3-47.3-1.4c12.4,9,26.6,18.1,38.9,25.8
	C155.8,22.9,158.6,15.3,160.2,8.5z"/>
<circle fill="#FFFFFF" cx="112.5" cy="6.9" r="1.9"/>
<path fill="#FFFFFF" d="M195.6,76.4l0.3-0.1c12.9-3,24.8-6,35.5-9l0.3-0.1l-0.1,0.3c-3.1,6-6.7,13.1-11.6,23.1l-0.1,0.1l-0.1-0.1
	c-7.6-4.6-15.5-9.2-23.9-14.1L195.6,76.4z M231.2,67.6c-10.5,3-22.2,6-34.9,8.9c8.3,4.8,16,9.3,23.5,13.8
	C224.6,80.5,228.1,73.5,231.2,67.6z"/>
<circle fill="#FFFFFF" cx="219.8" cy="90.5" r="1.9"/>
<path fill="#FFFFFF" d="M151.6,32.9l0.3,0c8.9-0.8,16.9-1.5,24.4-2.1l0.1,0l0,0.1c2.1,4.8,4.3,10,6.6,15.5c3.8,8.8,8,18.8,13,30
	l0.3,0.6l-0.5-0.5c-3.7-3.6-7.3-7.2-10.9-10.6c-11.9-11.7-23.2-22.7-33.1-32.7L151.6,32.9z M176.2,31.1c-7.4,0.6-15.3,1.2-24,2
	c9.9,10,21.1,20.9,32.9,32.5c3.4,3.3,6.9,6.7,10.4,10.2c-4.8-10.9-9-20.7-12.7-29.4C180.5,41,178.3,35.9,176.2,31.1z"/>
<circle fill="#FFFFFF" cx="151.9" cy="33" r="1.9"/>
<path fill="#FFFFFF" d="M112.5,6.8L112.5,6.8c12.6,9.2,27,18.4,39.5,26.1l-0.1,0.2c-15-5.7-32.9-12.5-51.4-19.5l-0.3-0.1l0.2-0.1
	C104.8,11.1,108.8,8.9,112.5,6.8L112.5,6.8z M150.8,32.5c-12.2-7.6-26.1-16.5-38.3-25.4c-3.5,2-7.5,4.2-11.7,6.4
	C118.7,20.3,136,26.9,150.8,32.5z"/>
<circle fill="#FFFFFF" cx="151.9" cy="33" r="1.9"/>
<path fill="#FFFFFF" d="M118.5,0l0.2,0.2c-1.7,2-3.7,4.2-6.1,6.8l0,0c-3.6,2.1-7.7,4.3-12,6.6l-0.1-0.2C107.9,8.2,113.8,3.8,118.5,0
	z M112.4,6.8c1.9-2.1,3.6-4,5.2-5.8c-4.2,3.3-9.2,7-15.3,11.4C105.9,10.5,109.3,8.6,112.4,6.8z"/>
<circle fill="#FFFFFF" cx="100.5" cy="13.5" r="1.9"/>
<path fill="#FFFFFF" d="M248.3,115.7l0.8,0.2c11,2.4,19.8,4.2,27.7,5.8l0.1,0l0,0.1c-0.7,3.6-1,5.4-1.8,9l0,0.2l-0.2-0.1
	c-9.3-5.6-18.3-10.6-26-14.8L248.3,115.7z M276.7,121.9c-7.7-1.5-16.2-3.3-26.8-5.6c7.4,4.1,16.1,8.9,25.1,14.3
	C275.7,127.1,276,125.4,276.7,121.9z"/>
<circle fill="#FFFFFF" cx="275.1" cy="130.8" r="1.9"/>
<path fill="#FFFFFF" d="M219.5,90.3l0.4,0c5.2,0.3,7.7,0.5,12.7,0.7l0.1,0l0,0.1c4.7,7.1,10.2,15.2,16.6,24.9l0.6,0.8l-0.7-0.7
	c-9.4-8.5-19-16.8-29.3-25.6L219.5,90.3z M232.4,91.3c-4.8-0.2-7.3-0.4-12.2-0.7c9.9,8.4,19.1,16.5,28.2,24.7
	C242.3,106,237,98.1,232.4,91.3z"/>
<circle fill="#FFFFFF" cx="219.8" cy="90.5" r="1.9"/>
<path fill="#FFFFFF" d="M100.5,13.4L100.5,13.4c18.5,7,36.4,13.8,51.4,19.5l1.1,0.4l-1.2-0.2c-25.7-4.2-48.4-7.5-71.5-10.4l-0.4-0.1
	l0.4-0.2C87.5,19.4,94.3,16.3,100.5,13.4L100.5,13.4z M150.7,32.7c-14.8-5.6-32.2-12.3-50.2-19c-6,2.8-12.7,5.8-19.7,8.9
	C103.4,25.4,125.7,28.6,150.7,32.7z"/>
<circle fill="#FFFFFF" cx="80.4" cy="22.7" r="1.9"/>
<path fill="#FFFFFF" d="M118.5,0l0.1,0.2c-4.7,3.8-10.6,8.2-18,13.4c-6.2,2.9-13,5.9-20.2,9.1l-0.1-0.2C97.9,12.8,109.7,5.9,118.5,0
	z M82.9,21.4c6.3-2.8,12.2-5.5,17.6-8C106.8,9,112,5.2,116.3,1.8C108.2,7.1,97.7,13.2,82.9,21.4z"/>
<circle fill="#FFFFFF" cx="80.4" cy="22.7" r="1.9"/>
<path fill="#FFFFFF" d="M151.7,32.7l0.3,0.3c9.9,10.1,21.2,21.1,33.1,32.7c3.5,3.5,7.2,7,10.9,10.6l0.1,0.1l-0.1,0.1
	c-9,7.6-17.8,14.9-26.9,22.1l-0.1,0.1l-0.1-0.2c-9.4-28.3-14-49.9-17.1-65.4L151.7,32.7z M195.7,76.4c-3.7-3.6-7.3-7.1-10.8-10.6
	c-11.8-11.5-23-22.4-32.8-32.4c3,15.5,7.7,36.8,16.9,64.8C178.1,91.1,186.8,84,195.7,76.4z"/>
<circle fill="#FFFFFF" cx="169" cy="98.5" r="1.9"/>
<path fill="#FFFFFF" d="M219.8,90.2l0.2,0.1c10.3,8.7,19.8,17.1,29.3,25.6l0.1,0.1l-0.2,0.1c-11.1,6.2-23.8,12.1-38.9,18l-0.2,0.1
	l0-0.2c3.2-15.8,6.4-30,9.6-43.5L219.8,90.2z M248.9,116c-9.3-8.4-18.8-16.7-29-25.3c-3.2,13.3-6.3,27.4-9.5,43.1
	C225.3,128,237.9,122.2,248.9,116z"/>
<circle fill="#FFFFFF" cx="210.2" cy="134" r="1.9"/>
<path fill="#FFFFFF" d="M195.9,76.2L195.9,76.2c8.5,4.9,16.3,9.5,24,14.1l0.3,0.2l-0.3,0.1c-14.5,2.8-31.1,5.4-50.8,8l-0.4,0.1
	l0.4-0.3C178,91.2,186.8,83.9,195.9,76.2L195.9,76.2z M219.5,90.4c-7.5-4.5-15.2-9-23.5-13.9c-8.9,7.5-17.6,14.6-26.5,21.7
	C188.8,95.7,205.2,93.1,219.5,90.4z"/>
<circle fill="#FFFFFF" cx="169" cy="98.5" r="1.9"/>
<path fill="#FFFFFF" d="M152,32.8l0,0.2c3,15.6,7.7,37.1,17.1,65.4l0.1,0.2l-0.2,0c-9-0.4-18.4-0.9-28.2-1.3
	c-16.8-0.8-34.2-1.6-53.4-2.5l-0.3,0l0.2-0.2c10.8-10.3,20.4-19.4,28.9-27.4c15-14.2,26.8-25.3,35.7-34.2L152,32.8z M168.8,98.3
	c-9.3-28.1-13.9-49.5-17-65c-9,8.8-20.7,19.9-35.6,34c-8.4,8-17.9,17-28.6,27.2c19.1,0.9,36.4,1.7,53.1,2.5
	C150.6,97.5,159.9,97.9,168.8,98.3z"/>
<circle fill="#FFFFFF" cx="169" cy="98.5" r="1.9"/>
<path fill="#FFFFFF" d="M80.3,22.5L80.3,22.5c23.2,2.9,45.9,6.2,71.6,10.4l0.6,0.1l-0.6,0.1c-25.6,6.6-56.6,14.5-101,24.3l-0.3,0.1
	l0.2-0.3C59.9,45.2,69.3,34.2,80.3,22.5L80.3,22.5z M151.3,33.1c-25.4-4.1-48-7.4-70.9-10.3C69.5,34.3,60.2,45.2,51.2,57.1
	C95.1,47.4,125.9,39.6,151.3,33.1z"/>
<circle fill="#FFFFFF" cx="80.4" cy="22.7" r="1.9"/>
<path fill="#FFFFFF" d="M168.7,98.4l0.3,0c19.7-2.6,36.3-5.2,50.8-8l0.2,0l0,0.2c-3.3,13.5-6.4,27.7-9.6,43.5l0,0.2l-0.2-0.1
	c-12.7-11.1-25.8-22.4-41.2-35.5L168.7,98.4z M219.7,90.6c-14.4,2.8-30.9,5.3-50.4,7.9c15.3,13,28.3,24.1,40.8,35.2
	C213.3,118.1,216.4,104,219.7,90.6z"/>
<circle fill="#FFFFFF" cx="169" cy="98.5" r="1.9"/>
<path fill="#FFFFFF" d="M50.6,57.3l0.2,0c44.5-9.8,75.5-17.7,101-24.3l0.5-0.1l-0.3,0.3c-9,8.8-20.8,20-35.7,34.2
	c-8.4,8-18,17.1-28.9,27.4l-0.1,0.1l-0.1-0.1C72.1,80.3,60.5,68.4,50.8,57.4L50.6,57.3z M151.5,33.3c-25.4,6.6-56.3,14.4-100.4,24.1
	c9.7,10.9,21.2,22.7,36.2,37c10.8-10.3,20.3-19.3,28.8-27.3C130.9,53.1,142.6,42.1,151.5,33.3z"/>
<circle fill="#FFFFFF" cx="87.3" cy="94.6" r="1.9"/>
<path fill="#FFFFFF" d="M84.6,103.9l0.9-0.1c34.5-2,61-3.7,83.5-5.6l0.1,0l0,0c15.4,13.1,28.5,24.4,41.2,35.5l0.4,0.4l-0.5-0.1
	c-40.6-11.1-81.4-20.9-124.7-30L84.6,103.9z M169,98.6c-22.2,1.8-48.5,3.6-82.5,5.5c42.7,9,83.1,18.7,123.2,29.6
	C197.2,122.7,184.2,111.5,169,98.6z"/>
<circle fill="#FFFFFF" cx="85.5" cy="104" r="1.9"/>
<path fill="#FFFFFF" d="M87.2,94.5l0.1,0c19.2,0.9,36.6,1.7,53.4,2.5c9.9,0.5,19.3,0.9,28.2,1.3l0,0.2c-22.5,1.8-49,3.6-83.5,5.6
	l-0.2,0l0-0.2c0.6-3.7,1-5.6,1.8-9.4L87.2,94.5z M167,98.5c-8.4-0.4-17.1-0.8-26.3-1.3c-16.8-0.8-34.2-1.6-53.3-2.5
	c-0.8,3.7-1.1,5.6-1.7,9.2C119.1,102,145,100.3,167,98.5z"/>
<circle fill="#FFFFFF" cx="85.5" cy="104" r="1.9"/>
<path fill="#FFFFFF" d="M81,22.2l-0.5,0.5C69.4,34.4,60.1,45.4,51,57.4l0,0l-0.1,0C35,59,18.5,60.6,1.9,62.1l-0.7,0.1l0.6-0.3
	C37,44.5,61.4,32.3,80.3,22.6L81,22.2z M50.8,57.2c9-11.8,18.2-22.7,29-34.1C61.1,32.7,36.9,44.7,2.5,61.8
	C18.9,60.3,35.2,58.7,50.8,57.2z"/>
<circle fill="#FFFFFF" cx="1.9" cy="62" r="1.9"/>
<path fill="#FFFFFF" d="M80.3,22.6l0.1,0.2C61.5,32.5,37.1,44.7,1.9,62.1l-0.1-0.2C37,44.5,61.4,32.3,80.3,22.6z"/>
<circle fill="#FFFFFF" cx="80.4" cy="22.7" r="1.9"/>
<path fill="#FFFFFF" d="M50.9,57.2L50.9,57.2c9.8,11.1,21.4,22.9,36.5,37.3l0.3,0.2l-0.4,0c-23.6-2.4-46.8-4.5-70.9-6.4l-0.3,0
	l0.2-0.2C27.7,77.5,38.9,67.4,50.9,57.2L50.9,57.2z M87,94.4c-15-14.3-26.5-26-36.1-36.9C39.1,67.6,27.9,77.6,16.7,88.1
	C40.6,90,63.6,92.1,87,94.4z"/>
<circle fill="#FFFFFF" cx="16.4" cy="88.2" r="1.9"/>
<path fill="#FFFFFF" d="M1.7,61.9l0.2,0c16.6-1.6,33.1-3.1,49-4.7l0.4,0L51,57.4C39.1,67.6,27.8,77.7,16.5,88.3l-0.1,0.1l-0.1-0.1
	C10,78.8,5.3,70.3,1.8,62.1L1.7,61.9z M50.5,57.5c-15.7,1.5-32,3.1-48.4,4.6c3.5,8.1,8.2,16.6,14.4,25.8
	C27.6,77.5,38.8,67.5,50.5,57.5z"/>
<circle fill="#FFFFFF" cx="16.4" cy="88.2" r="1.9"/>
<path fill="#FFFFFF" d="M19,107c24.4-4.2,47.3-8.4,68.3-12.5l0.2,0l0,0.2c-0.8,3.8-1.2,5.7-1.8,9.4l0,0.1l-0.1,0
	c-19.5,0.9-41.3,2-66.6,3.1L19,107z M87.2,94.8c-20.4,4-42.6,8.1-66.2,12.1c24.4-1.1,45.5-2.1,64.5-3C86,100.3,86.4,98.4,87.2,94.8z
	"/>
<circle fill="#FFFFFF" cx="85.5" cy="104" r="1.9"/>
<path fill="#FFFFFF" d="M16.3,88l0.1,0c24.1,2,47.3,4.1,70.9,6.4l0.8,0.1l-0.8,0.2c-21,4.1-44,8.3-68.3,12.5l-0.1,0l0-0.1
	c-1.3-6.4-2.2-12.8-2.6-19L16.3,88z M86.5,94.6c-23.3-2.3-46.1-4.4-69.9-6.3c0.4,6.1,1.2,12.4,2.5,18.7
	C43.1,102.8,65.7,98.7,86.5,94.6z"/>
<circle fill="#FFFFFF" cx="16.4" cy="88.2" r="1.9"/>
<path fill="#FFFFFF" d="M2,62c3.5,8.2,8.3,16.8,14.5,26.1l-0.2,0.1C10,78.8,5.3,70.3,1.8,62.1L2,62z"/>
<circle fill="#FFFFFF" cx="1.9" cy="62" r="1.9"/>
</svg>
